<?xml version="1.0" standalone="no"?>
<!DOCTYPE svg PUBLIC "-//W3C//DTD SVG 1.1//EN" "http://www.w3.org/Graphics/SVG/1.1/DTD/svg11.dtd" >
<svg xmlns="http://www.w3.org/2000/svg" xmlns:xlink="http://www.w3.org/1999/xlink" version="1.1">
<metadata>
Created by FontForge 20190801 at Mon Jan 21 13:38:24 2019
 By Mark Brand
Copyright (c) 2016 by Martin Va'cha. All rights reserved.
</metadata>
<defs>
<font id="Matter-MediumItalic" horiz-adv-x="585" >
  <font-face 
    font-family="Matter-MediumItalic"
    font-weight="500"
    font-style="italic"
    font-stretch="normal"
    units-per-em="1000"
    panose-1="0 0 6 0 0 0 0 0 0 0"
    ascent="810"
    descent="-190"
    x-height="504"
    cap-height="700"
    bbox="-370 -212 1661 1086"
    underline-thickness="50"
    underline-position="-100"
    slope="-9"
    unicode-range="U+000D-F8FF"
  />
<missing-glyph horiz-adv-x="1085" 
d="M52 309q0 201 141 347t341 154v-1000q-99 3 -188 44t-153.5 107.5t-102.5 157.5t-38 190zM570 806q62 -21 105.5 -165t43.5 -332t-43.5 -331t-105.5 -165v993zM894 309q0 -168 -69.5 -301.5t-178.5 -178.5q51 66 80.5 194.5t29.5 285.5t-29.5 286t-80.5 196
q109 -46 178.5 -180.5t69.5 -301.5zM1052 309q0 -151 -83.5 -276.5t-220.5 -182.5q84 73 133.5 195t49.5 264q0 141 -49.5 264t-133.5 196q137 -58 220.5 -183.5t83.5 -276.5z" />
    <glyph glyph-name=".notdef" horiz-adv-x="1085" 
d="M52 309q0 201 141 347t341 154v-1000q-99 3 -188 44t-153.5 107.5t-102.5 157.5t-38 190zM570 806q62 -21 105.5 -165t43.5 -332t-43.5 -331t-105.5 -165v993zM894 309q0 -168 -69.5 -301.5t-178.5 -178.5q51 66 80.5 194.5t29.5 285.5t-29.5 286t-80.5 196
q109 -46 178.5 -180.5t69.5 -301.5zM1052 309q0 -151 -83.5 -276.5t-220.5 -182.5q84 73 133.5 195t49.5 264q0 141 -49.5 264t-133.5 196q137 -58 220.5 -183.5t83.5 -276.5z" />
    <glyph glyph-name=".null" horiz-adv-x="0" 
 />
    <glyph glyph-name="nonmarkingreturn" horiz-adv-x="333" 
 />
    <glyph glyph-name="CR" unicode="&#xd;" horiz-adv-x="240" 
 />
    <glyph glyph-name="space" unicode=" " horiz-adv-x="240" 
 />
    <glyph glyph-name="exclam" unicode="!" horiz-adv-x="283" 
d="M96 214l50 486h137l-104 -486h-83zM119 -8q-31 0 -51 20t-20 50t20 50t51 20t51 -20t20 -50t-20 -50t-51 -20z" />
    <glyph glyph-name="quotedbl" unicode="&#x22;" horiz-adv-x="390" 
d="M108 482l11 226h122l-60 -226h-73zM286 482l11 226h122l-60 -226h-73z" />
    <glyph glyph-name="numbersign" unicode="#" horiz-adv-x="687" 
d="M685 417h-137l-50 -134h123l-13 -83h-142l-75 -200h-87l75 200h-146l-76 -200h-86l75 200h-122l13 83h141l50 134h-127l13 83h146l75 200h87l-76 -200h147l75 200h87l-75 -200h118zM411 283l50 134h-146l-51 -134h147z" />
    <glyph glyph-name="dollar" unicode="$" horiz-adv-x="589" 
d="M216 515q0 -29 25 -49t62.5 -30t81 -26t81 -35.5t62.5 -60t25 -97.5q0 -92 -68 -154t-178 -70l-15 -97l-99 1l16 102q-84 18 -134.5 75t-51.5 139l111 24q-3 -65 40 -104t113 -39q64 0 103.5 31t39.5 81q0 33 -24.5 56.5t-62 35.5t-80.5 28.5t-80.5 35t-62 55.5t-24.5 88
q0 81 64 137.5t161 64.5l14 89h99l-15 -95q78 -15 125 -61t50 -113l-112 -32q-2 51 -40 81t-100 30q-60 0 -93 -25t-33 -66z" />
    <glyph glyph-name="percent" unicode="%" horiz-adv-x="798" 
d="M210 356q-64 0 -101.5 41t-37.5 106q0 88 56 146.5t139 58.5q64 0 101 -40.5t37 -106.5q0 -88 -55.5 -146.5t-138.5 -58.5zM78 0l579 700h93l-579 -700h-93zM222 433q42 0 68.5 34t26.5 87q0 36 -16.5 56.5t-46.5 20.5q-43 0 -69.5 -33.5t-26.5 -86.5q0 -36 17 -57
t47 -21zM568 -8q-64 0 -101.5 41t-37.5 106q0 88 55.5 146.5t138.5 58.5q64 0 101 -40.5t37 -106.5q0 -88 -55 -146.5t-138 -58.5zM580 69q42 0 68 34t26 87q0 36 -16.5 56.5t-46.5 20.5q-42 0 -68.5 -33.5t-26.5 -86.5q0 -36 17 -57t47 -21z" />
    <glyph glyph-name="ampersand" unicode="&#x26;" horiz-adv-x="673" 
d="M639 250l-114 -112l99 -138h-138l-45 64q-103 -72 -205 -72q-88 0 -142 51t-54 132q0 83 45 132t124 85q-45 71 -45 125q0 87 57.5 139t148.5 52q68 0 109 -40t41 -106q0 -74 -40 -120t-112 -83l96 -134l105 100zM268 530q0 -29 44 -93q52 23 79 47.5t27 61.5
q0 29 -18 47t-46 18q-38 0 -62 -22t-24 -59zM258 94q56 0 122 55l-115 162q-54 -26 -83 -54.5t-29 -70.5t28.5 -67t76.5 -25z" />
    <glyph glyph-name="quotesingle" unicode="'" horiz-adv-x="212" 
d="M108 482l11 226h122l-60 -226h-73z" />
    <glyph glyph-name="parenleft" unicode="(" horiz-adv-x="284" 
d="M127 -178q-49 75 -75 174.5t-26 202.5q0 160 65.5 308t186.5 272l66 -56q-213 -247 -213 -514q0 -180 79 -330z" />
    <glyph glyph-name="parenright" unicode=")" horiz-adv-x="284" 
d="M25 -178l-66 57q109 128 161 252.5t52 262.5q0 182 -79 329l83 56q49 -74 75 -173.5t26 -202.5q0 -320 -252 -581z" />
    <glyph glyph-name="asterisk" unicode="*" horiz-adv-x="488" 
d="M498 514l-151 -42l73 -120l-74 -50l-72 125l-112 -125l-59 50l110 120l-136 42l37 81l138 -46l23 151h84l-25 -151l152 46z" />
    <glyph glyph-name="plus" unicode="+" horiz-adv-x="555" 
d="M543 375l-14 -94h-198l-31 -197h-94l31 198h-198l15 94h198l31 197h94l-32 -198h198z" />
    <glyph glyph-name="comma" unicode="," horiz-adv-x="282" 
d="M-31 -117l100 238h135l-162 -238h-73z" />
    <glyph glyph-name="hyphen" unicode="-" horiz-adv-x="367" 
d="M28 242l15 94h311l-15 -94h-311z" />
    <glyph glyph-name="period" unicode="." horiz-adv-x="273" 
d="M108 -8q-31 0 -51 20t-20 50t20 50t51 20t51 -20t20 -50t-20 -50t-51 -20z" />
    <glyph glyph-name="slash" unicode="/" horiz-adv-x="442" 
d="M-31 -1l425 701h113l-426 -701h-112z" />
    <glyph glyph-name="zero" unicode="0" horiz-adv-x="636" 
d="M285 -8q-106 0 -171.5 72t-66.5 191q-2 196 92 324.5t247 128.5q107 0 172 -73t65 -194q0 -194 -94 -321.5t-244 -127.5zM298 95q92 0 148.5 98.5t56.5 239.5q0 78 -36 124.5t-95 47.5q-91 1 -148 -97.5t-57 -239.5q0 -79 36 -126t95 -47z" />
    <glyph glyph-name="one" unicode="1" horiz-adv-x="365" 
d="M149 0l90 565q-75 -56 -175 -76l17 105q108 23 198 106h90l-111 -700h-109z" />
    <glyph glyph-name="two" unicode="2" horiz-adv-x="568" 
d="M-9 0l15 97l289 217q76 57 109.5 102.5t33.5 92.5q0 43 -29 70t-75 27q-65 0 -106 -44t-46 -118l-111 8q6 111 86.5 183.5t192.5 72.5q93 0 150.5 -51.5t57.5 -133.5q0 -76 -47.5 -142.5t-156.5 -144.5l-180 -133h318l-16 -103h-485z" />
    <glyph glyph-name="three" unicode="3" horiz-adv-x="581" 
d="M242 -8q-106 0 -167.5 56t-56.5 149l110 17q-1 -54 35 -86.5t96 -32.5q71 0 117.5 41.5t46.5 107.5q0 50 -31.5 78.5t-88.5 28.5q-44 0 -81 -22l-38 78l232 191h-314l16 102h457l-16 -97l-215 -174q91 5 145 -42t54 -132q0 -116 -84.5 -189.5t-216.5 -73.5z" />
    <glyph glyph-name="four" unicode="4" horiz-adv-x="623" 
d="M344 0l24 157h-359l16 102l417 441h130l-70 -441h94l-17 -102h-93l-25 -157h-117zM148 259h236l48 303z" />
    <glyph glyph-name="five" unicode="5" horiz-adv-x="577" 
d="M250 -8q-103 0 -164.5 53t-61.5 141l110 19q2 -50 36.5 -80t91.5 -30q70 0 114.5 45t44.5 116q0 54 -32.5 84.5t-91.5 30.5q-89 0 -153 -76l-82 18l118 387h381l-16 -102h-294l-58 -185q63 53 145 53q94 0 148.5 -54t54.5 -143q0 -122 -81.5 -199.5t-209.5 -77.5z" />
    <glyph glyph-name="six" unicode="6" horiz-adv-x="610" 
d="M356 471q95 0 153.5 -57t58.5 -148q0 -118 -82 -196t-201 -78q-110 0 -175 73t-65 194q0 206 115.5 327.5t281.5 121.5q117 0 188 -68l-69 -87q-53 53 -135 53q-95 0 -165 -62.5t-90 -165.5q31 44 80.5 68.5t104.5 24.5zM293 95q64 0 109 44.5t48 111.5q4 56 -29.5 91
t-91.5 35q-71 0 -119 -44t-48 -114q0 -55 36 -89.5t95 -34.5z" />
    <glyph glyph-name="seven" unicode="7" horiz-adv-x="556" 
d="M71 0q73 261 392 598h-376l16 102h497l-16 -102q-339 -371 -395 -598h-118z" />
    <glyph glyph-name="eight" unicode="8" horiz-adv-x="579" 
d="M256 -8q-101 0 -165 50t-64 133q0 70 44.5 125.5t114.5 76.5q-36 18 -57 52.5t-21 74.5q0 86 71.5 145t180.5 59q90 0 145 -45.5t55 -116.5q0 -55 -34.5 -101t-89.5 -68q48 -16 75.5 -57t27.5 -93q0 -104 -78.5 -169.5t-204.5 -65.5zM319 420q56 0 93 32t37 82
q0 37 -28 59t-75 22q-57 0 -92.5 -30.5t-35.5 -79.5q0 -39 27 -62t74 -23zM270 90q68 0 110.5 36.5t42.5 95.5q0 45 -32.5 72t-88.5 27q-70 0 -113.5 -36.5t-43.5 -95.5q0 -44 34 -71.5t91 -27.5z" />
    <glyph glyph-name="nine" unicode="9" horiz-adv-x="608" 
d="M286 229q-96 0 -154 57t-58 148q0 118 82 196t201 78q109 0 174 -73t65 -194q0 -104 -32 -190t-87 -142t-126 -86.5t-151 -30.5q-117 0 -188 68l69 87q52 -52 134 -52q95 0 165 62t91 165q-31 -44 -80.5 -68.5t-104.5 -24.5zM348 606q-63 0 -108 -45t-48 -112
q-4 -56 29.5 -91t91.5 -35q71 0 119 44t48 114q0 55 -36 90t-96 35z" />
    <glyph glyph-name="colon" unicode=":" horiz-adv-x="273" 
d="M165 372q-31 0 -51 20t-20 50t20 50t51 20q30 0 50.5 -20t20.5 -50t-20.5 -50t-50.5 -20zM108 -8q-31 0 -51 20t-20 50t20 50t51 20q30 0 50.5 -20t20.5 -50t-20.5 -50t-50.5 -20z" />
    <glyph glyph-name="semicolon" unicode=";" horiz-adv-x="291" 
d="M196 358q-28 0 -45 17t-17 43q0 33 24.5 56.5t58.5 23.5q27 0 44 -17t17 -43q0 -33 -24.5 -56.5t-57.5 -23.5zM-36 -117l100 238h136l-162 -238h-74z" />
    <glyph glyph-name="less" unicode="&#x3c;" horiz-adv-x="544" 
d="M480 41l-448 200l16 99l510 200l-18 -112l-367 -137l324 -138z" />
    <glyph glyph-name="equal" unicode="=" horiz-adv-x="544" 
d="M56 385l15 94h478l-15 -94h-478zM23 178l15 93h478l-15 -93h-478z" />
    <glyph glyph-name="greater" unicode="&#x3e;" horiz-adv-x="544" 
d="M2 41l17 112l367 138l-324 137l18 112l446 -200l-16 -99z" />
    <glyph glyph-name="question" unicode="?" horiz-adv-x="521" 
d="M174 207q6 54 33 93t61 61t67.5 43t56 50.5t22.5 70.5q0 39 -26 63t-70 24q-57 0 -96 -35t-46 -93l-103 12q14 95 86 153.5t175 58.5q90 0 142.5 -46.5t52.5 -122.5q0 -51 -17 -89.5t-43 -60t-57 -42t-58.5 -36t-48 -42.5t-24.5 -62h-107zM215 -8q-30 0 -50 20t-20 50
t20 50t50 20q31 0 51 -20t20 -50t-20 -50t-51 -20z" />
    <glyph glyph-name="at" unicode="@" horiz-adv-x="912" 
d="M594 480h87l-42 -262q-4 -25 9 -41t34 -16q48 0 82.5 57.5t34.5 141.5q0 110 -75 176.5t-199 66.5q-164 0 -278.5 -107.5t-114.5 -267.5q0 -126 79 -203.5t211 -77.5q125 0 273 74l20 -88q-166 -72 -310 -72q-166 0 -265.5 98.5t-99.5 257.5q0 132 68 241t182.5 170.5
t248.5 61.5q157 0 254.5 -90t97.5 -230q0 -128 -65.5 -212t-161.5 -84q-41 0 -68.5 17.5t-37.5 48.5q-51 -67 -147 -67q-77 0 -120.5 46t-43.5 125q0 103 65.5 172t161.5 70q75 0 112 -52zM433 150q60 0 98.5 43t38.5 111q0 48 -25.5 77t-70.5 29q-60 0 -99 -43t-39 -111
q0 -49 26 -78t71 -28z" />
    <glyph glyph-name="A" unicode="A" horiz-adv-x="670" 
d="M502 0l-36 165h-286l-89 -165h-121l383 700h109l162 -700h-122zM234 266h211l-61 280z" />
    <glyph glyph-name="B" unicode="B" horiz-adv-x="621" 
d="M31 0l111 700h264q89 0 140.5 -40.5t51.5 -112.5q0 -58 -33.5 -101t-78.5 -63q95 -38 95 -148q0 -107 -75.5 -171t-198.5 -64h-276zM213 421h142q63 0 96 28t33 79q0 76 -102 76h-140zM163 103h146q158 0 158 127q0 90 -123 90h-147z" />
    <glyph glyph-name="C" unicode="C" horiz-adv-x="724" 
d="M352 -8q-128 0 -215 80.5t-87 222.5q0 100 34 180.5t91 130t127.5 76t147.5 26.5q122 0 197.5 -62t77.5 -166l-119 -25q-4 70 -51 110.5t-122 40.5q-114 0 -188.5 -79.5t-74.5 -219.5q0 -98 55.5 -155t142.5 -57q72 0 124 37.5t75 103.5l115 -25q-37 -104 -124 -161.5
t-206 -57.5z" />
    <glyph glyph-name="D" unicode="D" horiz-adv-x="682" 
d="M31 0l111 700h220q135 0 220.5 -77t85.5 -216q0 -96 -34.5 -174.5t-92.5 -128.5t-132.5 -77t-157.5 -27h-220zM163 103h96q56 0 106 16.5t91.5 50.5t66 92t24.5 133q0 103 -59 153t-151 50h-96z" />
    <glyph glyph-name="E" unicode="E" horiz-adv-x="575" 
d="M31 0l111 700h456l-16 -102h-339l-28 -176h273l-16 -102h-274l-34 -217h351l-17 -103h-467z" />
    <glyph glyph-name="F" unicode="F" horiz-adv-x="566" 
d="M31 0l111 700h463l-16 -102h-346l-29 -184h281l-17 -102h-281l-49 -312h-117z" />
    <glyph glyph-name="G" unicode="G" horiz-adv-x="748" 
d="M339 -8q-124 0 -207 78t-83 220q0 100 35.5 181.5t94 132t130.5 77.5t149 27q122 0 195 -61t76 -167l-118 -24q-4 69 -49.5 109.5t-120.5 40.5q-117 0 -194 -82.5t-77 -221.5q0 -98 51 -152.5t138 -54.5q86 0 147 48.5t78 128.5h-223l16 97h332l-58 -369h-106l14 94
q-31 -46 -91 -74t-129 -28z" />
    <glyph glyph-name="H" unicode="H" horiz-adv-x="703" 
d="M589 700h118l-111 -700h-118l50 314h-330l-50 -314h-117l111 700h117l-45 -283h330z" />
    <glyph glyph-name="I" unicode="I" horiz-adv-x="255" 
d="M31 0l111 700h117l-111 -700h-117z" />
    <glyph glyph-name="J" unicode="J" horiz-adv-x="352" 
d="M4 104q21 -6 48 -6q45 0 74.5 28.5t38.5 81.5l78 492h113l-78 -492q-17 -106 -76.5 -160t-146.5 -54q-36 0 -68 8z" />
    <glyph glyph-name="K" unicode="K" horiz-adv-x="654" 
d="M700 700l-318 -283l227 -417h-144l-175 335l-103 -92l-39 -243h-117l111 700h117l-46 -293l326 293h161z" />
    <glyph glyph-name="L" unicode="L" horiz-adv-x="533" 
d="M31 0l111 700h117l-95 -597h335l-17 -103h-451z" />
    <glyph glyph-name="M" unicode="M" horiz-adv-x="854" 
d="M31 0l111 700h133l139 -535l309 535h135l-111 -700h-111l76 481l-278 -481h-90l-126 481l-76 -481h-111z" />
    <glyph glyph-name="N" unicode="N" horiz-adv-x="694" 
d="M31 0l111 700h116l247 -515l81 515h112l-111 -700h-117l-246 514l-82 -514h-111z" />
    <glyph glyph-name="O" unicode="O" horiz-adv-x="779" 
d="M368 -8q-139 0 -228.5 86.5t-89.5 219.5q0 179 111 294.5t282 115.5q138 0 227.5 -87t89.5 -219q0 -180 -110.5 -295t-281.5 -115zM384 95q109 0 183 85t74 210q0 96 -59.5 156t-155.5 60q-109 0 -182.5 -85.5t-73.5 -210.5q0 -96 59 -155.5t155 -59.5z" />
    <glyph glyph-name="P" unicode="P" horiz-adv-x="596" 
d="M31 0l111 700h276q92 0 145.5 -48t53.5 -130q0 -106 -74.5 -173t-191.5 -67h-158l-45 -282h-117zM209 384h150q64 0 101 33.5t37 90.5q0 42 -27 66t-77 24h-150z" />
    <glyph glyph-name="Q" unicode="Q" horiz-adv-x="776" 
d="M760 402q0 -199 -134 -317l56 -75l-83 -63l-61 81q-80 -36 -170 -36q-139 0 -228.5 86.5t-89.5 219.5q0 179 111 294.5t282 115.5q138 0 227.5 -87t89.5 -219zM384 95q47 0 89 17l-110 145l84 65l113 -150q81 87 81 218q0 96 -59.5 156t-155.5 60q-109 0 -182.5 -85.5
t-73.5 -210.5q0 -96 59 -155.5t155 -59.5z" />
    <glyph glyph-name="R" unicode="R" horiz-adv-x="642" 
d="M599 529q0 -72 -40.5 -129t-109.5 -83l142 -317h-136l-130 297h-129l-47 -297h-117l110 700h262q91 0 143 -46t52 -125zM244 598l-32 -198h128q64 0 101 30.5t37 83.5q0 40 -27.5 62t-78.5 22h-128z" />
    <glyph glyph-name="S" unicode="S" horiz-adv-x="591" 
d="M281 -8q-113 0 -185 61t-73 160l111 24q-3 -65 40 -104t113 -39q64 0 103.5 31t39.5 81q0 33 -24.5 56.5t-62 35.5t-80.5 28.5t-80.5 35t-62 55.5t-24.5 88q0 87 73.5 145t178.5 58q107 0 174.5 -49.5t71.5 -131.5l-112 -32q-2 51 -40 81t-100 30q-60 0 -93 -25t-33 -66
q0 -29 25 -49t62.5 -30t81 -26t81 -35.5t62.5 -60t25 -97.5q0 -98 -76.5 -161.5t-195.5 -63.5z" />
    <glyph glyph-name="T" unicode="T" horiz-adv-x="582" 
d="M195 0l94 598h-216l17 102h548l-16 -102h-215l-95 -598h-117z" />
    <glyph glyph-name="U" unicode="U" horiz-adv-x="681" 
d="M307 -8q-120 0 -187 76.5t-48 193.5l70 438h110l-70 -441q-12 -75 27 -119.5t114 -44.5q74 0 121 42.5t59 119.5l70 443h112l-71 -444q-20 -126 -100 -195t-207 -69z" />
    <glyph glyph-name="V" unicode="V" horiz-adv-x="647" 
d="M228 0l-147 700h119l107 -562l286 562h120l-370 -700h-115z" />
    <glyph glyph-name="W" unicode="W" horiz-adv-x="1001" 
d="M186 0l-97 700h121l59 -562l239 562h130l61 -562l238 562h121l-318 -700h-124l-68 534l-240 -534h-122z" />
    <glyph glyph-name="X" unicode="X" horiz-adv-x="618" 
d="M646 700l-253 -324l174 -376h-126l-127 274l-214 -274h-129l295 378l-149 322h126l102 -221l173 221h128z" />
    <glyph glyph-name="Y" unicode="Y" horiz-adv-x="609" 
d="M206 0l46 291l-178 409h125l127 -300l223 300h128l-307 -409l-47 -291h-117z" />
    <glyph glyph-name="Z" unicode="Z" horiz-adv-x="598" 
d="M-12 0l15 97l469 501h-370l17 102h513l-16 -97l-463 -500h385l-16 -103h-534z" />
    <glyph glyph-name="bracketleft" unicode="[" horiz-adv-x="312" 
d="M6 -153l149 941h216l-14 -88h-118l-122 -766h118l-13 -87h-216z" />
    <glyph glyph-name="backslash" unicode="\" horiz-adv-x="442" 
d="M396 -1h-112l-204 701h113z" />
    <glyph glyph-name="bracketright" unicode="]" horiz-adv-x="312" 
d="M181 -153h-215l14 87h118l121 766h-118l14 88h215z" />
    <glyph glyph-name="asciicircum" unicode="^" horiz-adv-x="567" 
d="M65 417l247 283h88l158 -283h-111l-105 189l-166 -189h-111z" />
    <glyph glyph-name="underscore" unicode="_" horiz-adv-x="500" 
d="M-30 -94l15 94h454l-15 -94h-454z" />
    <glyph glyph-name="a" unicode="a" horiz-adv-x="546" 
d="M293 512q100 0 156.5 -60.5t40.5 -156.5l-46 -295h-107l12 76q-26 -38 -72.5 -61t-98.5 -23q-68 0 -111.5 39t-43.5 97q0 156 257 180l108 9l1 9q7 45 -24.5 72.5t-84.5 27.5q-47 0 -80.5 -26t-40.5 -70l-97 18q16 74 81.5 119t149.5 45zM212 76q63 0 104 38t56 107
l-2 -11l5 27l-107 -11q-138 -13 -138 -87q0 -28 22 -45.5t60 -17.5z" />
    <glyph glyph-name="b" unicode="b" horiz-adv-x="604" 
d="M308 -8q-56 0 -99.5 22.5t-61.5 60.5l-12 -75h-109l112 708h109l-42 -267q27 33 71 52t94 19q95 0 149 -59.5t54 -154.5q0 -131 -72.5 -218.5t-192.5 -87.5zM299 87q71 0 117 55t46 140q0 61 -33 98t-89 37q-76 0 -126 -55t-50 -140q0 -61 36.5 -98t98.5 -37z" />
    <glyph glyph-name="c" unicode="c" horiz-adv-x="558" 
d="M266 -8q-100 0 -165 65t-65 164q0 128 80.5 209.5t208.5 81.5q91 0 152 -51t62 -128l-114 -20q0 44 -32 74t-80 30q-73 0 -117.5 -51t-44.5 -134q0 -63 35 -104t91 -41q48 0 82 24.5t45 66.5l108 -21q-20 -76 -86 -120.5t-160 -44.5z" />
    <glyph glyph-name="d" unicode="d" horiz-adv-x="604" 
d="M239 -8q-98 0 -151 58.5t-53 155.5q0 132 77.5 219t201.5 87q52 0 90.5 -21t57.5 -54l42 271h109l-112 -708h-109l11 64q-23 -32 -68.5 -52t-95.5 -20zM268 87q76 0 125.5 55t49.5 140q0 62 -33.5 98.5t-94.5 36.5q-72 0 -121 -55t-49 -140q0 -61 33 -98t90 -37z" />
    <glyph glyph-name="e" unicode="e" horiz-adv-x="566" 
d="M528 228h-385v-3q0 -64 36 -102t96 -38q101 0 129 86l103 -26q-22 -69 -89.5 -111t-156.5 -42q-99 0 -162.5 64t-63.5 163q0 119 76 206t205 87q103 0 163.5 -61t60.5 -146q0 -38 -12 -77zM302 426q-53 0 -91 -31.5t-56 -85.5h273q3 51 -31.5 84t-94.5 33z" />
    <glyph glyph-name="f" unicode="f" horiz-adv-x="375" 
d="M73 0l65 411h-83l14 93h84l6 43q13 83 66.5 130t127.5 47q38 0 71 -11l-21 -92q-24 10 -50 10q-32 0 -55 -22.5t-29 -59.5l-8 -45h124l-15 -93h-123l-66 -411h-108z" />
    <glyph glyph-name="g" unicode="g" horiz-adv-x="595" 
d="M572 504l-63 -399l-12 -77q-16 -97 -93 -157.5t-186 -60.5q-89 0 -145 43t-57 112l105 17q-2 -37 29.5 -60t81.5 -23q61 0 104 32.5t51 85.5l10 60q-24 -28 -67 -45.5t-92 -17.5q-97 0 -149.5 56.5t-52.5 149.5q0 126 77 209t201 83q47 0 85 -18t56 -48l9 58h108z
M267 109q74 0 121.5 51t47.5 131q0 57 -32 91.5t-88 34.5q-74 0 -121.5 -50.5t-47.5 -130.5q0 -58 32 -92.5t88 -34.5z" />
    <glyph glyph-name="h" unicode="h" horiz-adv-x="591" 
d="M26 0l112 708h109l-46 -291q68 95 180 95q86 0 129.5 -49.5t30.5 -131.5l-53 -331h-109l49 306q8 50 -16.5 79t-75.5 29q-64 0 -108 -52t-58 -144l-35 -218h-109z" />
    <glyph glyph-name="i" unicode="i" horiz-adv-x="238" 
d="M186 588q-30 0 -50.5 20t-20.5 50t20 50.5t51 20.5t51.5 -20.5t20.5 -50.5q0 -29 -20.5 -49.5t-51.5 -20.5zM26 0l80 504h109l-80 -504h-109z" />
    <glyph glyph-name="j" unicode="j" horiz-adv-x="240" 
d="M190 588q-30 0 -50.5 20t-20.5 50t20 50.5t51 20.5t51.5 -20.5t20.5 -50.5q0 -29 -20.5 -49.5t-51.5 -20.5zM-61 -190l-27 1l13 96q9 -1 17 -1q75 0 89 92l80 506h109l-83 -520q-12 -78 -66.5 -126t-131.5 -48z" />
    <glyph glyph-name="k" unicode="k" horiz-adv-x="549" 
d="M565 504l-241 -199l177 -305h-130l-133 234l-75 -61l-27 -173h-110l112 708h110l-62 -392l232 188h147z" />
    <glyph glyph-name="l" unicode="l" horiz-adv-x="238" 
d="M26 0l112 708h109l-112 -708h-109z" />
    <glyph glyph-name="m" unicode="m" horiz-adv-x="889" 
d="M26 0l80 504h109l-14 -85q61 93 163 93q61 0 98.5 -25.5t45.5 -74.5q29 44 77 72t104 28q81 0 122.5 -47.5t28.5 -124.5l-53 -340h-109l49 313q8 48 -14 76.5t-69 28.5q-55 0 -93.5 -44.5t-49.5 -118.5l-41 -255h-108l49 313q8 48 -13.5 76.5t-68.5 28.5q-55 0 -93.5 -45
t-49.5 -118l-41 -255h-109z" />
    <glyph glyph-name="n" unicode="n" 
d="M26 0l80 504h109l-13 -84q72 92 180 92q81 0 123.5 -49.5t29.5 -130.5l-52 -332h-109l49 307q8 48 -15.5 77.5t-71.5 29.5q-63 0 -107 -51t-59 -142l-35 -221h-109z" />
    <glyph glyph-name="o" unicode="o" horiz-adv-x="587" 
d="M267 -8q-101 0 -166.5 63t-65.5 159q0 128 82.5 213t207.5 85q101 0 166.5 -62.5t65.5 -159.5q0 -128 -83 -213t-207 -85zM278 87q74 0 121 54t47 138q0 61 -37 99.5t-95 38.5q-75 0 -121.5 -54t-46.5 -138q0 -60 37 -99t95 -39z" />
    <glyph glyph-name="p" unicode="p" horiz-adv-x="603" 
d="M-3 -182l109 686h109l-10 -64q26 32 71.5 52t96.5 20q95 0 147.5 -59t52.5 -155q0 -131 -77.5 -218.5t-199.5 -87.5q-110 0 -150 76l-40 -250h-109zM298 87q72 0 118.5 54.5t46.5 139.5q0 62 -33 99t-90 37q-76 0 -125.5 -54.5t-49.5 -139.5q0 -61 36 -98.5t97 -37.5z
" />
    <glyph glyph-name="q" unicode="q" horiz-adv-x="604" 
d="M472 -182h-109l38 240q-28 -30 -71.5 -48t-88.5 -18q-98 0 -152.5 59.5t-54.5 156.5q0 130 78 217t204 87q51 0 90.5 -20t55.5 -52l10 64h109zM267 87q76 0 125.5 55t49.5 140q0 61 -33 98t-89 37q-76 0 -126 -55t-50 -140q0 -61 33 -98t90 -37z" />
    <glyph glyph-name="r" unicode="r" horiz-adv-x="396" 
d="M402 398q-25 12 -62 12q-58 0 -108 -56.5t-67 -165.5l-30 -188h-109l80 504h109l-16 -100q24 45 73 76.5t97 31.5q35 0 56 -9z" />
    <glyph glyph-name="s" unicode="s" horiz-adv-x="465" 
d="M210 -8q-87 0 -139 46t-61 113l92 25q4 -45 35 -71t84 -26q42 0 67 20t25 52q0 26 -25.5 42t-61.5 26.5t-72.5 24t-62 43t-25.5 75.5q0 65 54 107.5t140 42.5q73 0 125.5 -36.5t59.5 -97.5l-96 -28q-4 37 -32.5 57.5t-66.5 20.5q-36 0 -58.5 -15t-22.5 -40
q0 -23 25.5 -37t62 -24t73.5 -24t62.5 -45.5t25.5 -79.5q0 -75 -58 -123t-150 -48z" />
    <glyph glyph-name="t" unicode="t" horiz-adv-x="378" 
d="M312 4q-38 -12 -81 -12q-75 0 -114 42t-25 125l39 252h-88l15 93h88l24 150h109l-24 -150h130l-15 -93h-130l-39 -246q-6 -37 9.5 -56.5t47.5 -19.5q35 0 62 12z" />
    <glyph glyph-name="u" unicode="u" 
d="M563 504l-80 -504h-109l13 84q-72 -92 -180 -92q-81 0 -123.5 49.5t-29.5 130.5l52 332h109l-49 -307q-8 -48 15.5 -77.5t71.5 -29.5q63 0 107.5 51.5t58.5 141.5l35 221h109z" />
    <glyph glyph-name="v" unicode="v" horiz-adv-x="493" 
d="M156 0l-104 504h110l66 -377l185 377h112l-264 -504h-105z" />
    <glyph glyph-name="w" unicode="w" horiz-adv-x="778" 
d="M142 0l-76 504h110l41 -352l163 352h102l52 -352l151 352h111l-236 -504h-100l-53 351l-166 -351h-99z" />
    <glyph glyph-name="x" unicode="x" horiz-adv-x="500" 
d="M517 504l-206 -249l131 -255h-120l-85 165l-136 -165h-123l213 256l-127 248h119l81 -159l132 159h121z" />
    <glyph glyph-name="y" unicode="y" horiz-adv-x="508" 
d="M427 504h111l-374 -686h-107l110 204l-117 482h112l77 -349z" />
    <glyph glyph-name="z" unicode="z" horiz-adv-x="493" 
d="M-6 0l13 83l333 328h-264l15 93h407l-14 -83l-331 -328h284l-15 -93h-428z" />
    <glyph glyph-name="braceleft" unicode="{" horiz-adv-x="331" 
d="M191 -146q-53 0 -81 35t-20 91l33 209q8 46 -9.5 66.5t-62.5 21.5l15 93q45 1 69 21t31 66l33 210q9 56 48 90.5t92 34.5h57l-14 -90h-24q-56 0 -64 -57l-34 -213q-8 -46 -31.5 -70t-62.5 -38q35 -16 51 -39.5t8 -70.5l-33 -213q-9 -56 46 -56h24l-14 -91h-57z" />
    <glyph glyph-name="bar" unicode="|" horiz-adv-x="256" 
d="M23 -50l127 800h117l-127 -800h-117z" />
    <glyph glyph-name="braceright" unicode="}" horiz-adv-x="331" 
d="M17 -146h-57l15 91h24q55 0 64 56l34 213q8 47 31 70.5t63 39.5q-35 14 -51 38t-9 70l34 213q9 57 -46 57h-24l14 90h57q53 0 81 -34.5t20 -90.5l-33 -210q-8 -46 9.5 -66t62.5 -21l-15 -93q-45 -1 -69 -21t-31 -67l-33 -209q-9 -56 -48.5 -91t-92.5 -35z" />
    <glyph glyph-name="asciitilde" unicode="~" horiz-adv-x="581" 
d="M387 246q-54 0 -102 35q-2 2 -12 9.5t-12.5 9.5t-11 7t-13 6.5t-12.5 3.5t-16 2q-54 0 -75 -70l-88 14q15 69 64 110.5t114 41.5q53 0 101 -35q5 -3 15.5 -11t15 -11t13 -8t16.5 -6.5t18 -1.5q52 0 75 70l88 -14q-15 -69 -64 -110.5t-114 -41.5z" />
    <glyph glyph-name="uni00A0" unicode="&#xa0;" horiz-adv-x="240" 
 />
    <glyph glyph-name="exclamdown" unicode="&#xa1;" horiz-adv-x="283" 
d="M183 504q27 0 43.5 -17t16.5 -43q0 -33 -24 -56.5t-58 -23.5q-27 0 -44 17t-17 43q0 33 24.5 56.5t58.5 23.5zM106 282h84l-50 -486h-137z" />
    <glyph glyph-name="cent" unicode="&#xa2;" horiz-adv-x="558" 
d="M277 87q48 0 82 24.5t45 66.5l108 -21q-18 -68 -73.5 -111.5t-136.5 -51.5l-17 -105l-99 1l17 110q-75 19 -121 79.5t-46 141.5q0 117 68.5 196t180.5 93l16 105h99l-18 -109q69 -15 112.5 -62t44.5 -111l-114 -20q0 44 -32 74t-80 30q-73 0 -117.5 -51t-44.5 -134
q0 -63 35 -104t91 -41z" />
    <glyph glyph-name="sterling" unicode="&#xa3;" horiz-adv-x="589" 
d="M364 103q54 0 102 70l87 -53q-81 -120 -184 -120h-340l16 97q113 100 113 195q0 9 -1 13h-112l15 94h77q-11 46 -11 76q0 103 72.5 168t184.5 65q86 0 139 -43.5t56 -115.5l-113 -32q-9 89 -98 89q-54 0 -89.5 -35.5t-35.5 -97.5q0 -29 13 -74h214l-15 -94h-177v-10
q0 -49 -31.5 -105t-73.5 -87h192z" />
    <glyph glyph-name="currency" unicode="&#xa4;" horiz-adv-x="657" 
d="M570 398q24 -50 24 -108q0 -108 -67 -188l59 -72l-82 -70l-60 72q-72 -40 -155 -40t-140 43l-86 -75l-60 70l87 75q-24 48 -24 108q0 108 67 189l-60 72l82 70l61 -72q72 40 155 40q81 0 140 -43l87 75l58 -70zM304 87q76 0 127 55t51 138q0 62 -34 99.5t-92 37.5
q-77 0 -127.5 -55t-50.5 -138q0 -62 34 -99.5t92 -37.5z" />
    <glyph glyph-name="yen" unicode="&#xa5;" horiz-adv-x="609" 
d="M679 700l-247 -328h136l-13 -82h-184l-14 -85h184l-13 -82h-184l-19 -123h-118l20 123h-183l14 82h182l14 85h-183l13 82h135l-143 328h128l126 -298l221 298h128z" />
    <glyph glyph-name="brokenbar" unicode="&#xa6;" horiz-adv-x="256" 
d="M95 401l55 349h117l-55 -349h-117zM23 -50l55 349h117l-55 -349h-117z" />
    <glyph glyph-name="section" unicode="&#xa7;" horiz-adv-x="588" 
d="M356 616q-57 0 -94.5 -26t-37.5 -67q0 -35 33 -56t79.5 -33.5t93 -28.5t79.5 -51.5t33 -90.5q0 -87 -80 -139q42 -39 42 -101q0 -94 -77 -153.5t-195 -59.5q-96 0 -157.5 56.5t-63.5 144.5l99 29q0 -61 38 -98.5t98 -37.5q67 0 109 28.5t42 74.5q0 33 -32.5 54t-78.5 34
t-92 29t-78.5 51.5t-32.5 90.5q0 83 85 136q-47 39 -47 104q0 87 72.5 144.5t177.5 57.5q90 0 147.5 -45.5t56.5 -123.5l-98 -24q-1 46 -33.5 73.5t-87.5 27.5zM435 246q0 25 -20 43.5t-42.5 27t-67.5 22.5t-66 22q-53 -31 -53 -78q0 -26 20.5 -45t44 -27.5t68 -21.5
t67.5 -22q49 32 49 79z" />
    <glyph glyph-name="copyright" unicode="&#xa9;" horiz-adv-x="792" 
d="M416 -8q-154 0 -256 102t-102 256t102 256t256 102q155 0 257 -102t102 -256t-102 -256t-257 -102zM416 54q126 0 209.5 84.5t83.5 211.5t-83.5 211.5t-209.5 84.5t-209.5 -84.5t-83.5 -211.5t83.5 -211.5t209.5 -84.5zM401 157q-86 0 -138.5 54t-52.5 142t53 142.5
t138 54.5q68 0 114.5 -36t55.5 -96l-72 -16q-7 39 -32.5 60.5t-65.5 21.5q-54 0 -85.5 -35t-31.5 -96t31.5 -96t85.5 -35q39 0 64 20t32 57l74 -15q-14 -59 -59 -93t-111 -34z" />
    <glyph glyph-name="ordfeminine" unicode="&#xaa;" horiz-adv-x="336" 
d="M235 708q62 0 94.5 -33t23.5 -93l-32 -198h-70l7 48q-17 -24 -46 -38.5t-61 -14.5q-41 0 -66.5 23t-25.5 59q0 102 163 118l60 6l1 4q4 30 -11.5 46.5t-45.5 16.5q-28 0 -49.5 -16t-28.5 -44l-62 11q14 47 55.5 76t93.5 29zM176 434q37 0 62.5 23t33.5 60l2 15l-62 -6
q-83 -9 -83 -56q0 -16 13 -26t34 -10z" />
    <glyph glyph-name="guillemotleft" unicode="&#xab;" horiz-adv-x="589" 
d="M273 61l-237 210l11 67l304 210l-18 -112l-193 -132l151 -132zM524 61l-237 210l11 67l304 210l-18 -112l-193 -132l151 -132z" />
    <glyph glyph-name="logicalnot" unicode="&#xac;" horiz-adv-x="588" 
d="M408 138l27 172h-377l15 94h486l-42 -266h-109z" />
    <glyph glyph-name="uni00AD" unicode="&#xad;" horiz-adv-x="367" 
d="M28 242l15 94h311l-15 -94h-311z" />
    <glyph glyph-name="registered" unicode="&#xae;" horiz-adv-x="792" 
d="M416 -8q-154 0 -256 102t-102 256t102 256t256 102q155 0 257 -102t102 -256t-102 -256t-257 -102zM416 54q126 0 209.5 84.5t83.5 211.5t-83.5 211.5t-209.5 84.5t-209.5 -84.5t-83.5 -211.5t83.5 -211.5t209.5 -84.5zM570 171h-79l-96 159h-65v-159h-67l-1 379h143
q55 0 88.5 -30t33.5 -80q0 -70 -63 -97zM330 490v-100h67q30 0 46 13.5t16 36.5t-16 36.5t-46 13.5h-67z" />
    <glyph glyph-name="degree" unicode="&#xb0;" horiz-adv-x="348" 
d="M206 445q-51 0 -83.5 33t-32.5 83q0 62 47.5 106.5t110.5 44.5q51 1 84.5 -32t33.5 -84q0 -62 -48 -107t-112 -44zM217 516q30 0 51 21t21 51q0 23 -14.5 38t-38.5 15q-29 0 -50 -21t-21 -51q0 -23 14.5 -38t37.5 -15z" />
    <glyph glyph-name="plusminus" unicode="&#xb1;" horiz-adv-x="555" 
d="M554 440l-15 -95h-198l-31 -197h-94l32 198h-199l15 94h198l31 197h94l-31 -197h198zM479 0h-478l14 94h478z" />
    <glyph glyph-name="uni00B2" unicode="&#xb2;" horiz-adv-x="336" 
d="M51 375l10 65l138 102q88 64 88 107q0 20 -13 32t-36 12q-30 0 -49.5 -21.5t-21.5 -58.5l-78 6q4 61 51 103t109 42q56 0 88.5 -29t32.5 -77q0 -42 -28 -80t-93 -82l-73 -50h161l-11 -71h-275z" />
    <glyph glyph-name="uni00B3" unicode="&#xb3;" horiz-adv-x="341" 
d="M189 371q-60 0 -95 31t-33 83l77 12q1 -25 18.5 -40t44.5 -15q33 0 54.5 19t21.5 49q0 23 -15 36.5t-40 13.5q-26 0 -46 -13l-24 54l113 89h-160l11 70h257l-11 -70l-106 -79q48 2 75.5 -23t27.5 -71q0 -65 -47.5 -105.5t-122.5 -40.5z" />
    <glyph glyph-name="uni00B5" unicode="&#xb5;" horiz-adv-x="576" 
d="M449 504h109l-80 -504h-109l13 84q-26 -42 -69 -67t-93 -25t-85 37l-35 -219h-109l84 528v2l26 164h109l-50 -317q-4 -44 19.5 -70.5t68.5 -26.5q63 0 107.5 51.5t58.5 141.5z" />
    <glyph glyph-name="paragraph" unicode="&#xb6;" horiz-adv-x="707" 
d="M189 -182l75 473q-80 0 -132.5 51.5t-52.5 127.5q0 93 75.5 161.5t174.5 68.5h405l-16 -97h-66l-125 -785h-100l125 785h-139l-124 -785h-100z" />
    <glyph glyph-name="periodcentered" unicode="&#xb7;" horiz-adv-x="273" 
d="M155 290q-30 0 -50 20t-20 50t20 50t50 20q31 0 51 -20t20 -50t-20 -50t-51 -20z" />
    <glyph glyph-name="uni00B9" unicode="&#xb9;" horiz-adv-x="222" 
d="M129 375l48 299q-53 -31 -89 -38l12 73q46 11 104 51h62l-61 -385h-76z" />
    <glyph glyph-name="ordmasculine" unicode="&#xba;" horiz-adv-x="376" 
d="M211 379q-63 0 -102.5 40t-39.5 103q0 80 55.5 133t136.5 53q64 0 103.5 -39.5t39.5 -101.5q0 -80 -56 -134t-137 -54zM221 442q47 0 78 33.5t31 84.5q0 38 -21.5 62t-57.5 24q-47 0 -78 -33.5t-31 -84.5q0 -38 21.5 -62t57.5 -24z" />
    <glyph glyph-name="guillemotright" unicode="&#xbb;" horiz-adv-x="609" 
d="M8 60l18 112l193 132l-151 132l18 111l237 -210l-10 -67zM278 60l18 112l192 132l-150 132l17 111l238 -210l-11 -67z" />
    <glyph glyph-name="onequarter" unicode="&#xbc;" horiz-adv-x="770" 
d="M53 0l579 700h91l-579 -700h-91zM120 315l47 299q-51 -31 -89 -38l12 73q48 12 105 51h62l-61 -385h-76zM579 0l12 76h-194l12 71l226 238h88l-38 -238h48l-11 -71h-49l-11 -76h-83zM493 147h109l23 139z" />
    <glyph glyph-name="onehalf" unicode="&#xbd;" horiz-adv-x="797" 
d="M44 0l579 700h91l-579 -700h-91zM120 315l47 299q-51 -31 -89 -38l12 73q48 12 105 51h62l-61 -385h-76zM453 0l10 65l138 102q87 63 87 107q0 20 -13 32t-35 12q-31 0 -50 -21.5t-21 -58.5l-78 6q4 61 51 103t109 42q56 0 88.5 -29t32.5 -77q0 -42 -28.5 -80t-93.5 -82
l-72 -50h161l-11 -71h-275z" />
    <glyph glyph-name="threequarters" unicode="&#xbe;" horiz-adv-x="836" 
d="M179 311q-60 0 -95 31.5t-32 82.5l76 12q2 -25 19 -40t44 -15q33 0 54.5 19t21.5 49q0 23 -15 36.5t-40 13.5q-26 0 -46 -13l-24 54l114 89h-161l12 70h257l-11 -70l-107 -79q48 2 76 -23t28 -71q0 -65 -48 -105.5t-123 -40.5zM111 0l579 700h92l-579 -700h-92zM644 0
l12 76h-193l11 71l226 238h88l-38 -238h49l-12 -71h-48l-12 -76h-83zM559 147h109l22 139z" />
    <glyph glyph-name="questiondown" unicode="&#xbf;" horiz-adv-x="454" 
d="M282 504q27 0 44 -17t17 -43q0 -33 -24.5 -56.5t-58.5 -23.5q-27 0 -44 17t-17 43q0 33 24.5 56.5t58.5 23.5zM306 289q-5 -46 -25 -81t-46 -55t-56 -40t-54.5 -36.5t-41 -43.5t-16.5 -62q0 -39 25.5 -63t69.5 -24q57 0 96 35t46 93l104 -12q-15 -95 -87 -153.5
t-175 -58.5q-90 0 -142.5 46.5t-52.5 122.5q0 51 17 89.5t43 60t57 42t58.5 36t48 42.5t24.5 62h107z" />
    <glyph glyph-name="Agrave" unicode="&#xc0;" horiz-adv-x="670" 
d="M458 756h-78l-96 148h130zM502 0l-36 165h-286l-89 -165h-121l383 700h109l162 -700h-122zM234 266h211l-61 280z" />
    <glyph glyph-name="Aacute" unicode="&#xc1;" horiz-adv-x="670" 
d="M584 904l-142 -148h-77l89 148h130zM502 0l-36 165h-286l-89 -165h-121l383 700h109l162 -700h-122zM234 266h211l-61 280z" />
    <glyph glyph-name="Acircumflex" unicode="&#xc2;" horiz-adv-x="670" 
d="M430 839l-90 -83h-84l138 148h91l92 -148h-82zM502 0l-36 165h-286l-89 -165h-121l383 700h109l162 -700h-122zM234 266h211l-61 280z" />
    <glyph glyph-name="Atilde" unicode="&#xc3;" horiz-adv-x="670" 
d="M359 823q-37 0 -50 -51l-74 12q10 52 48 85t89 33q38 0 76 -27q2 -1 9 -6.5t9 -6.5t8 -4.5t9 -4.5t8.5 -2t10.5 -1q36 0 50 50l74 -12q-10 -53 -48 -85.5t-88 -32.5q-39 0 -77 26q-3 2 -8 6l-7.5 6t-7 5t-7.5 4.5t-7 3t-8 2t-9 0.5zM353 700h109l162 -700h-122l-36 165
h-286l-89 -165h-121zM234 266h211l-61 280z" />
    <glyph glyph-name="Adieresis" unicode="&#xc4;" horiz-adv-x="670" 
d="M338 778q-28 0 -46.5 19t-18.5 47t18.5 46.5t46.5 18.5q29 0 48.5 -18.5t19.5 -46.5t-19.5 -47t-48.5 -19zM525 778q-28 0 -47 19t-19 47t19 46.5t47 18.5q29 0 48 -18.5t19 -46.5t-19.5 -47t-47.5 -19zM502 0l-36 165h-286l-89 -165h-121l383 700h109l162 -700h-122z
M234 266h211l-61 280z" />
    <glyph glyph-name="Aring" unicode="&#xc5;" horiz-adv-x="670" 
d="M408 738q-49 0 -81 30t-32 76t32 76.5t81 30.5t81.5 -30.5t32.5 -76.5t-32.5 -76t-81.5 -30zM408 893q-21 0 -35.5 -14t-14.5 -35t14.5 -34.5t35.5 -13.5q22 0 36.5 13.5t14.5 34.5q0 22 -14 35.5t-37 13.5zM502 0l-36 165h-286l-89 -165h-121l383 700h109l162 -700h-122
zM234 266h211l-61 280z" />
    <glyph glyph-name="AE" unicode="&#xc6;" horiz-adv-x="970" 
d="M977 598h-339l-28 -176h273l-16 -102h-273l-34 -217h350l-16 -103h-468l27 172h-236l-120 -172h-129l498 700h528zM289 275h181l53 334z" />
    <glyph glyph-name="Ccedilla" unicode="&#xc7;" horiz-adv-x="724" 
d="M368 95q72 0 124 37.5t75 103.5l115 -25q-35 -99 -116.5 -156.5t-193.5 -62.5l-85 -139h-130l137 144q-107 17 -175.5 95t-68.5 203q0 100 34 180.5t91 130t127.5 76t147.5 26.5q122 0 197.5 -62t77.5 -166l-119 -25q-4 70 -51 110.5t-122 40.5q-114 0 -188.5 -79.5
t-74.5 -219.5q0 -98 55.5 -155t142.5 -57z" />
    <glyph glyph-name="Egrave" unicode="&#xc8;" horiz-adv-x="575" 
d="M428 756h-78l-96 148h130zM31 0l111 700h456l-16 -102h-339l-28 -176h273l-16 -102h-274l-34 -217h351l-17 -103h-467z" />
    <glyph glyph-name="Eacute" unicode="&#xc9;" horiz-adv-x="575" 
d="M335 756l89 148h130l-142 -148h-77zM31 0l111 700h456l-16 -102h-339l-28 -176h273l-16 -102h-274l-34 -217h351l-17 -103h-467z" />
    <glyph glyph-name="Ecircumflex" unicode="&#xca;" horiz-adv-x="575" 
d="M364 904h91l92 -148h-82l-65 83l-90 -83h-84zM31 0l111 700h456l-16 -102h-339l-28 -176h273l-16 -102h-274l-34 -217h351l-17 -103h-467z" />
    <glyph glyph-name="Edieresis" unicode="&#xcb;" horiz-adv-x="575" 
d="M308 778q-28 0 -46.5 19t-18.5 47t18.5 46.5t46.5 18.5q29 0 48.5 -18.5t19.5 -46.5t-19.5 -47t-48.5 -19zM495 778q-28 0 -47 19t-19 47t19 46.5t47 18.5q29 0 48 -18.5t19 -46.5t-19.5 -47t-47.5 -19zM31 0l111 700h456l-16 -102h-339l-28 -176h273l-16 -102h-274
l-34 -217h351l-17 -103h-467z" />
    <glyph glyph-name="Igrave" unicode="&#xcc;" horiz-adv-x="255" 
d="M250 756h-78l-96 148h130zM31 0l111 700h117l-111 -700h-117z" />
    <glyph glyph-name="Iacute" unicode="&#xcd;" horiz-adv-x="255" 
d="M157 756l89 148h130l-142 -148h-77zM31 0l111 700h117l-111 -700h-117z" />
    <glyph glyph-name="Icircumflex" unicode="&#xce;" horiz-adv-x="255" 
d="M186 904h91l92 -148h-82l-65 83l-90 -83h-84zM31 0l111 700h117l-111 -700h-117z" />
    <glyph glyph-name="Idieresis" unicode="&#xcf;" horiz-adv-x="255" 
d="M130 778q-28 0 -46.5 19t-18.5 47t18.5 46.5t46.5 18.5q29 0 48.5 -18.5t19.5 -46.5t-19.5 -47t-48.5 -19zM317 778q-28 0 -47 19t-19 47t19 46.5t47 18.5q29 0 48 -18.5t19 -46.5t-19.5 -47t-47.5 -19zM31 0l111 700h117l-111 -700h-117z" />
    <glyph glyph-name="Eth" unicode="&#xd0;" horiz-adv-x="682" 
d="M362 700q135 0 220.5 -77t85.5 -216q0 -96 -34.5 -174.5t-92.5 -128.5t-132.5 -77t-157.5 -27h-220l49 311h-62l12 78h63l49 311h220zM259 103q56 0 106 16.5t91.5 50.5t66 92t24.5 133q0 103 -59 153t-151 50h-96l-33 -209h135l-12 -78h-135l-33 -208h96z" />
    <glyph glyph-name="Ntilde" unicode="&#xd1;" horiz-adv-x="694" 
d="M322 772l-74 12q10 52 48 85t89 33q39 0 76 -27q2 -1 9 -6.5t9 -6.5t8 -4.5t9 -4.5t8.5 -2t10.5 -1q36 0 50 50l74 -12q-10 -53 -48 -85.5t-88 -32.5q-39 0 -77 26q-3 2 -8 6l-7.5 6t-7 5t-7.5 4.5t-7 3t-8 2t-9 0.5q-36 0 -50 -51zM31 0l111 700h116l247 -515l81 515
h112l-111 -700h-117l-246 514l-82 -514h-111z" />
    <glyph glyph-name="Ograve" unicode="&#xd2;" horiz-adv-x="779" 
d="M511 756h-78l-96 148h130zM368 -8q-139 0 -228.5 86.5t-89.5 219.5q0 179 111 294.5t282 115.5q138 0 227.5 -87t89.5 -219q0 -180 -110.5 -295t-281.5 -115zM384 95q109 0 183 85t74 210q0 96 -59.5 156t-155.5 60q-109 0 -182.5 -85.5t-73.5 -210.5q0 -96 59 -155.5
t155 -59.5z" />
    <glyph glyph-name="Oacute" unicode="&#xd3;" horiz-adv-x="779" 
d="M418 756l89 148h130l-142 -148h-77zM368 -8q-139 0 -228.5 86.5t-89.5 219.5q0 179 111 294.5t282 115.5q138 0 227.5 -87t89.5 -219q0 -180 -110.5 -295t-281.5 -115zM384 95q109 0 183 85t74 210q0 96 -59.5 156t-155.5 60q-109 0 -182.5 -85.5t-73.5 -210.5
q0 -96 59 -155.5t155 -59.5z" />
    <glyph glyph-name="Ocircumflex" unicode="&#xd4;" horiz-adv-x="779" 
d="M447 904h91l92 -148h-82l-65 83l-90 -83h-84zM368 -8q-139 0 -228.5 86.5t-89.5 219.5q0 179 111 294.5t282 115.5q138 0 227.5 -87t89.5 -219q0 -180 -110.5 -295t-281.5 -115zM384 95q109 0 183 85t74 210q0 96 -59.5 156t-155.5 60q-109 0 -182.5 -85.5t-73.5 -210.5
q0 -96 59 -155.5t155 -59.5z" />
    <glyph glyph-name="Otilde" unicode="&#xd5;" horiz-adv-x="779" 
d="M363 772l-74 12q10 52 48 85t89 33q38 0 76 -27q2 -1 9 -6.5t9 -6.5t8 -4.5t9 -4.5t8.5 -2t10.5 -1q36 0 50 50l74 -12q-10 -53 -48 -85.5t-88 -32.5q-39 0 -77 26q-3 2 -8 6l-7.5 6t-7 5t-7.5 4.5t-7 3t-8 2t-9 0.5q-37 0 -50 -51zM368 -8q-139 0 -228.5 86.5
t-89.5 219.5q0 179 111 294.5t282 115.5q138 0 227.5 -87t89.5 -219q0 -180 -110.5 -295t-281.5 -115zM384 95q109 0 183 85t74 210q0 96 -59.5 156t-155.5 60q-109 0 -182.5 -85.5t-73.5 -210.5q0 -96 59 -155.5t155 -59.5z" />
    <glyph glyph-name="Odieresis" unicode="&#xd6;" horiz-adv-x="779" 
d="M391 778q-28 0 -46.5 19t-18.5 47t18.5 46.5t46.5 18.5q29 0 48.5 -18.5t19.5 -46.5t-19.5 -47t-48.5 -19zM578 778q-28 0 -47 19t-19 47t19 46.5t47 18.5q29 0 48 -18.5t19 -46.5t-19.5 -47t-47.5 -19zM368 -8q-139 0 -228.5 86.5t-89.5 219.5q0 179 111 294.5
t282 115.5q138 0 227.5 -87t89.5 -219q0 -180 -110.5 -295t-281.5 -115zM384 95q109 0 183 85t74 210q0 96 -59.5 156t-155.5 60q-109 0 -182.5 -85.5t-73.5 -210.5q0 -96 59 -155.5t155 -59.5z" />
    <glyph glyph-name="multiply" unicode="&#xd7;" horiz-adv-x="556" 
d="M552 490l-186 -161l136 -160l-86 -74l-135 160l-187 -161l-62 75l186 161l-135 160l85 73l135 -160l186 161z" />
    <glyph glyph-name="Oslash" unicode="&#xd8;" horiz-adv-x="779" 
d="M782 656l-77 -76q55 -77 55 -178q0 -180 -110.5 -295t-281.5 -115q-114 0 -196 60l-79 -78l-65 70l76 76q-54 78 -54 178q0 179 111 294.5t282 115.5q111 0 195 -60l78 78zM170 310q0 -56 22 -103l364 360q-55 39 -130 39q-109 0 -182.5 -85.5t-73.5 -210.5zM641 390
q0 58 -23 104l-364 -361q55 -38 130 -38q109 0 183 85t74 210z" />
    <glyph glyph-name="Ugrave" unicode="&#xd9;" horiz-adv-x="681" 
d="M463 756h-78l-96 148h130zM307 -8q-120 0 -187 76.5t-48 193.5l70 438h110l-70 -441q-12 -75 27 -119.5t114 -44.5q74 0 121 42.5t59 119.5l70 443h112l-71 -444q-20 -126 -100 -195t-207 -69z" />
    <glyph glyph-name="Uacute" unicode="&#xda;" horiz-adv-x="681" 
d="M370 756l89 148h130l-142 -148h-77zM307 -8q-120 0 -187 76.5t-48 193.5l70 438h110l-70 -441q-12 -75 27 -119.5t114 -44.5q74 0 121 42.5t59 119.5l70 443h112l-71 -444q-20 -126 -100 -195t-207 -69z" />
    <glyph glyph-name="Ucircumflex" unicode="&#xdb;" horiz-adv-x="681" 
d="M399 904h91l92 -148h-82l-65 83l-90 -83h-84zM307 -8q-120 0 -187 76.5t-48 193.5l70 438h110l-70 -441q-12 -75 27 -119.5t114 -44.5q74 0 121 42.5t59 119.5l70 443h112l-71 -444q-20 -126 -100 -195t-207 -69z" />
    <glyph glyph-name="Udieresis" unicode="&#xdc;" horiz-adv-x="681" 
d="M343 778q-28 0 -46.5 19t-18.5 47t18.5 46.5t46.5 18.5q29 0 48.5 -18.5t19.5 -46.5t-19.5 -47t-48.5 -19zM530 778q-28 0 -47 19t-19 47t19 46.5t47 18.5q29 0 48 -18.5t19 -46.5t-19.5 -47t-47.5 -19zM307 -8q-120 0 -187 76.5t-48 193.5l70 438h110l-70 -441
q-12 -75 27 -119.5t114 -44.5q74 0 121 42.5t59 119.5l70 443h112l-71 -444q-20 -126 -100 -195t-207 -69z" />
    <glyph glyph-name="Yacute" unicode="&#xdd;" horiz-adv-x="609" 
d="M332 756l89 148h130l-142 -148h-77zM206 0l46 291l-178 409h125l127 -300l223 300h128l-307 -409l-47 -291h-117z" />
    <glyph glyph-name="Thorn" unicode="&#xde;" horiz-adv-x="596" 
d="M31 0l111 700h117l-23 -146h158q96 0 148 -46t52 -126q0 -107 -72 -171.5t-192 -64.5h-158l-24 -146h-117zM188 246h153q70 0 103.5 34t33.5 88q0 86 -104 86h-154z" />
    <glyph glyph-name="germandbls" unicode="&#xdf;" horiz-adv-x="608" 
d="M302 -8q-62 0 -85 7l16 102q36 -9 74 -9q69 0 108.5 37t39.5 97q0 50 -38.5 75.5t-105.5 25.5h-42l16 101h43q61 0 97 30.5t36 80.5q0 36 -25 58t-69 22q-49 0 -83.5 -32t-43.5 -93l-78 -494h-117l52 327h-57l15 101h58l10 65q16 102 89.5 158.5t168.5 56.5q89 0 140 -42
t51 -110q0 -59 -34.5 -105t-82.5 -58q52 -16 85 -56t33 -100q0 -116 -75.5 -180.5t-195.5 -64.5z" />
    <glyph glyph-name="agrave" unicode="&#xe0;" horiz-adv-x="546" 
d="M355 560h-77l-96 148h130zM293 512q100 0 156.5 -60.5t40.5 -156.5l-46 -295h-107l12 76q-26 -38 -72.5 -61t-98.5 -23q-68 0 -111.5 39t-43.5 97q0 156 257 180l108 9l1 9q7 45 -24.5 72.5t-84.5 27.5q-47 0 -80.5 -26t-40.5 -70l-97 18q16 74 81.5 119t149.5 45z
M212 76q63 0 104 38t56 107l-2 -11l5 27l-107 -11q-138 -13 -138 -87q0 -28 22 -45.5t60 -17.5z" />
    <glyph glyph-name="aacute" unicode="&#xe1;" horiz-adv-x="546" 
d="M482 708l-142 -148h-77l89 148h130zM293 512q100 0 156.5 -60.5t40.5 -156.5l-46 -295h-107l12 76q-26 -38 -72.5 -61t-98.5 -23q-68 0 -111.5 39t-43.5 97q0 156 257 180l108 9l1 9q7 45 -24.5 72.5t-84.5 27.5q-47 0 -80.5 -26t-40.5 -70l-97 18q16 74 81.5 119
t149.5 45zM212 76q63 0 104 38t56 107l-2 -11l5 27l-107 -11q-138 -13 -138 -87q0 -28 22 -45.5t60 -17.5z" />
    <glyph glyph-name="acircumflex" unicode="&#xe2;" horiz-adv-x="546" 
d="M327 643l-90 -83h-84l138 148h91l93 -148h-82zM293 512q100 0 156.5 -60.5t40.5 -156.5l-46 -295h-107l12 76q-26 -38 -72.5 -61t-98.5 -23q-68 0 -111.5 39t-43.5 97q0 156 257 180l108 9l1 9q7 45 -24.5 72.5t-84.5 27.5q-47 0 -80.5 -26t-40.5 -70l-97 18
q16 74 81.5 119t149.5 45zM212 76q63 0 104 38t56 107l-2 -11l5 27l-107 -11q-138 -13 -138 -87q0 -28 22 -45.5t60 -17.5z" />
    <glyph glyph-name="atilde" unicode="&#xe3;" horiz-adv-x="546" 
d="M257 627q-35 0 -50 -51l-74 12q10 52 48 85t89 33q40 0 76 -27q2 -1 9 -6.5t9 -6.5t8 -4.5t9.5 -4.5t8.5 -2t11 -1q35 0 49 50l75 -12q-10 -53 -48 -85.5t-89 -32.5q-40 0 -76 26q-3 2 -11.5 8.5t-11 8t-9 5t-12 4.5t-11.5 1zM293 512q100 0 156.5 -60.5t40.5 -156.5
l-46 -295h-107l12 76q-26 -38 -72.5 -61t-98.5 -23q-68 0 -111.5 39t-43.5 97q0 156 257 180l108 9l1 9q7 45 -24.5 72.5t-84.5 27.5q-47 0 -80.5 -26t-40.5 -70l-97 18q16 74 81.5 119t149.5 45zM212 76q63 0 104 38t56 107l-2 -11l5 27l-107 -11q-138 -13 -138 -87
q0 -28 22 -45.5t60 -17.5z" />
    <glyph glyph-name="adieresis" unicode="&#xe4;" horiz-adv-x="546" 
d="M236 582q-28 0 -47 19t-19 47t19 46.5t47 18.5q29 0 48.5 -18.5t19.5 -46.5t-19.5 -47t-48.5 -19zM423 582q-28 0 -47 19t-19 47t19 46.5t47 18.5q29 0 48 -18.5t19 -46.5t-19.5 -47t-47.5 -19zM293 512q100 0 156.5 -60.5t40.5 -156.5l-46 -295h-107l12 76
q-26 -38 -72.5 -61t-98.5 -23q-68 0 -111.5 39t-43.5 97q0 156 257 180l108 9l1 9q7 45 -24.5 72.5t-84.5 27.5q-47 0 -80.5 -26t-40.5 -70l-97 18q16 74 81.5 119t149.5 45zM212 76q63 0 104 38t56 107l-2 -11l5 27l-107 -11q-138 -13 -138 -87q0 -28 22 -45.5t60 -17.5z
" />
    <glyph glyph-name="aring" unicode="&#xe5;" horiz-adv-x="546" 
d="M312 542q-49 0 -81 30t-32 76t32 76.5t81 30.5t81.5 -30.5t32.5 -76.5t-32.5 -76t-81.5 -30zM312 697q-21 0 -35.5 -14t-14.5 -35t14.5 -34.5t35.5 -13.5q22 0 36.5 13.5t14.5 34.5q0 22 -14 35.5t-37 13.5zM293 512q100 0 156.5 -60.5t40.5 -156.5l-46 -295h-107l12 76
q-26 -38 -72.5 -61t-98.5 -23q-68 0 -111.5 39t-43.5 97q0 156 257 180l108 9l1 9q7 45 -24.5 72.5t-84.5 27.5q-47 0 -80.5 -26t-40.5 -70l-97 18q16 74 81.5 119t149.5 45zM212 76q63 0 104 38t56 107l-2 -11l5 27l-107 -11q-138 -13 -138 -87q0 -28 22 -45.5t60 -17.5z
" />
    <glyph glyph-name="ae" unicode="&#xe6;" horiz-adv-x="907" 
d="M868 226h-383q-4 -64 29.5 -102.5t92.5 -38.5q49 0 86 22.5t53 63.5l99 -26q-31 -73 -98.5 -113t-156.5 -40q-129 0 -185 103q-80 -103 -218 -103q-77 0 -121 36t-44 94q0 83 69 133.5t197 50.5h98l3 20q7 46 -20 73.5t-79 27.5q-47 0 -82.5 -26t-44.5 -65l-92 19
q22 69 86.5 113t145.5 44q123 0 170 -75q78 75 194 75q103 0 158.5 -60t55.5 -147q0 -30 -13 -79zM654 426q-54 0 -93.5 -31t-59.5 -86h267q3 53 -26.5 85t-87.5 32zM209 74q62 0 105.5 37t56.5 98l3 18h-101q-68 0 -105.5 -26t-37.5 -66q0 -27 22 -44t57 -17z" />
    <glyph glyph-name="ccedilla" unicode="&#xe7;" horiz-adv-x="558" 
d="M277 87q48 0 82 24.5t45 66.5l108 -21q-19 -71 -78 -115t-144 -49l-85 -140h-130l138 144q-80 17 -128.5 78.5t-48.5 145.5q0 128 80.5 209.5t208.5 81.5q91 0 152 -51t62 -128l-114 -20q0 44 -32 74t-80 30q-73 0 -117.5 -51t-44.5 -134q0 -63 35 -104t91 -41z" />
    <glyph glyph-name="egrave" unicode="&#xe8;" horiz-adv-x="566" 
d="M371 560h-78l-96 148h130zM528 228h-385v-3q0 -64 36 -102t96 -38q101 0 129 86l103 -26q-22 -69 -89.5 -111t-156.5 -42q-99 0 -162.5 64t-63.5 163q0 119 76 206t205 87q103 0 163.5 -61t60.5 -146q0 -38 -12 -77zM302 426q-53 0 -91 -31.5t-56 -85.5h273
q3 51 -31.5 84t-94.5 33z" />
    <glyph glyph-name="eacute" unicode="&#xe9;" horiz-adv-x="566" 
d="M497 708l-142 -148h-77l89 148h130zM528 228h-385v-3q0 -64 36 -102t96 -38q101 0 129 86l103 -26q-22 -69 -89.5 -111t-156.5 -42q-99 0 -162.5 64t-63.5 163q0 119 76 206t205 87q103 0 163.5 -61t60.5 -146q0 -38 -12 -77zM302 426q-53 0 -91 -31.5t-56 -85.5h273
q3 51 -31.5 84t-94.5 33z" />
    <glyph glyph-name="ecircumflex" unicode="&#xea;" horiz-adv-x="566" 
d="M342 643l-90 -83h-84l138 148h91l92 -148h-82zM528 228h-385v-3q0 -64 36 -102t96 -38q101 0 129 86l103 -26q-22 -69 -89.5 -111t-156.5 -42q-99 0 -162.5 64t-63.5 163q0 119 76 206t205 87q103 0 163.5 -61t60.5 -146q0 -38 -12 -77zM302 426q-53 0 -91 -31.5
t-56 -85.5h273q3 51 -31.5 84t-94.5 33z" />
    <glyph glyph-name="edieresis" unicode="&#xeb;" horiz-adv-x="566" 
d="M251 582q-28 0 -46.5 19t-18.5 47t18.5 46.5t46.5 18.5q29 0 48.5 -18.5t19.5 -46.5t-19.5 -47t-48.5 -19zM438 582q-28 0 -47 19t-19 47t19 46.5t47 18.5q29 0 48 -18.5t19 -46.5t-19.5 -47t-47.5 -19zM528 228h-385v-3q0 -64 36 -102t96 -38q101 0 129 86l103 -26
q-22 -69 -89.5 -111t-156.5 -42q-99 0 -162.5 64t-63.5 163q0 119 76 206t205 87q103 0 163.5 -61t60.5 -146q0 -38 -12 -77zM302 426q-53 0 -91 -31.5t-56 -85.5h273q3 51 -31.5 84t-94.5 33z" />
    <glyph glyph-name="igrave" unicode="&#xec;" horiz-adv-x="238" 
d="M210 560h-78l-96 148h130zM26 0l80 504h109l-80 -504h-109z" />
    <glyph glyph-name="iacute" unicode="&#xed;" horiz-adv-x="238" 
d="M117 560l89 148h130l-142 -148h-77zM26 0l80 504h109l-80 -504h-109z" />
    <glyph glyph-name="icircumflex" unicode="&#xee;" horiz-adv-x="238" 
d="M146 708h91l92 -148h-82l-65 83l-90 -83h-84zM26 0l80 504h109l-80 -504h-109z" />
    <glyph glyph-name="idieresis" unicode="&#xef;" horiz-adv-x="238" 
d="M90 582q-28 0 -46.5 19t-18.5 47t18.5 46.5t46.5 18.5q29 0 48.5 -18.5t19.5 -46.5t-19.5 -47t-48.5 -19zM277 582q-28 0 -47 19t-19 47t19 46.5t47 18.5q29 0 48 -18.5t19 -46.5t-19.5 -47t-47.5 -19zM26 0l80 504h109l-80 -504h-109z" />
    <glyph glyph-name="eth" unicode="&#xf0;" horiz-adv-x="652" 
d="M639 615l-95 -23q15 -75 15 -167q0 -122 -25 -210t-68.5 -134.5t-93.5 -67.5t-109 -21q-105 0 -168 57.5t-63 152.5q0 118 80 201t193 83q54 0 94 -17.5t58 -47.5q2 64 -13 146l-120 -29l-5 75l108 26q-9 31 -26 69h108q12 -30 17 -45l108 26zM268 87q72 0 121 52.5
t49 131.5q0 56 -34 88.5t-95 32.5q-70 0 -118.5 -53t-48.5 -130q0 -53 35.5 -87.5t90.5 -34.5z" />
    <glyph glyph-name="ntilde" unicode="&#xf1;" 
d="M234 576l-74 12q10 52 48 85t89 33q39 0 76 -27q2 -1 9 -6.5t9 -6.5t8 -4.5t9 -4.5t8.5 -2t10.5 -1q36 0 50 50l74 -12q-10 -53 -48 -85.5t-88 -32.5q-39 0 -77 26q-3 2 -8 6l-7.5 6t-7 5t-7.5 4.5t-7 3t-8 2t-9 0.5q-36 0 -50 -51zM26 0l80 504h109l-13 -84
q72 92 180 92q81 0 123.5 -49.5t29.5 -130.5l-52 -332h-109l49 307q8 48 -15.5 77.5t-71.5 29.5q-63 0 -107 -51t-59 -142l-35 -221h-109z" />
    <glyph glyph-name="ograve" unicode="&#xf2;" horiz-adv-x="587" 
d="M386 560h-78l-96 148h130zM267 -8q-101 0 -166.5 63t-65.5 159q0 128 82.5 213t207.5 85q101 0 166.5 -62.5t65.5 -159.5q0 -128 -83 -213t-207 -85zM278 87q74 0 121 54t47 138q0 61 -37 99.5t-95 38.5q-75 0 -121.5 -54t-46.5 -138q0 -60 37 -99t95 -39z" />
    <glyph glyph-name="oacute" unicode="&#xf3;" horiz-adv-x="587" 
d="M293 560l89 148h130l-142 -148h-77zM267 -8q-101 0 -166.5 63t-65.5 159q0 128 82.5 213t207.5 85q101 0 166.5 -62.5t65.5 -159.5q0 -128 -83 -213t-207 -85zM278 87q74 0 121 54t47 138q0 61 -37 99.5t-95 38.5q-75 0 -121.5 -54t-46.5 -138q0 -60 37 -99t95 -39z" />
    <glyph glyph-name="ocircumflex" unicode="&#xf4;" horiz-adv-x="587" 
d="M322 708h91l92 -148h-82l-65 83l-90 -83h-84zM267 -8q-101 0 -166.5 63t-65.5 159q0 128 82.5 213t207.5 85q101 0 166.5 -62.5t65.5 -159.5q0 -128 -83 -213t-207 -85zM278 87q74 0 121 54t47 138q0 61 -37 99.5t-95 38.5q-75 0 -121.5 -54t-46.5 -138q0 -60 37 -99
t95 -39z" />
    <glyph glyph-name="otilde" unicode="&#xf5;" horiz-adv-x="587" 
d="M238 576l-74 12q10 52 48 85t89 33q39 0 76 -27q2 -1 9 -6.5t9 -6.5t8 -4.5t9 -4.5t8.5 -2t10.5 -1q36 0 50 50l74 -12q-10 -53 -48 -85.5t-88 -32.5q-39 0 -77 26q-3 2 -8 6l-7.5 6t-7 5t-7.5 4.5t-7 3t-8 2t-9 0.5q-36 0 -50 -51zM267 -8q-101 0 -166.5 63t-65.5 159
q0 128 82.5 213t207.5 85q101 0 166.5 -62.5t65.5 -159.5q0 -128 -83 -213t-207 -85zM278 87q74 0 121 54t47 138q0 61 -37 99.5t-95 38.5q-75 0 -121.5 -54t-46.5 -138q0 -60 37 -99t95 -39z" />
    <glyph glyph-name="odieresis" unicode="&#xf6;" horiz-adv-x="587" 
d="M266 582q-28 0 -46.5 19t-18.5 47t18.5 46.5t46.5 18.5q29 0 48.5 -18.5t19.5 -46.5t-19.5 -47t-48.5 -19zM453 582q-28 0 -47 19t-19 47t19 46.5t47 18.5q29 0 48 -18.5t19 -46.5t-19.5 -47t-47.5 -19zM267 -8q-101 0 -166.5 63t-65.5 159q0 128 82.5 213t207.5 85
q101 0 166.5 -62.5t65.5 -159.5q0 -128 -83 -213t-207 -85zM278 87q74 0 121 54t47 138q0 61 -37 99.5t-95 38.5q-75 0 -121.5 -54t-46.5 -138q0 -60 37 -99t95 -39z" />
    <glyph glyph-name="divide" unicode="&#xf7;" horiz-adv-x="544" 
d="M309 462q-27 0 -43.5 17t-16.5 43q0 33 24.5 56.5t58.5 23.5q27 0 43.5 -17t16.5 -43q0 -33 -24.5 -56.5t-58.5 -23.5zM39 281l15 94h478l-15 -94h-478zM245 54q-27 0 -44 17t-17 43q0 33 24.5 56.5t58.5 23.5q27 0 44 -17t17 -43q0 -33 -25 -56.5t-58 -23.5z" />
    <glyph glyph-name="oslash" unicode="&#xf8;" horiz-adv-x="587" 
d="M586 490l-70 -69q41 -57 41 -131q0 -128 -83 -213t-207 -85q-83 0 -144 44l-71 -70l-48 48l71 70q-40 58 -40 130q0 128 82.5 213t207.5 85q81 0 143 -43l71 69zM146 225q0 -33 12 -60l233 228q-31 24 -77 24q-75 0 -121.5 -54t-46.5 -138zM446 279q0 33 -12 62
l-234 -230q34 -24 78 -24q74 0 121 54t47 138z" />
    <glyph glyph-name="ugrave" unicode="&#xf9;" 
d="M381 560h-78l-96 148h130zM563 504l-80 -504h-109l13 84q-72 -92 -180 -92q-81 0 -123.5 49.5t-29.5 130.5l52 332h109l-49 -307q-8 -48 15.5 -77.5t71.5 -29.5q63 0 107.5 51.5t58.5 141.5l35 221h109z" />
    <glyph glyph-name="uacute" unicode="&#xfa;" 
d="M288 560l89 148h130l-142 -148h-77zM563 504l-80 -504h-109l13 84q-72 -92 -180 -92q-81 0 -123.5 49.5t-29.5 130.5l52 332h109l-49 -307q-8 -48 15.5 -77.5t71.5 -29.5q63 0 107.5 51.5t58.5 141.5l35 221h109z" />
    <glyph glyph-name="ucircumflex" unicode="&#xfb;" 
d="M317 708h91l92 -148h-82l-65 83l-90 -83h-84zM563 504l-80 -504h-109l13 84q-72 -92 -180 -92q-81 0 -123.5 49.5t-29.5 130.5l52 332h109l-49 -307q-8 -48 15.5 -77.5t71.5 -29.5q63 0 107.5 51.5t58.5 141.5l35 221h109z" />
    <glyph glyph-name="udieresis" unicode="&#xfc;" 
d="M261 582q-28 0 -46.5 19t-18.5 47t18.5 46.5t46.5 18.5q29 0 48.5 -18.5t19.5 -46.5t-19.5 -47t-48.5 -19zM448 582q-28 0 -47 19t-19 47t19 46.5t47 18.5q29 0 48 -18.5t19 -46.5t-19.5 -47t-47.5 -19zM563 504l-80 -504h-109l13 84q-72 -92 -180 -92q-81 0 -123.5 49.5
t-29.5 130.5l52 332h109l-49 -307q-8 -48 15.5 -77.5t71.5 -29.5q63 0 107.5 51.5t58.5 141.5l35 221h109z" />
    <glyph glyph-name="yacute" unicode="&#xfd;" horiz-adv-x="508" 
d="M469 708l-142 -148h-77l89 148h130zM427 504h111l-374 -686h-107l110 204l-117 482h112l77 -349z" />
    <glyph glyph-name="thorn" unicode="&#xfe;" horiz-adv-x="603" 
d="M-4 -192l142 896h109l-42 -264q27 32 72 52t96 20q95 0 147.5 -59t52.5 -155q0 -131 -77.5 -218.5t-199.5 -87.5q-52 0 -93 20.5t-57 55.5l-41 -260h-109zM298 87q72 0 118.5 53.5t46.5 142.5q0 63 -33.5 98.5t-90.5 35.5q-76 0 -125.5 -53.5t-49.5 -142.5
q0 -62 36.5 -98t97.5 -36z" />
    <glyph glyph-name="ydieresis" unicode="&#xff;" horiz-adv-x="508" 
d="M223 582q-28 0 -46.5 19t-18.5 47t18.5 46.5t46.5 18.5q29 0 48.5 -18.5t19.5 -46.5t-19.5 -47t-48.5 -19zM410 582q-28 0 -47 19t-19 47t19 46.5t47 18.5q29 0 48 -18.5t19 -46.5t-19.5 -47t-47.5 -19zM427 504h111l-374 -686h-107l110 204l-117 482h112l77 -349z" />
    <glyph glyph-name="Amacron" unicode="&#x100;" horiz-adv-x="670" 
d="M571 869l-14 -86h-273l13 86h274zM502 0l-36 165h-286l-89 -165h-121l383 700h109l162 -700h-122zM234 266h211l-61 280z" />
    <glyph glyph-name="amacron" unicode="&#x101;" horiz-adv-x="546" 
d="M468 673l-13 -86h-273l13 86h273zM293 512q100 0 156.5 -60.5t40.5 -156.5l-46 -295h-107l12 76q-26 -38 -72.5 -61t-98.5 -23q-68 0 -111.5 39t-43.5 97q0 156 257 180l108 9l1 9q7 45 -24.5 72.5t-84.5 27.5q-47 0 -80.5 -26t-40.5 -70l-97 18q16 74 81.5 119t149.5 45
zM212 76q63 0 104 38t56 107l-2 -11l5 27l-107 -11q-138 -13 -138 -87q0 -28 22 -45.5t60 -17.5z" />
    <glyph glyph-name="Abreve" unicode="&#x102;" horiz-adv-x="670" 
d="M416 753q-58 0 -90 37.5t-23 94.5h83q-5 -26 7 -42t35 -16t40.5 16.5t21.5 41.5h83q-10 -57 -54.5 -94.5t-102.5 -37.5zM502 0l-36 165h-286l-89 -165h-121l383 700h109l162 -700h-122zM234 266h211l-61 280z" />
    <glyph glyph-name="abreve" unicode="&#x103;" horiz-adv-x="546" 
d="M314 557q-59 0 -91 37.5t-22 94.5h82q-4 -26 7.5 -42t34.5 -16t40.5 16t22.5 42h82q-9 -57 -53.5 -94.5t-102.5 -37.5zM293 512q100 0 156.5 -60.5t40.5 -156.5l-46 -295h-107l12 76q-26 -38 -72.5 -61t-98.5 -23q-68 0 -111.5 39t-43.5 97q0 156 257 180l108 9l1 9
q7 45 -24.5 72.5t-84.5 27.5q-47 0 -80.5 -26t-40.5 -70l-97 18q16 74 81.5 119t149.5 45zM212 76q63 0 104 38t56 107l-2 -11l5 27l-107 -11q-138 -13 -138 -87q0 -28 22 -45.5t60 -17.5z" />
    <glyph glyph-name="Aogonek" unicode="&#x104;" horiz-adv-x="670" 
d="M537 -77q0 -15 10 -24t27 -9q19 0 27 4v-78q-20 -6 -54 -6q-48 0 -75.5 23.5t-27.5 62.5q0 53 57 107l-35 162h-286l-89 -165h-121l383 700h109l162 -700h-34q-53 -44 -53 -77zM234 266h211l-61 280z" />
    <glyph glyph-name="aogonek" unicode="&#x105;" horiz-adv-x="546" 
d="M444 0q-53 -44 -53 -77q0 -15 10 -24t27 -9q19 0 27 4v-78q-20 -6 -54 -6q-48 0 -75.5 23.5t-27.5 62.5q0 54 55 104h-16l12 76q-26 -38 -72.5 -61t-98.5 -23q-68 0 -111.5 39t-43.5 97q0 156 257 180l108 9l1 9q7 45 -24.5 72.5t-84.5 27.5q-47 0 -80.5 -26t-40.5 -70
l-97 18q16 74 81.5 119t149.5 45q100 0 156.5 -60.5t40.5 -156.5zM212 76q63 0 104 38t56 107l-2 -11l5 27l-107 -11q-138 -13 -138 -87q0 -28 22 -45.5t60 -17.5z" />
    <glyph glyph-name="Cacute" unicode="&#x106;" horiz-adv-x="724" 
d="M406 756l89 148h130l-142 -148h-77zM352 -8q-128 0 -215 80.5t-87 222.5q0 100 34 180.5t91 130t127.5 76t147.5 26.5q122 0 197.5 -62t77.5 -166l-119 -25q-4 70 -51 110.5t-122 40.5q-114 0 -188.5 -79.5t-74.5 -219.5q0 -98 55.5 -155t142.5 -57q72 0 124 37.5
t75 103.5l115 -25q-37 -104 -124 -161.5t-206 -57.5z" />
    <glyph glyph-name="cacute" unicode="&#x107;" horiz-adv-x="558" 
d="M289 560l89 148h130l-142 -148h-77zM266 -8q-100 0 -165 65t-65 164q0 128 80.5 209.5t208.5 81.5q91 0 152 -51t62 -128l-114 -20q0 44 -32 74t-80 30q-73 0 -117.5 -51t-44.5 -134q0 -63 35 -104t91 -41q48 0 82 24.5t45 66.5l108 -21q-20 -76 -86 -120.5t-160 -44.5z
" />
    <glyph glyph-name="Ccircumflex" unicode="&#x108;" horiz-adv-x="724" 
d="M435 904h91l92 -148h-82l-65 83l-90 -83h-84zM352 -8q-128 0 -215 80.5t-87 222.5q0 100 34 180.5t91 130t127.5 76t147.5 26.5q122 0 197.5 -62t77.5 -166l-119 -25q-4 70 -51 110.5t-122 40.5q-114 0 -188.5 -79.5t-74.5 -219.5q0 -98 55.5 -155t142.5 -57
q72 0 124 37.5t75 103.5l115 -25q-37 -104 -124 -161.5t-206 -57.5z" />
    <glyph glyph-name="ccircumflex" unicode="&#x109;" horiz-adv-x="558" 
d="M318 708h91l92 -148h-82l-65 83l-90 -83h-84zM266 -8q-100 0 -165 65t-65 164q0 128 80.5 209.5t208.5 81.5q91 0 152 -51t62 -128l-114 -20q0 44 -32 74t-80 30q-73 0 -117.5 -51t-44.5 -134q0 -63 35 -104t91 -41q48 0 82 24.5t45 66.5l108 -21q-20 -76 -86 -120.5
t-160 -44.5z" />
    <glyph glyph-name="Cdotaccent" unicode="&#x10a;" horiz-adv-x="724" 
d="M474 784q-30 0 -50.5 20t-20.5 50t20 50.5t51 20.5t51.5 -20.5t20.5 -50.5q0 -29 -20.5 -49.5t-51.5 -20.5zM352 -8q-128 0 -215 80.5t-87 222.5q0 100 34 180.5t91 130t127.5 76t147.5 26.5q122 0 197.5 -62t77.5 -166l-119 -25q-4 70 -51 110.5t-122 40.5
q-114 0 -188.5 -79.5t-74.5 -219.5q0 -98 55.5 -155t142.5 -57q72 0 124 37.5t75 103.5l115 -25q-37 -104 -124 -161.5t-206 -57.5z" />
    <glyph glyph-name="cdotaccent" unicode="&#x10b;" horiz-adv-x="558" 
d="M358 588q-30 0 -50.5 20t-20.5 50t20 50.5t51 20.5t51.5 -20.5t20.5 -50.5q0 -29 -20.5 -49.5t-51.5 -20.5zM266 -8q-100 0 -165 65t-65 164q0 128 80.5 209.5t208.5 81.5q91 0 152 -51t62 -128l-114 -20q0 44 -32 74t-80 30q-73 0 -117.5 -51t-44.5 -134q0 -63 35 -104
t91 -41q48 0 82 24.5t45 66.5l108 -21q-20 -76 -86 -120.5t-160 -44.5z" />
    <glyph glyph-name="Ccaron" unicode="&#x10c;" horiz-adv-x="724" 
d="M412 756l-92 148h79l66 -82l89 82h87l-138 -148h-91zM352 -8q-128 0 -215 80.5t-87 222.5q0 100 34 180.5t91 130t127.5 76t147.5 26.5q122 0 197.5 -62t77.5 -166l-119 -25q-4 70 -51 110.5t-122 40.5q-114 0 -188.5 -79.5t-74.5 -219.5q0 -98 55.5 -155t142.5 -57
q72 0 124 37.5t75 103.5l115 -25q-37 -104 -124 -161.5t-206 -57.5z" />
    <glyph glyph-name="ccaron" unicode="&#x10d;" horiz-adv-x="558" 
d="M296 560l-92 148h79l66 -82l89 82h87l-138 -148h-91zM266 -8q-100 0 -165 65t-65 164q0 128 80.5 209.5t208.5 81.5q91 0 152 -51t62 -128l-114 -20q0 44 -32 74t-80 30q-73 0 -117.5 -51t-44.5 -134q0 -63 35 -104t91 -41q48 0 82 24.5t45 66.5l108 -21
q-20 -76 -86 -120.5t-160 -44.5z" />
    <glyph glyph-name="Dcaron" unicode="&#x10e;" horiz-adv-x="682" 
d="M341 756l-92 148h79l66 -82l89 82h87l-138 -148h-91zM31 0l111 700h220q135 0 220.5 -77t85.5 -216q0 -96 -34.5 -174.5t-92.5 -128.5t-132.5 -77t-157.5 -27h-220zM163 103h96q56 0 106 16.5t91.5 50.5t66 92t24.5 133q0 103 -59 153t-151 50h-96z" />
    <glyph glyph-name="dcaron" unicode="&#x10f;" horiz-adv-x="707" 
d="M634 560l60 181h107l-103 -181h-64zM239 -8q-98 0 -151 58.5t-53 155.5q0 132 77.5 219t201.5 87q52 0 90.5 -21t57.5 -54l42 271h109l-112 -708h-109l11 64q-23 -32 -68.5 -52t-95.5 -20zM268 87q76 0 125.5 55t49.5 140q0 62 -33.5 98.5t-94.5 36.5q-72 0 -121 -55
t-49 -140q0 -61 33 -98t90 -37z" />
    <glyph glyph-name="Dcroat" unicode="&#x110;" horiz-adv-x="682" 
d="M362 700q135 0 220.5 -77t85.5 -216q0 -96 -34.5 -174.5t-92.5 -128.5t-132.5 -77t-157.5 -27h-220l49 311h-62l12 78h63l49 311h220zM259 103q56 0 106 16.5t91.5 50.5t66 92t24.5 133q0 103 -59 153t-151 50h-96l-33 -209h135l-12 -78h-135l-33 -208h96z" />
    <glyph glyph-name="dcroat" unicode="&#x111;" horiz-adv-x="604" 
d="M681 645l-12 -78h-78l-90 -567h-109l11 64q-23 -32 -68.5 -52t-95.5 -20q-98 0 -151 58.5t-53 155.5q0 132 77.5 219t201.5 87q52 0 90.5 -21t57.5 -54l20 130h-126l12 78h126l10 63h109l-10 -63h78zM268 87q76 0 125.5 55t49.5 140q0 62 -33.5 98.5t-94.5 36.5
q-72 0 -121 -55t-49 -140q0 -61 33 -98t90 -37z" />
    <glyph glyph-name="Emacron" unicode="&#x112;" horiz-adv-x="575" 
d="M254 783l13 86h274l-14 -86h-273zM31 0l111 700h456l-16 -102h-339l-28 -176h273l-16 -102h-274l-34 -217h351l-17 -103h-467z" />
    <glyph glyph-name="emacron" unicode="&#x113;" horiz-adv-x="566" 
d="M483 673l-14 -86h-273l13 86h274zM528 228h-385v-3q0 -64 36 -102t96 -38q101 0 129 86l103 -26q-22 -69 -89.5 -111t-156.5 -42q-99 0 -162.5 64t-63.5 163q0 119 76 206t205 87q103 0 163.5 -61t60.5 -146q0 -38 -12 -77zM302 426q-53 0 -91 -31.5t-56 -85.5h273
q3 51 -31.5 84t-94.5 33z" />
    <glyph glyph-name="Ebreve" unicode="&#x114;" horiz-adv-x="575" 
d="M386 753q-58 0 -90 37.5t-23 94.5h83q-5 -26 7 -42t35 -16t40.5 16.5t21.5 41.5h83q-10 -57 -54.5 -94.5t-102.5 -37.5zM31 0l111 700h456l-16 -102h-339l-28 -176h273l-16 -102h-274l-34 -217h351l-17 -103h-467z" />
    <glyph glyph-name="ebreve" unicode="&#x115;" horiz-adv-x="566" 
d="M328 557q-58 0 -90 37.5t-23 94.5h83q-5 -26 7 -42t35 -16t40.5 16.5t21.5 41.5h83q-10 -57 -54.5 -94.5t-102.5 -37.5zM528 228h-385v-3q0 -64 36 -102t96 -38q101 0 129 86l103 -26q-22 -69 -89.5 -111t-156.5 -42q-99 0 -162.5 64t-63.5 163q0 119 76 206t205 87
q103 0 163.5 -61t60.5 -146q0 -38 -12 -77zM302 426q-53 0 -91 -31.5t-56 -85.5h273q3 51 -31.5 84t-94.5 33z" />
    <glyph glyph-name="Edotaccent" unicode="&#x116;" horiz-adv-x="575" 
d="M403 784q-31 0 -51 20t-20 50t20 50.5t51 20.5t51.5 -20.5t20.5 -50.5q0 -29 -20.5 -49.5t-51.5 -20.5zM31 0l111 700h456l-16 -102h-339l-28 -176h273l-16 -102h-274l-34 -217h351l-17 -103h-467z" />
    <glyph glyph-name="edotaccent" unicode="&#x117;" horiz-adv-x="566" 
d="M346 588q-30 0 -50.5 20t-20.5 50t20 50.5t51 20.5t51.5 -20.5t20.5 -50.5q0 -29 -20.5 -49.5t-51.5 -20.5zM528 228h-385v-3q0 -64 36 -102t96 -38q101 0 129 86l103 -26q-22 -69 -89.5 -111t-156.5 -42q-99 0 -162.5 64t-63.5 163q0 119 76 206t205 87q103 0 163.5 -61
t60.5 -146q0 -38 -12 -77zM302 426q-53 0 -91 -31.5t-56 -85.5h273q3 51 -31.5 84t-94.5 33z" />
    <glyph glyph-name="Eogonek" unicode="&#x118;" horiz-adv-x="575" 
d="M582 598h-339l-28 -176h273l-16 -102h-274l-34 -217h351l-17 -103h1q-53 -44 -53 -77q0 -15 10 -24t27 -9q19 0 27 4v-78q-20 -6 -54 -6q-48 0 -75.5 23.5t-27.5 62.5q0 54 55 104h-377l111 700h456z" />
    <glyph glyph-name="eogonek" unicode="&#x119;" horiz-adv-x="566" 
d="M528 228h-385v-3q0 -64 36 -102t96 -38q101 0 129 86l103 -26q-19 -59 -72 -98.5t-125 -50.5q-48 -41 -48 -73q0 -15 10 -24t27 -9q19 0 27 4v-78q-20 -6 -54 -6q-48 0 -75.5 23.5t-27.5 62.5q0 51 50 99q-83 14 -133.5 75t-50.5 149q0 119 76 206t205 87
q103 0 163.5 -61t60.5 -146q0 -38 -12 -77zM302 426q-53 0 -91 -31.5t-56 -85.5h273q3 51 -31.5 84t-94.5 33z" />
    <glyph glyph-name="Ecaron" unicode="&#x11a;" horiz-adv-x="575" 
d="M341 756l-92 148h79l66 -82l89 82h87l-138 -148h-91zM31 0l111 700h456l-16 -102h-339l-28 -176h273l-16 -102h-274l-34 -217h351l-17 -103h-467z" />
    <glyph glyph-name="ecaron" unicode="&#x11b;" horiz-adv-x="566" 
d="M375 560h-91l-92 148h79l66 -82l89 82h87zM528 228h-385v-3q0 -64 36 -102t96 -38q101 0 129 86l103 -26q-22 -69 -89.5 -111t-156.5 -42q-99 0 -162.5 64t-63.5 163q0 119 76 206t205 87q103 0 163.5 -61t60.5 -146q0 -38 -12 -77zM302 426q-53 0 -91 -31.5t-56 -85.5
h273q3 51 -31.5 84t-94.5 33z" />
    <glyph glyph-name="Gcircumflex" unicode="&#x11c;" horiz-adv-x="748" 
d="M431 904h91l92 -148h-82l-65 83l-90 -83h-84zM339 -8q-124 0 -207 78t-83 220q0 100 35.5 181.5t94 132t130.5 77.5t149 27q122 0 195 -61t76 -167l-118 -24q-4 69 -49.5 109.5t-120.5 40.5q-117 0 -194 -82.5t-77 -221.5q0 -98 51 -152.5t138 -54.5q86 0 147 48.5
t78 128.5h-223l16 97h332l-58 -369h-106l14 94q-31 -46 -91 -74t-129 -28z" />
    <glyph glyph-name="gcircumflex" unicode="&#x11d;" horiz-adv-x="595" 
d="M351 643l-90 -83h-84l138 148h91l92 -148h-82zM572 504l-63 -399l-12 -77q-16 -97 -93 -157.5t-186 -60.5q-89 0 -145 43t-57 112l105 17q-2 -37 29.5 -60t81.5 -23q61 0 104 32.5t51 85.5l10 60q-24 -28 -67 -45.5t-92 -17.5q-97 0 -149.5 56.5t-52.5 149.5
q0 126 77 209t201 83q47 0 85 -18t56 -48l9 58h108zM267 109q74 0 121.5 51t47.5 131q0 57 -32 91.5t-88 34.5q-74 0 -121.5 -50.5t-47.5 -130.5q0 -58 32 -92.5t88 -34.5z" />
    <glyph glyph-name="Gbreve" unicode="&#x11e;" horiz-adv-x="748" 
d="M453 753q-58 0 -90 37.5t-23 94.5h83q-5 -26 7 -42t35 -16t40.5 16.5t21.5 41.5h83q-10 -57 -54.5 -94.5t-102.5 -37.5zM339 -8q-124 0 -207 78t-83 220q0 100 35.5 181.5t94 132t130.5 77.5t149 27q122 0 195 -61t76 -167l-118 -24q-4 69 -49.5 109.5t-120.5 40.5
q-117 0 -194 -82.5t-77 -221.5q0 -98 51 -152.5t138 -54.5q86 0 147 48.5t78 128.5h-223l16 97h332l-58 -369h-106l14 94q-31 -46 -91 -74t-129 -28z" />
    <glyph glyph-name="gbreve" unicode="&#x11f;" horiz-adv-x="595" 
d="M337 557q-58 0 -90 37.5t-23 94.5h83q-5 -26 7 -42t35 -16t40.5 16.5t21.5 41.5h83q-10 -57 -54.5 -94.5t-102.5 -37.5zM572 504l-63 -399l-12 -77q-16 -97 -93 -157.5t-186 -60.5q-89 0 -145 43t-57 112l105 17q-2 -37 29.5 -60t81.5 -23q61 0 104 32.5t51 85.5l10 60
q-24 -28 -67 -45.5t-92 -17.5q-97 0 -149.5 56.5t-52.5 149.5q0 126 77 209t201 83q47 0 85 -18t56 -48l9 58h108zM267 109q74 0 121.5 51t47.5 131q0 57 -32 91.5t-88 34.5q-74 0 -121.5 -50.5t-47.5 -130.5q0 -58 32 -92.5t88 -34.5z" />
    <glyph glyph-name="Gdotaccent" unicode="&#x120;" horiz-adv-x="748" 
d="M471 784q-31 0 -51 20t-20 50t20 50.5t51 20.5t51.5 -20.5t20.5 -50.5q0 -29 -20.5 -49.5t-51.5 -20.5zM339 -8q-124 0 -207 78t-83 220q0 100 35.5 181.5t94 132t130.5 77.5t149 27q122 0 195 -61t76 -167l-118 -24q-4 69 -49.5 109.5t-120.5 40.5q-117 0 -194 -82.5
t-77 -221.5q0 -98 51 -152.5t138 -54.5q86 0 147 48.5t78 128.5h-223l16 97h332l-58 -369h-106l14 94q-31 -46 -91 -74t-129 -28z" />
    <glyph glyph-name="gdotaccent" unicode="&#x121;" horiz-adv-x="595" 
d="M354 588q-30 0 -50.5 20t-20.5 50t20 50.5t51 20.5t51.5 -20.5t20.5 -50.5q0 -29 -20.5 -49.5t-51.5 -20.5zM572 504l-63 -399l-12 -77q-16 -97 -93 -157.5t-186 -60.5q-89 0 -145 43t-57 112l105 17q-2 -37 29.5 -60t81.5 -23q61 0 104 32.5t51 85.5l10 60
q-24 -28 -67 -45.5t-92 -17.5q-97 0 -149.5 56.5t-52.5 149.5q0 126 77 209t201 83q47 0 85 -18t56 -48l9 58h108zM267 109q74 0 121.5 51t47.5 131q0 57 -32 91.5t-88 34.5q-74 0 -121.5 -50.5t-47.5 -130.5q0 -58 32 -92.5t88 -34.5z" />
    <glyph glyph-name="uni0122" unicode="&#x122;" horiz-adv-x="748" 
d="M339 -8q-124 0 -207 78t-83 220q0 100 35.5 181.5t94 132t130.5 77.5t149 27q122 0 195 -61t76 -167l-118 -24q-4 69 -49.5 109.5t-120.5 40.5q-117 0 -194 -82.5t-77 -221.5q0 -98 51 -152.5t138 -54.5q86 0 147 48.5t78 128.5h-223l16 97h332l-58 -369h-106l14 94
q-31 -46 -91 -74t-129 -28zM203 -190l64 148h121l-108 -148h-77z" />
    <glyph glyph-name="uni0123" unicode="&#x123;" horiz-adv-x="595" 
d="M462 708l-50 -148h-117l84 148h83zM572 504l-63 -399l-12 -77q-16 -97 -93 -157.5t-186 -60.5q-89 0 -145 43t-57 112l105 17q-2 -37 29.5 -60t81.5 -23q61 0 104 32.5t51 85.5l10 60q-24 -28 -67 -45.5t-92 -17.5q-97 0 -149.5 56.5t-52.5 149.5q0 126 77 209t201 83
q47 0 85 -18t56 -48l9 58h108zM267 109q74 0 121.5 51t47.5 131q0 57 -32 91.5t-88 34.5q-74 0 -121.5 -50.5t-47.5 -130.5q0 -58 32 -92.5t88 -34.5z" />
    <glyph glyph-name="Hcircumflex" unicode="&#x124;" horiz-adv-x="703" 
d="M446 839l-90 -83h-84l138 148h91l92 -148h-82zM589 700h118l-111 -700h-118l50 314h-330l-50 -314h-117l111 700h117l-45 -283h330z" />
    <glyph glyph-name="hcircumflex" unicode="&#x125;" horiz-adv-x="591" 
d="M177 904h91l92 -148h-82l-65 83l-90 -83h-84zM26 0l112 708h109l-46 -291q68 95 180 95q86 0 129.5 -49.5t30.5 -131.5l-53 -331h-109l49 306q8 50 -16.5 79t-75.5 29q-64 0 -108 -52t-58 -144l-35 -218h-109z" />
    <glyph glyph-name="Hbar" unicode="&#x126;" horiz-adv-x="703" 
d="M756 603l-14 -89h-64l-82 -514h-118l50 314h-330l-50 -314h-117l82 514h-67l14 89h67l15 97h117l-15 -97h330l15 97h118l-15 -97h64zM544 417l16 97h-330l-16 -97h330z" />
    <glyph glyph-name="hbar" unicode="&#x127;" horiz-adv-x="591" 
d="M381 512q86 0 129.5 -49.5t30.5 -131.5l-53 -331h-109l49 306q8 50 -16.5 79t-75.5 29q-64 0 -108 -52t-58 -144l-35 -218h-109l90 568h-77l12 78h77l10 62h109l-10 -62h127l-12 -78h-127l-24 -151q68 95 180 95z" />
    <glyph glyph-name="Itilde" unicode="&#x128;" horiz-adv-x="255" 
d="M101 772l-74 12q10 52 48 85t89 33q38 0 76 -27q2 -1 9 -6.5t9 -6.5t8 -4.5t9 -4.5t8.5 -2t10.5 -1q36 0 50 50l74 -12q-10 -53 -48 -85.5t-88 -32.5q-39 0 -77 26q-3 2 -8 6l-7.5 6t-7 5t-7.5 4.5t-7 3t-8 2t-9 0.5q-37 0 -50 -51zM31 0l111 700h117l-111 -700h-117z
" />
    <glyph glyph-name="itilde" unicode="&#x129;" horiz-adv-x="238" 
d="M62 576l-74 12q10 52 48 85t89 33q39 0 76 -27q2 -1 9 -6.5t9 -6.5t8 -4.5t9 -4.5t8.5 -2t10.5 -1q36 0 50 50l74 -12q-10 -53 -48 -85.5t-88 -32.5q-39 0 -77 26q-3 2 -8 6l-7.5 6t-7 5t-7.5 4.5t-7 3t-8 2t-9 0.5q-36 0 -50 -51zM26 0l80 504h109l-80 -504h-109z" />
    <glyph glyph-name="Imacron" unicode="&#x12a;" horiz-adv-x="255" 
d="M76 783l13 86h274l-14 -86h-273zM31 0l111 700h117l-111 -700h-117z" />
    <glyph glyph-name="imacron" unicode="&#x12b;" horiz-adv-x="238" 
d="M36 587l13 86h274l-14 -86h-273zM26 0l80 504h109l-80 -504h-109z" />
    <glyph glyph-name="Ibreve" unicode="&#x12c;" horiz-adv-x="255" 
d="M208 753q-58 0 -90 37.5t-23 94.5h83q-5 -26 7 -42t35 -16t40.5 16.5t21.5 41.5h83q-10 -57 -54.5 -94.5t-102.5 -37.5zM31 0l111 700h117l-111 -700h-117z" />
    <glyph glyph-name="ibreve" unicode="&#x12d;" horiz-adv-x="238" 
d="M168 557q-58 0 -90 37.5t-23 94.5h83q-5 -26 7 -42t35 -16t40.5 16.5t21.5 41.5h83q-10 -57 -54.5 -94.5t-102.5 -37.5zM26 0l80 504h109l-80 -504h-109z" />
    <glyph glyph-name="Iogonek" unicode="&#x12e;" horiz-adv-x="255" 
d="M95 -77q0 -15 10 -24t27 -9q19 0 27 4v-78q-20 -6 -54 -6q-48 0 -75.5 23.5t-27.5 62.5q0 54 55 104h-26l111 700h117l-111 -700q-53 -44 -53 -77z" />
    <glyph glyph-name="iogonek" unicode="&#x12f;" horiz-adv-x="238" 
d="M186 729q31 0 51.5 -20.5t20.5 -50.5q0 -29 -20.5 -49.5t-51.5 -20.5q-30 0 -50.5 20t-20.5 50t20 50.5t51 20.5zM135 0q-53 -44 -53 -77q0 -15 10 -24t27 -9q19 0 27 4v-78q-20 -6 -54 -6q-48 0 -75.5 23.5t-27.5 62.5q0 54 55 104h-18l80 504h109z" />
    <glyph glyph-name="Idotaccent" unicode="&#x130;" horiz-adv-x="255" 
d="M225 784q-31 0 -51 20t-20 50t20 50.5t51 20.5t51.5 -20.5t20.5 -50.5q0 -29 -20.5 -49.5t-51.5 -20.5zM31 0l111 700h117l-111 -700h-117z" />
    <glyph glyph-name="dotlessi" unicode="&#x131;" horiz-adv-x="238" 
d="M26 0l80 504h109l-80 -504h-109z" />
    <glyph glyph-name="IJ" unicode="&#x132;" horiz-adv-x="607" 
d="M31 0l111 700h117l-111 -700h-117zM259 104q21 -6 48 -6q45 0 74.5 28.5t38.5 81.5l78 492h113l-78 -492q-17 -106 -76.5 -160t-146.5 -54q-36 0 -68 8z" />
    <glyph glyph-name="Jcircumflex" unicode="&#x134;" horiz-adv-x="352" 
d="M285 904h91l92 -148h-82l-65 83l-90 -83h-84zM4 104q21 -6 48 -6q45 0 74.5 28.5t38.5 81.5l78 492h113l-78 -492q-17 -106 -76.5 -160t-146.5 -54q-36 0 -68 8z" />
    <glyph glyph-name="jcircumflex" unicode="&#x135;" horiz-adv-x="240" 
d="M151 708h91l92 -148h-82l-65 83l-90 -83h-84zM-61 -190l-27 1l13 96q9 -1 17 -1q75 0 89 92l80 506h109l-83 -520q-12 -78 -66.5 -126t-131.5 -48z" />
    <glyph glyph-name="uni0136" unicode="&#x136;" horiz-adv-x="654" 
d="M700 700l-318 -283l227 -417h-144l-175 335l-103 -92l-39 -243h-117l111 700h117l-46 -293l326 293h161zM145 -190l64 148h121l-108 -148h-77z" />
    <glyph glyph-name="uni0137" unicode="&#x137;" horiz-adv-x="549" 
d="M565 504l-241 -199l177 -305h-130l-133 234l-75 -61l-27 -173h-110l112 708h110l-62 -392l232 188h147zM91 -190l64 148h121l-108 -148h-77z" />
    <glyph glyph-name="kgreenlandic" unicode="&#x138;" horiz-adv-x="549" 
d="M565 504l-241 -199l177 -305h-130l-133 234l-74 -61l-28 -173h-110l80 504h110l-30 -187l233 187h146z" />
    <glyph glyph-name="Lacute" unicode="&#x139;" horiz-adv-x="533" 
d="M157 756l89 148h130l-142 -148h-77zM31 0l111 700h117l-95 -597h335l-17 -103h-451z" />
    <glyph glyph-name="lacute" unicode="&#x13a;" horiz-adv-x="238" 
d="M147 756l89 148h130l-142 -148h-77zM26 0l112 708h109l-112 -708h-109z" />
    <glyph glyph-name="uni013B" unicode="&#x13b;" horiz-adv-x="533" 
d="M31 0l111 700h117l-95 -597h335l-17 -103h-451zM132 -190l64 148h121l-108 -148h-77z" />
    <glyph glyph-name="uni013C" unicode="&#x13c;" horiz-adv-x="238" 
d="M26 0l112 708h109l-112 -708h-109zM-51 -190l64 148h121l-108 -148h-77z" />
    <glyph glyph-name="Lcaron" unicode="&#x13d;" horiz-adv-x="533" 
d="M290 560l60 181h107l-103 -181h-64zM31 0l111 700h117l-95 -597h335l-17 -103h-451z" />
    <glyph glyph-name="lcaron" unicode="&#x13e;" horiz-adv-x="339" 
d="M266 560l60 181h107l-103 -181h-64zM26 0l112 708h109l-112 -708h-109z" />
    <glyph glyph-name="Ldot" unicode="&#x13f;" horiz-adv-x="533" 
d="M31 0l111 700h117l-95 -597h335l-17 -103h-451zM411 280q-31 0 -51 20t-20 50t20 50t51 20q30 0 50 -20t20 -50t-20 -50t-50 -20z" />
    <glyph glyph-name="ldot" unicode="&#x140;" horiz-adv-x="424" 
d="M26 0l112 708h109l-112 -708h-109zM306 278q-31 0 -51 20t-20 50t20 50t51 20q30 0 50.5 -20t20.5 -50t-20.5 -50t-50.5 -20z" />
    <glyph glyph-name="Lslash" unicode="&#x141;" horiz-adv-x="533" 
d="M164 103h335l-17 -103h-451l41 260l-89 -39l15 94l89 39l55 346h117l-46 -292l178 78l-15 -94l-178 -78z" />
    <glyph glyph-name="lslash" unicode="&#x142;" horiz-adv-x="336" 
d="M328 483l-15 -95l-94 -41l-55 -347h-109l47 296l-94 -41l15 95l94 41l50 317h109l-42 -266z" />
    <glyph glyph-name="Nacute" unicode="&#x143;" horiz-adv-x="694" 
d="M377 756l89 148h130l-142 -148h-77zM31 0l111 700h116l247 -515l81 515h112l-111 -700h-117l-246 514l-82 -514h-111z" />
    <glyph glyph-name="nacute" unicode="&#x144;" 
d="M289 560l89 148h130l-142 -148h-77zM26 0l80 504h109l-13 -84q72 92 180 92q81 0 123.5 -49.5t29.5 -130.5l-52 -332h-109l49 307q8 48 -15.5 77.5t-71.5 29.5q-63 0 -107 -51t-59 -142l-35 -221h-109z" />
    <glyph glyph-name="uni0145" unicode="&#x145;" horiz-adv-x="694" 
d="M31 0l111 700h116l247 -515l81 515h112l-111 -700h-117l-246 514l-82 -514h-111zM180 -190l64 148h121l-108 -148h-77z" />
    <glyph glyph-name="uni0146" unicode="&#x146;" 
d="M26 0l80 504h109l-13 -84q72 92 180 92q81 0 123.5 -49.5t29.5 -130.5l-52 -332h-109l49 307q8 48 -15.5 77.5t-71.5 29.5q-63 0 -107 -51t-59 -142l-35 -221h-109zM123 -190l64 148h121l-108 -148h-77z" />
    <glyph glyph-name="Ncaron" unicode="&#x147;" horiz-adv-x="694" 
d="M384 756l-92 148h79l66 -82l89 82h87l-138 -148h-91zM31 0l111 700h116l247 -515l81 515h112l-111 -700h-117l-246 514l-82 -514h-111z" />
    <glyph glyph-name="ncaron" unicode="&#x148;" 
d="M296 560l-92 148h79l66 -82l89 82h87l-138 -148h-91zM26 0l80 504h109l-13 -84q72 92 180 92q81 0 123.5 -49.5t29.5 -130.5l-52 -332h-109l49 307q8 48 -15.5 77.5t-71.5 29.5q-63 0 -107 -51t-59 -142l-35 -221h-109z" />
    <glyph glyph-name="napostrophe" unicode="&#x149;" horiz-adv-x="588" 
d="M115 560l60 181h108l-104 -181h-64zM29 0l80 504h109l-13 -84q72 92 180 92q81 0 123.5 -49.5t29.5 -130.5l-52 -332h-109l49 307q8 48 -15.5 77.5t-71.5 29.5q-63 0 -107 -51t-59 -142l-35 -221h-109z" />
    <glyph glyph-name="Eng" unicode="&#x14a;" horiz-adv-x="694" 
d="M667 504l-13 -81l-67 -423l-6 -35q-12 -81 -75 -130.5t-152 -42.5l16 97q46 -4 70.5 19t33.5 77l1 6l-251 523l-82 -514h-111l111 700h122l241 -515l81 515h112z" />
    <glyph glyph-name="eng" unicode="&#x14b;" 
d="M382 512q81 0 123.5 -49.5t29.5 -130.5l-52 -332l-4 -25q-11 -73 -68.5 -119t-138.5 -46q-12 0 -19 1l13 96h17q76 0 91 96l36 227h1l12 77q8 48 -15.5 77.5t-71.5 29.5q-63 0 -107 -51t-59 -142l-35 -221h-109l80 504h109l-13 -84q72 92 180 92z" />
    <glyph glyph-name="Omacron" unicode="&#x14c;" horiz-adv-x="779" 
d="M337 783l13 86h274l-14 -86h-273zM368 -8q-139 0 -228.5 86.5t-89.5 219.5q0 179 111 294.5t282 115.5q138 0 227.5 -87t89.5 -219q0 -180 -110.5 -295t-281.5 -115zM384 95q109 0 183 85t74 210q0 96 -59.5 156t-155.5 60q-109 0 -182.5 -85.5t-73.5 -210.5
q0 -96 59 -155.5t155 -59.5z" />
    <glyph glyph-name="omacron" unicode="&#x14d;" horiz-adv-x="587" 
d="M212 587l13 86h274l-14 -86h-273zM267 -8q-101 0 -166.5 63t-65.5 159q0 128 82.5 213t207.5 85q101 0 166.5 -62.5t65.5 -159.5q0 -128 -83 -213t-207 -85zM278 87q74 0 121 54t47 138q0 61 -37 99.5t-95 38.5q-75 0 -121.5 -54t-46.5 -138q0 -60 37 -99t95 -39z" />
    <glyph glyph-name="Obreve" unicode="&#x14e;" horiz-adv-x="779" 
d="M469 753q-58 0 -90 37.5t-23 94.5h83q-5 -26 7 -42t35 -16t40.5 16.5t21.5 41.5h83q-10 -57 -54.5 -94.5t-102.5 -37.5zM368 -8q-139 0 -228.5 86.5t-89.5 219.5q0 179 111 294.5t282 115.5q138 0 227.5 -87t89.5 -219q0 -180 -110.5 -295t-281.5 -115zM384 95
q109 0 183 85t74 210q0 96 -59.5 156t-155.5 60q-109 0 -182.5 -85.5t-73.5 -210.5q0 -96 59 -155.5t155 -59.5z" />
    <glyph glyph-name="obreve" unicode="&#x14f;" horiz-adv-x="587" 
d="M344 557q-58 0 -90 37.5t-23 94.5h83q-5 -26 7 -42t35 -16t40.5 16.5t21.5 41.5h83q-10 -57 -54.5 -94.5t-102.5 -37.5zM267 -8q-101 0 -166.5 63t-65.5 159q0 128 82.5 213t207.5 85q101 0 166.5 -62.5t65.5 -159.5q0 -128 -83 -213t-207 -85zM278 87q74 0 121 54
t47 138q0 61 -37 99.5t-95 38.5q-75 0 -121.5 -54t-46.5 -138q0 -60 37 -99t95 -39z" />
    <glyph glyph-name="Ohungarumlaut" unicode="&#x150;" horiz-adv-x="779" 
d="M337 756l89 148h98l-98 -148h-89zM489 756l90 148h102l-103 -148h-89zM368 -8q-139 0 -228.5 86.5t-89.5 219.5q0 179 111 294.5t282 115.5q138 0 227.5 -87t89.5 -219q0 -180 -110.5 -295t-281.5 -115zM384 95q109 0 183 85t74 210q0 96 -59.5 156t-155.5 60
q-109 0 -182.5 -85.5t-73.5 -210.5q0 -96 59 -155.5t155 -59.5z" />
    <glyph glyph-name="ohungarumlaut" unicode="&#x151;" horiz-adv-x="587" 
d="M211 560l89 148h98l-98 -148h-89zM363 560l90 148h102l-103 -148h-89zM267 -8q-101 0 -166.5 63t-65.5 159q0 128 82.5 213t207.5 85q101 0 166.5 -62.5t65.5 -159.5q0 -128 -83 -213t-207 -85zM278 87q74 0 121 54t47 138q0 61 -37 99.5t-95 38.5q-75 0 -121.5 -54
t-46.5 -138q0 -60 37 -99t95 -39z" />
    <glyph glyph-name="OE" unicode="&#x152;" horiz-adv-x="1135" 
d="M1143 598h-340l-28 -176h274l-17 -102h-273l-34 -217h350l-16 -103h-468l10 65q-99 -73 -233 -73q-139 0 -228.5 86.5t-89.5 219.5q0 179 111 294.5t282 115.5q153 0 244 -104l15 96h457zM384 95q109 0 183 85t74 210q0 96 -59.5 156t-155.5 60q-109 0 -182.5 -85.5
t-73.5 -210.5q0 -96 59 -155.5t155 -59.5z" />
    <glyph glyph-name="oe" unicode="&#x153;" horiz-adv-x="975" 
d="M937 228h-385v-3q0 -64 36 -102t96 -38q101 0 129 86l103 -26q-22 -69 -89 -111t-156 -42q-125 0 -188 95q-84 -95 -216 -95q-101 0 -166.5 63t-65.5 159q0 128 82.5 213t207.5 85q61 0 111 -24t80 -67q79 91 209 91q103 0 163.5 -61t60.5 -146q0 -38 -12 -77zM711 426
q-53 0 -91 -31.5t-56 -85.5h273q3 51 -31.5 84t-94.5 33zM278 87q74 0 121 54t47 138q0 61 -37 99.5t-95 38.5q-75 0 -121.5 -54t-46.5 -138q0 -60 37 -99t95 -39z" />
    <glyph glyph-name="Racute" unicode="&#x154;" horiz-adv-x="642" 
d="M530 904l-142 -148h-77l89 148h130zM599 529q0 -72 -40.5 -129t-109.5 -83l142 -317h-136l-130 297h-129l-47 -297h-117l110 700h262q91 0 143 -46t52 -125zM244 598l-32 -198h128q64 0 101 30.5t37 83.5q0 40 -27.5 62t-78.5 22h-128z" />
    <glyph glyph-name="racute" unicode="&#x155;" horiz-adv-x="396" 
d="M220 560l89 148h130l-142 -148h-77zM402 398q-25 12 -62 12q-58 0 -108 -56.5t-67 -165.5l-30 -188h-109l80 504h109l-16 -100q24 45 73 76.5t97 31.5q35 0 56 -9z" />
    <glyph glyph-name="uni0156" unicode="&#x156;" horiz-adv-x="642" 
d="M599 529q0 -72 -40.5 -129t-109.5 -83l142 -317h-136l-130 297h-129l-47 -297h-117l110 700h262q91 0 143 -46t52 -125zM244 598l-32 -198h128q64 0 101 30.5t37 83.5q0 40 -27.5 62t-78.5 22h-128zM147 -190l64 148h121l-108 -148h-77z" />
    <glyph glyph-name="uni0157" unicode="&#x157;" horiz-adv-x="396" 
d="M402 398q-25 12 -62 12q-58 0 -108 -56.5t-67 -165.5l-30 -188h-109l80 504h109l-16 -100q24 45 73 76.5t97 31.5q35 0 56 -9zM-52 -190l64 148h121l-108 -148h-77z" />
    <glyph glyph-name="Rcaron" unicode="&#x158;" horiz-adv-x="642" 
d="M408 756h-91l-92 148h79l66 -82l89 82h87zM599 529q0 -72 -40.5 -129t-109.5 -83l142 -317h-136l-130 297h-129l-47 -297h-117l110 700h262q91 0 143 -46t52 -125zM244 598l-32 -198h128q64 0 101 30.5t37 83.5q0 40 -27.5 62t-78.5 22h-128z" />
    <glyph glyph-name="rcaron" unicode="&#x159;" horiz-adv-x="396" 
d="M226 560l-92 148h79l66 -82l89 82h87l-138 -148h-91zM402 398q-25 12 -62 12q-58 0 -108 -56.5t-67 -165.5l-30 -188h-109l80 504h109l-16 -100q24 45 73 76.5t97 31.5q35 0 56 -9z" />
    <glyph glyph-name="Sacute" unicode="&#x15a;" horiz-adv-x="591" 
d="M324 756l89 148h130l-142 -148h-77zM281 -8q-113 0 -185 61t-73 160l111 24q-3 -65 40 -104t113 -39q64 0 103.5 31t39.5 81q0 33 -24.5 56.5t-62 35.5t-80.5 28.5t-80.5 35t-62 55.5t-24.5 88q0 87 73.5 145t178.5 58q107 0 174.5 -49.5t71.5 -131.5l-112 -32
q-2 51 -40 81t-100 30q-60 0 -93 -25t-33 -66q0 -29 25 -49t62.5 -30t81 -26t81 -35.5t62.5 -60t25 -97.5q0 -98 -76.5 -161.5t-195.5 -63.5z" />
    <glyph glyph-name="sacute" unicode="&#x15b;" horiz-adv-x="465" 
d="M229 560l89 148h130l-142 -148h-77zM210 -8q-87 0 -139 46t-61 113l92 25q4 -45 35 -71t84 -26q42 0 67 20t25 52q0 26 -25.5 42t-61.5 26.5t-72.5 24t-62 43t-25.5 75.5q0 65 54 107.5t140 42.5q73 0 125.5 -36.5t59.5 -97.5l-96 -28q-4 37 -32.5 57.5t-66.5 20.5
q-36 0 -58.5 -15t-22.5 -40q0 -23 25.5 -37t62 -24t73.5 -24t62.5 -45.5t25.5 -79.5q0 -75 -58 -123t-150 -48z" />
    <glyph glyph-name="Scircumflex" unicode="&#x15c;" horiz-adv-x="591" 
d="M353 904h91l92 -148h-82l-65 83l-90 -83h-84zM281 -8q-113 0 -185 61t-73 160l111 24q-3 -65 40 -104t113 -39q64 0 103.5 31t39.5 81q0 33 -24.5 56.5t-62 35.5t-80.5 28.5t-80.5 35t-62 55.5t-24.5 88q0 87 73.5 145t178.5 58q107 0 174.5 -49.5t71.5 -131.5l-112 -32
q-2 51 -40 81t-100 30q-60 0 -93 -25t-33 -66q0 -29 25 -49t62.5 -30t81 -26t81 -35.5t62.5 -60t25 -97.5q0 -98 -76.5 -161.5t-195.5 -63.5z" />
    <glyph glyph-name="scircumflex" unicode="&#x15d;" horiz-adv-x="465" 
d="M258 708h91l92 -148h-82l-65 83l-90 -83h-84zM210 -8q-87 0 -139 46t-61 113l92 25q4 -45 35 -71t84 -26q42 0 67 20t25 52q0 26 -25.5 42t-61.5 26.5t-72.5 24t-62 43t-25.5 75.5q0 65 54 107.5t140 42.5q73 0 125.5 -36.5t59.5 -97.5l-96 -28q-4 37 -32.5 57.5
t-66.5 20.5q-36 0 -58.5 -15t-22.5 -40q0 -23 25.5 -37t62 -24t73.5 -24t62.5 -45.5t25.5 -79.5q0 -75 -58 -123t-150 -48z" />
    <glyph glyph-name="Scedilla" unicode="&#x15e;" horiz-adv-x="591" 
d="M216 515q0 -29 25 -49t62.5 -30t81 -26t81 -35.5t62.5 -60t25 -97.5q0 -93 -69 -155.5t-180 -68.5l-85 -140h-130l137 143q-91 14 -146.5 72.5t-56.5 144.5l111 24q-3 -65 40 -104t113 -39q64 0 103.5 31t39.5 81q0 33 -24.5 56.5t-62 35.5t-80.5 28.5t-80.5 35t-62 55.5
t-24.5 88q0 87 73.5 145t178.5 58q107 0 174.5 -49.5t71.5 -131.5l-112 -32q-2 51 -40 81t-100 30q-60 0 -93 -25t-33 -66z" />
    <glyph glyph-name="scedilla" unicode="&#x15f;" horiz-adv-x="465" 
d="M169 373q0 -23 25.5 -37t62 -24t73.5 -24t62.5 -45.5t25.5 -79.5q0 -68 -49.5 -115t-130.5 -55l-85 -140h-130l137 144q-65 12 -104 55t-46 99l92 25q4 -45 35 -71t84 -26q42 0 67 20t25 52q0 26 -25.5 42t-61.5 26.5t-72.5 24t-62 43t-25.5 75.5q0 65 54 107.5t140 42.5
q73 0 125.5 -36.5t59.5 -97.5l-96 -28q-4 37 -32.5 57.5t-66.5 20.5q-36 0 -58.5 -15t-22.5 -40z" />
    <glyph glyph-name="Scaron" unicode="&#x160;" horiz-adv-x="591" 
d="M330 756l-92 148h79l66 -82l89 82h87l-138 -148h-91zM281 -8q-113 0 -185 61t-73 160l111 24q-3 -65 40 -104t113 -39q64 0 103.5 31t39.5 81q0 33 -24.5 56.5t-62 35.5t-80.5 28.5t-80.5 35t-62 55.5t-24.5 88q0 87 73.5 145t178.5 58q107 0 174.5 -49.5t71.5 -131.5
l-112 -32q-2 51 -40 81t-100 30q-60 0 -93 -25t-33 -66q0 -29 25 -49t62.5 -30t81 -26t81 -35.5t62.5 -60t25 -97.5q0 -98 -76.5 -161.5t-195.5 -63.5z" />
    <glyph glyph-name="scaron" unicode="&#x161;" horiz-adv-x="465" 
d="M236 560l-92 148h79l66 -82l89 82h87l-138 -148h-91zM210 -8q-87 0 -139 46t-61 113l92 25q4 -45 35 -71t84 -26q42 0 67 20t25 52q0 26 -25.5 42t-61.5 26.5t-72.5 24t-62 43t-25.5 75.5q0 65 54 107.5t140 42.5q73 0 125.5 -36.5t59.5 -97.5l-96 -28q-4 37 -32.5 57.5
t-66.5 20.5q-36 0 -58.5 -15t-22.5 -40q0 -23 25.5 -37t62 -24t73.5 -24t62.5 -45.5t25.5 -79.5q0 -75 -58 -123t-150 -48z" />
    <glyph glyph-name="uni0162" unicode="&#x162;" horiz-adv-x="582" 
d="M90 700h548l-16 -102h-215l-95 -598h-1l-89 -147h-130l140 147h-37l94 598h-216z" />
    <glyph glyph-name="uni0163" unicode="&#x163;" horiz-adv-x="378" 
d="M240 411l-39 -246q-6 -37 9.5 -56.5t47.5 -19.5q35 0 62 12l-8 -97q-38 -12 -81 -12h-5l-85 -139h-130l146 153q-84 36 -65 153l39 252h-88l15 93h88l24 150h109l-24 -150h130l-15 -93h-130z" />
    <glyph glyph-name="Tcaron" unicode="&#x164;" horiz-adv-x="582" 
d="M328 756l-92 148h79l66 -82l89 82h87l-138 -148h-91zM195 0l94 598h-216l17 102h548l-16 -102h-215l-95 -598h-117z" />
    <glyph glyph-name="tcaron" unicode="&#x165;" horiz-adv-x="378" 
d="M336 560l60 181h107l-103 -181h-64zM312 4q-38 -12 -81 -12q-75 0 -114 42t-25 125l39 252h-88l15 93h88l24 150h109l-24 -150h130l-15 -93h-130l-39 -246q-6 -37 9.5 -56.5t47.5 -19.5q35 0 62 12z" />
    <glyph glyph-name="Tbar" unicode="&#x166;" horiz-adv-x="582" 
d="M622 598h-215l-26 -162h170l-15 -88h-169l-55 -348h-117l55 348h-184l15 88h183l25 162h-216l17 102h548z" />
    <glyph glyph-name="tbar" unicode="&#x167;" horiz-adv-x="378" 
d="M370 411h-130l-19 -120h118l-12 -78h-118l-8 -48q-6 -37 9.5 -56.5t47.5 -19.5q35 0 62 12l-8 -97q-38 -12 -81 -12q-75 0 -114 42t-25 125l8 54h-86l12 78h86l19 120h-88l15 93h88l24 150h109l-24 -150h130z" />
    <glyph glyph-name="Utilde" unicode="&#x168;" horiz-adv-x="681" 
d="M315 772l-74 12q10 52 48 85t89 33q38 0 76 -27q2 -1 9 -6.5t9 -6.5t8 -4.5t9 -4.5t8.5 -2t10.5 -1q36 0 50 50l74 -12q-10 -53 -48 -85.5t-88 -32.5q-39 0 -77 26q-3 2 -8 6l-7.5 6t-7 5t-7.5 4.5t-7 3t-8 2t-9 0.5q-37 0 -50 -51zM307 -8q-120 0 -187 76.5t-48 193.5
l70 438h110l-70 -441q-12 -75 27 -119.5t114 -44.5q74 0 121 42.5t59 119.5l70 443h112l-71 -444q-20 -126 -100 -195t-207 -69z" />
    <glyph glyph-name="utilde" unicode="&#x169;" 
d="M233 576l-74 12q10 52 48 85t89 33q38 0 76 -27q2 -1 9 -6.5t9 -6.5t8 -4.5t9 -4.5t8.5 -2t10.5 -1q36 0 50 50l74 -12q-10 -53 -48 -85.5t-88 -32.5q-39 0 -77 26q-3 2 -8 6l-7.5 6t-7 5t-7.5 4.5t-7 3t-8 2t-9 0.5q-37 0 -50 -51zM563 504l-80 -504h-109l13 84
q-72 -92 -180 -92q-81 0 -123.5 49.5t-29.5 130.5l52 332h109l-49 -307q-8 -48 15.5 -77.5t71.5 -29.5q63 0 107.5 51.5t58.5 141.5l35 221h109z" />
    <glyph glyph-name="Umacron" unicode="&#x16a;" horiz-adv-x="681" 
d="M289 783l13 86h274l-14 -86h-273zM307 -8q-120 0 -187 76.5t-48 193.5l70 438h110l-70 -441q-12 -75 27 -119.5t114 -44.5q74 0 121 42.5t59 119.5l70 443h112l-71 -444q-20 -126 -100 -195t-207 -69z" />
    <glyph glyph-name="umacron" unicode="&#x16b;" 
d="M207 587l13 86h274l-14 -86h-273zM563 504l-80 -504h-109l13 84q-72 -92 -180 -92q-81 0 -123.5 49.5t-29.5 130.5l52 332h109l-49 -307q-8 -48 15.5 -77.5t71.5 -29.5q63 0 107.5 51.5t58.5 141.5l35 221h109z" />
    <glyph glyph-name="Ubreve" unicode="&#x16c;" horiz-adv-x="681" 
d="M421 753q-58 0 -90 37.5t-23 94.5h83q-5 -26 7 -42t35 -16t40.5 16.5t21.5 41.5h83q-10 -57 -54.5 -94.5t-102.5 -37.5zM307 -8q-120 0 -187 76.5t-48 193.5l70 438h110l-70 -441q-12 -75 27 -119.5t114 -44.5q74 0 121 42.5t59 119.5l70 443h112l-71 -444
q-20 -126 -100 -195t-207 -69z" />
    <glyph glyph-name="ubreve" unicode="&#x16d;" 
d="M339 557q-58 0 -90 37.5t-23 94.5h83q-5 -26 7 -42t35 -16t40.5 16.5t21.5 41.5h83q-10 -57 -54.5 -94.5t-102.5 -37.5zM563 504l-80 -504h-109l13 84q-72 -92 -180 -92q-81 0 -123.5 49.5t-29.5 130.5l52 332h109l-49 -307q-8 -48 15.5 -77.5t71.5 -29.5
q63 0 107.5 51.5t58.5 141.5l35 221h109z" />
    <glyph glyph-name="Uring" unicode="&#x16e;" horiz-adv-x="681" 
d="M413 738q-49 0 -81 30t-32 76t32 76.5t81 30.5t81.5 -30.5t32.5 -76.5t-32.5 -76t-81.5 -30zM413 796q22 0 36.5 13.5t14.5 34.5q0 22 -14 35.5t-37 13.5q-21 0 -35.5 -14t-14.5 -35t14.5 -34.5t35.5 -13.5zM307 -8q-120 0 -187 76.5t-48 193.5l70 438h110l-70 -441
q-12 -75 27 -119.5t114 -44.5q74 0 121 42.5t59 119.5l70 443h112l-71 -444q-20 -126 -100 -195t-207 -69z" />
    <glyph glyph-name="uring" unicode="&#x16f;" 
d="M331 542q-49 0 -81 30t-32 76t32 76.5t81 30.5t81.5 -30.5t32.5 -76.5t-32.5 -76t-81.5 -30zM331 600q22 0 36.5 13.5t14.5 34.5q0 22 -14 35.5t-37 13.5q-21 0 -35.5 -14t-14.5 -35t14.5 -34.5t35.5 -13.5zM563 504l-80 -504h-109l13 84q-72 -92 -180 -92
q-81 0 -123.5 49.5t-29.5 130.5l52 332h109l-49 -307q-8 -48 15.5 -77.5t71.5 -29.5q63 0 107.5 51.5t58.5 141.5l35 221h109z" />
    <glyph glyph-name="Uhungarumlaut" unicode="&#x170;" horiz-adv-x="681" 
d="M289 756l89 148h98l-98 -148h-89zM441 756l90 148h102l-103 -148h-89zM307 -8q-120 0 -187 76.5t-48 193.5l70 438h110l-70 -441q-12 -75 27 -119.5t114 -44.5q74 0 121 42.5t59 119.5l70 443h112l-71 -444q-20 -126 -100 -195t-207 -69z" />
    <glyph glyph-name="uhungarumlaut" unicode="&#x171;" 
d="M207 560l89 148h98l-98 -148h-89zM359 560l90 148h102l-103 -148h-89zM563 504l-80 -504h-109l13 84q-72 -92 -180 -92q-81 0 -123.5 49.5t-29.5 130.5l52 332h109l-49 -307q-8 -48 15.5 -77.5t71.5 -29.5q63 0 107.5 51.5t58.5 141.5l35 221h109z" />
    <glyph glyph-name="Uogonek" unicode="&#x172;" horiz-adv-x="681" 
d="M573 700h112l-71 -444q-20 -119 -93 -187.5t-188 -75.5q-45 -40 -45 -70q0 -15 10 -24t27 -9q19 0 27 4v-78q-20 -6 -54 -6q-48 0 -75.5 23.5t-27.5 62.5q0 52 52 102q-94 18 -142.5 90.5t-32.5 173.5l70 438h110l-70 -441q-12 -75 27 -119.5t114 -44.5q74 0 121 42.5
t59 119.5z" />
    <glyph glyph-name="uogonek" unicode="&#x173;" 
d="M425 -77q0 -15 10 -24t27 -9q19 0 27 4v-78q-20 -6 -54 -6q-48 0 -75.5 23.5t-27.5 62.5q0 54 55 104h-13l13 84q-72 -92 -180 -92q-81 0 -123.5 49.5t-29.5 130.5l52 332h109l-49 -307q-8 -48 15.5 -77.5t71.5 -29.5q63 0 107.5 51.5t58.5 141.5l35 221h109l-80 -504h-5
q-53 -44 -53 -77z" />
    <glyph glyph-name="Wcircumflex" unicode="&#x174;" horiz-adv-x="1001" 
d="M560 904h91l92 -148h-82l-65 83l-90 -83h-84zM186 0l-97 700h121l59 -562l239 562h130l61 -562l238 562h121l-318 -700h-124l-68 534l-240 -534h-122z" />
    <glyph glyph-name="wcircumflex" unicode="&#x175;" horiz-adv-x="778" 
d="M417 708h91l92 -148h-82l-65 83l-90 -83h-84zM142 0l-76 504h110l41 -352l163 352h102l52 -352l151 352h111l-236 -504h-100l-53 351l-166 -351h-99z" />
    <glyph glyph-name="Ycircumflex" unicode="&#x176;" horiz-adv-x="609" 
d="M361 904h91l92 -148h-82l-65 83l-90 -83h-84zM206 0l46 291l-178 409h125l127 -300l223 300h128l-307 -409l-47 -291h-117z" />
    <glyph glyph-name="ycircumflex" unicode="&#x177;" horiz-adv-x="508" 
d="M315 643l-90 -83h-84l138 148h91l92 -148h-82zM427 504h111l-374 -686h-107l110 204l-117 482h112l77 -349z" />
    <glyph glyph-name="Ydieresis" unicode="&#x178;" horiz-adv-x="609" 
d="M305 778q-28 0 -46.5 19t-18.5 47t18.5 46.5t46.5 18.5q29 0 48.5 -18.5t19.5 -46.5t-19.5 -47t-48.5 -19zM492 778q-28 0 -47 19t-19 47t19 46.5t47 18.5q29 0 48 -18.5t19 -46.5t-19.5 -47t-47.5 -19zM206 0l46 291l-178 409h125l127 -300l223 300h128l-307 -409
l-47 -291h-117z" />
    <glyph glyph-name="Zacute" unicode="&#x179;" horiz-adv-x="598" 
d="M327 756l89 148h130l-142 -148h-77zM-12 0l15 97l469 501h-370l17 102h513l-16 -97l-463 -500h385l-16 -103h-534z" />
    <glyph glyph-name="zacute" unicode="&#x17a;" horiz-adv-x="493" 
d="M257 560l89 148h130l-142 -148h-77zM-6 0l13 83l333 328h-264l15 93h407l-14 -83l-331 -328h284l-15 -93h-428z" />
    <glyph glyph-name="Zdotaccent" unicode="&#x17b;" horiz-adv-x="598" 
d="M395 784q-31 0 -51 20t-20 50t20 50.5t51 20.5t51.5 -20.5t20.5 -50.5q0 -29 -20.5 -49.5t-51.5 -20.5zM-12 0l15 97l469 501h-370l17 102h513l-16 -97l-463 -500h385l-16 -103h-534z" />
    <glyph glyph-name="zdotaccent" unicode="&#x17c;" horiz-adv-x="493" 
d="M326 588q-30 0 -50.5 20t-20.5 50t20 50.5t51 20.5t51.5 -20.5t20.5 -50.5q0 -29 -20.5 -49.5t-51.5 -20.5zM-6 0l13 83l333 328h-264l15 93h407l-14 -83l-331 -328h284l-15 -93h-428z" />
    <glyph glyph-name="Zcaron" unicode="&#x17d;" horiz-adv-x="598" 
d="M333 756l-92 148h79l66 -82l89 82h87l-138 -148h-91zM-12 0l15 97l469 501h-370l17 102h513l-16 -97l-463 -500h385l-16 -103h-534z" />
    <glyph glyph-name="zcaron" unicode="&#x17e;" horiz-adv-x="493" 
d="M264 560l-92 148h79l66 -82l89 82h87l-138 -148h-91zM-6 0l13 83l333 328h-264l15 93h407l-14 -83l-331 -328h284l-15 -93h-428z" />
    <glyph glyph-name="longs" unicode="&#x17f;" horiz-adv-x="373" 
d="M73 0l66 415h-83l14 89h83l7 43q13 83 66.5 130t127.5 47q38 0 71 -11l-22 -92q-23 10 -49 10q-33 0 -57 -22.5t-30 -60.5l-86 -548h-108z" />
    <glyph glyph-name="florin" unicode="&#x192;" horiz-adv-x="478" 
d="M457 631q-61 0 -87 -83l-14 -44h133l-14 -89h-146l-77 -246q-55 -177 -193 -177q-41 0 -71 10l21 92q23 -10 49 -10q60 0 87 84l77 247h-98l13 89h113l13 43q55 177 193 177q39 0 72 -11l-22 -92q-23 10 -49 10z" />
    <glyph glyph-name="Aringacute" unicode="&#x1fa;" horiz-adv-x="670" 
d="M408 738q-49 0 -81 30t-32 76q0 40 24.5 68.5t63.5 36.5l83 137h130l-139 -145q30 -12 47.5 -38t17.5 -59q0 -46 -32.5 -76t-81.5 -30zM408 893q-21 0 -35.5 -14t-14.5 -35t14.5 -34.5t35.5 -13.5q22 0 36.5 13.5t14.5 34.5q0 22 -14 35.5t-37 13.5zM502 0l-36 165h-286
l-89 -165h-121l383 700h109l162 -700h-122zM234 266h211l-61 280z" />
    <glyph glyph-name="aringacute" unicode="&#x1fb;" horiz-adv-x="546" 
d="M306 542q-49 0 -81 30t-32 76q0 40 24.5 68.5t63.5 36.5l83 137h130l-139 -145q29 -12 46.5 -38t17.5 -59q0 -46 -32 -76t-81 -30zM306 697q-22 0 -36 -13.5t-14 -35.5q0 -21 14 -34.5t36 -13.5t36 13.5t14 34.5q0 22 -14 35.5t-36 13.5zM293 512q100 0 156.5 -60.5
t40.5 -156.5l-46 -295h-107l12 76q-26 -38 -72.5 -61t-98.5 -23q-68 0 -111.5 39t-43.5 97q0 156 257 180l108 9l1 9q7 45 -24.5 72.5t-84.5 27.5q-47 0 -80.5 -26t-40.5 -70l-97 18q16 74 81.5 119t149.5 45zM212 76q63 0 104 38t56 107l-2 -11l5 27l-107 -11
q-138 -13 -138 -87q0 -28 22 -45.5t60 -17.5z" />
    <glyph glyph-name="AEacute" unicode="&#x1fc;" horiz-adv-x="970" 
d="M767 904l-142 -148h-77l89 148h130zM977 598h-339l-28 -176h273l-16 -102h-273l-34 -217h350l-16 -103h-468l27 172h-236l-120 -172h-129l498 700h528zM289 275h181l53 334z" />
    <glyph glyph-name="aeacute" unicode="&#x1fd;" horiz-adv-x="907" 
d="M689 708l-142 -148h-77l89 148h130zM868 226h-383q-4 -64 29.5 -102.5t92.5 -38.5q49 0 86 22.5t53 63.5l99 -26q-31 -73 -98.5 -113t-156.5 -40q-129 0 -185 103q-80 -103 -218 -103q-77 0 -121 36t-44 94q0 83 69 133.5t197 50.5h98l3 20q7 46 -20 73.5t-79 27.5
q-47 0 -82.5 -26t-44.5 -65l-92 19q22 69 86.5 113t145.5 44q123 0 170 -75q78 75 194 75q103 0 158.5 -60t55.5 -147q0 -30 -13 -79zM654 426q-54 0 -93.5 -31t-59.5 -86h267q3 53 -26.5 85t-87.5 32zM209 74q62 0 105.5 37t56.5 98l3 18h-101q-68 0 -105.5 -26t-37.5 -66
q0 -27 22 -44t57 -17z" />
    <glyph glyph-name="uni0218" unicode="&#x218;" horiz-adv-x="591" 
d="M281 -8q-113 0 -185 61t-73 160l111 24q-3 -65 40 -104t113 -39q64 0 103.5 31t39.5 81q0 33 -24.5 56.5t-62 35.5t-80.5 28.5t-80.5 35t-62 55.5t-24.5 88q0 87 73.5 145t178.5 58q107 0 174.5 -49.5t71.5 -131.5l-112 -32q-2 51 -40 81t-100 30q-60 0 -93 -25t-33 -66
q0 -29 25 -49t62.5 -30t81 -26t81 -35.5t62.5 -60t25 -97.5q0 -98 -76.5 -161.5t-195.5 -63.5zM122 -190l64 148h121l-108 -148h-77z" />
    <glyph glyph-name="uni0219" unicode="&#x219;" horiz-adv-x="465" 
d="M210 -8q-87 0 -139 46t-61 113l92 25q4 -45 35 -71t84 -26q42 0 67 20t25 52q0 26 -25.5 42t-61.5 26.5t-72.5 24t-62 43t-25.5 75.5q0 65 54 107.5t140 42.5q73 0 125.5 -36.5t59.5 -97.5l-96 -28q-4 37 -32.5 57.5t-66.5 20.5q-36 0 -58.5 -15t-22.5 -40
q0 -23 25.5 -37t62 -24t73.5 -24t62.5 -45.5t25.5 -79.5q0 -75 -58 -123t-150 -48zM56 -190l64 148h121l-108 -148h-77z" />
    <glyph glyph-name="uni021A" unicode="&#x21a;" horiz-adv-x="582" 
d="M195 0l94 598h-216l17 102h548l-16 -102h-215l-95 -598h-117zM124 -190l64 148h121l-108 -148h-77z" />
    <glyph glyph-name="uni021B" unicode="&#x21b;" horiz-adv-x="378" 
d="M312 4q-38 -12 -81 -12q-75 0 -114 42t-25 125l39 252h-88l15 93h88l24 150h109l-24 -150h130l-15 -93h-130l-39 -246q-6 -37 9.5 -56.5t47.5 -19.5q35 0 62 12zM43 -190l64 148h121l-108 -148h-77z" />
    <glyph glyph-name="uni0237" unicode="&#x237;" horiz-adv-x="240" 
d="M-61 -190l-27 1l13 96q9 -1 17 -1q75 0 89 92l80 506h109l-83 -520q-12 -78 -66.5 -126t-131.5 -48z" />
    <glyph glyph-name="gravecomb" unicode="&#x300;" horiz-adv-x="0" 
d="M-15 560h-78l-96 148h130z" />
    <glyph glyph-name="acutecomb" unicode="&#x301;" horiz-adv-x="0" 
d="M-196 560l89 148h130l-142 -148h-77z" />
    <glyph glyph-name="uni0302" unicode="&#x302;" horiz-adv-x="0" 
d="M-182 708h91l92 -148h-82l-65 83l-90 -83h-84z" />
    <glyph glyph-name="tildecomb" unicode="&#x303;" horiz-adv-x="0" 
d="M-296 576l-74 12q10 52 48 85t89 33q39 0 76 -27q2 -1 9 -6.5t9 -6.5t8 -4.5t9 -4.5t8.5 -2t10.5 -1q36 0 50 50l74 -12q-10 -53 -48 -85.5t-88 -32.5q-39 0 -77 26q-3 2 -8 6l-7.5 6t-7 5t-7.5 4.5t-7 3t-8 2t-9 0.5q-36 0 -50 -51z" />
    <glyph glyph-name="uni0304" unicode="&#x304;" horiz-adv-x="0" 
d="M-268 587l13 86h274l-14 -86h-273z" />
    <glyph glyph-name="uni0306" unicode="&#x306;" horiz-adv-x="0" 
d="M-136 557q-58 0 -90 37.5t-23 94.5h83q-5 -26 7 -42t35 -16t40.5 16.5t21.5 41.5h84q-10 -57 -55 -94.5t-103 -37.5z" />
    <glyph glyph-name="uni0307" unicode="&#x307;" horiz-adv-x="0" 
d="M-57 588q-31 0 -51 20t-20 50t20 50.5t51 20.5t51.5 -20.5t20.5 -50.5q0 -29 -20.5 -49.5t-51.5 -20.5z" />
    <glyph glyph-name="uni0308" unicode="&#x308;" horiz-adv-x="0" 
d="M-238 582q-28 0 -46.5 19t-18.5 47t18.5 46.5t46.5 18.5q29 0 48.5 -18.5t19.5 -46.5t-19.5 -47t-48.5 -19zM-51 582q-28 0 -47 19t-19 47t19 46.5t47 18.5q29 0 48 -18.5t19 -46.5t-19.5 -47t-47.5 -19z" />
    <glyph glyph-name="uni030A" unicode="&#x30a;" horiz-adv-x="0" 
d="M-164 542q-49 0 -81 30t-32 76t32 76.5t81 30.5t81.5 -30.5t32.5 -76.5t-32.5 -76t-81.5 -30zM-164 600q22 0 36.5 13.5t14.5 34.5q0 22 -14 35.5t-37 13.5q-21 0 -35.5 -14t-14.5 -35t14.5 -34.5t35.5 -13.5z" />
    <glyph glyph-name="uni030B" unicode="&#x30b;" horiz-adv-x="0" 
d="M-320 560l89 148h98l-98 -148h-89zM-168 560l90 148h102l-103 -148h-89z" />
    <glyph glyph-name="uni030C" unicode="&#x30c;" horiz-adv-x="0" 
d="M-205 560l-92 148h79l66 -82l89 82h87l-138 -148h-91z" />
    <glyph glyph-name="uni0312" unicode="&#x312;" horiz-adv-x="0" 
d="M23 708l-50 -148h-117l84 148h83z" />
    <glyph glyph-name="uni0326" unicode="&#x326;" horiz-adv-x="0" 
d="M-280 -190l64 148h121l-108 -148h-77z" />
    <glyph glyph-name="uni0327" unicode="&#x327;" horiz-adv-x="0" 
d="M-89 1l-90 -148h-130l170 178z" />
    <glyph glyph-name="uni0328" unicode="&#x328;" horiz-adv-x="0" 
d="M-171 -190q-48 0 -75.5 23.5t-27.5 62.5q0 60 65 113l81 -9q-53 -44 -53 -77q0 -15 10 -24t27 -9q19 0 27 4v-78q-20 -6 -54 -6z" />
    <glyph glyph-name="pi" unicode="&#x3c0;" horiz-adv-x="628" 
d="M526 412l-38 -232q-14 -92 59 -92q9 0 18 1l-18 -96l-27 -1q-77 0 -116 48t-27 126l40 246h-149l-66 -412h-106l66 412h-96l15 92h549l-14 -92h-90z" />
    <glyph glyph-name="uni0E3F" unicode="&#xe3f;" horiz-adv-x="621" 
d="M486 383q95 -38 95 -148q0 -107 -75 -171t-198 -64l-16 -104l-99 1l16 103h-178l111 700h177l16 96h99l-15 -96q83 -3 131 -43.5t48 -109.5q0 -58 -33.5 -101t-78.5 -63zM355 421q63 0 96 28t33 79q0 76 -102 76h-140l-29 -183h142zM309 103q158 0 158 127q0 90 -123 90
h-147l-34 -217h146z" />
    <glyph glyph-name="Wgrave" unicode="&#x1e80;" horiz-adv-x="1001" 
d="M624 756h-78l-96 148h130zM186 0l-97 700h121l59 -562l239 562h130l61 -562l238 562h121l-318 -700h-124l-68 534l-240 -534h-122z" />
    <glyph glyph-name="wgrave" unicode="&#x1e81;" horiz-adv-x="778" 
d="M481 560h-78l-96 148h130zM142 0l-76 504h110l41 -352l163 352h102l52 -352l151 352h111l-236 -504h-100l-53 351l-166 -351h-99z" />
    <glyph glyph-name="Wacute" unicode="&#x1e82;" horiz-adv-x="1001" 
d="M531 756l89 148h130l-142 -148h-77zM186 0l-97 700h121l59 -562l239 562h130l61 -562l238 562h121l-318 -700h-124l-68 534l-240 -534h-122z" />
    <glyph glyph-name="wacute" unicode="&#x1e83;" horiz-adv-x="778" 
d="M388 560l89 148h130l-142 -148h-77zM142 0l-76 504h110l41 -352l163 352h102l52 -352l151 352h111l-236 -504h-100l-53 351l-166 -351h-99z" />
    <glyph glyph-name="Wdieresis" unicode="&#x1e84;" horiz-adv-x="1001" 
d="M504 778q-28 0 -46.5 19t-18.5 47t18.5 46.5t46.5 18.5q29 0 48.5 -18.5t19.5 -46.5t-19.5 -47t-48.5 -19zM691 778q-28 0 -47 19t-19 47t19 46.5t47 18.5q29 0 48 -18.5t19 -46.5t-19.5 -47t-47.5 -19zM186 0l-97 700h121l59 -562l239 562h130l61 -562l238 562h121
l-318 -700h-124l-68 534l-240 -534h-122z" />
    <glyph glyph-name="wdieresis" unicode="&#x1e85;" horiz-adv-x="778" 
d="M361 582q-28 0 -46.5 19t-18.5 47t18.5 46.5t46.5 18.5q29 0 48.5 -18.5t19.5 -46.5t-19.5 -47t-48.5 -19zM548 582q-28 0 -47 19t-19 47t19 46.5t47 18.5q29 0 48 -18.5t19 -46.5t-19.5 -47t-47.5 -19zM142 0l-76 504h110l41 -352l163 352h102l52 -352l151 352h111
l-236 -504h-100l-53 351l-166 -351h-99z" />
    <glyph glyph-name="uni1E9E" unicode="&#x1e9e;" horiz-adv-x="625" 
d="M393 708q94 0 151 -52t55 -134l-157 -130q65 -11 104.5 -52.5t39.5 -101.5q0 -96 -74.5 -167t-175.5 -71h-123l16 103h116q53 0 91.5 37.5t38.5 89.5q0 39 -27 62t-74 23h-71l-2 67l181 153q-6 32 -35 51.5t-70 19.5q-59 0 -103 -42t-54 -109l-72 -455h-117l72 455
q18 114 99 183.5t191 69.5z" />
    <glyph glyph-name="Ygrave" unicode="&#x1ef2;" horiz-adv-x="609" 
d="M425 756h-78l-96 148h130zM206 0l46 291l-178 409h125l127 -300l223 300h128l-307 -409l-47 -291h-117z" />
    <glyph glyph-name="ygrave" unicode="&#x1ef3;" horiz-adv-x="508" 
d="M343 560h-78l-96 148h130zM427 504h111l-374 -686h-107l110 204l-117 482h112l77 -349z" />
    <glyph glyph-name="endash" unicode="&#x2013;" horiz-adv-x="500" 
d="M23 242l15 94h454l-15 -94h-454z" />
    <glyph glyph-name="emdash" unicode="&#x2014;" horiz-adv-x="1000" 
d="M23 242l15 94h954l-15 -94h-954z" />
    <glyph glyph-name="quoteleft" unicode="&#x2018;" horiz-adv-x="248" 
d="M298 708l-94 -226h-130l153 226h71z" />
    <glyph glyph-name="quoteright" unicode="&#x2019;" horiz-adv-x="248" 
d="M62 482l94 226h130l-153 -226h-71z" />
    <glyph glyph-name="quotesinglbase" unicode="&#x201a;" horiz-adv-x="248" 
d="M-31 -105l94 226h130l-153 -226h-71z" />
    <glyph glyph-name="quotedblleft" unicode="&#x201c;" horiz-adv-x="419" 
d="M298 708l-94 -226h-130l153 226h71zM470 708l-94 -226h-131l153 226h72z" />
    <glyph glyph-name="quotedblright" unicode="&#x201d;" horiz-adv-x="419" 
d="M62 482l94 226h130l-153 -226h-71zM233 482l94 226h131l-153 -226h-72z" />
    <glyph glyph-name="quotedblbase" unicode="&#x201e;" horiz-adv-x="419" 
d="M-31 -105l94 226h130l-153 -226h-71zM140 -105l94 226h131l-153 -226h-72z" />
    <glyph glyph-name="dagger" unicode="&#x2020;" horiz-adv-x="367" 
d="M127 199l44 280h-123l13 83h123l22 138h101l-22 -138h123l-13 -83h-123l-44 -280h-101z" />
    <glyph glyph-name="daggerdbl" unicode="&#x2021;" horiz-adv-x="367" 
d="M395 479h-123l-41 -258h123l-13 -83h-123l-22 -138h-101l22 138h-123l13 83h123l41 258h-123l13 83h123l22 138h101l-22 -138h123z" />
    <glyph glyph-name="bullet" unicode="&#x2022;" horiz-adv-x="475" 
d="M240 72q-85 0 -143.5 58.5t-58.5 141.5t59 141.5t143 58.5q82 0 140 -58.5t58 -141.5t-58 -141.5t-140 -58.5z" />
    <glyph glyph-name="ellipsis" unicode="&#x2026;" horiz-adv-x="819" 
d="M108 -8q-31 0 -51 20t-20 50t20 50t51 20t51 -20t20 -50t-20 -50t-51 -20zM381 -8q-31 0 -51 20t-20 50t20 50t51 20t51 -20t20 -50t-20 -50t-51 -20zM654 -8q-31 0 -51 20t-20 50t20 50t51 20t51 -20t20 -50t-20 -50t-51 -20z" />
    <glyph glyph-name="perthousand" unicode="&#x2030;" horiz-adv-x="1042" 
d="M210 356q-64 0 -101.5 41t-37.5 106q0 88 56 146.5t139 58.5q64 0 101 -40.5t37 -106.5q0 -88 -55.5 -146.5t-138.5 -58.5zM657 700h93l-579 -700h-93zM254 631q-43 0 -69.5 -33.5t-26.5 -86.5q0 -36 17 -57t47 -21q42 0 68.5 34t26.5 87q0 36 -16.5 56.5t-46.5 20.5z
M867 344q64 0 101 -40.5t37 -106.5q0 -88 -55.5 -146.5t-137.5 -58.5q-73 0 -112 53q-55 -53 -132 -53q-64 0 -101.5 41t-37.5 106q0 88 55.5 146.5t138.5 58.5q72 0 111 -53q55 53 133 53zM580 69q42 0 68 34t26 87q0 36 -16.5 56.5t-46.5 20.5q-42 0 -68.5 -33.5
t-26.5 -86.5q0 -36 17 -57t47 -21zM824 69q42 0 68 34t26 87q0 36 -16.5 56.5t-46.5 20.5q-42 0 -68.5 -33.5t-26.5 -86.5q0 -36 17 -57t47 -21z" />
    <glyph glyph-name="guilsinglleft" unicode="&#x2039;" horiz-adv-x="339" 
d="M273 61l-237 210l11 67l304 210l-18 -112l-193 -132l151 -132z" />
    <glyph glyph-name="guilsinglright" unicode="&#x203a;" horiz-adv-x="339" 
d="M8 60l18 112l193 132l-151 132l18 111l237 -210l-10 -67z" />
    <glyph glyph-name="fraction" unicode="&#x2044;" horiz-adv-x="259" 
d="M-188 0l579 700h91l-579 -700h-91z" />
    <glyph glyph-name="Euro" unicode="&#x20ac;" horiz-adv-x="799" 
d="M449 95q72 0 124 37.5t75 103.5l115 -25q-37 -104 -124 -161.5t-206 -57.5q-112 0 -194 62.5t-102 174.5h-101l12 80h83q2 48 10 86h-79l12 81h91q48 112 148 172t218 60q122 0 197.5 -62t77.5 -166l-119 -25q-4 70 -51 110.5t-122 40.5q-73 0 -132 -33.5t-92 -96.5h299
l-38 -81h-291q-9 -39 -9 -86h256l-37 -80h-208q20 -64 70 -99t117 -35z" />
    <glyph glyph-name="uni20BF" unicode="&#x20bf;" horiz-adv-x="623" 
d="M486 383q95 -38 95 -148q0 -107 -75 -171t-198 -64l-16 -104l-99 1l16 103h-178l111 700h177l16 96h99l-15 -96q83 -3 131 -43.5t48 -109.5q0 -58 -33.5 -101t-78.5 -63zM355 421q63 0 96 28t33 79q0 76 -102 76h-140l-29 -183h142zM309 103q158 0 158 127q0 90 -123 90
h-147l-34 -217h146z" />
    <glyph glyph-name="uni2116" unicode="&#x2116;" horiz-adv-x="1246" 
d="M939 193q-100 0 -161.5 62t-61.5 159q0 127 89 213t217 86q100 0 161 -62t61 -160q0 -126 -89 -212t-216 -86zM31 0l111 700h122l241 -515l81 515h112l-111 -700h-123l-240 514l-82 -514h-111zM954 288q76 0 127.5 55t51.5 138q0 62 -34 99.5t-93 37.5q-76 0 -127 -55
t-51 -138q0 -62 34 -99.5t92 -37.5zM683 8l15 94h455l-15 -94h-455z" />
    <glyph glyph-name="uni2117" unicode="&#x2117;" horiz-adv-x="792" 
d="M416 -8q-154 0 -256 102t-102 256t102 256t256 102q155 0 257 -102t102 -256t-102 -256t-257 -102zM416 54q126 0 209.5 84.5t83.5 211.5t-83.5 211.5t-209.5 84.5t-209.5 -84.5t-83.5 -211.5t83.5 -211.5t209.5 -84.5zM422 319h-72v-148h-67l-1 379h140q55 0 90 -32
t35 -84q0 -51 -35 -83t-90 -32zM350 490v-110h67q29 0 45.5 14.5t16.5 39.5q0 26 -16.5 41t-45.5 15h-67z" />
    <glyph glyph-name="trademark" unicode="&#x2122;" horiz-adv-x="728" 
d="M109 350v287h-103v63h282v-63h-104v-287h-75zM323 350v350h83l103 -246l105 246h81v-350h-68v213l-90 -213h-54l-91 213v-213h-69z" />
    <glyph glyph-name="uni2126" unicode="&#x2126;" horiz-adv-x="735" 
d="M724 426q0 -101 -53.5 -186t-142.5 -137h138l-16 -103h-248l16 103l5 31q82 44 132 119t50 160q0 87 -49 141t-130 54q-106 0 -179.5 -77t-73.5 -190q0 -63 28 -119t77 -88l-5 -31h1l-17 -103h-248l16 103h143q-113 86 -113 233q0 155 114 263.5t273 108.5
q126 0 204 -79.5t78 -202.5z" />
    <glyph glyph-name="oneeighth" unicode="&#x215b;" horiz-adv-x="808" 
d="M65 0l579 700h91l-579 -700h-91zM120 315l47 299q-51 -31 -89 -38l12 73q48 12 105 51h62l-61 -385h-76zM597 -4q-55 0 -90.5 28t-35.5 75q0 37 24 67t61 41q-40 21 -40 69q0 46 41.5 79.5t102.5 33.5q49 0 79.5 -26t30.5 -65q0 -30 -18 -54.5t-48 -36.5q26 -8 41 -30
t15 -50q0 -58 -48 -94.5t-115 -36.5zM636 238q25 0 42 14t17 36q0 18 -12.5 28.5t-33.5 10.5q-26 0 -42.5 -14.5t-16.5 -37.5q0 -17 12.5 -27t33.5 -10zM607 62q32 0 52 17t20 44q0 21 -14.5 33t-40.5 12q-32 0 -52 -16.5t-20 -43.5q0 -21 15 -33.5t40 -12.5z" />
    <glyph glyph-name="threeeighths" unicode="&#x215c;" horiz-adv-x="878" 
d="M179 311q-60 0 -95 31.5t-32 82.5l76 12q2 -25 19 -40t44 -15q33 0 54.5 19t21.5 49q0 23 -15 36.5t-40 13.5q-26 0 -46 -13l-24 54l114 89h-161l12 70h257l-11 -70l-107 -79q48 2 76 -23t28 -71q0 -65 -48 -105.5t-123 -40.5zM112 0l579 700h91l-579 -700h-91zM667 -4
q-55 0 -90.5 28t-35.5 75q0 37 24 67t61 41q-40 21 -40 69q0 46 41.5 79.5t102.5 33.5q49 0 79.5 -26t30.5 -65q0 -30 -18 -54.5t-48 -36.5q26 -8 41 -30t15 -50q0 -58 -48 -94.5t-115 -36.5zM706 238q25 0 42 14t17 36q0 18 -12.5 28.5t-33.5 10.5q-26 0 -42.5 -14.5
t-16.5 -37.5q0 -17 12.5 -27t33.5 -10zM677 62q32 0 52 17t20 44q0 21 -14.5 33t-40.5 12q-32 0 -52 -16.5t-20 -43.5q0 -21 15 -33.5t40 -12.5z" />
    <glyph glyph-name="fiveeighths" unicode="&#x215d;" horiz-adv-x="878" 
d="M180 311q-58 0 -92 29t-35 78l76 13q2 -23 17.5 -36t41.5 -13q32 0 52.5 20.5t20.5 51.5q0 24 -15 38.5t-42 14.5q-41 0 -74 -36l-58 12l67 217h215l-11 -71h-156l-28 -85q33 27 77 27q50 0 79.5 -29.5t29.5 -77.5q0 -68 -46.5 -110.5t-118.5 -42.5zM122 0l579 700h91
l-579 -700h-91zM667 -4q-55 0 -90.5 28t-35.5 75q0 37 24 67t61 41q-40 21 -40 69q0 46 41.5 79.5t102.5 33.5q49 0 79.5 -26t30.5 -65q0 -30 -18 -54.5t-48 -36.5q26 -8 41 -30t15 -50q0 -58 -48 -94.5t-115 -36.5zM706 238q25 0 42 14t17 36q0 18 -12.5 28.5t-33.5 10.5
q-26 0 -42.5 -14.5t-16.5 -37.5q0 -17 12.5 -27t33.5 -10zM677 62q32 0 52 17t20 44q0 21 -14.5 33t-40.5 12q-32 0 -52 -16.5t-20 -43.5q0 -21 15 -33.5t40 -12.5z" />
    <glyph glyph-name="seveneighths" unicode="&#x215e;" horiz-adv-x="798" 
d="M36 0l579 700h91l-579 -700h-91zM69 315q84 181 208 314h-198l11 71h278l-11 -71q-139 -155 -208 -314h-80zM586 -4q-55 0 -90.5 28t-35.5 75q0 37 24 67t61 41q-40 21 -40 69q0 46 41.5 79.5t102.5 33.5q50 0 80 -26t30 -65q0 -30 -18 -54.5t-47 -36.5q25 -8 40 -30
t15 -50q0 -58 -47.5 -94.5t-115.5 -36.5zM625 238q26 0 42.5 14t16.5 36q0 18 -12.5 28.5t-32.5 10.5q-26 0 -42.5 -14.5t-16.5 -37.5q0 -17 12 -27t33 -10zM597 62q32 0 51.5 17t19.5 44q0 21 -14 33t-40 12q-32 0 -52 -16.5t-20 -43.5q0 -21 14.5 -33.5t40.5 -12.5z" />
    <glyph glyph-name="uni2160" unicode="&#x2160;" horiz-adv-x="472" 
d="M460 598h-109l-79 -495h110l-17 -103h-334l16 103h108l79 495h-109l17 102h334z" />
    <glyph glyph-name="uni2161" unicode="&#x2161;" horiz-adv-x="736" 
d="M724 598h-109l-79 -495h109l-16 -103h-598l16 103h108l79 495h-109l17 102h598zM418 103l79 495h-146l-79 -495h146z" />
    <glyph glyph-name="uni2162" unicode="&#x2162;" horiz-adv-x="1000" 
d="M987 598h-108l-79 -495h109l-16 -103h-862l16 103h108l79 495h-109l17 102h862zM272 103h146l79 495h-146zM682 103l79 495h-146l-79 -495h146z" />
    <glyph glyph-name="uni2163" unicode="&#x2163;" horiz-adv-x="1129" 
d="M1117 598h-96l-262 -495h280l-17 -103h-991l16 103h108l79 495h-109l17 102h991zM273 103h295l-104 495h-112zM669 138l234 460h-322z" />
    <glyph glyph-name="uni2164" unicode="&#x2164;" horiz-adv-x="903" 
d="M891 598h-101l-262 -495h260l-17 -103h-715l16 103h265l-104 495h-108l17 102h765zM438 138l234 460h-322z" />
    <glyph glyph-name="uni2165" unicode="&#x2165;" horiz-adv-x="1129" 
d="M1025 700l-95 -597h109l-17 -103h-991l16 103h291l-104 495h-109l17 102h883zM1117 598h-108l16 102h108zM673 598h-322l88 -460zM529 103h283l79 495h-101z" />
    <glyph glyph-name="uni2166" unicode="&#x2166;" horiz-adv-x="1393" 
d="M1381 598h-109l-79 -495h109l-16 -103h-1255l16 103h291l-104 495h-109l17 102h1255zM673 598h-322l88 -460zM529 103h283l79 495h-101zM929 103h147l79 495h-147z" />
    <glyph glyph-name="uni2167" unicode="&#x2167;" horiz-adv-x="1657" 
d="M1552 700l-95 -597h109l-16 -103h-1519l16 103h291l-104 495h-109l17 102h1410zM1644 598h-108l16 102h109zM673 598h-322l88 -460zM529 103h283l79 495h-101zM929 103h147l79 495h-147zM1193 103h147l79 495h-147z" />
    <glyph glyph-name="uni2168" unicode="&#x2168;" horiz-adv-x="1114" 
d="M1002 598l-216 -248l137 -247h101l-17 -103h-976l16 103h108l79 495h-109l17 102h976l-16 -102h-100zM434 103l216 247l-138 248h-161l-79 -495h162zM733 445l133 153h-218zM787 103l-85 152l-132 -152h217z" />
    <glyph glyph-name="uni2169" unicode="&#x2169;" horiz-adv-x="828" 
d="M716 598l-216 -248l137 -247h101l-17 -103h-690l16 103h101l216 247l-138 248h-101l17 102h690l-16 -102h-100zM362 598l85 -153l133 153h-218zM501 103l-85 152l-132 -152h217z" />
    <glyph glyph-name="uni216A" unicode="&#x216a;" horiz-adv-x="1062" 
d="M1049 598h-108l-79 -495h109l-16 -103h-924l16 103h101l215 247l-137 248h-101l17 102h924zM362 598l84 -152l133 152h-217zM745 103l79 495h-109l-216 -248l138 -247h108zM416 255l-132 -152h217z" />
    <glyph glyph-name="uni216B" unicode="&#x216b;" horiz-adv-x="1348" 
d="M1336 598h-108l-79 -495h108l-16 -103h-1210l16 103h101l215 247l-137 248h-101l17 102h1210zM362 598l84 -152l133 152h-217zM745 103l79 495h-109l-216 -248l138 -247h108zM1032 103l79 495h-170l-79 -495h170zM416 255l-132 -152h217z" />
    <glyph glyph-name="uni216C" unicode="&#x216c;" horiz-adv-x="642" 
d="M624 211l-18 -118h-1l-14 -93h-560l16 103h108l79 495h-109l17 102h334l-16 -102h-108l-79 -495h232l16 108h103z" />
    <glyph glyph-name="uni216D" unicode="&#x216d;" horiz-adv-x="724" 
d="M439 606q-115 0 -192.5 -82t-77.5 -222q0 -98 51.5 -152.5t137.5 -54.5q73 0 127.5 37t81.5 104l113 -25l-32 -211l-103 -1l12 76q-91 -83 -214 -83q-127 0 -210.5 78t-83.5 219q0 100 35 181.5t93.5 132.5t130 78t148.5 27q128 0 188 -85l13 76l101 1l-34 -220l-120 -25
q-4 71 -48 111t-117 40z" />
    <glyph glyph-name="uni216E" unicode="&#x216e;" horiz-adv-x="791" 
d="M470 700q135 0 220.5 -76.5t85.5 -216.5q0 -96 -34.5 -174.5t-92.5 -128.5t-132.5 -77t-157.5 -27h-328l16 103h108l79 495h-109l17 102h328zM367 103q56 0 106 16.5t91.5 50.5t66 92t24.5 133q0 103 -59 153t-150 50h-97l-78 -495h96z" />
    <glyph glyph-name="uni216F" unicode="&#x216f;" horiz-adv-x="1071" 
d="M524 168l307 532h135l-95 -597h109l-16 -103h-221l77 481l-277 -481h-91l-125 481l-76 -481h-220l16 103h108l79 495h-109l17 102h243zM1059 598h-109l16 102h109z" />
    <glyph glyph-name="arrowleft" unicode="&#x2190;" horiz-adv-x="717" 
d="M692 310l-15 -94h-482l150 -178l-67 -59l-239 284l329 285l53 -60l-210 -178h481z" />
    <glyph glyph-name="arrowup" unicode="&#x2191;" horiz-adv-x="640" 
d="M623 361l-68 -59l-150 178l-76 -481h-94l76 481l-206 -179l-50 59l330 285z" />
    <glyph glyph-name="arrowright" unicode="&#x2192;" horiz-adv-x="717" 
d="M445 548l240 -285l-329 -284l-54 63l206 174h-476l14 94h483l-151 181z" />
    <glyph glyph-name="arrowdown" unicode="&#x2193;" horiz-adv-x="640" 
d="M561 341l50 -59l-330 -285l-239 284l68 59l150 -178l76 481h94l-76 -481z" />
    <glyph glyph-name="arrowboth" unicode="&#x2194;" horiz-adv-x="1044" 
d="M772 548l240 -285l-329 -284l-54 63l206 174h-640l150 -178l-67 -59l-239 284l329 285l53 -60l-210 -178h645l-151 181z" />
    <glyph glyph-name="arrowupdn" unicode="&#x2195;" horiz-adv-x="640" 
d="M327 -11l206 181l51 -61l-330 -285l-240 284l68 59l151 -178l102 645l-205 -181l-51 62l329 284l240 -285l-69 -59l-150 178z" />
    <glyph glyph-name="uni2196" unicode="&#x2196;" horiz-adv-x="590" 
d="M528 68l-77 -66l-287 339l-39 -251h-84l63 402h403l-14 -84h-252z" />
    <glyph glyph-name="uni2197" unicode="&#x2197;" horiz-adv-x="586" 
d="M158 492h403l-64 -402h-83l40 251l-395 -339l-55 66l393 340l-252 -1z" />
    <glyph glyph-name="uni2198" unicode="&#x2198;" horiz-adv-x="590" 
d="M466 403h85l-64 -403h-402l13 84h253l-287 340l77 66l286 -340z" />
    <glyph glyph-name="uni2199" unicode="&#x2199;" horiz-adv-x="590" 
d="M583 424l-393 -340h251l-14 -84h-401l64 403h84l-40 -253l393 340z" />
    <glyph glyph-name="partialdiff" unicode="&#x2202;" horiz-adv-x="635" 
d="M301 707q8 1 26 1q122 0 197.5 -82t75.5 -233q0 -177 -92.5 -289t-230.5 -112q-102 0 -164.5 57.5t-62.5 149.5q0 115 83.5 193.5t204.5 78.5q54 0 97 -26.5t58 -69.5q12 102 -39 166.5t-145 64.5q-20 0 -36 -4zM291 95q69 0 118 46.5t49 115.5q0 53 -34 86.5t-89 33.5
q-69 0 -117.5 -46t-48.5 -115q0 -54 33 -87.5t89 -33.5z" />
    <glyph glyph-name="uni2206" unicode="&#x2206;" horiz-adv-x="670" 
d="M462 700l162 -700h-654l383 700h109zM143 101h339l-98 445z" />
    <glyph glyph-name="product" unicode="&#x220f;" horiz-adv-x="665" 
d="M31 0l111 700h527l-111 -700h-122l95 598h-284l-95 -598h-121z" />
    <glyph glyph-name="summation" unicode="&#x2211;" horiz-adv-x="551" 
d="M2 0l16 98l265 252l-186 252l16 98h465l-16 -102h-321l155 -203l-14 -90l-220 -202h321l-16 -103h-465z" />
    <glyph glyph-name="minus" unicode="&#x2212;" horiz-adv-x="544" 
d="M39 281l15 94h478l-15 -94h-478z" />
    <glyph glyph-name="radical" unicode="&#x221a;" horiz-adv-x="572" 
d="M193 0l-51 292h-108l16 103h180l40 -250l259 555h111l-337 -700h-110z" />
    <glyph glyph-name="infinity" unicode="&#x221e;" horiz-adv-x="931" 
d="M724 572q88 0 140 -50t52 -131q0 -106 -74 -175.5t-185 -69.5q-119 0 -188 115q-107 -115 -224 -115q-88 0 -140.5 50t-52.5 131q0 106 74.5 175.5t185.5 69.5q119 0 188 -114q105 114 224 114zM261 250q86 0 166 109q-45 109 -131 109q-64 0 -100 -35t-36 -93
q0 -43 26 -66.5t75 -23.5zM673 250q63 0 99 34.5t36 93.5q0 42 -26 66t-74 24q-86 0 -165 -109q45 -109 130 -109z" />
    <glyph glyph-name="integral" unicode="&#x222b;" horiz-adv-x="304" 
d="M-38 -190l-27 1l13 96q5 -1 17 -1q75 0 89 92l84 536q13 78 67 126t131 48l27 -1l-12 -96q-8 1 -18 1q-74 0 -88 -92l-85 -536q-12 -78 -66 -126t-132 -48z" />
    <glyph glyph-name="approxequal" unicode="&#x2248;" horiz-adv-x="594" 
d="M405 360q-53 0 -102 36q-2 2 -12 9.5t-12.5 9.5t-11 7t-13 6.5t-12.5 3.5t-16 2q-54 0 -75 -70l-88 14q15 68 64 110t114 42q53 0 102 -36q2 -2 9 -7.5t9.5 -7t8.5 -6t9 -6t8.5 -4t10 -3.5t10.5 -2t12 -1q54 0 75 69l89 -14q-16 -68 -65 -110t-114 -42zM370 140
q-54 0 -101 36q-1 1 -12 9.5t-13 9.5t-11 6.5t-13.5 6.5t-12.5 3t-16 2q-53 0 -75 -70l-88 14q15 69 64.5 111t114.5 42q53 0 100 -36q4 -3 15.5 -11.5t15.5 -11t13 -7.5t17 -6.5t17 -1.5q52 0 75 70l89 -14q-16 -68 -65 -110t-114 -42z" />
    <glyph glyph-name="notequal" unicode="&#x2260;" horiz-adv-x="544" 
d="M534 385h-151l-83 -114h216l-15 -93h-270l-110 -150l-70 41l80 109h-108l15 93h161l84 114h-227l15 94h281l95 129l71 -40l-65 -89h96z" />
    <glyph glyph-name="lessequal" unicode="&#x2264;" horiz-adv-x="553" 
d="M488 96l-447 200l16 99l510 200l-18 -112l-368 -138l325 -137zM473 0h-478l14 94h478z" />
    <glyph glyph-name="greaterequal" unicode="&#x2265;" horiz-adv-x="553" 
d="M19 96l18 112l367 137l-324 138l18 112l446 -200l-16 -99zM4 0l14 94h478l-14 -94h-478z" />
    <glyph glyph-name="uni2460" unicode="&#x2460;" horiz-adv-x="801" 
d="M436 -8q-154 0 -256 102t-102 256t102 256t256 102q155 0 257 -102t102 -256t-102 -256t-257 -102zM436 54q126 0 209.5 84.5t83.5 211.5t-83.5 211.5t-209.5 84.5t-209.5 -84.5t-83.5 -211.5t83.5 -211.5t209.5 -84.5zM369 167l47 299q-51 -31 -89 -38l11 73
q46 11 106 51h62l-61 -385h-76z" />
    <glyph glyph-name="uni2461" unicode="&#x2461;" horiz-adv-x="801" 
d="M436 -8q-154 0 -256 102t-102 256t102 256t256 102q155 0 257 -102t102 -256t-102 -256t-257 -102zM436 54q126 0 209.5 84.5t83.5 211.5t-83.5 211.5t-209.5 84.5t-209.5 -84.5t-83.5 -211.5t83.5 -211.5t209.5 -84.5zM257 167l10 65l138 102q87 63 87 107q0 20 -13 32
t-35 12q-30 0 -49.5 -21.5t-21.5 -58.5l-77 6q4 62 49.5 103.5t110.5 41.5q55 0 87.5 -29t32.5 -77q0 -42 -28 -80t-93 -82l-73 -50h161l-11 -71h-275z" />
    <glyph glyph-name="uni2462" unicode="&#x2462;" horiz-adv-x="801" 
d="M436 -8q-154 0 -256 102t-102 256t102 256t256 102q155 0 257 -102t102 -256t-102 -256t-257 -102zM436 54q126 0 209.5 84.5t83.5 211.5t-83.5 211.5t-209.5 84.5t-209.5 -84.5t-83.5 -211.5t83.5 -211.5t209.5 -84.5zM384 163q-59 0 -94 31t-33 83l76 12q2 -25 19 -40
t44 -15q33 0 54.5 19t21.5 49q0 23 -15 36.5t-40 13.5q-26 0 -46 -13l-24 54l114 89h-160l11 70h257l-11 -70l-107 -79q48 2 76.5 -23.5t28.5 -70.5q0 -65 -48.5 -105.5t-123.5 -40.5z" />
    <glyph glyph-name="uni2463" unicode="&#x2463;" horiz-adv-x="801" 
d="M436 -8q-154 0 -256 102t-102 256t102 256t256 102q155 0 257 -102t102 -256t-102 -256t-257 -102zM436 54q126 0 209.5 84.5t83.5 211.5t-83.5 211.5t-209.5 84.5t-209.5 -84.5t-83.5 -211.5t83.5 -211.5t209.5 -84.5zM409 167l12 76h-193l11 71l226 238h88l-38 -238h48
l-11 -71h-48l-12 -76h-83zM323 314h109l23 139z" />
    <glyph glyph-name="uni2464" unicode="&#x2464;" horiz-adv-x="801" 
d="M436 -8q-155 0 -257 102t-102 256t102 256t257 102q154 0 256 -102t102 -256t-102 -256t-256 -102zM436 54q126 0 209.5 84.5t83.5 211.5t-83.5 211.5t-209.5 84.5t-209.5 -84.5t-83.5 -211.5t83.5 -211.5t209.5 -84.5zM381 163q-58 0 -92 29t-35 78l76 13q5 -49 59 -49
q32 0 52.5 20.5t20.5 51.5q0 24 -15 38.5t-42 14.5q-41 0 -74 -36l-57 12l66 217h215l-11 -71h-156l-28 -85q33 27 77 27q50 0 79.5 -29.5t29.5 -77.5q0 -68 -46.5 -110.5t-118.5 -42.5z" />
    <glyph glyph-name="uni2465" unicode="&#x2465;" horiz-adv-x="801" 
d="M436 -8q-155 0 -257 102t-102 256t102 256t257 102q154 0 256 -102t102 -256t-102 -256t-256 -102zM436 54q126 0 209.5 84.5t83.5 211.5t-83.5 211.5t-209.5 84.5t-209.5 -84.5t-83.5 -211.5t83.5 -211.5t209.5 -84.5zM431 426q52 0 84 -31.5t32 -80.5q0 -65 -48 -108
t-114 -43q-61 0 -97.5 41.5t-36.5 110.5q0 111 66 176.5t151 65.5q73 0 112 -41l-46 -54q-23 24 -71 24q-46 0 -79.5 -28t-44.5 -74q33 42 92 42zM389 234q29 0 50.5 18.5t26.5 47.5q5 28 -11 46t-46 18q-31 0 -53.5 -21t-22.5 -53q0 -25 15.5 -40.5t40.5 -15.5z" />
    <glyph glyph-name="uni2466" unicode="&#x2466;" horiz-adv-x="801" 
d="M436 -8q-155 0 -257 102t-102 256t102 256t257 102q154 0 256 -102t102 -256t-102 -256t-256 -102zM436 54q126 0 209.5 84.5t83.5 211.5t-83.5 211.5t-209.5 84.5t-209.5 -84.5t-83.5 -211.5t83.5 -211.5t209.5 -84.5zM281 167q81 179 207 314h-198l11 71h278l-11 -71
q-140 -158 -208 -314h-79z" />
    <glyph glyph-name="uni2467" unicode="&#x2467;" horiz-adv-x="801" 
d="M436 -8q-155 0 -257 102t-102 256t102 256t257 102q154 0 256 -102t102 -256t-102 -256t-256 -102zM436 54q126 0 209.5 84.5t83.5 211.5t-83.5 211.5t-209.5 84.5t-209.5 -84.5t-83.5 -211.5t83.5 -211.5t209.5 -84.5zM390 163q-55 0 -90.5 28t-35.5 75q0 37 24 67
t61 41q-40 21 -40 69q0 46 41.5 79.5t102.5 33.5q50 0 80 -26t30 -65q0 -30 -18 -54.5t-48 -36.5q26 -8 41 -30t15 -50q0 -58 -48 -94.5t-115 -36.5zM428 405q26 0 43 14t17 36q0 18 -12.5 28.5t-32.5 10.5q-27 0 -43.5 -14.5t-16.5 -37.5q0 -17 12 -27t33 -10zM400 229
q32 0 52 17t20 44q0 21 -14.5 33t-40.5 12q-32 0 -52 -16.5t-20 -43.5q0 -21 15 -33.5t40 -12.5z" />
    <glyph glyph-name="uni2468" unicode="&#x2468;" horiz-adv-x="801" 
d="M436 -8q-155 0 -257 102t-102 256t102 256t257 102q154 0 256 -102t102 -256t-102 -256t-256 -102zM436 54q126 0 209.5 84.5t83.5 211.5t-83.5 211.5t-209.5 84.5t-209.5 -84.5t-83.5 -211.5t83.5 -211.5t209.5 -84.5zM402 293q-53 0 -84.5 31.5t-31.5 80.5
q0 65 47.5 108t113.5 43q62 0 98 -41.5t36 -110.5q0 -111 -66 -176.5t-151 -65.5q-72 0 -111 41l45 54q24 -24 71 -24q46 0 80 28t45 74q-33 -42 -92 -42zM444 485q-29 0 -50.5 -18.5t-26.5 -47.5q-5 -28 11 -46t45 -18q32 0 54 21t22 53q0 25 -15 40.5t-40 15.5z" />
    <glyph glyph-name="lozenge" unicode="&#x25ca;" horiz-adv-x="581" 
d="M202 0l-139 350l250 350h101l137 -350l-248 -350h-101zM267 97l179 253l-98 253l-180 -253z" />
    <glyph glyph-name="circle" unicode="&#x25cb;" horiz-adv-x="801" 
d="M416 -8q-154 0 -256 102t-102 256t102 256t256 102q155 0 257 -102t102 -256t-102 -256t-257 -102zM416 54q126 0 209.5 84.5t83.5 211.5t-83.5 211.5t-209.5 84.5t-209.5 -84.5t-83.5 -211.5t83.5 -211.5t209.5 -84.5z" />
    <glyph glyph-name="uni25CF" unicode="&#x25cf;" horiz-adv-x="801" 
d="M418 -8q-155 0 -257.5 102t-102.5 256t102.5 256t257.5 102q154 0 255.5 -102t101.5 -256t-101.5 -256t-255.5 -102z" />
    <glyph glyph-name="uniF8FF" unicode="&#xf8ff;" horiz-adv-x="782" 
d="M616 266q50 0 83.5 -35t33.5 -86q0 -61 -49 -107t-111 -46q-57 0 -91.5 40t-25.5 96l13 85h-167l-13 -85q-9 -56 -55.5 -96t-103.5 -40q-50 0 -83 34t-33 84q0 62 48.5 109t110.5 47h85l27 167h-85q-50 0 -83 34.5t-33 85.5q0 62 48.5 108.5t110.5 46.5q56 0 90.5 -40.5
t25.5 -96.5l-13 -85h167l13 85q9 56 56.5 96.5t103.5 40.5q51 0 84 -34.5t33 -85.5q0 -61 -49.5 -108t-110.5 -47h-85l-27 -167h85zM208 486h85l13 85q5 35 -15.5 59.5t-55.5 24.5q-39 0 -68.5 -28.5t-29.5 -66.5q0 -31 20.5 -52.5t50.5 -21.5zM579 571l-13 -85h85
q38 0 68 29t30 67q0 30 -20.5 51.5t-50.5 21.5q-35 0 -64.5 -25t-34.5 -59zM311 266h167l27 167h-167zM236 128l13 85h-84q-39 0 -68.5 -28.5t-29.5 -67.5q0 -30 20.5 -51t50.5 -21q35 0 64 24.5t34 58.5zM581 45q39 0 68.5 28t29.5 66q0 31 -20.5 52.5t-50.5 21.5h-86
l-13 -85q-5 -35 16 -59t56 -24z" />
    <glyph glyph-name="G.ss03" horiz-adv-x="752" 
d="M359 -8q-137 0 -222.5 88t-85.5 224q0 176 115 290t289 114q123 0 204 -63.5t84 -164.5l-120 -24q-4 69 -55 109.5t-129 40.5q-119 0 -194 -80.5t-75 -208.5q0 -99 55 -160.5t146 -61.5q85 0 146.5 48t81.5 129h-249l16 97h371l-7 -47q-24 -151 -124.5 -240.5
t-246.5 -89.5z" />
    <glyph glyph-name="Gbreve.ss03" horiz-adv-x="752" 
d="M463 753q-58 0 -90 37.5t-23 94.5h83q-5 -26 7 -42t35 -16t40.5 16.5t21.5 41.5h83q-10 -57 -54.5 -94.5t-102.5 -37.5zM359 -8q-137 0 -222.5 88t-85.5 224q0 176 115 290t289 114q123 0 204 -63.5t84 -164.5l-120 -24q-4 69 -55 109.5t-129 40.5q-119 0 -194 -80.5
t-75 -208.5q0 -99 55 -160.5t146 -61.5q85 0 146.5 48t81.5 129h-249l16 97h371l-7 -47q-24 -151 -124.5 -240.5t-246.5 -89.5z" />
    <glyph glyph-name="Gcircumflex.ss03" horiz-adv-x="752" 
d="M441 904h91l92 -148h-82l-65 83l-90 -83h-84zM359 -8q-137 0 -222.5 88t-85.5 224q0 176 115 290t289 114q123 0 204 -63.5t84 -164.5l-120 -24q-4 69 -55 109.5t-129 40.5q-119 0 -194 -80.5t-75 -208.5q0 -99 55 -160.5t146 -61.5q85 0 146.5 48t81.5 129h-249l16 97
h371l-7 -47q-24 -151 -124.5 -240.5t-246.5 -89.5z" />
    <glyph glyph-name="uni0122.ss03" horiz-adv-x="752" 
d="M359 -8q-137 0 -222.5 88t-85.5 224q0 176 115 290t289 114q123 0 204 -63.5t84 -164.5l-120 -24q-4 69 -55 109.5t-129 40.5q-119 0 -194 -80.5t-75 -208.5q0 -99 55 -160.5t146 -61.5q85 0 146.5 48t81.5 129h-249l16 97h371l-7 -47q-24 -151 -124.5 -240.5
t-246.5 -89.5zM213 -190l64 148h121l-108 -148h-77z" />
    <glyph glyph-name="Gdotaccent.ss03" horiz-adv-x="752" 
d="M481 784q-31 0 -51 20t-20 50t20 50.5t51 20.5t51.5 -20.5t20.5 -50.5q0 -29 -20.5 -49.5t-51.5 -20.5zM359 -8q-137 0 -222.5 88t-85.5 224q0 176 115 290t289 114q123 0 204 -63.5t84 -164.5l-120 -24q-4 69 -55 109.5t-129 40.5q-119 0 -194 -80.5t-75 -208.5
q0 -99 55 -160.5t146 -61.5q85 0 146.5 48t81.5 129h-249l16 97h371l-7 -47q-24 -151 -124.5 -240.5t-246.5 -89.5z" />
    <glyph glyph-name="i.loclTRK" horiz-adv-x="238" 
d="M186 588q-30 0 -50.5 20t-20.5 50t20 50.5t51 20.5t51.5 -20.5t20.5 -50.5q0 -29 -20.5 -49.5t-51.5 -20.5zM26 0l80 504h109l-80 -504h-109z" />
    <glyph glyph-name="r.calt" horiz-adv-x="458" 
d="M404 404q-15 3 -33 3q-59 0 -105 -54t-63 -165l-30 -188h-109l80 504h109l-15 -96q25 45 70 74.5t91 29.5l29 -2z" />
    <glyph glyph-name="racute.calt" horiz-adv-x="458" 
d="M242 560l89 148h130l-142 -148h-77zM404 404q-15 3 -33 3q-59 0 -105 -54t-63 -165l-30 -188h-109l80 504h109l-15 -96q25 45 70 74.5t91 29.5l29 -2z" />
    <glyph glyph-name="rcaron.calt" horiz-adv-x="458" 
d="M248 560l-92 148h79l66 -82l89 82h87l-138 -148h-91zM404 404q-15 3 -33 3q-59 0 -105 -54t-63 -165l-30 -188h-109l80 504h109l-15 -96q25 45 70 74.5t91 29.5l29 -2z" />
    <glyph glyph-name="uni0157.calt" horiz-adv-x="458" 
d="M404 404q-15 3 -33 3q-59 0 -105 -54t-63 -165l-30 -188h-109l80 504h109l-15 -96q25 45 70 74.5t91 29.5l29 -2zM-14 -190l64 148h121l-108 -148h-77z" />
    <glyph glyph-name="germandbls.calt" horiz-adv-x="625" 
d="M393 708q94 0 151 -52t55 -134l-157 -130q65 -11 104.5 -52.5t39.5 -101.5q0 -96 -74.5 -167t-175.5 -71h-123l16 103h116q53 0 91.5 37.5t38.5 89.5q0 39 -27 62t-74 23h-71l-2 67l181 153q-6 32 -35 51.5t-70 19.5q-59 0 -103 -42t-54 -109l-72 -455h-117l72 455
q18 114 99 183.5t191 69.5z" />
    <glyph glyph-name="a.ss01" horiz-adv-x="603" 
d="M581 504l-80 -504h-109l11 64q-23 -32 -68.5 -52t-95.5 -20q-98 0 -151 58.5t-53 155.5q0 132 77.5 219t201.5 87q52 0 90.5 -21t57.5 -54l10 67h109zM268 87q76 0 125.5 55t49.5 140q0 62 -33.5 98.5t-94.5 36.5q-72 0 -121 -55t-49 -140q0 -61 33 -98t90 -37z" />
    <glyph glyph-name="aacute.ss01" horiz-adv-x="603" 
d="M302 560l89 148h130l-142 -148h-77zM581 504l-80 -504h-109l11 64q-23 -32 -68.5 -52t-95.5 -20q-98 0 -151 58.5t-53 155.5q0 132 77.5 219t201.5 87q52 0 90.5 -21t57.5 -54l10 67h109zM268 87q76 0 125.5 55t49.5 140q0 62 -33.5 98.5t-94.5 36.5q-72 0 -121 -55
t-49 -140q0 -61 33 -98t90 -37z" />
    <glyph glyph-name="abreve.ss01" horiz-adv-x="603" 
d="M352 557q-58 0 -90 37.5t-23 94.5h83q-5 -26 7 -42t35 -16t40.5 16.5t21.5 41.5h83q-10 -57 -54.5 -94.5t-102.5 -37.5zM581 504l-80 -504h-109l11 64q-23 -32 -68.5 -52t-95.5 -20q-98 0 -151 58.5t-53 155.5q0 132 77.5 219t201.5 87q52 0 90.5 -21t57.5 -54l10 67h109
zM268 87q76 0 125.5 55t49.5 140q0 62 -33.5 98.5t-94.5 36.5q-72 0 -121 -55t-49 -140q0 -61 33 -98t90 -37z" />
    <glyph glyph-name="acircumflex.ss01" horiz-adv-x="603" 
d="M330 708h91l92 -148h-82l-65 83l-90 -83h-84zM581 504l-80 -504h-109l11 64q-23 -32 -68.5 -52t-95.5 -20q-98 0 -151 58.5t-53 155.5q0 132 77.5 219t201.5 87q52 0 90.5 -21t57.5 -54l10 67h109zM268 87q76 0 125.5 55t49.5 140q0 62 -33.5 98.5t-94.5 36.5
q-72 0 -121 -55t-49 -140q0 -61 33 -98t90 -37z" />
    <glyph glyph-name="adieresis.ss01" horiz-adv-x="603" 
d="M275 582q-28 0 -46.5 19t-18.5 47t18.5 46.5t46.5 18.5q29 0 48.5 -18.5t19.5 -46.5t-19.5 -47t-48.5 -19zM462 582q-28 0 -47 19t-19 47t19 46.5t47 18.5q29 0 48 -18.5t19 -46.5t-19.5 -47t-47.5 -19zM581 504l-80 -504h-109l11 64q-23 -32 -68.5 -52t-95.5 -20
q-98 0 -151 58.5t-53 155.5q0 132 77.5 219t201.5 87q52 0 90.5 -21t57.5 -54l10 67h109zM268 87q76 0 125.5 55t49.5 140q0 62 -33.5 98.5t-94.5 36.5q-72 0 -121 -55t-49 -140q0 -61 33 -98t90 -37z" />
    <glyph glyph-name="agrave.ss01" horiz-adv-x="603" 
d="M395 560h-78l-96 148h130zM581 504l-80 -504h-109l11 64q-23 -32 -68.5 -52t-95.5 -20q-98 0 -151 58.5t-53 155.5q0 132 77.5 219t201.5 87q52 0 90.5 -21t57.5 -54l10 67h109zM268 87q76 0 125.5 55t49.5 140q0 62 -33.5 98.5t-94.5 36.5q-72 0 -121 -55t-49 -140
q0 -61 33 -98t90 -37z" />
    <glyph glyph-name="amacron.ss01" horiz-adv-x="603" 
d="M220 587l13 86h274l-14 -86h-273zM581 504l-80 -504h-109l11 64q-23 -32 -68.5 -52t-95.5 -20q-98 0 -151 58.5t-53 155.5q0 132 77.5 219t201.5 87q52 0 90.5 -21t57.5 -54l10 67h109zM268 87q76 0 125.5 55t49.5 140q0 62 -33.5 98.5t-94.5 36.5q-72 0 -121 -55
t-49 -140q0 -61 33 -98t90 -37z" />
    <glyph glyph-name="aogonek.ss01" horiz-adv-x="603" 
d="M448 -77q0 -15 10 -24t27 -9q19 0 27 4v-78q-20 -6 -54 -6q-48 0 -75.5 23.5t-27.5 62.5q0 54 55 104h-18l11 64q-23 -32 -68.5 -52t-95.5 -20q-98 0 -151 58.5t-53 155.5q0 132 77.5 219t201.5 87q52 0 90.5 -21t57.5 -54l10 67h109l-80 -504q-53 -44 -53 -77zM268 87
q76 0 125.5 55t49.5 140q0 62 -33.5 98.5t-94.5 36.5q-72 0 -121 -55t-49 -140q0 -61 33 -98t90 -37z" />
    <glyph glyph-name="aring.ss01" horiz-adv-x="603" 
d="M344 542q-49 0 -81 30t-32 76t32 76.5t81 30.5t81.5 -30.5t32.5 -76.5t-32.5 -76t-81.5 -30zM344 600q22 0 36.5 13.5t14.5 34.5q0 22 -14 35.5t-37 13.5q-21 0 -35.5 -14t-14.5 -35t14.5 -34.5t35.5 -13.5zM581 504l-80 -504h-109l11 64q-23 -32 -68.5 -52t-95.5 -20
q-98 0 -151 58.5t-53 155.5q0 132 77.5 219t201.5 87q52 0 90.5 -21t57.5 -54l10 67h109zM268 87q76 0 125.5 55t49.5 140q0 62 -33.5 98.5t-94.5 36.5q-72 0 -121 -55t-49 -140q0 -61 33 -98t90 -37z" />
    <glyph glyph-name="aringacute.ss01" horiz-adv-x="603" 
d="M344 542q-49 0 -81 30t-32 76q0 40 25 68.5t65 36.5l82 137h130l-139 -145q64 -28 64 -97q0 -46 -32.5 -76t-81.5 -30zM344 697q-21 0 -35.5 -14t-14.5 -35t14.5 -34.5t35.5 -13.5q22 0 36.5 13.5t14.5 34.5q0 22 -14 35.5t-37 13.5zM472 504h109l-80 -504h-109l11 64
q-23 -32 -68.5 -52t-95.5 -20q-98 0 -151 58.5t-53 155.5q0 132 77.5 219t201.5 87q52 0 90.5 -21t57.5 -54zM268 87q76 0 125.5 55t49.5 140q0 62 -33.5 98.5t-94.5 36.5q-72 0 -121 -55t-49 -140q0 -61 33 -98t90 -37z" />
    <glyph glyph-name="atilde.ss01" horiz-adv-x="603" 
d="M246 576l-74 12q10 52 48 85t89 33q39 0 76 -27q2 -1 9 -6.5t9 -6.5t8 -4.5t9 -4.5t8.5 -2t10.5 -1q36 0 50 50l74 -12q-10 -53 -48 -85.5t-88 -32.5q-39 0 -77 26q-3 2 -8 6l-7.5 6t-7 5t-7.5 4.5t-7 3t-8 2t-9 0.5q-36 0 -50 -51zM581 504l-80 -504h-109l11 64
q-23 -32 -68.5 -52t-95.5 -20q-98 0 -151 58.5t-53 155.5q0 132 77.5 219t201.5 87q52 0 90.5 -21t57.5 -54l10 67h109zM268 87q76 0 125.5 55t49.5 140q0 62 -33.5 98.5t-94.5 36.5q-72 0 -121 -55t-49 -140q0 -61 33 -98t90 -37z" />
    <glyph glyph-name="ae.ss01" horiz-adv-x="975" 
d="M933 226h-383q-4 -64 29.5 -102.5t92.5 -38.5q49 0 86 22.5t53 63.5l99 -26q-32 -73 -95 -113t-150 -40q-102 0 -153 78l-11 -70h-109l10 64q-24 -32 -69 -52t-95 -20q-98 0 -151 58.5t-53 155.5q0 132 78.5 219t206.5 87q48 0 86.5 -19.5t56.5 -51.5l10 63h109l-9 -60
q71 68 170 68t151.5 -58.5t52.5 -144.5q0 -34 -13 -83zM719 426q-53 0 -92.5 -31t-60.5 -86h267q3 53 -26.5 85t-87.5 32zM267 87q77 0 126.5 55t49.5 140q0 61 -33 98t-90 37q-76 0 -125.5 -55t-49.5 -140q0 -61 32.5 -98t89.5 -37z" />
    <glyph glyph-name="aeacute.ss01" horiz-adv-x="975" 
d="M720 708l-142 -148h-77l89 148h130zM933 226h-383q-4 -64 29.5 -102.5t92.5 -38.5q49 0 86 22.5t53 63.5l99 -26q-32 -73 -95 -113t-150 -40q-102 0 -153 78l-11 -70h-109l10 64q-24 -32 -69 -52t-95 -20q-98 0 -151 58.5t-53 155.5q0 132 78.5 219t206.5 87
q48 0 86.5 -19.5t56.5 -51.5l10 63h109l-9 -60q71 68 170 68t151.5 -58.5t52.5 -144.5q0 -34 -13 -83zM719 426q-53 0 -92.5 -31t-60.5 -86h267q3 53 -26.5 85t-87.5 32zM267 87q77 0 126.5 55t49.5 140q0 61 -33 98t-90 37q-76 0 -125.5 -55t-49.5 -140q0 -61 32.5 -98
t89.5 -37z" />
    <glyph glyph-name="g.ss02" horiz-adv-x="529" 
d="M176 183q-44 -18 -44 -49t49 -31h126q76 0 118 -30t42 -88q0 -87 -74 -131t-193 -44q-102 0 -160 32.5t-58 94.5q0 68 69 117q-26 23 -26 60q0 39 25 68t65 45q-30 36 -30 89q0 86 65 141t160 55q49 0 89 -19l88 74l54 -63l-79 -65q21 -33 21 -76q0 -86 -65 -140
t-161 -54q-45 0 -81 14zM297 427q-44 0 -76 -27.5t-32 -71.5q0 -34 22.5 -53.5t57.5 -19.5q45 0 77 27t32 71q0 34 -23 54t-58 20zM275 17h-98q-28 0 -48 4q-39 -28 -39 -69q0 -53 124 -53q145 0 145 71q0 47 -84 47z" />
    <glyph glyph-name="gbreve.ss02" horiz-adv-x="529" 
d="M315 557q-58 0 -90 37.5t-23 94.5h83q-5 -26 7 -42t35 -16t40.5 16.5t21.5 41.5h83q-10 -57 -54.5 -94.5t-102.5 -37.5zM176 183q-44 -18 -44 -49t49 -31h126q76 0 118 -30t42 -88q0 -87 -74 -131t-193 -44q-102 0 -160 32.5t-58 94.5q0 68 69 117q-26 23 -26 60
q0 39 25 68t65 45q-30 36 -30 89q0 86 65 141t160 55q49 0 89 -19l88 74l54 -63l-79 -65q21 -33 21 -76q0 -86 -65 -140t-161 -54q-45 0 -81 14zM297 427q-44 0 -76 -27.5t-32 -71.5q0 -34 22.5 -53.5t57.5 -19.5q45 0 77 27t32 71q0 34 -23 54t-58 20zM275 17h-98
q-28 0 -48 4q-39 -28 -39 -69q0 -53 124 -53q145 0 145 71q0 47 -84 47z" />
    <glyph glyph-name="gcircumflex.ss02" horiz-adv-x="529" 
d="M329 643l-90 -83h-84l138 148h91l92 -148h-82zM176 183q-44 -18 -44 -49t49 -31h126q76 0 118 -30t42 -88q0 -87 -74 -131t-193 -44q-102 0 -160 32.5t-58 94.5q0 68 69 117q-26 23 -26 60q0 39 25 68t65 45q-30 36 -30 89q0 86 65 141t160 55q49 0 89 -19l88 74l54 -63
l-79 -65q21 -33 21 -76q0 -86 -65 -140t-161 -54q-45 0 -81 14zM297 427q-44 0 -76 -27.5t-32 -71.5q0 -34 22.5 -53.5t57.5 -19.5q45 0 77 27t32 71q0 34 -23 54t-58 20zM275 17h-98q-28 0 -48 4q-39 -28 -39 -69q0 -53 124 -53q145 0 145 71q0 47 -84 47z" />
    <glyph glyph-name="uni0123.ss02" horiz-adv-x="529" 
d="M440 708l-50 -148h-117l84 148h83zM176 183q-44 -18 -44 -49t49 -31h126q76 0 118 -30t42 -88q0 -87 -74 -131t-193 -44q-102 0 -160 32.5t-58 94.5q0 68 69 117q-26 23 -26 60q0 39 25 68t65 45q-30 36 -30 89q0 86 65 141t160 55q49 0 89 -19l88 74l54 -63l-79 -65
q21 -33 21 -76q0 -86 -65 -140t-161 -54q-45 0 -81 14zM297 427q-44 0 -76 -27.5t-32 -71.5q0 -34 22.5 -53.5t57.5 -19.5q45 0 77 27t32 71q0 34 -23 54t-58 20zM275 17h-98q-28 0 -48 4q-39 -28 -39 -69q0 -53 124 -53q145 0 145 71q0 47 -84 47z" />
    <glyph glyph-name="gdotaccent.ss02" horiz-adv-x="529" 
d="M332 588q-30 0 -50.5 20t-20.5 50t20 50.5t51 20.5t51.5 -20.5t20.5 -50.5q0 -29 -20.5 -49.5t-51.5 -20.5zM176 183q-44 -18 -44 -49t49 -31h126q76 0 118 -30t42 -88q0 -87 -74 -131t-193 -44q-102 0 -160 32.5t-58 94.5q0 68 69 117q-26 23 -26 60q0 39 25 68t65 45
q-30 36 -30 89q0 86 65 141t160 55q49 0 89 -19l88 74l54 -63l-79 -65q21 -33 21 -76q0 -86 -65 -140t-161 -54q-45 0 -81 14zM297 427q-44 0 -76 -27.5t-32 -71.5q0 -34 22.5 -53.5t57.5 -19.5q45 0 77 27t32 71q0 34 -23 54t-58 20zM275 17h-98q-28 0 -48 4
q-39 -28 -39 -69q0 -53 124 -53q145 0 145 71q0 47 -84 47z" />
    <glyph glyph-name="f_f.dlig" horiz-adv-x="687" 
d="M666 631q-32 0 -55 -22t-30 -60l-7 -45h124l-15 -93h-124l-65 -411h-109l65 411h-203l-66 -411h-108l65 411h-83l14 93h84l6 43q13 83 66.5 130t127.5 47q38 0 71 -11l-21 -92q-24 10 -50 10q-32 0 -55 -22.5t-29 -59.5l-8 -45h204l7 43q13 83 66.5 130t127.5 47
q38 0 71 -11l-22 -92q-23 10 -49 10z" />
    <glyph glyph-name="f_f_i.dlig" horiz-adv-x="868" 
d="M825 729q28 0 45.5 -17.5t17.5 -43.5q0 -33 -25 -56.5t-60 -23.5q-26 0 -42.5 17.5t-16.5 43.5q0 32 24 56t57 24zM845 504l-80 -504h-109l65 411h-204l-65 -411h-107l65 411h-163l-66 -411h-108l65 411h-83l14 93h84l6 43q13 83 66.5 130t127.5 47q38 0 71 -11l-21 -92
q-24 10 -50 10q-32 0 -55 -22.5t-29 -59.5l-8 -45h164l7 43q13 83 66.5 130t127.5 47q38 0 71 -11l-22 -92q-23 10 -49 10q-33 0 -57 -22.5t-30 -60.5l-7 -44h313z" />
    <glyph glyph-name="f_f_l.dlig" horiz-adv-x="886" 
d="M786 708h109l-112 -708h-109l66 416l-1 -5h-222l-65 -411h-107l65 411h-163l-66 -411h-108l65 411h-83l14 93h84l6 43q13 83 66.5 130t127.5 47q38 0 71 -11l-21 -92q-24 10 -50 10q-32 0 -55 -22.5t-29 -59.5l-8 -45h164l7 43q13 83 66.5 130t127.5 47q38 0 71 -11
l-22 -92q-23 10 -49 10q-33 0 -57 -22.5t-30 -60.5l-7 -44h222z" />
    <glyph glyph-name="f_i.dlig" horiz-adv-x="589" 
d="M547 729q27 0 44.5 -17.5t17.5 -43.5q0 -33 -25 -56.5t-60 -23.5q-26 0 -42.5 17.5t-16.5 43.5q0 32 24 56t58 24zM566 504l-80 -504h-109l65 411h-199l-65 -411h-107l65 411h-81l14 93h82l6 43q13 83 67 130t127 47q38 0 71 -11l-21 -92q-23 10 -50 10q-32 0 -56 -22.5
t-30 -60.5l-7 -44h308z" />
    <glyph glyph-name="f_l.dlig" horiz-adv-x="606" 
d="M507 708h109l-112 -708h-109l66 416l-1 -5h-217l-65 -411h-107l65 411h-81l14 93h82l6 43q13 83 67 130t127 47q38 0 71 -11l-21 -92q-23 10 -50 10q-32 0 -56 -22.5t-30 -60.5l-7 -44h217z" />
    <glyph glyph-name="three.ss04" horiz-adv-x="578" 
d="M250 -8q-111 0 -173.5 59.5t-47.5 155.5l117 7q-9 -54 24 -89t95 -35q68 0 112 35t44 90q0 46 -33 71t-91 25q-42 0 -54 -1l13 96q12 -1 42 -1q59 0 101.5 34t47.5 82q5 42 -24.5 68t-80.5 26q-53 0 -94 -33.5t-48 -81.5l-107 7q12 85 87.5 143t176.5 58q91 0 146.5 -46
t55.5 -117q0 -67 -46.5 -118.5t-116.5 -65.5q65 -3 103 -42t38 -100q0 -97 -82.5 -162t-204.5 -65z" />
    <glyph glyph-name="uni2462.ss04" horiz-adv-x="801" 
d="M436 -8q-155 0 -257 102t-102 256t102 256t257 102q154 0 256 -102t102 -256t-102 -256t-256 -102zM436 54q126 0 209.5 84.5t83.5 211.5t-83.5 211.5t-209.5 84.5t-209.5 -84.5t-83.5 -211.5t83.5 -211.5t209.5 -84.5zM390 169q-61 0 -96.5 33t-26.5 87l77 3
q-4 -25 11.5 -41.5t43.5 -16.5q32 0 53 16.5t21 42.5q0 21 -15.5 33.5t-43.5 12.5h-28l9 63q7 -1 22 -1q28 0 47.5 16.5t22.5 39.5q3 20 -11 32t-38 12q-25 0 -44.5 -15.5t-22.5 -39.5l-71 5q8 46 50 78.5t97 32.5q51 0 83 -26t32 -65q0 -36 -25 -64t-62 -35
q34 -2 54.5 -23.5t20.5 -53.5q0 -54 -46 -90t-114 -36z" />
    <glyph glyph-name="zero.tf" horiz-adv-x="618" 
d="M265 -8q-110 0 -169.5 75.5t-59.5 204.5q0 189 93.5 312.5t248.5 123.5q110 0 169 -75.5t59 -205.5q0 -189 -93.5 -312t-247.5 -123zM281 95q95 0 150.5 91.5t55.5 232.5q0 88 -32 137.5t-94 49.5q-95 0 -150 -92.5t-55 -233.5q0 -87 31.5 -136t93.5 -49z" />
    <glyph glyph-name="one.tf" horiz-adv-x="618" 
d="M365 103h168l-16 -103h-477l16 103h200l74 462q-75 -56 -175 -76l17 105q108 23 198 106h90z" />
    <glyph glyph-name="two.tf" horiz-adv-x="618" 
d="M26 0l15 97l289 217q76 57 109.5 102.5t33.5 92.5q0 43 -29 70t-75 27q-65 0 -106 -44t-46 -118l-111 8q6 111 86.5 183.5t192.5 72.5q93 0 150.5 -51.5t57.5 -133.5q0 -76 -47.5 -142.5t-156.5 -144.5l-180 -133h318l-16 -103h-485z" />
    <glyph glyph-name="three.tf" horiz-adv-x="618" 
d="M266 -8q-106 0 -167.5 56t-56.5 149l110 17q-1 -54 35 -86.5t96 -32.5q71 0 117.5 41.5t46.5 107.5q0 50 -31.5 78.5t-88.5 28.5q-44 0 -81 -22l-36 76l235 193h-320l17 102h457l-16 -97l-215 -174q91 5 145 -42t54 -132q0 -116 -84.5 -189.5t-216.5 -73.5z" />
    <glyph glyph-name="four.tf" horiz-adv-x="618" 
d="M343 0l24 157h-359l16 102l417 441h130l-70 -441h94l-17 -102h-93l-25 -157h-117zM147 259h236l48 303z" />
    <glyph glyph-name="five.tf" horiz-adv-x="618" 
d="M281 -8q-103 0 -164 52.5t-62 141.5l110 19q2 -50 37 -80t92 -30q69 0 114 45.5t45 115.5q0 54 -33 84.5t-92 30.5q-89 0 -153 -76l-82 18l118 387h381l-16 -102h-295l-57 -185q67 53 145 53q94 0 149 -54t55 -143q0 -122 -82 -199.5t-210 -77.5z" />
    <glyph glyph-name="six.tf" horiz-adv-x="618" 
d="M365 471q96 0 154 -57t58 -148q0 -118 -82 -196t-201 -78q-110 0 -175 73t-65 194q0 206 115.5 327.5t281.5 121.5q117 0 188 -68l-69 -87q-53 53 -134 53q-95 0 -165.5 -62.5t-90.5 -165.5q31 44 80.5 68.5t104.5 24.5zM303 95q63 0 108 44.5t48 111.5q4 56 -29.5 91
t-91.5 35q-71 0 -119 -44t-48 -114q0 -55 36 -89.5t96 -34.5z" />
    <glyph glyph-name="seven.tf" horiz-adv-x="618" 
d="M653 700l-16 -102q-339 -371 -395 -598h-118q73 261 392 598h-295l-20 -121h-109l36 223h525z" />
    <glyph glyph-name="eight.tf" horiz-adv-x="618" 
d="M271 -8q-101 0 -162.5 49.5t-61.5 133.5q0 70 44.5 125.5t114.5 76.5q-36 18 -57 52t-21 75q0 86 73 145t183 59q89 0 142.5 -45t53.5 -117q0 -55 -34.5 -101t-89.5 -68q48 -16 75.5 -57t27.5 -92q0 -104 -83 -170t-205 -66zM339 420q53 0 88.5 28t40.5 74q5 43 -22 68
t-77 25q-58 0 -94.5 -30.5t-36.5 -79.5q0 -39 27 -62t74 -23zM286 90q70 0 113.5 36.5t43.5 95.5q0 45 -32.5 72t-88.5 27q-70 0 -113.5 -36.5t-43.5 -95.5q0 -45 32 -72t89 -27z" />
    <glyph glyph-name="nine.tf" horiz-adv-x="618" 
d="M284 229q-96 0 -154 57t-58 148q0 118 82 196t201 78q110 0 175 -73t65 -194q0 -206 -115.5 -327.5t-281.5 -121.5q-117 0 -188 68l69 87q52 -52 134 -52q95 0 165.5 62t90.5 165q-31 -44 -80.5 -68.5t-104.5 -24.5zM346 606q-63 0 -108 -45t-48 -112q-4 -56 29.5 -91
t91.5 -35q71 0 119 44t48 114q0 55 -36 90t-96 35z" />
    <glyph glyph-name="three.tf.ss04" horiz-adv-x="618" 
d="M278 -8q-111 0 -174 59.5t-47 155.5l116 7q-8 -55 25 -89.5t95 -34.5q68 0 112 35t44 90q0 46 -33.5 71t-91.5 25q-41 0 -54 -1l14 96q12 -1 41 -1q59 0 101.5 34t48.5 82q5 42 -24.5 68t-81.5 26t-93 -33.5t-49 -81.5l-107 7q13 85 88.5 143t175.5 58q91 0 147 -46
t56 -117q0 -67 -46.5 -118.5t-116.5 -65.5q65 -3 103 -42t38 -100q0 -97 -82.5 -162t-204.5 -65z" />
    <glyph glyph-name="zero.subs" horiz-adv-x="369" 
d="M118 -174q-64 0 -99.5 42.5t-35.5 115.5q0 103 55 169t143 66q64 0 99.5 -42.5t35.5 -114.5q0 -103 -55.5 -169.5t-142.5 -66.5zM130 -103q48 0 75.5 44.5t27.5 115.5q0 91 -64 91q-48 0 -75.5 -44t-27.5 -115q0 -92 64 -92z" />
    <glyph glyph-name="one.subs" horiz-adv-x="222" 
d="M43 -170l48 299q-53 -31 -89 -38l11 73q47 11 105 51h62l-61 -385h-76z" />
    <glyph glyph-name="two.subs" horiz-adv-x="336" 
d="M-35 -170l10 65l138 102q87 63 87 107q0 20 -13 32t-35 12q-31 0 -50 -21.5t-21 -58.5l-78 6q4 61 51 103t109 42q56 0 88.5 -29t32.5 -77q0 -42 -28 -80t-93 -82l-73 -50h161l-11 -71h-275z" />
    <glyph glyph-name="three.subs" horiz-adv-x="341" 
d="M102 -174q-60 0 -95 31.5t-32 82.5l76 12q2 -25 19 -40t45 -15q33 0 54.5 19t21.5 49q0 23 -15 36.5t-41 13.5t-46 -13l-24 54l114 89h-161l12 70h257l-11 -70l-107 -79q48 2 76 -23t28 -71q0 -65 -48 -105.5t-123 -40.5z" />
    <glyph glyph-name="four.subs" horiz-adv-x="370" 
d="M151 -170l12 76h-193l11 71l226 238h88l-38 -238h49l-12 -71h-48l-12 -76h-83zM66 -23h109l22 139z" />
    <glyph glyph-name="five.subs" horiz-adv-x="335" 
d="M103 -174q-58 0 -92 29t-35 78l76 13q1 -22 17 -35.5t42 -13.5q32 0 53 20.5t21 51.5q0 24 -15.5 38.5t-42.5 14.5q-41 0 -74 -36l-57 12l66 217h215l-11 -71h-156l-28 -85q35 27 77 27q50 0 79.5 -29.5t29.5 -77.5q0 -68 -46.5 -110.5t-118.5 -42.5z" />
    <glyph glyph-name="six.subs" horiz-adv-x="358" 
d="M169 89q52 0 84 -31.5t32 -80.5q0 -65 -48 -108t-114 -43q-61 0 -97.5 41.5t-36.5 110.5q0 111 66.5 176.5t151.5 65.5q72 0 111 -41l-45 -54q-24 24 -72 24q-46 0 -79.5 -28t-44.5 -74q33 42 92 42zM127 -103q29 0 50.5 18.5t26.5 47.5q5 28 -11 46t-45 18
q-32 0 -54.5 -21t-22.5 -53q0 -25 15.5 -40.5t40.5 -15.5z" />
    <glyph glyph-name="seven.subs" horiz-adv-x="307" 
d="M-7 -170q80 176 207 314h-197l11 71h278l-12 -71q-140 -158 -208 -314h-79z" />
    <glyph glyph-name="eight.subs" horiz-adv-x="345" 
d="M107 -174q-55 0 -90.5 28t-35.5 75q0 37 24 67t61 41q-40 21 -40 69q0 46 42 79.5t102 33.5q50 0 80 -26t30 -65q0 -30 -18 -54.5t-48 -36.5q26 -8 41 -30t15 -50q0 -58 -47.5 -94.5t-115.5 -36.5zM146 68q25 0 42 14t17 36q0 17 -12.5 28t-32.5 11q-26 0 -43 -14.5
t-17 -36.5q0 -17 12 -27.5t34 -10.5zM118 -108q31 0 51 17t20 44q0 21 -14.5 33t-40.5 12q-32 0 -52 -16.5t-20 -43.5q0 -21 15 -33.5t41 -12.5z" />
    <glyph glyph-name="nine.subs" horiz-adv-x="357" 
d="M120 -44q-53 0 -84.5 31.5t-31.5 80.5q0 65 50 108t121 43q56 0 89.5 -40.5t33.5 -107.5q0 -114 -66 -180t-154 -66q-67 0 -108 41l46 54q26 -24 72 -24q45 0 79 28t45 74q-34 -42 -92 -42zM161 148q-31 0 -52.5 -20.5t-22.5 -51.5q-2 -26 13.5 -42t41.5 -16q33 0 55 21
t22 53q0 25 -15.5 40.5t-41.5 15.5z" />
    <glyph glyph-name="zero.dnom" horiz-adv-x="369" 
d="M145 -4q-64 0 -99.5 42.5t-35.5 115.5q0 103 55 169t143 66q64 0 99.5 -42.5t35.5 -114.5q0 -103 -55.5 -169.5t-142.5 -66.5zM157 67q48 0 75.5 44.5t27.5 115.5q0 91 -64 91q-48 0 -75.5 -44t-27.5 -115q0 -92 64 -92z" />
    <glyph glyph-name="one.dnom" horiz-adv-x="222" 
d="M70 0l47 299q-51 -31 -89 -38l12 73q47 11 105 51h62l-61 -385h-76z" />
    <glyph glyph-name="two.dnom" horiz-adv-x="336" 
d="M-8 0l10 65l138 102q87 63 87 107q0 20 -13 32t-35 12q-31 0 -50 -21.5t-21 -58.5l-78 6q4 61 51 103t109 42q56 0 88.5 -29t32.5 -77q0 -42 -28.5 -80t-93.5 -82l-72 -50h161l-11 -71h-275z" />
    <glyph glyph-name="three.dnom" horiz-adv-x="341" 
d="M129 -4q-60 0 -95 31.5t-32 82.5l76 12q2 -25 19 -40t45 -15q33 0 54.5 19t21.5 49q0 23 -15 36.5t-41 13.5t-46 -13l-24 54l114 89h-161l12 70h257l-11 -70l-107 -79q48 2 76 -23t28 -71q0 -65 -48 -105.5t-123 -40.5z" />
    <glyph glyph-name="four.dnom" horiz-adv-x="370" 
d="M178 0l12 76h-193l11 71l226 238h88l-38 -238h49l-12 -71h-48l-12 -76h-83zM93 147h109l22 139z" />
    <glyph glyph-name="five.dnom" horiz-adv-x="335" 
d="M130 -4q-58 0 -92 29t-35 78l76 13q1 -22 17 -35.5t42 -13.5q32 0 52.5 20t20.5 52q0 24 -15 38.5t-42 14.5q-41 0 -74 -36l-57 12l66 217h215l-11 -71h-156l-28 -85q33 27 77 27q50 0 79.5 -29.5t29.5 -77.5q0 -68 -46.5 -110.5t-118.5 -42.5z" />
    <glyph glyph-name="six.dnom" horiz-adv-x="358" 
d="M196 259q52 0 84 -31.5t32 -80.5q0 -65 -48 -108t-114 -43q-61 0 -97.5 41.5t-36.5 110.5q0 111 66.5 176.5t151.5 65.5q72 0 111 -41l-45 -54q-24 24 -72 24q-46 0 -79.5 -28t-44.5 -74q33 42 92 42zM154 67q29 0 50.5 18.5t26.5 47.5q5 28 -11 46t-45 18
q-32 0 -54.5 -21t-22.5 -53q0 -25 15.5 -40.5t40.5 -15.5z" />
    <glyph glyph-name="seven.dnom" horiz-adv-x="307" 
d="M20 0q81 179 207 314h-197l10 71h279l-12 -71q-140 -158 -208 -314h-79z" />
    <glyph glyph-name="eight.dnom" horiz-adv-x="345" 
d="M134 -4q-55 0 -90.5 28t-35.5 75q0 37 24 67t61 41q-40 21 -40 69q0 46 41.5 79.5t102.5 33.5q49 0 79.5 -26t30.5 -65q0 -30 -18 -54.5t-48 -36.5q26 -8 41 -30t15 -50q0 -58 -48 -94.5t-115 -36.5zM173 238q25 0 42 14t17 36q0 18 -12.5 28.5t-33.5 10.5
q-26 0 -42.5 -14.5t-16.5 -37.5q0 -17 12.5 -27t33.5 -10zM144 62q32 0 52 17t20 44q0 21 -14.5 33t-40.5 12q-32 0 -52 -16.5t-20 -43.5q0 -21 15 -33.5t40 -12.5z" />
    <glyph glyph-name="nine.dnom" horiz-adv-x="357" 
d="M147 126q-53 0 -84.5 31.5t-31.5 80.5q0 65 50 108t121 43q56 0 89.5 -40.5t33.5 -107.5q0 -114 -66 -180t-154 -66q-67 0 -108 41l46 54q25 -24 72 -24q45 0 79 28t45 74q-34 -42 -92 -42zM188 318q-31 0 -52.5 -20.5t-22.5 -51.5q-2 -25 13.5 -41.5t41.5 -16.5
q32 0 54.5 21t22.5 53q0 25 -15.5 40.5t-41.5 15.5z" />
    <glyph glyph-name="zero.numr" horiz-adv-x="369" 
d="M195 311q-64 0 -99.5 42.5t-35.5 115.5q0 103 55 169t143 66q64 0 99.5 -42.5t35.5 -114.5q0 -103 -55.5 -169.5t-142.5 -66.5zM206 382q49 0 76.5 44.5t27.5 115.5q0 91 -64 91q-48 0 -75.5 -44t-27.5 -115q0 -92 63 -92z" />
    <glyph glyph-name="one.numr" horiz-adv-x="222" 
d="M120 315l47 299q-51 -31 -89 -38l12 73q48 12 105 51h62l-61 -385h-76z" />
    <glyph glyph-name="two.numr" horiz-adv-x="336" 
d="M42 315l10 65l138 102q87 63 87 107q0 20 -13 32t-35 12q-31 0 -50 -21.5t-21 -58.5l-78 6q5 62 50.5 103.5t109.5 41.5q56 0 88 -29t32 -77q0 -42 -28 -80t-93 -82l-72 -50h161l-11 -71h-275z" />
    <glyph glyph-name="three.numr" horiz-adv-x="341" 
d="M179 311q-60 0 -95 31.5t-32 82.5l76 12q2 -25 19 -40t44 -15q33 0 54.5 19t21.5 49q0 23 -15 36.5t-40 13.5q-26 0 -46 -13l-24 54l114 89h-161l12 70h257l-11 -70l-107 -79q48 2 76 -23t28 -71q0 -65 -48 -105.5t-123 -40.5z" />
    <glyph glyph-name="four.numr" horiz-adv-x="370" 
d="M228 315l12 76h-193l11 71l226 238h88l-38 -238h48l-11 -71h-48l-12 -76h-83zM142 462h109l23 139z" />
    <glyph glyph-name="five.numr" horiz-adv-x="335" 
d="M180 311q-58 0 -92 29t-35 78l76 13q2 -23 17.5 -36t41.5 -13q32 0 52.5 20.5t20.5 51.5q0 24 -15 38.5t-42 14.5q-41 0 -74 -36l-58 12l67 217h215l-11 -71h-156l-28 -85q33 27 77 27q50 0 79.5 -29.5t29.5 -77.5q0 -68 -46.5 -110.5t-118.5 -42.5z" />
    <glyph glyph-name="six.numr" horiz-adv-x="358" 
d="M246 574q52 0 84 -31.5t32 -80.5q0 -65 -48 -108t-114 -43q-61 0 -97.5 41.5t-36.5 110.5q0 111 66.5 176.5t151.5 65.5q72 0 111 -41l-45 -54q-24 24 -72 24q-46 0 -79.5 -28t-44.5 -74q33 42 92 42zM204 382q29 0 50.5 18.5t26.5 47.5q5 28 -11 46t-45 18
q-32 0 -54.5 -21t-22.5 -53q0 -25 15.5 -40.5t40.5 -15.5z" />
    <glyph glyph-name="seven.numr" horiz-adv-x="307" 
d="M70 315q81 179 207 314h-197l10 71h279l-12 -71q-140 -158 -208 -314h-79z" />
    <glyph glyph-name="eight.numr" horiz-adv-x="345" 
d="M184 311q-55 0 -90.5 28t-35.5 75q0 37 24 67t61 41q-40 21 -40 69q0 46 41.5 79.5t102.5 33.5q49 0 79.5 -26t30.5 -65q0 -30 -18 -54.5t-48 -36.5q26 -8 41 -30t15 -50q0 -58 -48 -94.5t-115 -36.5zM222 553q26 0 43 14t17 36q0 18 -12.5 28.5t-33.5 10.5
q-26 0 -42.5 -14.5t-16.5 -37.5q0 -17 12 -27t33 -10zM194 377q32 0 52 17t20 44q0 21 -14.5 33t-40.5 12q-32 0 -52 -16.5t-20 -43.5q0 -21 15 -33.5t40 -12.5z" />
    <glyph glyph-name="nine.numr" horiz-adv-x="357" 
d="M196 441q-52 0 -84 31.5t-32 80.5q0 65 48 108t114 43q61 0 97 -41.5t36 -110.5q0 -111 -66 -176.5t-151 -65.5q-72 0 -111 41l45 54q24 -24 72 -24q46 0 79.5 28t44.5 74q-33 -42 -92 -42zM238 633q-29 0 -50.5 -18.5t-26.5 -47.5q-5 -28 11 -46t45 -18q32 0 54.5 21
t22.5 53q0 25 -15.5 40.5t-40.5 15.5z" />
    <glyph glyph-name="zero.sups" horiz-adv-x="369" 
d="M205 371q-64 0 -99.5 42.5t-35.5 115.5q0 103 54.5 169t142.5 66q64 0 99.5 -42.5t35.5 -114.5q0 -103 -55 -169.5t-142 -66.5zM216 442q48 0 75.5 44t27.5 116q0 91 -63 91q-48 0 -75.5 -44t-27.5 -115q0 -92 63 -92z" />
    <glyph glyph-name="one.sups" horiz-adv-x="222" 
d="M129 375l48 299q-53 -31 -89 -38l12 73q46 11 104 51h62l-61 -385h-76z" />
    <glyph glyph-name="two.sups" horiz-adv-x="336" 
d="M51 375l10 65l138 102q88 64 88 107q0 20 -13 32t-36 12q-30 0 -49.5 -21.5t-21.5 -58.5l-78 6q4 61 51 103t109 42q56 0 88.5 -29t32.5 -77q0 -42 -28 -80t-93 -82l-73 -50h161l-11 -71h-275z" />
    <glyph glyph-name="three.sups" horiz-adv-x="341" 
d="M189 371q-60 0 -95 31t-33 83l77 12q1 -25 18.5 -40t44.5 -15q33 0 54.5 19t21.5 49q0 23 -15 36.5t-40 13.5q-26 0 -46 -13l-24 54l113 89h-160l11 70h257l-11 -70l-106 -79q48 2 75.5 -23t27.5 -71q0 -65 -47.5 -105.5t-122.5 -40.5z" />
    <glyph glyph-name="four.sups" horiz-adv-x="370" 
d="M237 375l13 76h-193l11 71l225 238h88l-37 -238h48l-11 -71h-48l-13 -76h-83zM152 522h109l22 139z" />
    <glyph glyph-name="five.sups" horiz-adv-x="335" 
d="M190 371q-58 0 -92.5 29t-34.5 78l76 13q2 -23 17.5 -36t41.5 -13q32 0 52.5 20.5t20.5 51.5q0 24 -15 38.5t-42 14.5q-42 0 -75 -36l-57 12l66 217h215l-11 -71h-156l-28 -85q35 27 78 27q49 0 78.5 -29.5t29.5 -77.5q0 -68 -46 -110.5t-118 -42.5z" />
    <glyph glyph-name="six.sups" horiz-adv-x="357" 
d="M255 634q52 0 83.5 -31.5t31.5 -80.5q0 -65 -49 -108t-121 -43q-57 0 -91 40.5t-34 107.5q0 114 66.5 180t154.5 66q68 0 107 -41l-45 -54q-22 24 -71 24q-46 0 -79.5 -28t-44.5 -74q33 42 92 42zM213 442q28 0 49.5 18.5t26.5 47.5q6 28 -10 46t-45 18q-33 0 -55 -21
t-22 -53q0 -25 15.5 -40.5t40.5 -15.5z" />
    <glyph glyph-name="seven.sups" horiz-adv-x="307" 
d="M79 375q84 180 207 314h-197l11 71h278l-12 -71q-141 -161 -208 -314h-79z" />
    <glyph glyph-name="eight.sups" horiz-adv-x="345" 
d="M194 371q-56 0 -91.5 28t-35.5 75q0 37 24 67t61 41q-40 21 -40 69q0 46 42 79.5t102 33.5q50 0 80 -26t30 -65q0 -30 -18 -54.5t-48 -36.5q26 -8 41 -30t15 -50q0 -58 -47.5 -94.5t-114.5 -36.5zM233 613q25 0 41.5 14t16.5 36q0 17 -12 28t-33 11q-26 0 -43 -14.5
t-17 -36.5q0 -17 12.5 -27.5t34.5 -10.5zM204 437q31 0 51 17t20 44q0 20 -14.5 32.5t-39.5 12.5q-32 0 -52.5 -16.5t-20.5 -43.5q0 -21 15 -33.5t41 -12.5z" />
    <glyph glyph-name="nine.sups" horiz-adv-x="357" 
d="M207 501q-53 0 -85 31.5t-32 80.5q0 65 50 108t121 43q56 0 89.5 -40.5t33.5 -107.5q0 -114 -65.5 -180t-153.5 -66q-68 0 -109 41l46 54q26 -24 72 -24t79.5 28t45.5 74q-36 -42 -92 -42zM248 693q-31 0 -52.5 -20.5t-22.5 -51.5q-2 -26 13 -42t41 -16q33 0 55 21t22 53
q0 25 -15.5 40.5t-40.5 15.5z" />
    <glyph glyph-name="three.subs.ss04" horiz-adv-x="334" 
d="M99 -174q-61 0 -96.5 33t-26.5 87l77 3q-4 -25 11.5 -41.5t44.5 -16.5q32 0 52.5 16.5t20.5 42.5q0 21 -15.5 33.5t-42.5 12.5h-29l9 63q7 -1 23 -1q28 0 47 16.5t22 39.5q3 20 -10.5 32t-38.5 12t-44.5 -15.5t-22.5 -39.5l-71 5q8 46 50.5 78.5t97.5 32.5q50 0 82 -26
t32 -65q0 -36 -25 -64t-61 -35q34 -2 54 -23.5t20 -53.5q0 -54 -46 -90t-114 -36z" />
    <glyph glyph-name="three.dnom.ss04" horiz-adv-x="335" 
d="M126 -8q-61 0 -97 33t-27 87l78 3q-5 -25 11 -41.5t44 -16.5q32 0 52.5 16.5t20.5 42.5q0 21 -15.5 33.5t-42.5 12.5h-29l10 63q7 -1 22 -1q28 0 47.5 16.5t22.5 39.5q3 20 -11 32t-39 12t-44 -15.5t-23 -39.5l-70 5q7 46 49.5 78.5t97.5 32.5q50 0 82 -26t32 -65
q0 -36 -25 -64t-61 -35q34 -2 54 -23.5t20 -53.5q0 -54 -45.5 -90t-113.5 -36z" />
    <glyph glyph-name="three.numr.ss04" horiz-adv-x="335" 
d="M177 317q-61 0 -96.5 33t-26.5 87l77 3q-4 -25 11.5 -41.5t43.5 -16.5q32 0 53 16.5t21 42.5q0 21 -15.5 33.5t-43.5 12.5h-28l9 63q7 -1 22 -1q28 0 47.5 16.5t22.5 39.5q3 20 -11 32t-38 12q-25 0 -44.5 -15.5t-22.5 -39.5l-71 5q8 46 50 78.5t97 32.5q51 0 83 -26
t32 -65q0 -36 -25 -64t-62 -35q34 -2 54.5 -23.5t20.5 -53.5q0 -54 -46 -90t-114 -36z" />
    <glyph glyph-name="uni00B3.ss04" horiz-adv-x="335" 
d="M186 371q-61 0 -97 33t-27 87l78 3q-5 -25 11 -41.5t44 -16.5q32 0 53 16.5t21 42.5q0 21 -16 33.5t-43 12.5h-29l10 63q7 -1 22 -1q28 0 47.5 16.5t22.5 39.5q3 20 -11 32t-39 12t-44 -15.5t-23 -39.5l-70 5q7 46 49.5 78.5t97.5 32.5q50 0 82 -26t32 -65q0 -36 -25 -64
t-61 -35q34 -2 54 -23.5t20 -53.5q0 -54 -45.5 -90t-113.5 -36z" />
    <glyph glyph-name="three.sups.ss04" horiz-adv-x="335" 
d="M186 371q-61 0 -97 33t-27 87l78 3q-5 -25 11 -41.5t44 -16.5q32 0 53 16.5t21 42.5q0 21 -16 33.5t-43 12.5h-29l10 63q7 -1 22 -1q28 0 47.5 16.5t22.5 39.5q3 20 -11 32t-39 12t-44 -15.5t-23 -39.5l-70 5q7 46 49.5 78.5t97.5 32.5q50 0 82 -26t32 -65q0 -36 -25 -64
t-61 -35q34 -2 54 -23.5t20 -53.5q0 -54 -45.5 -90t-113.5 -36z" />
    <glyph glyph-name="colon.case" horiz-adv-x="272" 
d="M179 462q-30 0 -50 20t-20 50t20 50t50 20q31 0 51 -20t20 -50t-20 -50t-51 -20zM122 82q-31 0 -51 20t-20 50t20 50t51 20t51 -20t20 -50t-20 -50t-51 -20z" />
    <glyph glyph-name="bullet.case" horiz-adv-x="475" 
d="M240 142q-85 0 -143.5 58.5t-58.5 141.5t59 141.5t143 58.5q82 0 140 -58.5t58 -141.5t-58 -141.5t-140 -58.5z" />
    <glyph glyph-name="period.tf" horiz-adv-x="618" 
d="M282 -8q-31 0 -51 20t-20 50t20 50t51 20q30 0 50.5 -20t20.5 -50t-20.5 -50t-50.5 -20z" />
    <glyph glyph-name="comma.tf" horiz-adv-x="618" 
d="M145 -117l100 238h135l-162 -238h-73z" />
    <glyph glyph-name="parenleft.case" horiz-adv-x="284" 
d="M131 -153q-49 75 -75 174.5t-26 202.5q0 160 65.5 308t186.5 272l66 -56q-213 -247 -213 -514q0 -180 79 -330z" />
    <glyph glyph-name="parenright.case" horiz-adv-x="284" 
d="M29 -153l-66 57q109 128 161 252.5t52 262.5q0 182 -79 329l83 56q48 -73 74 -172.5t26 -203.5q0 -321 -251 -581z" />
    <glyph glyph-name="braceleft.case" horiz-adv-x="331" 
d="M195 -121q-53 0 -81 35t-20 91l33 209q8 46 -9.5 66.5t-62.5 21.5l15 93q45 1 69 21t31 66l33 210q9 56 48 90.5t92 34.5h57l-14 -90h-24q-56 0 -64 -57l-34 -213q-8 -46 -31.5 -70.5t-63.5 -37.5q36 -15 52 -39t9 -71l-34 -213q-9 -56 46 -56h24l-14 -91h-57z" />
    <glyph glyph-name="braceright.case" horiz-adv-x="331" 
d="M21 -121h-57l15 91h24q55 0 64 56l34 213q8 47 31 71t63 39q-35 14 -51 38t-9 70l34 213q9 57 -46 57h-24l14 90h57q53 0 81 -34.5t20 -90.5l-33 -210q-8 -46 9.5 -66t62.5 -21l-15 -93q-45 -1 -69 -21t-31 -67l-33 -209q-9 -56 -48.5 -91t-92.5 -35z" />
    <glyph glyph-name="bracketleft.case" horiz-adv-x="312" 
d="M10 -128l149 941h216l-14 -88h-118l-122 -766h118l-13 -87h-216z" />
    <glyph glyph-name="bracketright.case" horiz-adv-x="312" 
d="M185 -128h-215l14 87h118l121 766h-118l14 88h215z" />
    <glyph glyph-name="hyphen.case" horiz-adv-x="367" 
d="M39 313l15 94h311l-15 -94h-311z" />
    <glyph glyph-name="uni00AD.case" horiz-adv-x="367" 
d="M39 313l15 94h311l-15 -94h-311z" />
    <glyph glyph-name="endash.case" horiz-adv-x="500" 
d="M34 313l15 94h455l-15 -94h-455z" />
    <glyph glyph-name="emdash.case" horiz-adv-x="1000" 
d="M34 313l15 94h955l-15 -94h-955z" />
    <glyph glyph-name="quotesinglbase.ss05" horiz-adv-x="213" 
d="M150 70q0 -23 -9.5 -40t-48.5 -70l-47 -65h-55l58 97q-18 5 -30 22t-12 37q0 33 25 57t59 24q25 0 42.5 -18t17.5 -44z" />
    <glyph glyph-name="quotedblbase.ss05" horiz-adv-x="390" 
d="M150 70q0 -23 -9.5 -40t-48.5 -70l-47 -65h-55l58 97q-18 5 -30 22t-12 37q0 33 25 57t59 24q25 0 42.5 -18t17.5 -44zM327 70q0 -23 -9.5 -40t-48.5 -70l-47 -65h-55l58 97q-18 5 -30 22t-12 37q0 33 25 57t59 24q25 0 42.5 -18t17.5 -44z" />
    <glyph glyph-name="quotedblleft.ss05" horiz-adv-x="390" 
d="M83 533q0 23 9 39.5t48 70.5l47 65h56l-59 -97q19 -5 30.5 -22t11.5 -37q0 -34 -24.5 -57.5t-59.5 -23.5q-25 0 -42 18t-17 44zM260 533q0 23 9 39.5t48 70.5l47 65h56l-59 -97q19 -5 30.5 -22t11.5 -37q0 -34 -24.5 -57.5t-59.5 -23.5q-25 0 -42 18t-17 44z" />
    <glyph glyph-name="quotedblright.ss05" horiz-adv-x="390" 
d="M242 649q0 -23 -9 -39t-49 -71l-47 -65h-56l59 97q-18 5 -30 22t-12 37q0 33 25 57t59 24q25 0 42.5 -18t17.5 -44zM419 649q0 -23 -9 -39t-49 -71l-47 -65h-56l59 97q-19 5 -30.5 22t-11.5 37q0 33 25 57t59 24q25 0 42.5 -18t17.5 -44z" />
    <glyph glyph-name="quoteleft.ss05" horiz-adv-x="213" 
d="M82 530q0 23 9.5 39.5t48.5 69.5l47 65h55l-58 -97q18 -5 30 -22t12 -37q0 -33 -25 -57t-59 -24q-25 0 -42.5 18.5t-17.5 44.5z" />
    <glyph glyph-name="quoteright.ss05" horiz-adv-x="213" 
d="M242 649q0 -23 -9 -39t-49 -71l-47 -65h-56l59 97q-18 5 -30 22t-12 37q0 33 25 57t59 24q25 0 42.5 -18t17.5 -44z" />
    <glyph glyph-name="space.tf" horiz-adv-x="618" 
 />
    <glyph glyph-name="percent.part" horiz-adv-x="383" 
d="M210 356q-64 0 -101.5 41t-37.5 106q0 88 56 146.5t139 58.5q64 0 101 -40.5t37 -106.5q0 -88 -55.5 -146.5t-138.5 -58.5zM222 433q42 0 68.5 34t26.5 87q0 36 -16.5 56.5t-46.5 20.5q-43 0 -69.5 -33.5t-26.5 -86.5q0 -36 17 -57t47 -21z" />
    <glyph glyph-name="at.case" horiz-adv-x="912" 
d="M597 500h87l-42 -262q-4 -25 9 -41t34 -16q48 0 83 57.5t35 141.5q0 109 -75.5 176t-199.5 67q-164 0 -278.5 -107.5t-114.5 -267.5q0 -126 79 -203.5t211 -77.5q124 0 274 74l19 -88q-166 -72 -310 -72q-166 0 -265.5 98.5t-99.5 257.5q0 132 68 241t182.5 170.5
t248.5 61.5q157 0 254.5 -90t97.5 -230q0 -128 -65.5 -212t-161.5 -84q-40 0 -68 17.5t-38 48.5q-51 -67 -147 -67q-76 0 -120 46t-44 125q0 103 65.5 172t161.5 70q77 0 112 -52zM436 170q60 0 98.5 43t38.5 111q0 48 -25.5 77t-70.5 29q-60 0 -99 -43t-39 -111
q0 -49 26 -78t71 -28z" />
    <glyph glyph-name="caroncomb.alt" horiz-adv-x="0" 
d="M-138 560l60 181h107l-103 -181h-64z" />
    </font>
</defs>
</svg>
