<?xml version="1.0" standalone="no"?>
<!DOCTYPE svg PUBLIC "-//W3C//DTD SVG 1.1//EN" "http://www.w3.org/Graphics/SVG/1.1/DTD/svg11.dtd" >
<svg xmlns="http://www.w3.org/2000/svg" xmlns:xlink="http://www.w3.org/1999/xlink" version="1.1">
<metadata>
Created by FontForge 20190801 at Mon Jan 21 13:28:45 2019
 By Mark Brand
Copyright (c) 2016 by Martin Va'cha. All rights reserved.
</metadata>
<defs>
<font id="MatterSQ-HeavyItalic" horiz-adv-x="608" >
  <font-face 
    font-family="MatterSQ-HeavyItalic"
    font-weight="900"
    font-style="italic"
    font-stretch="normal"
    units-per-em="1000"
    panose-1="0 0 10 0 0 0 0 0 0 0"
    ascent="810"
    descent="-190"
    x-height="504"
    cap-height="700"
    bbox="-427 -207.748 1812 1098"
    underline-thickness="50"
    underline-position="-100"
    slope="-9"
    unicode-range="U+000D-F8FF"
  />
<missing-glyph horiz-adv-x="1065" 
d="M45 309q0 201 141 347t341 154v-1000q-99 3 -188 44t-153.5 107.5t-102.5 157.5t-38 190zM563 806q62 -21 105.5 -165t43.5 -332t-43.5 -331t-105.5 -165v993zM887 309q0 -168 -69.5 -301.5t-178.5 -178.5q51 66 80.5 194.5t29.5 285.5t-29.5 286t-80.5 196
q109 -46 178.5 -180.5t69.5 -301.5zM1045 309q0 -151 -83.5 -276.5t-220.5 -182.5q84 73 133.5 195t49.5 264q0 141 -49.5 264t-133.5 196q137 -58 220.5 -183.5t83.5 -276.5z" />
    <glyph glyph-name=".notdef" horiz-adv-x="1065" 
d="M45 309q0 201 141 347t341 154v-1000q-99 3 -188 44t-153.5 107.5t-102.5 157.5t-38 190zM563 806q62 -21 105.5 -165t43.5 -332t-43.5 -331t-105.5 -165v993zM887 309q0 -168 -69.5 -301.5t-178.5 -178.5q51 66 80.5 194.5t29.5 285.5t-29.5 286t-80.5 196
q109 -46 178.5 -180.5t69.5 -301.5zM1045 309q0 -151 -83.5 -276.5t-220.5 -182.5q84 73 133.5 195t49.5 264q0 141 -49.5 264t-133.5 196q137 -58 220.5 -183.5t83.5 -276.5z" />
    <glyph glyph-name=".null" horiz-adv-x="0" 
 />
    <glyph glyph-name="nonmarkingreturn" horiz-adv-x="333" 
 />
    <glyph glyph-name="CR" unicode="&#xd;" horiz-adv-x="238" 
 />
    <glyph glyph-name="space" unicode=" " horiz-adv-x="238" 
 />
    <glyph glyph-name="exclam" unicode="!" horiz-adv-x="317" 
d="M97 250l38 450h197l-103 -450h-132zM67 159h167l-25 -159h-167z" />
    <glyph glyph-name="quotedbl" unicode="&#x22;" horiz-adv-x="483" 
d="M110 418l10 290h171l-82 -290h-99zM334 418l10 290h171l-82 -290h-99z" />
    <glyph glyph-name="numbersign" unicode="#" horiz-adv-x="707" 
d="M704 399h-132l-37 -98h113l-19 -118h-138l-68 -183h-122l68 183h-109l-68 -183h-122l68 183h-115l19 118h140l37 98h-120l19 118h145l68 183h122l-68 -183h109l68 183h122l-68 -183h107zM413 301l37 98h-109l-37 -98h109z" />
    <glyph glyph-name="dollar" unicode="$" horiz-adv-x="596" 
d="M270 508q0 -18 17 -30t43.5 -20.5t59 -17t65.5 -23.5t59.5 -36.5t43.5 -59t17 -87.5q0 -96 -67 -161.5t-176 -78.5l-13 -84l-139 1l15 94q-80 22 -126 80.5t-45 139.5l163 27q-5 -49 25.5 -79.5t88.5 -30.5q38 0 63.5 20t25.5 50q0 27 -31 44.5t-75 31t-88.5 33t-75.5 62
t-31 105.5q0 81 62.5 140.5t153.5 75.5l14 86h139l-14 -92q75 -18 121.5 -66t52.5 -117l-168 -45q-2 38 -31.5 63t-75.5 25q-35 0 -54 -13.5t-19 -36.5z" />
    <glyph glyph-name="percent" unicode="%" horiz-adv-x="758" 
d="M201 356q-65 0 -102 38.5t-37 105.5q0 93 54 150.5t141 57.5q65 0 101.5 -38.5t36.5 -105.5q0 -93 -54 -150.5t-140 -57.5zM44 0l579 700h128l-579 -700h-128zM218 463q28 0 42.5 24.5t14.5 64.5q0 49 -35 49q-27 0 -42.5 -24t-15.5 -64q0 -50 36 -50zM541 -8
q-66 0 -103 38.5t-37 105.5q0 93 54.5 150.5t140.5 57.5q65 0 102 -38.5t37 -105.5q0 -93 -54 -150.5t-140 -57.5zM558 99q27 0 42 24.5t15 64.5q0 49 -35 49q-27 0 -42.5 -24t-15.5 -64q0 -50 36 -50z" />
    <glyph glyph-name="ampersand" unicode="&#x26;" horiz-adv-x="702" 
d="M669 248l-109 -105l101 -143h-206l-30 43q-94 -51 -184 -51q-94 0 -148 50t-54 134q0 80 40.5 129.5t110.5 84.5q-32 62 -32 112q0 91 61.5 148.5t159.5 57.5q76 0 118.5 -41t42.5 -113q0 -124 -126 -204l54 -78l98 89zM307 519q0 -21 30 -61q57 32 57 73q0 17 -10 27
t-27 10q-21 0 -35.5 -14t-14.5 -35zM278 142q28 0 63 23l-73 106q-61 -36 -61 -71q0 -27 19 -42.5t52 -15.5z" />
    <glyph glyph-name="quotesingle" unicode="'" horiz-adv-x="259" 
d="M110 418l10 290h171l-82 -290h-99z" />
    <glyph glyph-name="parenleft" unicode="(" horiz-adv-x="311" 
d="M128 -192q-116 163 -116 394q0 346 275 612l99 -84q-218 -237 -218 -511q0 -184 85 -326z" />
    <glyph glyph-name="parenright" unicode=")" horiz-adv-x="311" 
d="M51 -192l-99 85q112 123 165 247t53 264q0 184 -85 326l125 84q115 -160 115 -393q0 -345 -274 -613z" />
    <glyph glyph-name="asterisk" unicode="*" horiz-adv-x="485" 
d="M502 495l-125 -35l61 -100l-108 -72l-62 106l-94 -106l-86 72l93 100l-114 35l54 116l117 -39l18 128h123l-22 -128l129 39z" />
    <glyph glyph-name="plus" unicode="+" horiz-adv-x="560" 
d="M555 387l-22 -140h-180l-28 -180h-140l28 180h-180l22 140h180l29 180h140l-29 -180h180z" />
    <glyph glyph-name="comma" unicode="," horiz-adv-x="342" 
d="M-39 -143l121 302h185l-200 -302h-106z" />
    <glyph glyph-name="hyphen" unicode="-" horiz-adv-x="399" 
d="M24 220l22 140h349l-22 -140h-349z" />
    <glyph glyph-name="period" unicode="." horiz-adv-x="275" 
d="M43 159h167l-25 -159h-167z" />
    <glyph glyph-name="slash" unicode="/" horiz-adv-x="495" 
d="M-32 -1l425 701h173l-426 -701h-172z" />
    <glyph glyph-name="zero" unicode="0" horiz-adv-x="662" 
d="M295 -8q-116 0 -184 72.5t-70 195.5q-3 119 41 221t128.5 164.5t192.5 62.5q120 0 188 -75t68 -203q0 -117 -44.5 -216.5t-128.5 -160.5t-191 -61zM314 144q54 0 93 44t56 106t17 132q0 62 -24.5 96t-70.5 34q-53 0 -92 -43t-56.5 -105t-17.5 -133q0 -63 24 -97t71 -34z
" />
    <glyph glyph-name="one" unicode="1" horiz-adv-x="410" 
d="M150 0l82 515q-93 -55 -167 -69l25 158q90 21 201 96h134l-111 -700h-164z" />
    <glyph glyph-name="two" unicode="2" horiz-adv-x="587" 
d="M-8 0l21 140l267 193q67 49 96 84.5t29 70.5q0 31 -20 49.5t-54 18.5q-45 0 -75.5 -36.5t-33.5 -96.5l-167 11q3 112 94 193t206 81q105 0 167.5 -55.5t62.5 -144.5q0 -78 -52 -145.5t-170 -145.5l-98 -65h264l-24 -152h-513z" />
    <glyph glyph-name="three" unicode="3" horiz-adv-x="605" 
d="M260 -8q-113 0 -178.5 58t-60.5 152l164 27q2 -38 29 -61.5t71 -23.5q49 0 81.5 28.5t32.5 73.5q0 34 -22.5 55t-61.5 21q-45 0 -85 -25l-48 118l185 133h-271l24 152h481l-22 -140l-182 -128q84 -1 132.5 -47t48.5 -125q0 -118 -90 -193t-228 -75z" />
    <glyph glyph-name="four" unicode="4" horiz-adv-x="650" 
d="M326 0l19 122h-337l24 152l397 426h187l-68 -426h79l-24 -152h-79l-19 -122h-179zM213 274h156l33 208z" />
    <glyph glyph-name="five" unicode="5" horiz-adv-x="589" 
d="M258 -8q-105 0 -169 53.5t-65 142.5l164 29q5 -34 27.5 -53.5t59.5 -19.5q47 0 78 30.5t31 76.5q0 36 -23 57t-63 21q-66 0 -117 -57l-125 28l124 400h399l-24 -152h-269l-42 -126q53 42 126 42q88 0 141 -53t53 -139q0 -124 -86 -202t-220 -78z" />
    <glyph glyph-name="six" unicode="6" horiz-adv-x="634" 
d="M380 474q95 0 152.5 -57t57.5 -148q0 -119 -84 -198t-206 -79q-119 0 -189 78t-70 207q0 107 36 192t95 136t129 77t144 26q127 0 205 -78l-98 -125q-53 51 -125 51t-125 -39t-74 -104q61 61 152 61zM305 144q40 0 71.5 28.5t38.5 71.5t-16.5 70.5t-66.5 27.5
q-49 0 -83 -32.5t-34 -80.5q0 -37 24.5 -61t65.5 -24z" />
    <glyph glyph-name="seven" unicode="7" horiz-adv-x="569" 
d="M63 0q72 239 353 548h-335l24 152h519l-24 -152q-312 -360 -358 -548h-179z" />
    <glyph glyph-name="eight" unicode="8" horiz-adv-x="589" 
d="M260 -8q-102 0 -169 51.5t-67 138.5q0 67 41.5 120.5t107.5 74.5q-31 16 -49 49t-18 72q0 85 76.5 147.5t186.5 62.5q94 0 150.5 -48.5t56.5 -120.5q0 -52 -31.5 -96.5t-81.5 -65.5q44 -16 69.5 -55.5t25.5 -89.5q0 -108 -82 -174t-216 -66zM329 443q38 0 62.5 21.5
t24.5 55.5q0 26 -17.5 41.5t-48.5 15.5q-38 0 -62 -21.5t-24 -55.5q0 -26 17 -41.5t48 -15.5zM280 134q48 0 77 25t29 66q0 31 -21.5 49t-59.5 18q-47 0 -76.5 -25t-29.5 -65q0 -31 22 -49.5t59 -18.5z" />
    <glyph glyph-name="nine" unicode="9" horiz-adv-x="628" 
d="M286 226q-95 0 -152.5 57t-57.5 148q0 119 84 198t206 79q119 0 189 -78t70 -207q0 -107 -36 -192t-95 -136t-129 -77t-144 -26q-127 0 -205 78l98 125q53 -51 125 -51t125 39t74 104q-61 -61 -152 -61zM361 556q-40 0 -71.5 -28.5t-38.5 -71.5t16.5 -70.5t66.5 -27.5
q49 0 83 32.5t34 80.5q0 37 -24.5 61t-65.5 24z" />
    <glyph glyph-name="colon" unicode=":" horiz-adv-x="285" 
d="M103 504h167l-25 -159h-167zM48 159h167l-25 -159h-167z" />
    <glyph glyph-name="semicolon" unicode=";" horiz-adv-x="337" 
d="M144 525h167l-25 -159h-167zM-49 -143l121 302h185l-200 -302h-106z" />
    <glyph glyph-name="less" unicode="&#x3c;" horiz-adv-x="560" 
d="M496 10l-467 214l21 132l534 214l-26 -168l-300 -112l264 -112z" />
    <glyph glyph-name="equal" unicode="=" horiz-adv-x="560" 
d="M52 364l22 140h500l-22 -140h-500zM14 127l22 140h500l-22 -140h-500z" />
    <glyph glyph-name="greater" unicode="&#x3e;" horiz-adv-x="560" 
d="M-4 10l26 168l300 112l-264 112l26 168l466 -214l-21 -132z" />
    <glyph glyph-name="question" unicode="?" horiz-adv-x="544" 
d="M166 236q1 48 25 83.5t56.5 55t65 37t55 41t22.5 55.5q0 28 -19 45t-52 17q-47 0 -75 -31.5t-27 -83.5l-153 13q7 108 83.5 174t193.5 66q101 0 160 -48.5t59 -131.5q0 -49 -17 -87t-43 -59t-56.5 -39.5t-57 -31t-44.5 -32t-20 -43.5h-156zM151 159h167l-25 -159h-167z
" />
    <glyph glyph-name="at" unicode="@" horiz-adv-x="916" 
d="M566 459h124l-37 -232q-7 -39 33 -39q35 0 61.5 47t26.5 119q0 99 -65.5 153.5t-176.5 54.5q-157 0 -261 -95t-104 -243q0 -116 72.5 -186.5t194.5 -70.5q126 0 262 69l22 -129q-169 -66 -314 -66q-165 0 -266.5 103.5t-101.5 264.5q0 133 70 243.5t188.5 173t257.5 62.5
q158 0 255.5 -90.5t97.5 -231.5q0 -135 -71.5 -217.5t-177.5 -82.5q-92 0 -118 62q-43 -53 -124 -53q-72 0 -113 43t-41 117q0 103 59 166.5t151 63.5q62 0 91 -36zM450 180q40 0 66.5 30t26.5 76q0 34 -17.5 54t-47.5 20q-41 0 -68 -30t-27 -76q0 -33 18 -53.5t49 -20.5z
" />
    <glyph glyph-name="A" unicode="A" horiz-adv-x="702" 
d="M477 0l-25 133h-231l-67 -133h-185l372 700h170l150 -700h-184zM295 281h129l-35 186z" />
    <glyph glyph-name="B" unicode="B" horiz-adv-x="642" 
d="M24 0l111 700h290q89 0 144.5 -41t55.5 -115q0 -55 -30.5 -98t-71.5 -64q40 -19 65 -56t25 -89q0 -109 -83.5 -173t-210.5 -64h-295zM269 442h100q89 0 89 69q0 51 -74 51h-96zM223 152h107q117 0 117 82q0 60 -94 60h-107z" />
    <glyph glyph-name="C" unicode="C" horiz-adv-x="744" 
d="M358 -8q-135 0 -225 80t-90 221q0 129 60 225.5t152.5 143t201.5 46.5q136 0 215 -67t74 -178l-182 -36q-1 59 -38.5 94t-93.5 35q-87 0 -148 -64.5t-61 -178.5q0 -78 46 -123.5t112 -45.5q54 0 92.5 30.5t57.5 82.5l174 -41q-38 -107 -129 -165.5t-218 -58.5z" />
    <glyph glyph-name="D" unicode="D" horiz-adv-x="705" 
d="M24 0l111 700h248q137 0 227 -74t90 -218q0 -102 -36.5 -182.5t-98 -128.5t-136 -72.5t-157.5 -24.5h-248zM223 152h52q48 0 89.5 12t77 37.5t56.5 73t21 112.5q0 86 -50.5 123.5t-130.5 37.5h-52z" />
    <glyph glyph-name="E" unicode="E" horiz-adv-x="593" 
d="M24 0l111 700h493l-24 -152h-314l-17 -104h247l-24 -152h-247l-22 -140h325l-24 -152h-504z" />
    <glyph glyph-name="F" unicode="F" horiz-adv-x="578" 
d="M24 0l111 700h498l-24 -152h-319l-18 -112h255l-24 -152h-255l-45 -284h-179z" />
    <glyph glyph-name="G" unicode="G" horiz-adv-x="761" 
d="M340 -8q-128 0 -213 78.5t-85 220.5q0 100 36.5 181t97.5 131.5t136 77.5t156 27q136 0 212.5 -65t77.5 -180l-181 -36q-2 59 -39 94t-96 35q-95 0 -157 -67t-62 -177q0 -78 41 -123t110 -45q61 0 107 28.5t62 74.5h-173l22 140h338l-61 -387h-163l10 62q-26 -32 -74 -51
t-102 -19z" />
    <glyph glyph-name="H" unicode="H" horiz-adv-x="730" 
d="M566 700h179l-111 -700h-179l45 282h-252l-45 -282h-179l111 700h179l-42 -266h252z" />
    <glyph glyph-name="I" unicode="I" horiz-adv-x="299" 
d="M24 0l111 700h179l-111 -700h-179z" />
    <glyph glyph-name="J" unicode="J" horiz-adv-x="383" 
d="M14 155q19 -4 41 -4q87 0 100 81l74 468h168l-76 -477q-18 -112 -83 -170t-163 -58q-38 0 -86 8z" />
    <glyph glyph-name="K" unicode="K" horiz-adv-x="714" 
d="M775 700l-319 -288l219 -412h-226l-137 282l-75 -68l-34 -214h-179l111 700h179l-38 -238l256 238h243z" />
    <glyph glyph-name="L" unicode="L" horiz-adv-x="553" 
d="M24 0l111 700h179l-87 -548h304l-24 -152h-483z" />
    <glyph glyph-name="M" unicode="M" horiz-adv-x="893" 
d="M24 0l111 700h194l122 -448l264 448h193l-111 -700h-164l59 370l-218 -370h-126l-101 370l-59 -370h-164z" />
    <glyph glyph-name="N" unicode="N" horiz-adv-x="706" 
d="M24 0l111 700h174l181 -418l66 418h165l-111 -700h-174l-181 418l-66 -418h-165z" />
    <glyph glyph-name="O" unicode="O" horiz-adv-x="787" 
d="M369 -8q-140 0 -232.5 87.5t-92.5 220.5q0 183 114 295.5t300 112.5q138 0 230.5 -88t92.5 -220q0 -184 -113.5 -296t-298.5 -112zM394 144q89 0 148.5 68.5t59.5 169.5q0 75 -49 124.5t-122 49.5q-90 0 -148.5 -68.5t-58.5 -169.5q0 -76 48 -125t122 -49z" />
    <glyph glyph-name="P" unicode="P" horiz-adv-x="615" 
d="M25 0l111 700h298q98 0 154 -51.5t56 -138.5q0 -114 -79 -186t-202 -72h-119l-40 -252h-179zM268 404h99q45 0 71 22.5t26 60.5q0 29 -19.5 45t-54.5 16h-99z" />
    <glyph glyph-name="Q" unicode="Q" horiz-adv-x="787" 
d="M781 400q0 -185 -115 -297l61 -80l-126 -99l-73 94q-73 -26 -159 -26q-140 0 -232.5 87.5t-92.5 220.5q0 183 114 295.5t300 112.5q138 0 230.5 -88t92.5 -220zM394 144q17 0 35 3l-87 112l128 100l92 -120q40 62 40 143q0 75 -49 124.5t-122 49.5q-90 0 -148.5 -68.5
t-58.5 -169.5q0 -76 48 -125t122 -49z" />
    <glyph glyph-name="R" unicode="R" horiz-adv-x="668" 
d="M622 515q0 -65 -34 -122.5t-91 -91.5l125 -301h-210l-98 262h-68l-41 -262h-179l109 700h287q93 0 146.5 -50t53.5 -135zM292 548l-21 -134h74q45 0 70.5 20.5t25.5 56.5q0 57 -75 57h-74z" />
    <glyph glyph-name="S" unicode="S" horiz-adv-x="601" 
d="M288 -8q-117 0 -191.5 65t-72.5 168l163 27q-5 -49 25.5 -79.5t88.5 -30.5q38 0 63.5 20t25.5 50q0 27 -31 44.5t-75 31t-88.5 33t-75.5 62t-31 105.5q0 93 80.5 156.5t186.5 63.5q111 0 183 -52.5t79 -140.5l-168 -45q-2 38 -31.5 63t-75.5 25q-35 0 -54 -13.5
t-19 -36.5q0 -18 17 -30t43.5 -20.5t59 -17t65.5 -23.5t59.5 -36.5t43.5 -59t17 -87.5q0 -106 -80.5 -174t-206.5 -68z" />
    <glyph glyph-name="T" unicode="T" horiz-adv-x="605" 
d="M177 0l87 548h-200l24 152h579l-24 -152h-200l-87 -548h-179z" />
    <glyph glyph-name="U" unicode="U" horiz-adv-x="691" 
d="M309 -8q-128 0 -195 75.5t-48 198.5l69 434h164l-68 -432q-9 -55 19 -88.5t83 -33.5q58 0 94 31.5t46 90.5l68 432h165l-69 -434q-22 -133 -106.5 -203.5t-221.5 -70.5z" />
    <glyph glyph-name="V" unicode="V" horiz-adv-x="673" 
d="M216 0l-136 700h182l72 -484l228 484h181l-358 -700h-169z" />
    <glyph glyph-name="W" unicode="W" horiz-adv-x="1028" 
d="M171 0l-83 700h183l27 -484l184 484h211l32 -483l181 483h184l-304 -700h-190l-45 464l-193 -464h-187z" />
    <glyph glyph-name="X" unicode="X" horiz-adv-x="643" 
d="M682 700l-247 -327l163 -373h-188l-94 215l-162 -215h-189l282 374l-143 326h188l74 -169l127 169h189z" />
    <glyph glyph-name="Y" unicode="Y" horiz-adv-x="647" 
d="M194 0l46 288l-169 412h188l96 -246l176 246h187l-299 -412l-46 -288h-179z" />
    <glyph glyph-name="Z" unicode="Z" horiz-adv-x="611" 
d="M-9 0l22 140l393 408h-313l24 152h531l-22 -140l-390 -408h328l-24 -152h-549z" />
    <glyph glyph-name="bracketleft" unicode="[" horiz-adv-x="332" 
d="M-3 -171l159 1005h251l-21 -134h-104l-117 -737h104l-21 -134h-251z" />
    <glyph glyph-name="backslash" unicode="\" horiz-adv-x="495" 
d="M455 -1h-172l-204 701h173z" />
    <glyph glyph-name="bracketright" unicode="]" horiz-adv-x="332" 
d="M209 -171h-251l21 134h104l117 737h-104l21 134h251z" />
    <glyph glyph-name="asciicircum" unicode="^" horiz-adv-x="617" 
d="M63 403l252 297h137l158 -297h-159l-89 159l-140 -159h-159z" />
    <glyph glyph-name="underscore" unicode="_" horiz-adv-x="500" 
d="M-38 -140l22 140h460l-22 -140h-460z" />
    <glyph glyph-name="a" unicode="a" horiz-adv-x="554" 
d="M297 512q109 0 168 -67t41 -178l-42 -267h-160l9 56q-22 -29 -62.5 -46.5t-84.5 -17.5q-66 0 -107.5 40t-41.5 98q0 77 64.5 124.5t179.5 56.5l94 8v2q5 33 -16.5 52t-60.5 19q-32 0 -55 -18.5t-28 -50.5l-141 26q14 72 85.5 117.5t157.5 45.5zM226 107q76 0 110 98
l-97 -10q-29 -3 -46 -16t-17 -32q0 -16 13 -28t37 -12z" />
    <glyph glyph-name="b" unicode="b" horiz-adv-x="609" 
d="M328 -8q-100 0 -138 51l-7 -43h-165l112 708h165l-39 -244q53 48 136 48q88 0 142.5 -58.5t54.5 -152.5q0 -137 -72.5 -223t-188.5 -86zM300 132q54 0 89.5 40t35.5 102q0 45 -23.5 71.5t-63.5 26.5q-54 0 -90 -40t-36 -102q0 -45 23.5 -71.5t64.5 -26.5z" />
    <glyph glyph-name="c" unicode="c" horiz-adv-x="574" 
d="M270 -8q-102 0 -171 66t-69 165q0 125 85 207t215 82q102 0 165 -51.5t65 -135.5l-167 -28q-1 34 -22 54.5t-56 20.5q-51 0 -81.5 -37.5t-30.5 -98.5q0 -46 22.5 -75t59.5 -29q35 0 60.5 19t32.5 51l158 -32q-17 -81 -89 -129.5t-177 -48.5z" />
    <glyph glyph-name="d" unicode="d" horiz-adv-x="610" 
d="M229 -8q-95 0 -147.5 56.5t-52.5 154.5q0 139 78 224t201 85q84 0 120 -48l39 244h165l-112 -708h-165l7 43q-49 -51 -133 -51zM280 132q54 0 90 40t36 102q0 45 -23.5 71.5t-64.5 26.5q-54 0 -89.5 -40t-35.5 -102q0 -45 23.5 -71.5t63.5 -26.5z" />
    <glyph glyph-name="e" unicode="e" horiz-adv-x="575" 
d="M555 294q0 -44 -15 -89h-347q13 -77 96 -77q30 0 52 15t29 40l154 -44q-23 -66 -93 -106.5t-163 -40.5q-106 0 -171.5 64.5t-65.5 170.5q0 48 17 96.5t50.5 91.5t91 70t130.5 27q60 0 107.5 -20t74 -52.5t40 -69.5t13.5 -76zM383 316q3 33 -18.5 54.5t-63.5 21.5
q-73 0 -99 -76h181z" />
    <glyph glyph-name="f" unicode="f" horiz-adv-x="395" 
d="M56 0l58 368h-77l22 136h77l5 31q15 91 80 142.5t155 51.5q45 0 81 -14l-33 -131q-24 11 -46 11q-29 0 -48.5 -17.5t-24.5 -48.5l-4 -25h111l-22 -136h-111l-58 -368h-165z" />
    <glyph glyph-name="g" unicode="g" horiz-adv-x="596" 
d="M586 504l-64 -405h-1l-9 -59q-16 -104 -98.5 -167t-202.5 -63q-90 0 -149 44.5t-63 116.5l155 23q1 -27 23 -41.5t54 -14.5q47 0 78 23t37 61l6 40q-50 -45 -126 -45q-92 0 -143.5 53.5t-51.5 148.5q0 132 75.5 212.5t193.5 80.5q80 0 116 -43l6 35h164zM194 245
q0 -40 22 -64t61 -24q52 0 84.5 35.5t32.5 91.5q0 41 -22 64.5t-61 23.5q-51 0 -84 -35.5t-33 -91.5z" />
    <glyph glyph-name="h" unicode="h" 
d="M18 0l112 708h165l-41 -262q59 66 158 66q85 0 128 -50.5t30 -134.5l-52 -327h-165l45 282q6 38 -12 61t-53 23q-92 0 -115 -145l-35 -221h-165z" />
    <glyph glyph-name="i" unicode="i" horiz-adv-x="273" 
d="M132 708h172l-24 -151h-172zM18 0l80 504h165l-80 -504h-165z" />
    <glyph glyph-name="j" unicode="j" horiz-adv-x="278" 
d="M138 708h172l-24 -151h-172zM-57 -190l-43 2l20 142q15 -1 26 -1q75 0 89 90l73 461h165l-77 -484q-16 -97 -84.5 -153.5t-168.5 -56.5z" />
    <glyph glyph-name="k" unicode="k" horiz-adv-x="591" 
d="M618 504l-226 -199l160 -305h-196l-89 195l-61 -53l-22 -142h-166l112 708h166l-57 -359l171 155h208z" />
    <glyph glyph-name="l" unicode="l" horiz-adv-x="273" 
d="M18 0l112 708h165l-112 -708h-165z" />
    <glyph glyph-name="m" unicode="m" horiz-adv-x="915" 
d="M18 0l80 504h165l-10 -60q63 68 150 68q107 0 136 -85q28 36 76.5 60.5t107.5 24.5q81 0 124.5 -48t32.5 -119l-55 -345h-165l47 294q6 37 -10 58.5t-51 21.5q-40 0 -67 -30t-35 -84l-41 -260h-164l47 294q6 37 -10 58.5t-50 21.5q-40 0 -67 -30.5t-35 -84.5l-41 -259
h-165z" />
    <glyph glyph-name="n" unicode="n" 
d="M18 0l80 504h165l-9 -58q59 66 158 66q85 0 128 -50.5t30 -134.5l-52 -327h-165l45 282q6 38 -12 61t-53 23q-92 0 -115 -145l-35 -221h-165z" />
    <glyph glyph-name="o" unicode="o" horiz-adv-x="596" 
d="M274 -8q-106 0 -175.5 64t-69.5 160q0 126 85.5 211t215.5 85q105 0 174.5 -63t69.5 -160q0 -125 -86 -211t-214 -86zM288 132q53 0 86.5 39.5t33.5 101.5q0 44 -25.5 71.5t-66.5 27.5q-54 0 -87 -39t-33 -102q0 -44 25.5 -71.5t66.5 -27.5z" />
    <glyph glyph-name="p" unicode="p" horiz-adv-x="610" 
d="M-11 -182l109 686h165l-7 -43q54 51 142 51q89 0 140 -57t51 -155q0 -138 -83 -223t-205 -85q-82 0 -113 38l-34 -212h-165zM300 132q54 0 89.5 39t35.5 101q0 45 -23.5 72.5t-63.5 27.5q-54 0 -90 -39t-36 -101q0 -45 23.5 -72.5t64.5 -27.5z" />
    <glyph glyph-name="q" unicode="q" horiz-adv-x="609" 
d="M490 -182h-165l34 212q-42 -38 -125 -38q-94 0 -150 58t-56 158q0 134 77.5 219t195.5 85q88 0 126 -51l7 43h165zM279 132q54 0 90 40t36 102q0 45 -23.5 71.5t-64.5 26.5q-54 0 -89.5 -40t-35.5 -102q0 -45 23.5 -71.5t63.5 -26.5z" />
    <glyph glyph-name="r" unicode="r" horiz-adv-x="427" 
d="M426 345q-22 12 -61 12q-54 0 -96.5 -42t-57.5 -136l-28 -179h-165l80 504h165l-13 -83q22 38 68.5 64.5t91.5 26.5q32 0 51 -8z" />
    <glyph glyph-name="s" unicode="s" horiz-adv-x="464" 
d="M210 -8q-88 0 -144 46.5t-66 116.5l135 38q1 -34 25.5 -56t62.5 -22q26 0 41 10.5t15 28.5q0 15 -23.5 26t-56.5 20.5t-66 24t-56.5 46.5t-23.5 78q0 70 57.5 116.5t148.5 46.5q82 0 136.5 -35.5t63.5 -97.5l-140 -44q-4 30 -25.5 46t-45.5 16q-21 0 -35 -8t-14 -22
q0 -17 24 -27.5t58.5 -20t69 -23.5t58.5 -45.5t24 -78.5q0 -78 -62.5 -129t-160.5 -51z" />
    <glyph glyph-name="t" unicode="t" horiz-adv-x="404" 
d="M347 6q-40 -14 -85 -14q-92 0 -141 48t-35 138l30 190h-77l22 136h77l23 144h165l-23 -144h119l-22 -136h-119l-26 -164q-5 -31 7.5 -49.5t38.5 -18.5q33 0 56 11z" />
    <glyph glyph-name="u" unicode="u" 
d="M598 504l-80 -504h-165l9 58q-59 -66 -158 -66q-85 0 -128 50.5t-30 134.5l52 327h165l-45 -282q-6 -38 12 -61t53 -23q92 0 115 145l35 221h165z" />
    <glyph glyph-name="v" unicode="v" horiz-adv-x="520" 
d="M151 0l-103 504h165l41 -312l140 312h166l-263 -504h-146z" />
    <glyph glyph-name="w" unicode="w" horiz-adv-x="811" 
d="M140 0l-78 504h165l22 -273l127 273h148l42 -273l107 273h165l-238 -504h-141l-44 277l-134 -277h-141z" />
    <glyph glyph-name="x" unicode="x" horiz-adv-x="541" 
d="M565 504l-206 -253l126 -251h-179l-57 115l-94 -115h-179l206 251l-126 253h176l60 -119l97 119h176z" />
    <glyph glyph-name="y" unicode="y" horiz-adv-x="534" 
d="M409 504h161l-375 -686h-155l120 223l-116 463h170l53 -265z" />
    <glyph glyph-name="z" unicode="z" horiz-adv-x="500" 
d="M-8 0l20 126l264 242h-208l22 136h418l-20 -126l-262 -242h234l-22 -136h-446z" />
    <glyph glyph-name="braceleft" unicode="{" horiz-adv-x="356" 
d="M207 -165q-62 0 -96.5 41t-24.5 103l33 210q7 41 -12 59.5t-62 18.5l23 141q86 0 98 78l33 210q10 62 57.5 103t109.5 41h72l-21 -135h-16q-54 0 -62 -57l-32 -198q-8 -47 -34 -71.5t-70 -40.5q40 -17 58.5 -41t10.5 -72l-32 -198q-8 -57 44 -57h16l-21 -135h-72z" />
    <glyph glyph-name="bar" unicode="|" horiz-adv-x="301" 
d="M17 -50l127 800h179l-127 -800h-179z" />
    <glyph glyph-name="braceright" unicode="}" horiz-adv-x="356" 
d="M25 -165h-72l21 135h16q52 0 62 57l32 198q8 48 34 72t71 41q-40 16 -59 40.5t-11 71.5l32 198q8 57 -44 57h-16l21 135h72q62 0 96.5 -41t24.5 -103l-33 -210q-7 -41 12 -59.5t62 -18.5l-23 -141q-86 0 -98 -78l-33 -210q-10 -62 -57.5 -103t-109.5 -41z" />
    <glyph glyph-name="asciitilde" unicode="~" horiz-adv-x="637" 
d="M414 223q-64 0 -117 38q-37 27 -53 30q-6 1 -12 1q-44 0 -66 -73l-134 20q20 89 81 144t142 55q64 0 117 -38q4 -3 12.5 -9t12 -8t9.5 -5.5t10 -5t9.5 -2.5t11.5 -1q43 0 67 73l134 -20q-20 -89 -81.5 -144t-142.5 -55z" />
    <glyph glyph-name="uni00A0" unicode="&#xa0;" horiz-adv-x="238" 
 />
    <glyph glyph-name="exclamdown" unicode="&#xa1;" horiz-adv-x="317" 
d="M257 337h-167l25 159h167zM227 246l-38 -450h-197l103 450h132z" />
    <glyph glyph-name="cent" unicode="&#xa2;" horiz-adv-x="574" 
d="M285 132q35 0 60.5 19t32.5 51l158 -32q-14 -68 -68 -113.5t-136 -59.5l-15 -96l-139 1l16 101q-74 22 -119 81.5t-45 138.5q0 110 67.5 188.5t176.5 96.5l15 94h139l-16 -100q68 -18 107.5 -64.5t40.5 -112.5l-167 -28q-1 34 -22 54.5t-56 20.5q-51 0 -81.5 -37.5
t-30.5 -98.5q0 -46 22.5 -75t59.5 -29z" />
    <glyph glyph-name="sterling" unicode="&#xa3;" horiz-adv-x="637" 
d="M624 530l-171 -43q2 31 -17 50t-53 19q-37 0 -62 -25.5t-25 -66.5q0 -24 8 -46h223l-21 -132h-171q-6 -36 -28.5 -72.5t-52.5 -61.5h125q23 0 50.5 19.5t44.5 49.5l136 -81q-91 -140 -207 -140h-365l22 140q40 23 66.5 63.5t31.5 82.5h-118l21 132h69q-7 30 -7 53
q0 102 79 169.5t205 67.5q102 0 161.5 -48.5t55.5 -129.5z" />
    <glyph glyph-name="currency" unicode="&#xa4;" horiz-adv-x="651" 
d="M581 383q19 -44 19 -95q0 -94 -58 -173l52 -62l-114 -98l-56 67q-65 -30 -137 -30q-71 0 -125 31l-77 -68l-84 98l74 64q-20 45 -20 98q0 97 59 175l-50 60l114 98l54 -65q64 29 137 29q71 0 127 -32l79 68l82 -98zM309 132q54 0 89.5 40t35.5 102q0 45 -23.5 71.5
t-63.5 26.5q-54 0 -89.5 -40t-35.5 -102q0 -45 23 -71.5t64 -26.5z" />
    <glyph glyph-name="yen" unicode="&#xa5;" horiz-adv-x="647" 
d="M722 700l-221 -305h113l-17 -107h-174l-9 -54h174l-17 -107h-174l-20 -127h-179l20 127h-173l17 107h173l9 54h-173l17 107h112l-125 305h188l96 -246l176 246h187z" />
    <glyph glyph-name="brokenbar" unicode="&#xa6;" horiz-adv-x="301" 
d="M89 401l55 349h179l-55 -349h-179zM17 -50l55 349h179l-55 -349h-179z" />
    <glyph glyph-name="section" unicode="&#xa7;" horiz-adv-x="598" 
d="M354 571q-38 0 -63 -16t-25 -41q0 -28 30.5 -45t74 -28t87.5 -26.5t74.5 -52t30.5 -92.5q0 -85 -66 -137q30 -36 30 -92q0 -102 -83.5 -166.5t-207.5 -64.5q-100 0 -165.5 62t-63.5 150l145 38q-2 -49 27.5 -79.5t78.5 -30.5t79.5 19t30.5 48q0 24 -30 38.5t-72.5 25.5
t-85 27.5t-72.5 54t-30 95.5q0 79 68 130q-32 40 -32 99q0 96 76.5 158.5t185.5 62.5q92 0 156 -49.5t60 -136.5l-148 -29q-1 35 -25.5 56.5t-64.5 21.5zM405 246q0 13 -8 23t-25 17.5t-33.5 12.5t-43.5 12.5t-44 13.5q-21 -21 -21 -40q0 -15 7 -26t25.5 -20t31 -13.5
t43 -13t42.5 -12.5q26 21 26 46z" />
    <glyph glyph-name="copyright" unicode="&#xa9;" horiz-adv-x="777" 
d="M409 -8q-155 0 -256.5 102t-101.5 256t101.5 256t256.5 102t257 -102t102 -256t-102 -256t-257 -102zM409 73q118 0 196.5 79t78.5 198t-78.5 198t-196.5 79t-196 -79t-78 -198t78 -198t196 -79zM393 169q-85 0 -137 51t-52 135q0 83 52.5 135t136.5 52q73 0 121 -36.5
t53 -97.5l-102 -21q-4 30 -24 48t-49 18q-38 0 -61.5 -27t-23.5 -71q0 -45 23 -71.5t62 -26.5q29 0 48 16t22 42l104 -22q-13 -59 -58.5 -91.5t-114.5 -32.5z" />
    <glyph glyph-name="ordfeminine" unicode="&#xaa;" horiz-adv-x="333" 
d="M232 708q68 0 102.5 -35t23.5 -103l-29 -186h-98l6 37q-37 -42 -93 -42q-41 0 -66 24t-25 60q0 100 152 118l58 7q4 22 -8 34t-35 12q-44 0 -57 -46l-85 16q14 47 57.5 75.5t96.5 28.5zM252 516l-1 -4q1 1 1 4zM181 450q26 0 45 17.5t25 40.5l1 8l-60 -7q-18 -2 -30 -12
t-12 -22q0 -10 8 -17.5t23 -7.5z" />
    <glyph glyph-name="guillemotleft" unicode="&#xab;" horiz-adv-x="667" 
d="M308 34l-267 229l15 94l340 229l-26 -164l-172 -112l136 -112zM597 34l-267 229l15 94l340 229l-26 -164l-172 -112l136 -112z" />
    <glyph glyph-name="logicalnot" unicode="&#xac;" 
d="M378 120l26 162h-355l22 140h520l-48 -302h-165z" />
    <glyph glyph-name="uni00AD" unicode="&#xad;" horiz-adv-x="399" 
d="M24 220l22 140h349l-22 -140h-349z" />
    <glyph glyph-name="registered" unicode="&#xae;" horiz-adv-x="777" 
d="M409 -8q-155 0 -256.5 102t-101.5 256t101.5 256t256.5 102t257 -102t102 -256t-102 -256t-257 -102zM409 73q118 0 196.5 79t78.5 198t-78.5 198t-196.5 79t-196 -79t-78 -198t78 -198t196 -79zM558 186h-106l-71 132h-34v-132h-90l-1 353h145q53 0 85 -30t32 -81
q0 -59 -47 -90zM347 462v-67h38q43 0 43 33q0 34 -43 34h-38z" />
    <glyph glyph-name="degree" unicode="&#xb0;" horiz-adv-x="365" 
d="M213 420q-59 0 -95 36t-36 91q0 70 52 118.5t125 48.5q59 0 95.5 -36t36.5 -91q0 -70 -52.5 -118.5t-125.5 -48.5zM227 513q26 0 43.5 18t17.5 45q0 20 -12 32.5t-32 12.5q-25 0 -42.5 -18t-17.5 -45q0 -20 12 -32.5t31 -12.5z" />
    <glyph glyph-name="plusminus" unicode="&#xb1;" horiz-adv-x="560" 
d="M578 530l-22 -140h-180l-29 -180h-140l29 180h-180l22 140h180l28 180h140l-28 -180h180zM494 0h-500l22 140h500z" />
    <glyph glyph-name="uni00B2" unicode="&#xb2;" horiz-adv-x="347" 
d="M52 375l12 86l127 91q79 55 79 86q0 14 -9 22t-24 8q-20 0 -33.5 -18t-15.5 -48l-107 7q4 62 56 108.5t115 46.5q60 0 96 -31.5t36 -82.5q0 -88 -121 -158l-36 -21h130l-16 -96h-289z" />
    <glyph glyph-name="uni00B3" unicode="&#xb3;" horiz-adv-x="356" 
d="M198 371q-63 0 -100.5 32t-35.5 85l104 17q4 -17 17 -27.5t32 -10.5q21 0 35.5 12t14.5 31q0 15 -10.5 25t-27.5 10q-28 0 -48 -15l-30 76l87 57h-135l16 97h268l-15 -97l-88 -50q45 -2 70 -26.5t25 -66.5q0 -66 -50.5 -107.5t-128.5 -41.5z" />
    <glyph glyph-name="uni00B5" unicode="&#xb5;" horiz-adv-x="594" 
d="M428 504h165l-80 -504h-165l9 58q-13 -30 -46 -48t-72 -18q-31 0 -59 19l-32 -201h-165l99 626l4 28l6 40h166l-46 -290q-3 -35 15 -55.5t51 -20.5q92 0 115 145z" />
    <glyph glyph-name="paragraph" unicode="&#xb6;" horiz-adv-x="764" 
d="M221 -182l63 396q-93 0 -154 61.5t-61 151.5q0 110 88.5 191.5t203.5 81.5h438l-22 -140h-65l-118 -742h-141l118 742h-91l-118 -742h-141z" />
    <glyph glyph-name="periodcentered" unicode="&#xb7;" horiz-adv-x="297" 
d="M89 450h167l-25 -159h-167z" />
    <glyph glyph-name="uni00B9" unicode="&#xb9;" horiz-adv-x="246" 
d="M131 375l43 268q-55 -31 -94 -38l16 100q53 12 115 55h85l-61 -385h-104z" />
    <glyph glyph-name="ordmasculine" unicode="&#xba;" horiz-adv-x="370" 
d="M209 379q-65 0 -105.5 40t-40.5 104q0 78 58 131.5t140 53.5q65 0 105.5 -39.5t40.5 -103.5q0 -79 -57.5 -132.5t-140.5 -53.5zM223 466q36 0 59 24.5t23 65.5q0 30 -15.5 48t-41.5 18q-36 0 -59 -25.5t-23 -65.5q0 -29 15.5 -47t41.5 -18z" />
    <glyph glyph-name="guillemotright" unicode="&#xbb;" horiz-adv-x="690" 
d="M8 34l26 164l172 112l-136 112l26 164l268 -229l-15 -94zM319 34l26 164l172 112l-136 112l26 164l268 -229l-15 -94z" />
    <glyph glyph-name="onequarter" unicode="&#xbc;" horiz-adv-x="781" 
d="M51 0l579 700h128l-579 -700h-128zM122 315l42 268q-53 -31 -94 -38l16 100q52 11 116 55h85l-61 -385h-104zM574 0l9 58h-182l16 97l215 230h117l-36 -230h38l-16 -97h-38l-9 -58h-114zM531 155h68l14 89z" />
    <glyph glyph-name="onehalf" unicode="&#xbd;" horiz-adv-x="808" 
d="M35 0l579 700h128l-579 -700h-128zM122 315l42 268q-53 -31 -94 -38l16 100q52 11 116 55h85l-61 -385h-104zM454 0l12 86l127 91q78 55 78 86q0 30 -33 30q-20 0 -33.5 -18t-14.5 -48l-107 7q3 62 55.5 108.5t115.5 46.5q60 0 96 -31.5t36 -82.5q0 -87 -122 -158
l-36 -21h130l-15 -96h-289z" />
    <glyph glyph-name="threequarters" unicode="&#xbe;" horiz-adv-x="841" 
d="M188 311q-63 0 -100 32t-35 85l103 17q10 -38 49 -38q21 0 35.5 12t14.5 31q0 15 -10.5 25t-26.5 10q-29 0 -49 -15l-30 76l88 57h-135l16 97h268l-15 -97l-88 -50q45 -2 70 -26.5t25 -66.5q0 -66 -51 -107.5t-129 -41.5zM112 0l579 700h128l-579 -700h-128zM634 0l9 58
h-182l16 97l215 230h117l-36 -230h38l-16 -97h-38l-9 -58h-114zM591 155h68l14 89z" />
    <glyph glyph-name="questiondown" unicode="&#xbf;" horiz-adv-x="479" 
d="M348 344h-167l25 159h167zM333 267q-1 -48 -25 -83.5t-56.5 -55t-65 -37t-55 -41t-22.5 -55.5q0 -28 19 -45t52 -17q47 0 75 31.5t27 83.5l153 -13q-7 -108 -83.5 -174t-193.5 -66q-101 0 -160 48.5t-59 131.5q0 49 17 87t43 59t56.5 39.5t57 31t44.5 32t20 43.5h156z
" />
    <glyph glyph-name="Agrave" unicode="&#xc0;" horiz-adv-x="702" 
d="M496 756h-115l-101 148h185zM477 0l-25 133h-231l-67 -133h-185l372 700h170l150 -700h-184zM295 281h129l-35 186z" />
    <glyph glyph-name="Aacute" unicode="&#xc1;" horiz-adv-x="702" 
d="M619 904l-147 -148h-115l77 148h185zM477 0l-25 133h-231l-67 -133h-185l372 700h170l150 -700h-184zM295 281h129l-35 186z" />
    <glyph glyph-name="Acircumflex" unicode="&#xc2;" horiz-adv-x="702" 
d="M445 822l-76 -66h-119l134 148h145l89 -148h-114zM477 0l-25 133h-231l-67 -133h-185l372 700h170l150 -700h-184zM295 281h129l-35 186z" />
    <glyph glyph-name="Atilde" unicode="&#xc3;" horiz-adv-x="702" 
d="M370 803q-26 0 -42 -52l-109 16q14 68 60.5 109.5t108.5 41.5q47 0 89 -27q5 -3 11.5 -7.5t9 -6t7 -4t8.5 -3t9 -0.5q26 0 41 53l110 -16q-13 -68 -60 -110t-109 -42q-48 0 -88 27q-31 21 -46 21zM341 700h170l150 -700h-184l-25 133h-231l-67 -133h-185zM295 281h129
l-35 186z" />
    <glyph glyph-name="Adieresis" unicode="&#xc4;" horiz-adv-x="702" 
d="M421 904l-24 -150h-150l24 150h150zM644 904l-24 -150h-150l24 150h150zM477 0l-25 133h-231l-67 -133h-185l372 700h170l150 -700h-184zM295 281h129l-35 186z" />
    <glyph glyph-name="Aring" unicode="&#xc5;" horiz-adv-x="702" 
d="M426 734q-53 0 -88 33.5t-35 83.5t35 83.5t88 33.5q54 0 89 -33.5t35 -83.5t-35 -83.5t-89 -33.5zM426 891q-18 0 -30 -11t-12 -29t12 -29t30 -11q19 0 31 11t12 29t-12 29t-31 11zM477 0l-25 133h-231l-67 -133h-185l372 700h170l150 -700h-184zM295 281h129l-35 186z
" />
    <glyph glyph-name="AE" unicode="&#xc6;" horiz-adv-x="1008" 
d="M1019 548h-314l-17 -104h247l-24 -152h-247l-22 -140h325l-24 -152h-504l22 139h-206l-90 -139h-197l462 700h613zM353 291h132l43 271z" />
    <glyph glyph-name="Ccedilla" unicode="&#xc7;" horiz-adv-x="744" 
d="M432 556q-87 0 -148 -64.5t-61 -178.5q0 -78 46 -123.5t112 -45.5q54 0 92.5 30.5t57.5 82.5l174 -41q-34 -96 -112 -153.5t-186 -68.5l-76 -142h-185l146 146q-111 19 -180 96t-69 199q0 129 60 225.5t152.5 143t201.5 46.5q136 0 215 -67t74 -178l-182 -36
q-1 59 -38.5 94t-93.5 35z" />
    <glyph glyph-name="Egrave" unicode="&#xc8;" horiz-adv-x="593" 
d="M456 756h-115l-101 148h185zM24 0l111 700h493l-24 -152h-314l-17 -104h247l-24 -152h-247l-22 -140h325l-24 -152h-504z" />
    <glyph glyph-name="Eacute" unicode="&#xc9;" horiz-adv-x="593" 
d="M317 756l77 148h185l-147 -148h-115zM24 0l111 700h493l-24 -152h-314l-17 -104h247l-24 -152h-247l-22 -140h325l-24 -152h-504z" />
    <glyph glyph-name="Ecircumflex" unicode="&#xca;" horiz-adv-x="593" 
d="M344 904h145l89 -148h-114l-59 66l-76 -66h-119zM24 0l111 700h493l-24 -152h-314l-17 -104h247l-24 -152h-247l-22 -140h325l-24 -152h-504z" />
    <glyph glyph-name="Edieresis" unicode="&#xcb;" horiz-adv-x="593" 
d="M231 904h150l-24 -150h-150zM454 904h150l-24 -150h-150zM24 0l111 700h493l-24 -152h-314l-17 -104h247l-24 -152h-247l-22 -140h325l-24 -152h-504z" />
    <glyph glyph-name="Igrave" unicode="&#xcc;" horiz-adv-x="299" 
d="M294 756h-115l-101 148h185zM24 0l111 700h179l-111 -700h-179z" />
    <glyph glyph-name="Iacute" unicode="&#xcd;" horiz-adv-x="299" 
d="M155 756l77 148h185l-147 -148h-115zM24 0l111 700h179l-111 -700h-179z" />
    <glyph glyph-name="Icircumflex" unicode="&#xce;" horiz-adv-x="299" 
d="M182 904h145l89 -148h-114l-59 66l-76 -66h-119zM24 0l111 700h179l-111 -700h-179z" />
    <glyph glyph-name="Idieresis" unicode="&#xcf;" horiz-adv-x="299" 
d="M69 904h150l-24 -150h-150zM292 904h150l-24 -150h-150zM24 0l111 700h179l-111 -700h-179z" />
    <glyph glyph-name="Eth" unicode="&#xd0;" horiz-adv-x="705" 
d="M383 700q137 0 227 -74t90 -218q0 -102 -36.5 -182.5t-98 -128.5t-136 -72.5t-157.5 -24.5h-248l47 296h-66l17 108h66l47 296h248zM275 152q48 0 89.5 12t77 37.5t56.5 73t21 112.5q0 86 -50.5 123.5t-130.5 37.5h-52l-23 -144h98l-17 -108h-98l-23 -144h52z" />
    <glyph glyph-name="Ntilde" unicode="&#xd1;" horiz-adv-x="706" 
d="M330 751l-109 16q14 68 60.5 109.5t108.5 41.5q47 0 89 -27q5 -3 11.5 -7.5t9 -6t7 -4t8.5 -3t9 -0.5q26 0 41 53l110 -16q-13 -68 -60 -110t-109 -42q-48 0 -88 27q-31 21 -46 21q-26 0 -42 -52zM24 0l111 700h174l181 -418l66 418h165l-111 -700h-174l-181 418
l-66 -418h-165z" />
    <glyph glyph-name="Ograve" unicode="&#xd2;" horiz-adv-x="787" 
d="M540 756h-115l-101 148h185zM369 -8q-140 0 -232.5 87.5t-92.5 220.5q0 183 114 295.5t300 112.5q138 0 230.5 -88t92.5 -220q0 -184 -113.5 -296t-298.5 -112zM394 144q89 0 148.5 68.5t59.5 169.5q0 75 -49 124.5t-122 49.5q-90 0 -148.5 -68.5t-58.5 -169.5
q0 -76 48 -125t122 -49z" />
    <glyph glyph-name="Oacute" unicode="&#xd3;" horiz-adv-x="787" 
d="M401 756l77 148h185l-147 -148h-115zM369 -8q-140 0 -232.5 87.5t-92.5 220.5q0 183 114 295.5t300 112.5q138 0 230.5 -88t92.5 -220q0 -184 -113.5 -296t-298.5 -112zM394 144q89 0 148.5 68.5t59.5 169.5q0 75 -49 124.5t-122 49.5q-90 0 -148.5 -68.5t-58.5 -169.5
q0 -76 48 -125t122 -49z" />
    <glyph glyph-name="Ocircumflex" unicode="&#xd4;" horiz-adv-x="787" 
d="M428 904h145l89 -148h-114l-59 66l-76 -66h-119zM369 -8q-140 0 -232.5 87.5t-92.5 220.5q0 183 114 295.5t300 112.5q138 0 230.5 -88t92.5 -220q0 -184 -113.5 -296t-298.5 -112zM394 144q89 0 148.5 68.5t59.5 169.5q0 75 -49 124.5t-122 49.5q-90 0 -148.5 -68.5
t-58.5 -169.5q0 -76 48 -125t122 -49z" />
    <glyph glyph-name="Otilde" unicode="&#xd5;" horiz-adv-x="787" 
d="M372 751l-109 16q14 68 60.5 109.5t108.5 41.5q47 0 89 -27q5 -3 11.5 -7.5t9 -6t7 -4t8.5 -3t9 -0.5q26 0 41 53l110 -16q-13 -68 -60 -110t-109 -42q-48 0 -88 27q-31 21 -46 21q-26 0 -42 -52zM369 -8q-140 0 -232.5 87.5t-92.5 220.5q0 183 114 295.5t300 112.5
q138 0 230.5 -88t92.5 -220q0 -184 -113.5 -296t-298.5 -112zM394 144q89 0 148.5 68.5t59.5 169.5q0 75 -49 124.5t-122 49.5q-90 0 -148.5 -68.5t-58.5 -169.5q0 -76 48 -125t122 -49z" />
    <glyph glyph-name="Odieresis" unicode="&#xd6;" horiz-adv-x="787" 
d="M315 904h150l-24 -150h-150zM538 904h150l-24 -150h-150zM369 -8q-140 0 -232.5 87.5t-92.5 220.5q0 183 114 295.5t300 112.5q138 0 230.5 -88t92.5 -220q0 -184 -113.5 -296t-298.5 -112zM394 144q89 0 148.5 68.5t59.5 169.5q0 75 -49 124.5t-122 49.5
q-90 0 -148.5 -68.5t-58.5 -169.5q0 -76 48 -125t122 -49z" />
    <glyph glyph-name="multiply" unicode="&#xd7;" horiz-adv-x="599" 
d="M596 462l-167 -144l122 -144l-134 -115l-122 144l-167 -144l-96 115l167 144l-122 144l133 115l122 -144l167 144z" />
    <glyph glyph-name="Oslash" unicode="&#xd8;" horiz-adv-x="787" 
d="M812 647l-80 -79q49 -76 49 -168q0 -184 -113.5 -296t-298.5 -112q-94 0 -172 43l-85 -84l-97 102l78 78q-49 76 -49 169q0 183 114 295.5t300 112.5q94 0 171 -44l85 84zM224 318q0 -29 7 -51l274 273q-35 16 -74 16q-90 0 -148.5 -68.5t-58.5 -169.5zM602 382
q0 26 -6 50l-275 -273q33 -15 73 -15q89 0 148.5 68.5t59.5 169.5z" />
    <glyph glyph-name="Ugrave" unicode="&#xd9;" horiz-adv-x="691" 
d="M491 756h-115l-101 148h185zM309 -8q-128 0 -195 75.5t-48 198.5l69 434h164l-68 -432q-9 -55 19 -88.5t83 -33.5q58 0 94 31.5t46 90.5l68 432h165l-69 -434q-22 -133 -106.5 -203.5t-221.5 -70.5z" />
    <glyph glyph-name="Uacute" unicode="&#xda;" horiz-adv-x="691" 
d="M352 756l77 148h185l-147 -148h-115zM309 -8q-128 0 -195 75.5t-48 198.5l69 434h164l-68 -432q-9 -55 19 -88.5t83 -33.5q58 0 94 31.5t46 90.5l68 432h165l-69 -434q-22 -133 -106.5 -203.5t-221.5 -70.5z" />
    <glyph glyph-name="Ucircumflex" unicode="&#xdb;" horiz-adv-x="691" 
d="M379 904h145l89 -148h-114l-59 66l-76 -66h-119zM309 -8q-128 0 -195 75.5t-48 198.5l69 434h164l-68 -432q-9 -55 19 -88.5t83 -33.5q58 0 94 31.5t46 90.5l68 432h165l-69 -434q-22 -133 -106.5 -203.5t-221.5 -70.5z" />
    <glyph glyph-name="Udieresis" unicode="&#xdc;" horiz-adv-x="691" 
d="M266 904h150l-24 -150h-150zM489 904h150l-24 -150h-150zM309 -8q-128 0 -195 75.5t-48 198.5l69 434h164l-68 -432q-9 -55 19 -88.5t83 -33.5q58 0 94 31.5t46 90.5l68 432h165l-69 -434q-22 -133 -106.5 -203.5t-221.5 -70.5z" />
    <glyph glyph-name="Yacute" unicode="&#xdd;" horiz-adv-x="647" 
d="M325 756l77 148h185l-147 -148h-115zM194 0l46 288l-169 412h188l96 -246l176 246h187l-299 -412l-46 -288h-179z" />
    <glyph glyph-name="Thorn" unicode="&#xde;" horiz-adv-x="615" 
d="M25 0l111 700h179l-21 -133h119q101 0 156 -49t55 -134q0 -112 -76 -181.5t-204 -69.5h-119l-21 -133h-179zM248 279h107q47 0 72 22.5t25 60.5q0 59 -74 59h-107z" />
    <glyph glyph-name="germandbls" unicode="&#xdf;" horiz-adv-x="650" 
d="M345 -8q-42 0 -88 8l24 154q33 -10 72 -10q38 0 63.5 23.5t25.5 60.5q0 66 -113 66h-25l24 156h19q45 0 72.5 20.5t27.5 57.5q0 23 -15.5 38.5t-45.5 15.5q-33 0 -57 -21t-30 -58l-80 -503h-179l47 294h-55l24 156h55l8 50q16 98 99.5 153t187.5 55q98 0 154.5 -43.5
t56.5 -112.5q0 -53 -29.5 -96t-71.5 -55q106 -41 106 -156q0 -123 -76 -188t-201 -65z" />
    <glyph glyph-name="agrave" unicode="&#xe0;" horiz-adv-x="554" 
d="M379 560h-115l-101 148h185zM297 512q109 0 168 -67t41 -178l-42 -267h-160l9 56q-22 -29 -62.5 -46.5t-84.5 -17.5q-66 0 -107.5 40t-41.5 98q0 77 64.5 124.5t179.5 56.5l94 8v2q5 33 -16.5 52t-60.5 19q-32 0 -55 -18.5t-28 -50.5l-141 26q14 72 85.5 117.5
t157.5 45.5zM226 107q76 0 110 98l-97 -10q-29 -3 -46 -16t-17 -32q0 -16 13 -28t37 -12z" />
    <glyph glyph-name="aacute" unicode="&#xe1;" horiz-adv-x="554" 
d="M502 708l-147 -148h-115l77 148h185zM297 512q109 0 168 -67t41 -178l-42 -267h-160l9 56q-22 -29 -62.5 -46.5t-84.5 -17.5q-66 0 -107.5 40t-41.5 98q0 77 64.5 124.5t179.5 56.5l94 8v2q5 33 -16.5 52t-60.5 19q-32 0 -55 -18.5t-28 -50.5l-141 26q14 72 85.5 117.5
t157.5 45.5zM226 107q76 0 110 98l-97 -10q-29 -3 -46 -16t-17 -32q0 -16 13 -28t37 -12z" />
    <glyph glyph-name="acircumflex" unicode="&#xe2;" horiz-adv-x="554" 
d="M328 626l-76 -66h-119l134 148h145l89 -148h-114zM297 512q109 0 168 -67t41 -178l-42 -267h-160l9 56q-22 -29 -62.5 -46.5t-84.5 -17.5q-66 0 -107.5 40t-41.5 98q0 77 64.5 124.5t179.5 56.5l94 8v2q5 33 -16.5 52t-60.5 19q-32 0 -55 -18.5t-28 -50.5l-141 26
q14 72 85.5 117.5t157.5 45.5zM226 107q76 0 110 98l-97 -10q-29 -3 -46 -16t-17 -32q0 -16 13 -28t37 -12z" />
    <glyph glyph-name="atilde" unicode="&#xe3;" horiz-adv-x="554" 
d="M253 607q-26 0 -42 -52l-109 16q14 68 60.5 109.5t108.5 41.5q47 0 89 -27q5 -3 11.5 -7.5t9 -6t7 -4t8.5 -3t9 -0.5q26 0 41 53l110 -16q-13 -68 -60 -110t-109 -42q-48 0 -88 27q-31 21 -46 21zM297 512q109 0 168 -67t41 -178l-42 -267h-160l9 56q-22 -29 -62.5 -46.5
t-84.5 -17.5q-66 0 -107.5 40t-41.5 98q0 77 64.5 124.5t179.5 56.5l94 8v2q5 33 -16.5 52t-60.5 19q-32 0 -55 -18.5t-28 -50.5l-141 26q14 72 85.5 117.5t157.5 45.5zM226 107q76 0 110 98l-97 -10q-29 -3 -46 -16t-17 -32q0 -16 13 -28t37 -12z" />
    <glyph glyph-name="adieresis" unicode="&#xe4;" horiz-adv-x="554" 
d="M304 708l-24 -150h-150l24 150h150zM527 708l-24 -150h-150l24 150h150zM297 512q109 0 168 -67t41 -178l-42 -267h-160l9 56q-22 -29 -62.5 -46.5t-84.5 -17.5q-66 0 -107.5 40t-41.5 98q0 77 64.5 124.5t179.5 56.5l94 8v2q5 33 -16.5 52t-60.5 19q-32 0 -55 -18.5
t-28 -50.5l-141 26q14 72 85.5 117.5t157.5 45.5zM226 107q76 0 110 98l-97 -10q-29 -3 -46 -16t-17 -32q0 -16 13 -28t37 -12z" />
    <glyph glyph-name="aring" unicode="&#xe5;" horiz-adv-x="554" 
d="M312 538q-53 0 -88 33.5t-35 83.5t35 83.5t88 33.5q54 0 89 -33.5t35 -83.5t-35 -83.5t-89 -33.5zM312 695q-18 0 -30 -11t-12 -29t12 -29t30 -11q19 0 31 11t12 29t-12 29t-31 11zM297 512q109 0 168 -67t41 -178l-42 -267h-160l9 56q-22 -29 -62.5 -46.5t-84.5 -17.5
q-66 0 -107.5 40t-41.5 98q0 77 64.5 124.5t179.5 56.5l94 8v2q5 33 -16.5 52t-60.5 19q-32 0 -55 -18.5t-28 -50.5l-141 26q14 72 85.5 117.5t157.5 45.5zM226 107q76 0 110 98l-97 -10q-29 -3 -46 -16t-17 -32q0 -16 13 -28t37 -12z" />
    <glyph glyph-name="ae" unicode="&#xe6;" horiz-adv-x="893" 
d="M874 294q0 -29 -15 -92h-348q12 -74 90 -74q66 0 93 55l148 -43q-34 -70 -105 -109t-162 -39q-116 0 -178 79q-81 -79 -202 -79q-86 0 -132.5 37t-46.5 96q0 82 65 134t183 52h92l2 10q5 34 -15.5 54t-58.5 20q-33 0 -59.5 -20.5t-33.5 -52.5l-132 28q25 74 92 118
t151 44q113 0 168 -55q73 55 176 55q60 0 106 -20t71.5 -52.5t38 -69.5t12.5 -76zM701 316q3 34 -15 55t-59 21q-75 0 -104 -76h178zM228 103q42 0 72.5 29.5t37.5 67.5h-100q-29 0 -46 -16.5t-17 -40.5q0 -17 15 -28.5t38 -11.5z" />
    <glyph glyph-name="ccedilla" unicode="&#xe7;" horiz-adv-x="574" 
d="M285 132q35 0 60.5 19t32.5 51l158 -32q-14 -68 -69 -114t-137 -59l-77 -145h-185l146 146q-82 17 -133 79t-51 146q0 125 85 207t215 82q102 0 165 -51.5t65 -135.5l-167 -28q-1 34 -22 54.5t-56 20.5q-51 0 -81.5 -37.5t-30.5 -98.5q0 -46 22.5 -75t59.5 -29z" />
    <glyph glyph-name="egrave" unicode="&#xe8;" horiz-adv-x="575" 
d="M391 560h-115l-101 148h185zM555 294q0 -44 -15 -89h-347q13 -77 96 -77q30 0 52 15t29 40l154 -44q-23 -66 -93 -106.5t-163 -40.5q-106 0 -171.5 64.5t-65.5 170.5q0 48 17 96.5t50.5 91.5t91 70t130.5 27q60 0 107.5 -20t74 -52.5t40 -69.5t13.5 -76zM383 316
q3 33 -18.5 54.5t-63.5 21.5q-73 0 -99 -76h181z" />
    <glyph glyph-name="eacute" unicode="&#xe9;" horiz-adv-x="575" 
d="M514 708l-147 -148h-115l77 148h185zM555 294q0 -44 -15 -89h-347q13 -77 96 -77q30 0 52 15t29 40l154 -44q-23 -66 -93 -106.5t-163 -40.5q-106 0 -171.5 64.5t-65.5 170.5q0 48 17 96.5t50.5 91.5t91 70t130.5 27q60 0 107.5 -20t74 -52.5t40 -69.5t13.5 -76zM383 316
q3 33 -18.5 54.5t-63.5 21.5q-73 0 -99 -76h181z" />
    <glyph glyph-name="ecircumflex" unicode="&#xea;" horiz-adv-x="575" 
d="M340 626l-76 -66h-119l134 148h145l89 -148h-114zM555 294q0 -44 -15 -89h-347q13 -77 96 -77q30 0 52 15t29 40l154 -44q-23 -66 -93 -106.5t-163 -40.5q-106 0 -171.5 64.5t-65.5 170.5q0 48 17 96.5t50.5 91.5t91 70t130.5 27q60 0 107.5 -20t74 -52.5t40 -69.5
t13.5 -76zM383 316q3 33 -18.5 54.5t-63.5 21.5q-73 0 -99 -76h181z" />
    <glyph glyph-name="edieresis" unicode="&#xeb;" horiz-adv-x="575" 
d="M316 708l-24 -150h-150l24 150h150zM539 708l-24 -150h-150l24 150h150zM555 294q0 -44 -15 -89h-347q13 -77 96 -77q30 0 52 15t29 40l154 -44q-23 -66 -93 -106.5t-163 -40.5q-106 0 -171.5 64.5t-65.5 170.5q0 48 17 96.5t50.5 91.5t91 70t130.5 27q60 0 107.5 -20
t74 -52.5t40 -69.5t13.5 -76zM383 316q3 33 -18.5 54.5t-63.5 21.5q-73 0 -99 -76h181z" />
    <glyph glyph-name="igrave" unicode="&#xec;" horiz-adv-x="273" 
d="M250 560h-115l-101 148h185zM18 0l80 504h165l-80 -504h-165z" />
    <glyph glyph-name="iacute" unicode="&#xed;" horiz-adv-x="273" 
d="M111 560l77 148h185l-147 -148h-115zM18 0l80 504h165l-80 -504h-165z" />
    <glyph glyph-name="icircumflex" unicode="&#xee;" horiz-adv-x="273" 
d="M138 708h145l89 -148h-114l-59 66l-76 -66h-119zM18 0l80 504h165l-80 -504h-165z" />
    <glyph glyph-name="idieresis" unicode="&#xef;" horiz-adv-x="273" 
d="M31 708h150l-24 -150h-150zM254 708h150l-24 -150h-150zM18 0l80 504h165l-80 -504h-165z" />
    <glyph glyph-name="eth" unicode="&#xf0;" horiz-adv-x="660" 
d="M641 592l-77 -15q16 -80 16 -161q0 -93 -18 -167.5t-47.5 -121.5t-69.5 -78.5t-81 -44t-86 -12.5q-121 0 -185.5 57.5t-64.5 164.5q0 111 78 191.5t188 80.5q90 0 127 -42q1 43 -10 104l-113 -21l-4 106l91 17q-12 33 -24 58h163l12 -29l101 19zM280 132q52 0 87.5 37
t35.5 92q0 39 -24 62.5t-65 23.5q-52 0 -87.5 -37t-35.5 -92q0 -39 24 -62.5t65 -23.5z" />
    <glyph glyph-name="ntilde" unicode="&#xf1;" 
d="M248 555l-109 16q14 68 60.5 109.5t108.5 41.5q47 0 89 -27q5 -3 11.5 -7.5t9 -6t7 -4t8.5 -3t9 -0.5q26 0 41 53l110 -16q-13 -68 -60 -110t-109 -42q-48 0 -88 27q-31 21 -46 21q-26 0 -42 -52zM18 0l80 504h165l-9 -58q59 66 158 66q85 0 128 -50.5t30 -134.5
l-52 -327h-165l45 282q6 38 -12 61t-53 23q-92 0 -115 -145l-35 -221h-165z" />
    <glyph glyph-name="ograve" unicode="&#xf2;" horiz-adv-x="596" 
d="M412 560h-115l-101 148h185zM274 -8q-106 0 -175.5 64t-69.5 160q0 126 85.5 211t215.5 85q105 0 174.5 -63t69.5 -160q0 -125 -86 -211t-214 -86zM288 132q53 0 86.5 39.5t33.5 101.5q0 44 -25.5 71.5t-66.5 27.5q-54 0 -87 -39t-33 -102q0 -44 25.5 -71.5t66.5 -27.5z
" />
    <glyph glyph-name="oacute" unicode="&#xf3;" horiz-adv-x="596" 
d="M273 560l77 148h185l-147 -148h-115zM274 -8q-106 0 -175.5 64t-69.5 160q0 126 85.5 211t215.5 85q105 0 174.5 -63t69.5 -160q0 -125 -86 -211t-214 -86zM288 132q53 0 86.5 39.5t33.5 101.5q0 44 -25.5 71.5t-66.5 27.5q-54 0 -87 -39t-33 -102q0 -44 25.5 -71.5
t66.5 -27.5z" />
    <glyph glyph-name="ocircumflex" unicode="&#xf4;" horiz-adv-x="596" 
d="M300 708h145l89 -148h-114l-59 66l-76 -66h-119zM274 -8q-106 0 -175.5 64t-69.5 160q0 126 85.5 211t215.5 85q105 0 174.5 -63t69.5 -160q0 -125 -86 -211t-214 -86zM288 132q53 0 86.5 39.5t33.5 101.5q0 44 -25.5 71.5t-66.5 27.5q-54 0 -87 -39t-33 -102
q0 -44 25.5 -71.5t66.5 -27.5z" />
    <glyph glyph-name="otilde" unicode="&#xf5;" horiz-adv-x="596" 
d="M244 555l-109 16q14 68 60.5 109.5t108.5 41.5q47 0 89 -27q5 -3 11.5 -7.5t9 -6t7 -4t8.5 -3t9 -0.5q26 0 41 53l110 -16q-13 -68 -60 -110t-109 -42q-48 0 -88 27q-31 21 -46 21q-26 0 -42 -52zM274 -8q-106 0 -175.5 64t-69.5 160q0 126 85.5 211t215.5 85
q105 0 174.5 -63t69.5 -160q0 -125 -86 -211t-214 -86zM288 132q53 0 86.5 39.5t33.5 101.5q0 44 -25.5 71.5t-66.5 27.5q-54 0 -87 -39t-33 -102q0 -44 25.5 -71.5t66.5 -27.5z" />
    <glyph glyph-name="odieresis" unicode="&#xf6;" horiz-adv-x="596" 
d="M187 708h150l-24 -150h-150zM410 708h150l-24 -150h-150zM274 -8q-106 0 -175.5 64t-69.5 160q0 126 85.5 211t215.5 85q105 0 174.5 -63t69.5 -160q0 -125 -86 -211t-214 -86zM288 132q53 0 86.5 39.5t33.5 101.5q0 44 -25.5 71.5t-66.5 27.5q-54 0 -87 -39t-33 -102
q0 -44 25.5 -71.5t66.5 -27.5z" />
    <glyph glyph-name="divide" unicode="&#xf7;" horiz-adv-x="560" 
d="M249 623h167l-26 -159h-167zM33 247l22 140h500l-22 -140h-500zM175 159h167l-25 -159h-167z" />
    <glyph glyph-name="oslash" unicode="&#xf8;" horiz-adv-x="596" 
d="M593 473l-59 -57q40 -55 40 -127q0 -125 -86 -211t-214 -86q-76 0 -137 36l-64 -63l-66 65l62 60q-40 54 -40 126q0 126 85.5 211t215.5 85q74 0 136 -35l63 62zM196 231q0 -11 1 -16l154 151q-15 6 -35 6q-54 0 -87 -39t-33 -102zM408 273q0 12 -1 18l-156 -152
q15 -7 37 -7q53 0 86.5 39.5t33.5 101.5z" />
    <glyph glyph-name="ugrave" unicode="&#xf9;" 
d="M412 560h-115l-101 148h185zM598 504l-80 -504h-165l9 58q-59 -66 -158 -66q-85 0 -128 50.5t-30 134.5l52 327h165l-45 -282q-6 -38 12 -61t53 -23q92 0 115 145l35 221h165z" />
    <glyph glyph-name="uacute" unicode="&#xfa;" 
d="M273 560l77 148h185l-147 -148h-115zM598 504l-80 -504h-165l9 58q-59 -66 -158 -66q-85 0 -128 50.5t-30 134.5l52 327h165l-45 -282q-6 -38 12 -61t53 -23q92 0 115 145l35 221h165z" />
    <glyph glyph-name="ucircumflex" unicode="&#xfb;" 
d="M300 708h145l89 -148h-114l-59 66l-76 -66h-119zM598 504l-80 -504h-165l9 58q-59 -66 -158 -66q-85 0 -128 50.5t-30 134.5l52 327h165l-45 -282q-6 -38 12 -61t53 -23q92 0 115 145l35 221h165z" />
    <glyph glyph-name="udieresis" unicode="&#xfc;" 
d="M187 708h150l-24 -150h-150zM410 708h150l-24 -150h-150zM598 504l-80 -504h-165l9 58q-59 -66 -158 -66q-85 0 -128 50.5t-30 134.5l52 327h165l-45 -282q-6 -38 12 -61t53 -23q92 0 115 145l35 221h165z" />
    <glyph glyph-name="yacute" unicode="&#xfd;" horiz-adv-x="534" 
d="M500 708l-147 -148h-115l77 148h185zM409 504h161l-375 -686h-155l120 223l-116 463h170l53 -265z" />
    <glyph glyph-name="thorn" unicode="&#xfe;" 
d="M-14 -204l143 904h165l-38 -239q57 51 142 51q89 0 140 -57t51 -155q0 -138 -83 -223t-205 -85q-84 0 -113 38l-37 -234h-165zM299 132q55 0 90.5 37.5t35.5 107.5q0 47 -23.5 71t-64.5 24q-55 0 -90.5 -37.5t-35.5 -107.5q0 -47 23.5 -71t64.5 -24z" />
    <glyph glyph-name="ydieresis" unicode="&#xff;" horiz-adv-x="534" 
d="M302 708l-24 -150h-150l24 150h150zM525 708l-24 -150h-150l24 150h150zM409 504h161l-375 -686h-155l120 223l-116 463h170l53 -265z" />
    <glyph glyph-name="Amacron" unicode="&#x100;" horiz-adv-x="702" 
d="M600 896l-19 -122h-288l19 122h288zM477 0l-25 133h-231l-67 -133h-185l372 700h170l150 -700h-184zM295 281h129l-35 186z" />
    <glyph glyph-name="amacron" unicode="&#x101;" horiz-adv-x="554" 
d="M483 700l-19 -122h-288l19 122h288zM297 512q109 0 168 -67t41 -178l-42 -267h-160l9 56q-22 -29 -62.5 -46.5t-84.5 -17.5q-66 0 -107.5 40t-41.5 98q0 77 64.5 124.5t179.5 56.5l94 8v2q5 33 -16.5 52t-60.5 19q-32 0 -55 -18.5t-28 -50.5l-141 26q14 72 85.5 117.5
t157.5 45.5zM226 107q76 0 110 98l-97 -10q-29 -3 -46 -16t-17 -32q0 -16 13 -28t37 -12z" />
    <glyph glyph-name="Abreve" unicode="&#x102;" horiz-adv-x="702" 
d="M434 753q-64 0 -99.5 40.5t-25.5 102.5h116q-6 -42 25 -42q34 0 40 42h116q-10 -62 -59 -102.5t-113 -40.5zM477 0l-25 133h-231l-67 -133h-185l372 700h170l150 -700h-184zM295 281h129l-35 186z" />
    <glyph glyph-name="abreve" unicode="&#x103;" horiz-adv-x="554" 
d="M317 557q-64 0 -99.5 40.5t-25.5 102.5h116q-6 -42 25 -42q34 0 40 42h116q-10 -62 -59 -102.5t-113 -40.5zM297 512q109 0 168 -67t41 -178l-42 -267h-160l9 56q-22 -29 -62.5 -46.5t-84.5 -17.5q-66 0 -107.5 40t-41.5 98q0 77 64.5 124.5t179.5 56.5l94 8v2
q5 33 -16.5 52t-60.5 19q-32 0 -55 -18.5t-28 -50.5l-141 26q14 72 85.5 117.5t157.5 45.5zM226 107q76 0 110 98l-97 -10q-29 -3 -46 -16t-17 -32q0 -16 13 -28t37 -12z" />
    <glyph glyph-name="Aogonek" unicode="&#x104;" horiz-adv-x="702" 
d="M550 -57q0 -25 29 -25q14 0 20 3l-2 -103q-19 -8 -63 -8q-51 0 -81.5 24.5t-30.5 65.5q0 55 54 106l-24 127h-231l-67 -133h-185l372 700h170l150 -700h-76l-7.5 -7.5t-9.5 -10.5t-8 -11t-7.5 -14t-2.5 -14zM295 281h129l-35 186z" />
    <glyph glyph-name="aogonek" unicode="&#x105;" horiz-adv-x="554" 
d="M506 267l-42 -267l-7.5 -7.5t-9.5 -10.5t-8 -11t-7.5 -14t-2.5 -14q0 -25 29 -25q14 0 20 3l-2 -103q-19 -8 -63 -8q-51 0 -81.5 24.5t-30.5 65.5q0 52 48 100h-45l9 56q-22 -29 -62.5 -46.5t-84.5 -17.5q-66 0 -107.5 40t-41.5 98q0 77 64.5 124.5t179.5 56.5l94 8v2
q5 33 -16.5 52t-60.5 19q-32 0 -55 -18.5t-28 -50.5l-141 26q14 72 85.5 117.5t157.5 45.5q109 0 168 -67t41 -178zM226 107q76 0 110 98l-97 -10q-29 -3 -46 -16t-17 -32q0 -16 13 -28t37 -12z" />
    <glyph glyph-name="Cacute" unicode="&#x106;" horiz-adv-x="744" 
d="M385 756l77 148h185l-147 -148h-115zM358 -8q-135 0 -225 80t-90 221q0 129 60 225.5t152.5 143t201.5 46.5q136 0 215 -67t74 -178l-182 -36q-1 59 -38.5 94t-93.5 35q-87 0 -148 -64.5t-61 -178.5q0 -78 46 -123.5t112 -45.5q54 0 92.5 30.5t57.5 82.5l174 -41
q-38 -107 -129 -165.5t-218 -58.5z" />
    <glyph glyph-name="cacute" unicode="&#x107;" horiz-adv-x="574" 
d="M266 560l77 148h185l-147 -148h-115zM270 -8q-102 0 -171 66t-69 165q0 125 85 207t215 82q102 0 165 -51.5t65 -135.5l-167 -28q-1 34 -22 54.5t-56 20.5q-51 0 -81.5 -37.5t-30.5 -98.5q0 -46 22.5 -75t59.5 -29q35 0 60.5 19t32.5 51l158 -32q-17 -81 -89 -129.5
t-177 -48.5z" />
    <glyph glyph-name="Ccircumflex" unicode="&#x108;" horiz-adv-x="744" 
d="M412 904h145l89 -148h-114l-59 66l-76 -66h-119zM358 -8q-135 0 -225 80t-90 221q0 129 60 225.5t152.5 143t201.5 46.5q136 0 215 -67t74 -178l-182 -36q-1 59 -38.5 94t-93.5 35q-87 0 -148 -64.5t-61 -178.5q0 -78 46 -123.5t112 -45.5q54 0 92.5 30.5t57.5 82.5
l174 -41q-38 -107 -129 -165.5t-218 -58.5z" />
    <glyph glyph-name="ccircumflex" unicode="&#x109;" horiz-adv-x="574" 
d="M293 708h145l89 -148h-114l-59 66l-76 -66h-119zM270 -8q-102 0 -171 66t-69 165q0 125 85 207t215 82q102 0 165 -51.5t65 -135.5l-167 -28q-1 34 -22 54.5t-56 20.5q-51 0 -81.5 -37.5t-30.5 -98.5q0 -46 22.5 -75t59.5 -29q35 0 60.5 19t32.5 51l158 -32
q-17 -81 -89 -129.5t-177 -48.5z" />
    <glyph glyph-name="Cdotaccent" unicode="&#x10a;" horiz-adv-x="744" 
d="M401 904h172l-24 -151h-172zM358 -8q-135 0 -225 80t-90 221q0 129 60 225.5t152.5 143t201.5 46.5q136 0 215 -67t74 -178l-182 -36q-1 59 -38.5 94t-93.5 35q-87 0 -148 -64.5t-61 -178.5q0 -78 46 -123.5t112 -45.5q54 0 92.5 30.5t57.5 82.5l174 -41
q-38 -107 -129 -165.5t-218 -58.5z" />
    <glyph glyph-name="cdotaccent" unicode="&#x10b;" horiz-adv-x="574" 
d="M282 708h172l-24 -151h-172zM270 -8q-102 0 -171 66t-69 165q0 125 85 207t215 82q102 0 165 -51.5t65 -135.5l-167 -28q-1 34 -22 54.5t-56 20.5q-51 0 -81.5 -37.5t-30.5 -98.5q0 -46 22.5 -75t59.5 -29q35 0 60.5 19t32.5 51l158 -32q-17 -81 -89 -129.5t-177 -48.5z
" />
    <glyph glyph-name="Ccaron" unicode="&#x10c;" horiz-adv-x="744" 
d="M390 756l-88 148h112l59 -66l77 66h120l-135 -148h-145zM358 -8q-135 0 -225 80t-90 221q0 129 60 225.5t152.5 143t201.5 46.5q136 0 215 -67t74 -178l-182 -36q-1 59 -38.5 94t-93.5 35q-87 0 -148 -64.5t-61 -178.5q0 -78 46 -123.5t112 -45.5q54 0 92.5 30.5
t57.5 82.5l174 -41q-38 -107 -129 -165.5t-218 -58.5z" />
    <glyph glyph-name="ccaron" unicode="&#x10d;" horiz-adv-x="574" 
d="M271 560l-88 148h112l59 -66l77 66h120l-135 -148h-145zM270 -8q-102 0 -171 66t-69 165q0 125 85 207t215 82q102 0 165 -51.5t65 -135.5l-167 -28q-1 34 -22 54.5t-56 20.5q-51 0 -81.5 -37.5t-30.5 -98.5q0 -46 22.5 -75t59.5 -29q35 0 60.5 19t32.5 51l158 -32
q-17 -81 -89 -129.5t-177 -48.5z" />
    <glyph glyph-name="Dcaron" unicode="&#x10e;" horiz-adv-x="705" 
d="M325 756l-88 148h112l59 -66l77 66h120l-135 -148h-145zM24 0l111 700h248q137 0 227 -74t90 -218q0 -102 -36.5 -182.5t-98 -128.5t-136 -72.5t-157.5 -24.5h-248zM223 152h52q48 0 89.5 12t77 37.5t56.5 73t21 112.5q0 86 -50.5 123.5t-130.5 37.5h-52z" />
    <glyph glyph-name="dcaron" unicode="&#x10f;" horiz-adv-x="767" 
d="M647 560l61 197h153l-121 -197h-93zM229 -8q-95 0 -147.5 56.5t-52.5 154.5q0 139 78 224t201 85q84 0 120 -48l39 244h165l-112 -708h-165l7 43q-49 -51 -133 -51zM280 132q54 0 90 40t36 102q0 45 -23.5 71.5t-64.5 26.5q-54 0 -89.5 -40t-35.5 -102q0 -45 23.5 -71.5
t63.5 -26.5z" />
    <glyph glyph-name="Dcroat" unicode="&#x110;" horiz-adv-x="705" 
d="M383 700q137 0 227 -74t90 -218q0 -102 -36.5 -182.5t-98 -128.5t-136 -72.5t-157.5 -24.5h-248l47 296h-66l17 108h66l47 296h248zM275 152q48 0 89.5 12t77 37.5t56.5 73t21 112.5q0 86 -50.5 123.5t-130.5 37.5h-52l-23 -144h98l-17 -108h-98l-23 -144h52z" />
    <glyph glyph-name="dcroat" unicode="&#x111;" horiz-adv-x="610" 
d="M697 664l-17 -108h-72l-88 -556h-165l7 43q-49 -51 -133 -51q-95 0 -147.5 56.5t-52.5 154.5q0 139 78 224t201 85q84 0 120 -48l15 92h-102l17 108h102l7 44h165l-7 -44h72zM280 132q54 0 90 40t36 102q0 45 -23.5 71.5t-64.5 26.5q-54 0 -89.5 -40t-35.5 -102
q0 -45 23.5 -71.5t63.5 -26.5z" />
    <glyph glyph-name="Emacron" unicode="&#x112;" horiz-adv-x="593" 
d="M253 774l19 122h288l-19 -122h-288zM24 0l111 700h493l-24 -152h-314l-17 -104h247l-24 -152h-247l-22 -140h325l-24 -152h-504z" />
    <glyph glyph-name="emacron" unicode="&#x113;" horiz-adv-x="575" 
d="M495 700l-19 -122h-288l19 122h288zM555 294q0 -44 -15 -89h-347q13 -77 96 -77q30 0 52 15t29 40l154 -44q-23 -66 -93 -106.5t-163 -40.5q-106 0 -171.5 64.5t-65.5 170.5q0 48 17 96.5t50.5 91.5t91 70t130.5 27q60 0 107.5 -20t74 -52.5t40 -69.5t13.5 -76zM383 316
q3 33 -18.5 54.5t-63.5 21.5q-73 0 -99 -76h181z" />
    <glyph glyph-name="Ebreve" unicode="&#x114;" horiz-adv-x="593" 
d="M394 753q-64 0 -99.5 40.5t-25.5 102.5h116q-6 -42 25 -42q34 0 40 42h116q-10 -62 -59 -102.5t-113 -40.5zM24 0l111 700h493l-24 -152h-314l-17 -104h247l-24 -152h-247l-22 -140h325l-24 -152h-504z" />
    <glyph glyph-name="ebreve" unicode="&#x115;" horiz-adv-x="575" 
d="M329 557q-64 0 -99.5 40.5t-25.5 102.5h116q-6 -42 25 -42q34 0 40 42h116q-10 -62 -59 -102.5t-113 -40.5zM555 294q0 -44 -15 -89h-347q13 -77 96 -77q30 0 52 15t29 40l154 -44q-23 -66 -93 -106.5t-163 -40.5q-106 0 -171.5 64.5t-65.5 170.5q0 48 17 96.5t50.5 91.5
t91 70t130.5 27q60 0 107.5 -20t74 -52.5t40 -69.5t13.5 -76zM383 316q3 33 -18.5 54.5t-63.5 21.5q-73 0 -99 -76h181z" />
    <glyph glyph-name="Edotaccent" unicode="&#x116;" horiz-adv-x="593" 
d="M333 904h172l-24 -151h-172zM24 0l111 700h493l-24 -152h-314l-17 -104h247l-24 -152h-247l-22 -140h325l-24 -152h-504z" />
    <glyph glyph-name="edotaccent" unicode="&#x117;" horiz-adv-x="575" 
d="M440 708l-24 -151h-172l24 151h172zM555 294q0 -44 -15 -89h-347q13 -77 96 -77q30 0 52 15t29 40l154 -44q-23 -66 -93 -106.5t-163 -40.5q-106 0 -171.5 64.5t-65.5 170.5q0 48 17 96.5t50.5 91.5t91 70t130.5 27q60 0 107.5 -20t74 -52.5t40 -69.5t13.5 -76zM383 316
q3 33 -18.5 54.5t-63.5 21.5q-73 0 -99 -76h181z" />
    <glyph glyph-name="Eogonek" unicode="&#x118;" horiz-adv-x="593" 
d="M604 548h-314l-17 -104h247l-24 -152h-247l-22 -140h325l-24 -152l-7.5 -7.5t-9.5 -10.5t-8 -11t-7.5 -14t-2.5 -14q0 -25 29 -25q14 0 20 3l-2 -103q-19 -8 -63 -8q-51 0 -81.5 24.5t-30.5 65.5q0 52 48 100h-389l111 700h493z" />
    <glyph glyph-name="eogonek" unicode="&#x119;" horiz-adv-x="575" 
d="M555 294q0 -44 -15 -89h-347q13 -77 96 -77q30 0 52 15t29 40l154 -44q-19 -55 -71.5 -93t-125.5 -49q-32 -32 -32 -54q0 -25 29 -25q14 0 20 3l-2 -103q-19 -8 -63 -8q-51 0 -81.5 24.5t-30.5 65.5q0 49 45 97q-83 17 -132 78t-49 152q0 48 17 96.5t50.5 91.5t91 70
t130.5 27q60 0 107.5 -20t74 -52.5t40 -69.5t13.5 -76zM383 316q3 33 -18.5 54.5t-63.5 21.5q-73 0 -99 -76h181z" />
    <glyph glyph-name="Ecaron" unicode="&#x11a;" horiz-adv-x="593" 
d="M322 756l-88 148h112l59 -66l77 66h120l-135 -148h-145zM24 0l111 700h493l-24 -152h-314l-17 -104h247l-24 -152h-247l-22 -140h325l-24 -152h-504z" />
    <glyph glyph-name="ecaron" unicode="&#x11b;" horiz-adv-x="575" 
d="M402 560h-145l-88 148h112l59 -66l77 66h120zM555 294q0 -44 -15 -89h-347q13 -77 96 -77q30 0 52 15t29 40l154 -44q-23 -66 -93 -106.5t-163 -40.5q-106 0 -171.5 64.5t-65.5 170.5q0 48 17 96.5t50.5 91.5t91 70t130.5 27q60 0 107.5 -20t74 -52.5t40 -69.5t13.5 -76z
M383 316q3 33 -18.5 54.5t-63.5 21.5q-73 0 -99 -76h181z" />
    <glyph glyph-name="Gcircumflex" unicode="&#x11c;" horiz-adv-x="761" 
d="M415 904h145l89 -148h-114l-59 66l-76 -66h-119zM340 -8q-128 0 -213 78.5t-85 220.5q0 100 36.5 181t97.5 131.5t136 77.5t156 27q136 0 212.5 -65t77.5 -180l-181 -36q-2 59 -39 94t-96 35q-95 0 -157 -67t-62 -177q0 -78 41 -123t110 -45q61 0 107 28.5t62 74.5h-173
l22 140h338l-61 -387h-163l10 62q-26 -32 -74 -51t-102 -19z" />
    <glyph glyph-name="gcircumflex" unicode="&#x11d;" horiz-adv-x="596" 
d="M350 626l-76 -66h-119l134 148h145l89 -148h-114zM586 504l-64 -405h-1l-9 -59q-16 -104 -98.5 -167t-202.5 -63q-90 0 -149 44.5t-63 116.5l155 23q1 -27 23 -41.5t54 -14.5q47 0 78 23t37 61l6 40q-50 -45 -126 -45q-92 0 -143.5 53.5t-51.5 148.5q0 132 75.5 212.5
t193.5 80.5q80 0 116 -43l6 35h164zM194 245q0 -40 22 -64t61 -24q52 0 84.5 35.5t32.5 91.5q0 41 -22 64.5t-61 23.5q-51 0 -84 -35.5t-33 -91.5z" />
    <glyph glyph-name="Gbreve" unicode="&#x11e;" horiz-adv-x="761" 
d="M465 753q-64 0 -99.5 40.5t-25.5 102.5h116q-6 -42 25 -42q34 0 40 42h116q-10 -62 -59 -102.5t-113 -40.5zM340 -8q-128 0 -213 78.5t-85 220.5q0 100 36.5 181t97.5 131.5t136 77.5t156 27q136 0 212.5 -65t77.5 -180l-181 -36q-2 59 -39 94t-96 35q-95 0 -157 -67
t-62 -177q0 -78 41 -123t110 -45q61 0 107 28.5t62 74.5h-173l22 140h338l-61 -387h-163l10 62q-26 -32 -74 -51t-102 -19z" />
    <glyph glyph-name="gbreve" unicode="&#x11f;" horiz-adv-x="596" 
d="M339 557q-64 0 -99.5 40.5t-25.5 102.5h116q-6 -42 25 -42q34 0 40 42h116q-10 -62 -59 -102.5t-113 -40.5zM586 504l-64 -405h-1l-9 -59q-16 -104 -98.5 -167t-202.5 -63q-90 0 -149 44.5t-63 116.5l155 23q1 -27 23 -41.5t54 -14.5q47 0 78 23t37 61l6 40
q-50 -45 -126 -45q-92 0 -143.5 53.5t-51.5 148.5q0 132 75.5 212.5t193.5 80.5q80 0 116 -43l6 35h164zM194 245q0 -40 22 -64t61 -24q52 0 84.5 35.5t32.5 91.5q0 41 -22 64.5t-61 23.5q-51 0 -84 -35.5t-33 -91.5z" />
    <glyph glyph-name="Gdotaccent" unicode="&#x120;" horiz-adv-x="761" 
d="M404 904h172l-24 -151h-172zM340 -8q-128 0 -213 78.5t-85 220.5q0 100 36.5 181t97.5 131.5t136 77.5t156 27q136 0 212.5 -65t77.5 -180l-181 -36q-2 59 -39 94t-96 35q-95 0 -157 -67t-62 -177q0 -78 41 -123t110 -45q61 0 107 28.5t62 74.5h-173l22 140h338l-61 -387
h-163l10 62q-26 -32 -74 -51t-102 -19z" />
    <glyph glyph-name="gdotaccent" unicode="&#x121;" horiz-adv-x="596" 
d="M450 708l-24 -151h-172l24 151h172zM586 504l-64 -405h-1l-9 -59q-16 -104 -98.5 -167t-202.5 -63q-90 0 -149 44.5t-63 116.5l155 23q1 -27 23 -41.5t54 -14.5q47 0 78 23t37 61l6 40q-50 -45 -126 -45q-92 0 -143.5 53.5t-51.5 148.5q0 132 75.5 212.5t193.5 80.5
q80 0 116 -43l6 35h164zM194 245q0 -40 22 -64t61 -24q52 0 84.5 35.5t32.5 91.5q0 41 -22 64.5t-61 23.5q-51 0 -84 -35.5t-33 -91.5z" />
    <glyph glyph-name="uni0122" unicode="&#x122;" horiz-adv-x="761" 
d="M340 -8q-128 0 -213 78.5t-85 220.5q0 100 36.5 181t97.5 131.5t136 77.5t156 27q136 0 212.5 -65t77.5 -180l-181 -36q-2 59 -39 94t-96 35q-95 0 -157 -67t-62 -177q0 -78 41 -123t110 -45q61 0 107 28.5t62 74.5h-173l22 140h338l-61 -387h-163l10 62q-26 -32 -74 -51
t-102 -19zM195 -190l57 148h175l-117 -148h-115z" />
    <glyph glyph-name="uni0123" unicode="&#x123;" horiz-adv-x="596" 
d="M492 708l-47 -148h-169l88 148h128zM586 504l-64 -405h-1l-9 -59q-16 -104 -98.5 -167t-202.5 -63q-90 0 -149 44.5t-63 116.5l155 23q1 -27 23 -41.5t54 -14.5q47 0 78 23t37 61l6 40q-50 -45 -126 -45q-92 0 -143.5 53.5t-51.5 148.5q0 132 75.5 212.5t193.5 80.5
q80 0 116 -43l6 35h164zM194 245q0 -40 22 -64t61 -24q52 0 84.5 35.5t32.5 91.5q0 41 -22 64.5t-61 23.5q-51 0 -84 -35.5t-33 -91.5z" />
    <glyph glyph-name="Hcircumflex" unicode="&#x124;" horiz-adv-x="730" 
d="M459 822l-76 -66h-119l134 148h145l89 -148h-114zM566 700h179l-111 -700h-179l45 282h-252l-45 -282h-179l111 700h179l-42 -266h252z" />
    <glyph glyph-name="hcircumflex" unicode="&#x125;" 
d="M170 904h145l89 -148h-114l-59 66l-76 -66h-119zM18 0l112 708h165l-41 -262q59 66 158 66q85 0 128 -50.5t30 -134.5l-52 -327h-165l45 282q6 38 -12 61t-53 23q-92 0 -115 -145l-35 -221h-165z" />
    <glyph glyph-name="Hbar" unicode="&#x126;" horiz-adv-x="730" 
d="M791 632l-20 -128h-57l-80 -504h-179l45 282h-252l-45 -282h-179l80 504h-58l20 128h58l11 68h179l-11 -68h252l11 68h179l-11 -68h57zM524 434l11 70h-252l-11 -70h252z" />
    <glyph glyph-name="hbar" unicode="&#x127;" 
d="M412 512q85 0 128 -50.5t30 -134.5l-52 -327h-165l45 282q6 38 -12 61t-53 23q-92 0 -115 -145l-35 -221h-165l88 556h-64l17 108h64l7 44h165l-7 -44h110l-17 -108h-110l-17 -110q59 66 158 66z" />
    <glyph glyph-name="Itilde" unicode="&#x128;" horiz-adv-x="299" 
d="M126 751l-109 16q14 68 60.5 109.5t108.5 41.5q47 0 89 -27q5 -3 11.5 -7.5t9 -6t7 -4t8.5 -3t9 -0.5q26 0 41 53l110 -16q-13 -68 -60 -110t-109 -42q-48 0 -88 27q-31 21 -46 21q-26 0 -42 -52zM24 0l111 700h179l-111 -700h-179z" />
    <glyph glyph-name="itilde" unicode="&#x129;" horiz-adv-x="273" 
d="M82 555l-109 16q14 68 60.5 109.5t108.5 41.5q47 0 89 -27q5 -3 11.5 -7.5t9 -6t7 -4t8.5 -3t9 -0.5q26 0 41 53l110 -16q-13 -68 -60 -110t-109 -42q-48 0 -88 27q-31 21 -46 21q-26 0 -42 -52zM18 0l80 504h165l-80 -504h-165z" />
    <glyph glyph-name="Imacron" unicode="&#x12a;" horiz-adv-x="299" 
d="M91 774l19 122h288l-19 -122h-288zM24 0l111 700h179l-111 -700h-179z" />
    <glyph glyph-name="imacron" unicode="&#x12b;" horiz-adv-x="273" 
d="M47 578l19 122h288l-19 -122h-288zM18 0l80 504h165l-80 -504h-165z" />
    <glyph glyph-name="Ibreve" unicode="&#x12c;" horiz-adv-x="299" 
d="M232 753q-64 0 -99.5 40.5t-25.5 102.5h116q-6 -42 25 -42q34 0 40 42h116q-10 -62 -59 -102.5t-113 -40.5zM24 0l111 700h179l-111 -700h-179z" />
    <glyph glyph-name="ibreve" unicode="&#x12d;" horiz-adv-x="273" 
d="M188 557q-64 0 -99.5 40.5t-25.5 102.5h116q-6 -42 25 -42q34 0 40 42h116q-10 -62 -59 -102.5t-113 -40.5zM18 0l80 504h165l-80 -504h-165z" />
    <glyph glyph-name="Iogonek" unicode="&#x12e;" horiz-adv-x="299" 
d="M168 -57q0 -25 29 -25q14 0 20 3l-2 -103q-19 -8 -63 -8q-51 0 -81.5 24.5t-30.5 65.5q0 52 48 100h-64l111 700h179l-111 -700l-7.5 -7.5t-9.5 -10.5t-8 -11t-7.5 -14t-2.5 -14z" />
    <glyph glyph-name="iogonek" unicode="&#x12f;" horiz-adv-x="273" 
d="M127 708h172l-24 -151h-172zM263 504l-80 -504l-7.5 -7.5t-9.5 -10.5t-8 -11t-7.5 -14t-2.5 -14q0 -25 29 -25q14 0 20 3l-2 -103q-19 -8 -63 -8q-51 0 -81.5 24.5t-30.5 65.5q0 52 48 100h-50l80 504h165z" />
    <glyph glyph-name="Idotaccent" unicode="&#x130;" horiz-adv-x="299" 
d="M171 904h172l-24 -151h-172zM24 0l111 700h179l-111 -700h-179z" />
    <glyph glyph-name="dotlessi" unicode="&#x131;" horiz-adv-x="273" 
d="M18 0l80 504h165l-80 -504h-165z" />
    <glyph glyph-name="IJ" unicode="&#x132;" horiz-adv-x="682" 
d="M24 0l111 700h179l-111 -700h-179zM313 155q19 -4 41 -4q87 0 100 81l74 468h168l-76 -477q-18 -112 -83 -170t-163 -58q-38 0 -86 8z" />
    <glyph glyph-name="Jcircumflex" unicode="&#x134;" horiz-adv-x="383" 
d="M270 904h145l89 -148h-114l-59 66l-76 -66h-119zM14 155q19 -4 41 -4q87 0 100 81l74 468h168l-76 -477q-18 -112 -83 -170t-163 -58q-38 0 -86 8z" />
    <glyph glyph-name="jcircumflex" unicode="&#x135;" horiz-adv-x="278" 
d="M149 708h145l89 -148h-114l-59 66l-76 -66h-119zM-57 -190l-43 2l20 142q15 -1 26 -1q75 0 89 90l73 461h165l-77 -484q-16 -97 -84.5 -153.5t-168.5 -56.5z" />
    <glyph glyph-name="uni0136" unicode="&#x136;" horiz-adv-x="714" 
d="M775 700l-319 -288l219 -412h-226l-137 282l-75 -68l-34 -214h-179l111 700h179l-38 -238l256 238h243zM163 -190l57 148h175l-117 -148h-115z" />
    <glyph glyph-name="uni0137" unicode="&#x137;" horiz-adv-x="591" 
d="M618 504l-226 -199l160 -305h-196l-89 195l-61 -53l-22 -142h-166l112 708h166l-57 -359l171 155h208zM100 -190l57 148h175l-117 -148h-115z" />
    <glyph glyph-name="kgreenlandic" unicode="&#x138;" horiz-adv-x="591" 
d="M618 504l-226 -199l160 -305h-196l-89 195l-60 -53l-23 -142h-166l80 504h166l-24 -154l172 154h206z" />
    <glyph glyph-name="Lacute" unicode="&#x139;" horiz-adv-x="553" 
d="M155 756l77 148h185l-147 -148h-115zM24 0l111 700h179l-87 -548h304l-24 -152h-483z" />
    <glyph glyph-name="lacute" unicode="&#x13a;" horiz-adv-x="273" 
d="M142 756l77 148h185l-147 -148h-115zM18 0l112 708h165l-112 -708h-165z" />
    <glyph glyph-name="uni013B" unicode="&#x13b;" horiz-adv-x="553" 
d="M24 0l111 700h179l-87 -548h304l-24 -152h-483zM84 -190l57 148h175l-117 -148h-115z" />
    <glyph glyph-name="uni013C" unicode="&#x13c;" horiz-adv-x="273" 
d="M18 0l112 708h165l-112 -708h-165zM-46 -190l57 148h175l-117 -148h-115z" />
    <glyph glyph-name="Lcaron" unicode="&#x13d;" horiz-adv-x="553" 
d="M342 560l61 197h153l-121 -197h-93zM24 0l111 700h179l-87 -548h304l-24 -152h-483z" />
    <glyph glyph-name="lcaron" unicode="&#x13e;" horiz-adv-x="425" 
d="M305 560l61 197h153l-121 -197h-93zM18 0l112 708h165l-112 -708h-165z" />
    <glyph glyph-name="Ldot" unicode="&#x13f;" horiz-adv-x="553" 
d="M24 0l111 700h179l-87 -548h304l-24 -152h-483zM354 424h167l-25 -159h-167z" />
    <glyph glyph-name="ldot" unicode="&#x140;" horiz-adv-x="507" 
d="M18 0l112 708h165l-112 -708h-165zM295 427h167l-25 -159h-167z" />
    <glyph glyph-name="Lslash" unicode="&#x141;" horiz-adv-x="553" 
d="M227 152h304l-24 -152h-483l37 234l-83 -36l21 135l84 36l52 331h179l-39 -247l146 63l-21 -134l-147 -64z" />
    <glyph glyph-name="lslash" unicode="&#x142;" horiz-adv-x="381" 
d="M381 513l-21 -135l-92 -40l-53 -338h-165l41 261l-91 -40l21 135l92 40l49 312h165l-37 -235z" />
    <glyph glyph-name="Nacute" unicode="&#x143;" horiz-adv-x="706" 
d="M359 756l77 148h185l-147 -148h-115zM24 0l111 700h174l181 -418l66 418h165l-111 -700h-174l-181 418l-66 -418h-165z" />
    <glyph glyph-name="nacute" unicode="&#x144;" 
d="M277 560l77 148h185l-147 -148h-115zM18 0l80 504h165l-9 -58q59 66 158 66q85 0 128 -50.5t30 -134.5l-52 -327h-165l45 282q6 38 -12 61t-53 23q-92 0 -115 -145l-35 -221h-165z" />
    <glyph glyph-name="uni0145" unicode="&#x145;" horiz-adv-x="706" 
d="M24 0l111 700h174l181 -418l66 418h165l-111 -700h-174l-181 418l-66 -418h-165zM171 -190l57 148h175l-117 -148h-115z" />
    <glyph glyph-name="uni0146" unicode="&#x146;" 
d="M18 0l80 504h165l-9 -58q59 66 158 66q85 0 128 -50.5t30 -134.5l-52 -327h-165l45 282q6 38 -12 61t-53 23q-92 0 -115 -145l-35 -221h-165zM120 -190l57 148h175l-117 -148h-115z" />
    <glyph glyph-name="Ncaron" unicode="&#x147;" horiz-adv-x="706" 
d="M364 756l-88 148h112l59 -66l77 66h120l-135 -148h-145zM24 0l111 700h174l181 -418l66 418h165l-111 -700h-174l-181 418l-66 -418h-165z" />
    <glyph glyph-name="ncaron" unicode="&#x148;" 
d="M282 560l-88 148h112l59 -66l77 66h120l-135 -148h-145zM18 0l80 504h165l-9 -58q59 66 158 66q85 0 128 -50.5t30 -134.5l-52 -327h-165l45 282q6 38 -12 61t-53 23q-92 0 -115 -145l-35 -221h-165z" />
    <glyph glyph-name="napostrophe" unicode="&#x149;" horiz-adv-x="611" 
d="M107 560l61 197h153l-121 -197h-93zM21 0l80 504h165l-9 -58q59 66 158 66q85 0 128 -50.5t30 -134.5l-52 -327h-165l45 282q6 38 -12 61t-53 23q-92 0 -115 -145l-35 -221h-165z" />
    <glyph glyph-name="Eng" unicode="&#x14a;" horiz-adv-x="706" 
d="M721 700l-31 -196l-80 -504q-15 -97 -98 -155.5t-201 -51.5l23 141q46 -4 72 11t38 57l-189 416l-66 -418h-165l111 700h174l181 -418l66 418h165z" />
    <glyph glyph-name="eng" unicode="&#x14b;" 
d="M412 512q85 0 128 -50.5t30 -134.5l-16 -101l-36 -226q-13 -85 -88 -137.5t-184 -52.5q-16 0 -24 1l20 141q7 -1 22 -1q43 0 65.5 22.5t31.5 77.5l28 175l9 56q6 38 -12 61t-53 23q-92 0 -115 -145l-35 -221h-165l80 504h165l-9 -58q59 66 158 66z" />
    <glyph glyph-name="Omacron" unicode="&#x14c;" horiz-adv-x="787" 
d="M337 774l19 122h288l-19 -122h-288zM369 -8q-140 0 -232.5 87.5t-92.5 220.5q0 183 114 295.5t300 112.5q138 0 230.5 -88t92.5 -220q0 -184 -113.5 -296t-298.5 -112zM394 144q89 0 148.5 68.5t59.5 169.5q0 75 -49 124.5t-122 49.5q-90 0 -148.5 -68.5t-58.5 -169.5
q0 -76 48 -125t122 -49z" />
    <glyph glyph-name="omacron" unicode="&#x14d;" horiz-adv-x="596" 
d="M209 578l19 122h288l-19 -122h-288zM274 -8q-106 0 -175.5 64t-69.5 160q0 126 85.5 211t215.5 85q105 0 174.5 -63t69.5 -160q0 -125 -86 -211t-214 -86zM288 132q53 0 86.5 39.5t33.5 101.5q0 44 -25.5 71.5t-66.5 27.5q-54 0 -87 -39t-33 -102q0 -44 25.5 -71.5
t66.5 -27.5z" />
    <glyph glyph-name="Obreve" unicode="&#x14e;" horiz-adv-x="787" 
d="M478 753q-64 0 -99.5 40.5t-25.5 102.5h116q-6 -42 25 -42q34 0 40 42h116q-10 -62 -59 -102.5t-113 -40.5zM369 -8q-140 0 -232.5 87.5t-92.5 220.5q0 183 114 295.5t300 112.5q138 0 230.5 -88t92.5 -220q0 -184 -113.5 -296t-298.5 -112zM394 144q89 0 148.5 68.5
t59.5 169.5q0 75 -49 124.5t-122 49.5q-90 0 -148.5 -68.5t-58.5 -169.5q0 -76 48 -125t122 -49z" />
    <glyph glyph-name="obreve" unicode="&#x14f;" horiz-adv-x="596" 
d="M350 557q-64 0 -99.5 40.5t-25.5 102.5h116q-6 -42 25 -42q34 0 40 42h116q-10 -62 -59 -102.5t-113 -40.5zM274 -8q-106 0 -175.5 64t-69.5 160q0 126 85.5 211t215.5 85q105 0 174.5 -63t69.5 -160q0 -125 -86 -211t-214 -86zM288 132q53 0 86.5 39.5t33.5 101.5
q0 44 -25.5 71.5t-66.5 27.5q-54 0 -87 -39t-33 -102q0 -44 25.5 -71.5t66.5 -27.5z" />
    <glyph glyph-name="Ohungarumlaut" unicode="&#x150;" horiz-adv-x="787" 
d="M309 756l77 148h134l-86 -148h-125zM499 756l77 148h144l-96 -148h-125zM369 -8q-140 0 -232.5 87.5t-92.5 220.5q0 183 114 295.5t300 112.5q138 0 230.5 -88t92.5 -220q0 -184 -113.5 -296t-298.5 -112zM394 144q89 0 148.5 68.5t59.5 169.5q0 75 -49 124.5t-122 49.5
q-90 0 -148.5 -68.5t-58.5 -169.5q0 -76 48 -125t122 -49z" />
    <glyph glyph-name="ohungarumlaut" unicode="&#x151;" horiz-adv-x="596" 
d="M181 560l77 148h134l-86 -148h-125zM371 560l77 148h144l-96 -148h-125zM274 -8q-106 0 -175.5 64t-69.5 160q0 126 85.5 211t215.5 85q105 0 174.5 -63t69.5 -160q0 -125 -86 -211t-214 -86zM288 132q53 0 86.5 39.5t33.5 101.5q0 44 -25.5 71.5t-66.5 27.5
q-54 0 -87 -39t-33 -102q0 -44 25.5 -71.5t66.5 -27.5z" />
    <glyph glyph-name="OE" unicode="&#x152;" horiz-adv-x="1114" 
d="M1125 548h-314l-17 -104h247l-24 -152h-247l-22 -140h325l-24 -152h-504l4 26q-82 -34 -180 -34q-140 0 -232.5 87.5t-92.5 220.5q0 183 114 295.5t300 112.5q109 0 190 -56l8 48h493zM394 144q77 0 132.5 51.5t70.5 133.5l3 15q2 24 2 38q0 75 -49 124.5t-122 49.5
q-90 0 -148.5 -68.5t-58.5 -169.5q0 -76 48 -125t122 -49z" />
    <glyph glyph-name="oe" unicode="&#x153;" horiz-adv-x="950" 
d="M930 294q0 -44 -15 -89h-347q13 -77 96 -77q30 0 52 15t29 40l154 -44q-23 -66 -93 -106.5t-163 -40.5q-109 0 -175 68q-81 -68 -194 -68q-106 0 -175.5 64t-69.5 160q0 126 85.5 211t215.5 85q106 0 176 -64q76 64 189 64q60 0 107.5 -20t74 -52.5t40 -69.5t13.5 -76z
M758 316q3 33 -18.5 54.5t-63.5 21.5q-73 0 -99 -76h181zM288 132q53 0 86.5 39.5t33.5 101.5q0 44 -25.5 71.5t-66.5 27.5q-54 0 -87 -39t-33 -102q0 -44 25.5 -71.5t66.5 -27.5z" />
    <glyph glyph-name="Racute" unicode="&#x154;" horiz-adv-x="668" 
d="M564 904l-147 -148h-115l77 148h185zM622 515q0 -65 -34 -122.5t-91 -91.5l125 -301h-210l-98 262h-68l-41 -262h-179l109 700h287q93 0 146.5 -50t53.5 -135zM292 548l-21 -134h74q45 0 70.5 20.5t25.5 56.5q0 57 -75 57h-74z" />
    <glyph glyph-name="racute" unicode="&#x155;" horiz-adv-x="427" 
d="M210 560l77 148h185l-147 -148h-115zM426 345q-22 12 -61 12q-54 0 -96.5 -42t-57.5 -136l-28 -179h-165l80 504h165l-13 -83q22 38 68.5 64.5t91.5 26.5q32 0 51 -8z" />
    <glyph glyph-name="uni0156" unicode="&#x156;" horiz-adv-x="668" 
d="M622 515q0 -65 -34 -122.5t-91 -91.5l125 -301h-210l-98 262h-68l-41 -262h-179l109 700h287q93 0 146.5 -50t53.5 -135zM292 548l-21 -134h74q45 0 70.5 20.5t25.5 56.5q0 57 -75 57h-74zM137 -190l57 148h175l-117 -148h-115z" />
    <glyph glyph-name="uni0157" unicode="&#x157;" horiz-adv-x="427" 
d="M426 345q-22 12 -61 12q-54 0 -96.5 -42t-57.5 -136l-28 -179h-165l80 504h165l-13 -83q22 38 68.5 64.5t91.5 26.5q32 0 51 -8zM-54 -190l57 148h175l-117 -148h-115z" />
    <glyph glyph-name="Rcaron" unicode="&#x158;" horiz-adv-x="668" 
d="M452 756h-145l-88 148h112l59 -66l77 66h120zM622 515q0 -65 -34 -122.5t-91 -91.5l125 -301h-210l-98 262h-68l-41 -262h-179l109 700h287q93 0 146.5 -50t53.5 -135zM292 548l-21 -134h74q45 0 70.5 20.5t25.5 56.5q0 57 -75 57h-74z" />
    <glyph glyph-name="rcaron" unicode="&#x159;" horiz-adv-x="427" 
d="M215 560l-88 148h112l59 -66l77 66h120l-135 -148h-145zM426 345q-22 12 -61 12q-54 0 -96.5 -42t-57.5 -136l-28 -179h-165l80 504h165l-13 -83q22 38 68.5 64.5t91.5 26.5q32 0 51 -8z" />
    <glyph glyph-name="Sacute" unicode="&#x15a;" horiz-adv-x="596" 
d="M300 756l77 148h185l-147 -148h-115zM288 -8q-117 0 -191.5 65t-72.5 168l163 27q-5 -49 25.5 -79.5t88.5 -30.5q38 0 63.5 20t25.5 50q0 27 -31 44.5t-75 31t-88.5 33t-75.5 62t-31 105.5q0 93 80.5 156.5t186.5 63.5q111 0 183 -52.5t79 -140.5l-168 -45
q-2 38 -31.5 63t-75.5 25q-35 0 -54 -13.5t-19 -36.5q0 -18 17 -30t43.5 -20.5t59 -17t65.5 -23.5t59.5 -36.5t43.5 -59t17 -87.5q0 -106 -80.5 -174t-206.5 -68z" />
    <glyph glyph-name="sacute" unicode="&#x15b;" horiz-adv-x="462" 
d="M204 560l77 148h185l-147 -148h-115zM210 -8q-88 0 -144 46.5t-66 116.5l135 38q1 -34 25.5 -56t62.5 -22q26 0 41 10.5t15 28.5q0 15 -23.5 26t-56.5 20.5t-66 24t-56.5 46.5t-23.5 78q0 70 57.5 116.5t148.5 46.5q82 0 136.5 -35.5t63.5 -97.5l-140 -44q-4 30 -25.5 46
t-45.5 16q-21 0 -35 -8t-14 -22q0 -17 24 -27.5t58.5 -20t69 -23.5t58.5 -45.5t24 -78.5q0 -78 -62.5 -129t-160.5 -51z" />
    <glyph glyph-name="Scircumflex" unicode="&#x15c;" horiz-adv-x="596" 
d="M327 904h145l89 -148h-114l-59 66l-76 -66h-119zM288 -8q-117 0 -191.5 65t-72.5 168l163 27q-5 -49 25.5 -79.5t88.5 -30.5q38 0 63.5 20t25.5 50q0 27 -31 44.5t-75 31t-88.5 33t-75.5 62t-31 105.5q0 93 80.5 156.5t186.5 63.5q111 0 183 -52.5t79 -140.5l-168 -45
q-2 38 -31.5 63t-75.5 25q-35 0 -54 -13.5t-19 -36.5q0 -18 17 -30t43.5 -20.5t59 -17t65.5 -23.5t59.5 -36.5t43.5 -59t17 -87.5q0 -106 -80.5 -174t-206.5 -68z" />
    <glyph glyph-name="scircumflex" unicode="&#x15d;" horiz-adv-x="462" 
d="M231 708h145l89 -148h-114l-59 66l-76 -66h-119zM210 -8q-88 0 -144 46.5t-66 116.5l135 38q1 -34 25.5 -56t62.5 -22q26 0 41 10.5t15 28.5q0 15 -23.5 26t-56.5 20.5t-66 24t-56.5 46.5t-23.5 78q0 70 57.5 116.5t148.5 46.5q82 0 136.5 -35.5t63.5 -97.5l-140 -44
q-4 30 -25.5 46t-45.5 16q-21 0 -35 -8t-14 -22q0 -17 24 -27.5t58.5 -20t69 -23.5t58.5 -45.5t24 -78.5q0 -78 -62.5 -129t-160.5 -51z" />
    <glyph glyph-name="Scedilla" unicode="&#x15e;" horiz-adv-x="596" 
d="M270 508q0 -18 17 -30t43.5 -20.5t59 -17t65.5 -23.5t59.5 -36.5t43.5 -59t17 -87.5q0 -96 -66.5 -161.5t-174.5 -77.5l-76 -143h-185l147 147q-91 18 -144.5 78.5t-51.5 147.5l163 27q-5 -49 25.5 -79.5t88.5 -30.5q38 0 63.5 20t25.5 50q0 27 -31 44.5t-75 31t-88.5 33
t-75.5 62t-31 105.5q0 93 80.5 156.5t186.5 63.5q111 0 183 -52.5t79 -140.5l-168 -45q-2 38 -31.5 63t-75.5 25q-35 0 -54 -13.5t-19 -36.5z" />
    <glyph glyph-name="scedilla" unicode="&#x15f;" horiz-adv-x="462" 
d="M199 367q0 -17 24 -27.5t58.5 -20t69 -23.5t58.5 -45.5t24 -78.5q0 -66 -46 -113.5t-123 -61.5l-77 -145h-185l147 147q-62 15 -101 57.5t-48 98.5l135 38q1 -34 25.5 -56t62.5 -22q26 0 41 10.5t15 28.5q0 15 -23.5 26t-56.5 20.5t-66 24t-56.5 46.5t-23.5 78
q0 70 57.5 116.5t148.5 46.5q82 0 136.5 -35.5t63.5 -97.5l-140 -44q-4 30 -25.5 46t-45.5 16q-21 0 -35 -8t-14 -22z" />
    <glyph glyph-name="Scaron" unicode="&#x160;" horiz-adv-x="596" 
d="M305 756l-88 148h112l59 -66l77 66h120l-135 -148h-145zM288 -8q-117 0 -191.5 65t-72.5 168l163 27q-5 -49 25.5 -79.5t88.5 -30.5q38 0 63.5 20t25.5 50q0 27 -31 44.5t-75 31t-88.5 33t-75.5 62t-31 105.5q0 93 80.5 156.5t186.5 63.5q111 0 183 -52.5t79 -140.5
l-168 -45q-2 38 -31.5 63t-75.5 25q-35 0 -54 -13.5t-19 -36.5q0 -18 17 -30t43.5 -20.5t59 -17t65.5 -23.5t59.5 -36.5t43.5 -59t17 -87.5q0 -106 -80.5 -174t-206.5 -68z" />
    <glyph glyph-name="scaron" unicode="&#x161;" horiz-adv-x="462" 
d="M209 560l-88 148h112l59 -66l77 66h120l-135 -148h-145zM210 -8q-88 0 -144 46.5t-66 116.5l135 38q1 -34 25.5 -56t62.5 -22q26 0 41 10.5t15 28.5q0 15 -23.5 26t-56.5 20.5t-66 24t-56.5 46.5t-23.5 78q0 70 57.5 116.5t148.5 46.5q82 0 136.5 -35.5t63.5 -97.5
l-140 -44q-4 30 -25.5 46t-45.5 16q-21 0 -35 -8t-14 -22q0 -17 24 -27.5t58.5 -20t69 -23.5t58.5 -45.5t24 -78.5q0 -78 -62.5 -129t-160.5 -51z" />
    <glyph glyph-name="uni0162" unicode="&#x162;" horiz-adv-x="605" 
d="M88 700h579l-24 -152h-200l-87 -548l-79 -148h-185l148 148h-63l87 548h-200z" />
    <glyph glyph-name="uni0163" unicode="&#x163;" horiz-adv-x="404" 
d="M281 368l-26 -164q-5 -31 7.5 -49.5t38.5 -18.5q33 0 56 11l-10 -141q-35 -11 -70 -14l-75 -140h-185l155 155q-106 42 -86 171l30 190h-77l22 136h77l23 144h165l-23 -144h119l-22 -136h-119z" />
    <glyph glyph-name="Tcaron" unicode="&#x164;" horiz-adv-x="605" 
d="M314 756l-88 148h112l59 -66l77 66h120l-135 -148h-145zM177 0l87 548h-200l24 152h579l-24 -152h-200l-87 -548h-179z" />
    <glyph glyph-name="tcaron" unicode="&#x165;" horiz-adv-x="404" 
d="M363 560l61 197h153l-121 -197h-93zM347 6q-40 -14 -85 -14q-92 0 -141 48t-35 138l30 190h-77l22 136h77l23 144h165l-23 -144h119l-22 -136h-119l-26 -164q-5 -31 7.5 -49.5t38.5 -18.5q33 0 56 11z" />
    <glyph glyph-name="Tbar" unicode="&#x166;" horiz-adv-x="605" 
d="M643 548h-200l-18 -114h153l-21 -128h-152l-49 -306h-179l49 306h-167l21 128h166l18 114h-200l24 152h579z" />
    <glyph glyph-name="tbar" unicode="&#x167;" horiz-adv-x="404" 
d="M400 368h-119l-10 -61h101l-17 -108h-101q-3 -29 9.5 -46t37.5 -17q33 0 56 11l-10 -141q-40 -14 -85 -14q-92 0 -141 48t-35 138l3 21h-73l17 108h73l10 61h-77l22 136h77l23 144h165l-23 -144h119z" />
    <glyph glyph-name="Utilde" unicode="&#x168;" horiz-adv-x="691" 
d="M323 751l-109 16q14 68 60.5 109.5t108.5 41.5q47 0 89 -27q5 -3 11.5 -7.5t9 -6t7 -4t8.5 -3t9 -0.5q26 0 41 53l110 -16q-13 -68 -60 -110t-109 -42q-48 0 -88 27q-31 21 -46 21q-26 0 -42 -52zM309 -8q-128 0 -195 75.5t-48 198.5l69 434h164l-68 -432
q-9 -55 19 -88.5t83 -33.5q58 0 94 31.5t46 90.5l68 432h165l-69 -434q-22 -133 -106.5 -203.5t-221.5 -70.5z" />
    <glyph glyph-name="utilde" unicode="&#x169;" 
d="M244 555l-109 16q14 68 60.5 109.5t108.5 41.5q47 0 89 -27q5 -3 11.5 -7.5t9 -6t7 -4t8.5 -3t9 -0.5q26 0 41 53l110 -16q-13 -68 -60 -110t-109 -42q-48 0 -88 27q-31 21 -46 21q-26 0 -42 -52zM598 504l-80 -504h-165l9 58q-59 -66 -158 -66q-85 0 -128 50.5
t-30 134.5l52 327h165l-45 -282q-6 -38 12 -61t53 -23q92 0 115 145l35 221h165z" />
    <glyph glyph-name="Umacron" unicode="&#x16a;" horiz-adv-x="691" 
d="M288 774l19 122h288l-19 -122h-288zM309 -8q-128 0 -195 75.5t-48 198.5l69 434h164l-68 -432q-9 -55 19 -88.5t83 -33.5q58 0 94 31.5t46 90.5l68 432h165l-69 -434q-22 -133 -106.5 -203.5t-221.5 -70.5z" />
    <glyph glyph-name="umacron" unicode="&#x16b;" 
d="M209 578l19 122h288l-19 -122h-288zM598 504l-80 -504h-165l9 58q-59 -66 -158 -66q-85 0 -128 50.5t-30 134.5l52 327h165l-45 -282q-6 -38 12 -61t53 -23q92 0 115 145l35 221h165z" />
    <glyph glyph-name="Ubreve" unicode="&#x16c;" horiz-adv-x="691" 
d="M429 753q-64 0 -99.5 40.5t-25.5 102.5h116q-6 -42 25 -42q34 0 40 42h116q-10 -62 -59 -102.5t-113 -40.5zM309 -8q-128 0 -195 75.5t-48 198.5l69 434h164l-68 -432q-9 -55 19 -88.5t83 -33.5q58 0 94 31.5t46 90.5l68 432h165l-69 -434q-22 -133 -106.5 -203.5
t-221.5 -70.5z" />
    <glyph glyph-name="ubreve" unicode="&#x16d;" 
d="M350 557q-64 0 -99.5 40.5t-25.5 102.5h116q-6 -42 25 -42q34 0 40 42h116q-10 -62 -59 -102.5t-113 -40.5zM598 504l-80 -504h-165l9 58q-59 -66 -158 -66q-85 0 -128 50.5t-30 134.5l52 327h165l-45 -282q-6 -38 12 -61t53 -23q92 0 115 145l35 221h165z" />
    <glyph glyph-name="Uring" unicode="&#x16e;" horiz-adv-x="691" 
d="M421 734q-53 0 -88 33.5t-35 83.5t35 83.5t88 33.5q54 0 89 -33.5t35 -83.5t-35 -83.5t-89 -33.5zM421 811q19 0 31 11t12 29t-12 29t-31 11q-18 0 -30 -11t-12 -29t12 -29t30 -11zM309 -8q-128 0 -195 75.5t-48 198.5l69 434h164l-68 -432q-9 -55 19 -88.5t83 -33.5
q58 0 94 31.5t46 90.5l68 432h165l-69 -434q-22 -133 -106.5 -203.5t-221.5 -70.5z" />
    <glyph glyph-name="uring" unicode="&#x16f;" 
d="M342 538q-53 0 -88 33.5t-35 83.5t35 83.5t88 33.5q54 0 89 -33.5t35 -83.5t-35 -83.5t-89 -33.5zM342 615q19 0 31 11t12 29t-12 29t-31 11q-18 0 -30 -11t-12 -29t12 -29t30 -11zM598 504l-80 -504h-165l9 58q-59 -66 -158 -66q-85 0 -128 50.5t-30 134.5l52 327h165
l-45 -282q-6 -38 12 -61t53 -23q92 0 115 145l35 221h165z" />
    <glyph glyph-name="Uhungarumlaut" unicode="&#x170;" horiz-adv-x="691" 
d="M260 756l77 148h134l-86 -148h-125zM450 756l77 148h144l-96 -148h-125zM309 -8q-128 0 -195 75.5t-48 198.5l69 434h164l-68 -432q-9 -55 19 -88.5t83 -33.5q58 0 94 31.5t46 90.5l68 432h165l-69 -434q-22 -133 -106.5 -203.5t-221.5 -70.5z" />
    <glyph glyph-name="uhungarumlaut" unicode="&#x171;" 
d="M181 560l77 148h134l-86 -148h-125zM371 560l77 148h144l-96 -148h-125zM598 504l-80 -504h-165l9 58q-59 -66 -158 -66q-85 0 -128 50.5t-30 134.5l52 327h165l-45 -282q-6 -38 12 -61t53 -23q92 0 115 145l35 221h165z" />
    <glyph glyph-name="Uogonek" unicode="&#x172;" horiz-adv-x="691" 
d="M541 700h165l-69 -434q-21 -127 -98.5 -197t-204.5 -76q-28 -28 -28 -50q0 -25 29 -25q14 0 20 3l-2 -103q-19 -8 -63 -8q-51 0 -81.5 24.5t-30.5 65.5q0 53 50 101q-91 23 -134.5 93.5t-27.5 171.5l69 434h164l-68 -432q-9 -55 19 -88.5t83 -33.5q58 0 94 31.5t46 90.5z
" />
    <glyph glyph-name="uogonek" unicode="&#x173;" 
d="M478 -57q0 -25 29 -25q14 0 20 3l-2 -103q-19 -8 -63 -8q-51 0 -81.5 24.5t-30.5 65.5q0 52 48 100h-45l9 58q-59 -66 -158 -66q-85 0 -128 50.5t-30 134.5l52 327h165l-45 -282q-6 -38 12 -61t53 -23q92 0 115 145l35 221h165l-80 -504h-5l-7.5 -7.5t-9.5 -10.5t-8 -11
t-7.5 -14t-2.5 -14z" />
    <glyph glyph-name="Wcircumflex" unicode="&#x174;" horiz-adv-x="1028" 
d="M547 904h145l89 -148h-114l-59 66l-76 -66h-119zM171 0l-83 700h183l27 -484l184 484h211l32 -483l181 483h184l-304 -700h-190l-45 464l-193 -464h-187z" />
    <glyph glyph-name="wcircumflex" unicode="&#x175;" horiz-adv-x="811" 
d="M409 708h145l89 -148h-114l-59 66l-76 -66h-119zM140 0l-78 504h165l22 -273l127 273h148l42 -273l107 273h165l-238 -504h-141l-44 277l-134 -277h-141z" />
    <glyph glyph-name="Ycircumflex" unicode="&#x176;" horiz-adv-x="647" 
d="M352 904h145l89 -148h-114l-59 66l-76 -66h-119zM194 0l46 288l-169 412h188l96 -246l176 246h187l-299 -412l-46 -288h-179z" />
    <glyph glyph-name="ycircumflex" unicode="&#x177;" horiz-adv-x="534" 
d="M326 626l-76 -66h-119l134 148h145l89 -148h-114zM409 504h161l-375 -686h-155l120 223l-116 463h170l53 -265z" />
    <glyph glyph-name="Ydieresis" unicode="&#x178;" horiz-adv-x="647" 
d="M239 904h150l-24 -150h-150zM462 904h150l-24 -150h-150zM194 0l46 288l-169 412h188l96 -246l176 246h187l-299 -412l-46 -288h-179z" />
    <glyph glyph-name="Zacute" unicode="&#x179;" horiz-adv-x="611" 
d="M319 756l77 148h185l-147 -148h-115zM-9 0l22 140l393 408h-313l24 152h531l-22 -140l-390 -408h328l-24 -152h-549z" />
    <glyph glyph-name="zacute" unicode="&#x17a;" horiz-adv-x="500" 
d="M245 560l77 148h185l-147 -148h-115zM-8 0l20 126l264 242h-208l22 136h418l-20 -126l-262 -242h234l-22 -136h-446z" />
    <glyph glyph-name="Zdotaccent" unicode="&#x17b;" horiz-adv-x="611" 
d="M335 904h172l-24 -151h-172zM-9 0l22 140l393 408h-313l24 152h531l-22 -140l-390 -408h328l-24 -152h-549z" />
    <glyph glyph-name="zdotaccent" unicode="&#x17c;" horiz-adv-x="500" 
d="M261 708h172l-24 -151h-172zM-8 0l20 126l264 242h-208l22 136h418l-20 -126l-262 -242h234l-22 -136h-446z" />
    <glyph glyph-name="Zcaron" unicode="&#x17d;" horiz-adv-x="611" 
d="M324 756l-88 148h112l59 -66l77 66h120l-135 -148h-145zM-9 0l22 140l393 408h-313l24 152h531l-22 -140l-390 -408h328l-24 -152h-549z" />
    <glyph glyph-name="zcaron" unicode="&#x17e;" horiz-adv-x="500" 
d="M250 560l-88 148h112l59 -66l77 66h120l-135 -148h-145zM-8 0l20 126l264 242h-208l22 136h418l-20 -126l-262 -242h234l-22 -136h-446z" />
    <glyph glyph-name="longs" unicode="&#x17f;" horiz-adv-x="391" 
d="M58 0l60 378h-77l20 126h77l5 31q15 91 80 142.5t155 51.5q45 0 81 -14l-33 -131q-24 11 -46 11q-30 0 -51.5 -18.5t-26.5 -51.5l-83 -525h-161z" />
    <glyph glyph-name="florin" unicode="&#x192;" horiz-adv-x="493" 
d="M476 595q-57 0 -78 -70l-6 -21h118l-20 -126h-136l-58 -192q-59 -194 -235 -194q-44 0 -81 14l33 131q25 -11 46 -11q57 0 78 70l55 182h-85l20 126h103l9 31q59 194 235 194q45 0 81 -14l-33 -131q-24 11 -46 11z" />
    <glyph glyph-name="Aringacute" unicode="&#x1fa;" horiz-adv-x="702" 
d="M426 734q-53 0 -88 33.5t-35 83.5q0 41 24.5 71.5t63.5 41.5l70 134h185l-147 -148h-4q55 -32 55 -99q0 -50 -35 -83.5t-89 -33.5zM426 891q-18 0 -30 -11t-12 -29t12 -29t30 -11q19 0 31 11t12 29t-12 29t-31 11zM477 0l-25 133h-231l-67 -133h-185l372 700h170
l150 -700h-184zM295 281h129l-35 186z" />
    <glyph glyph-name="aringacute" unicode="&#x1fb;" horiz-adv-x="554" 
d="M309 538q-53 0 -88 33.5t-35 83.5q0 41 24.5 71.5t63.5 41.5l70 134h185l-147 -148h-4q55 -32 55 -99q0 -50 -35 -83.5t-89 -33.5zM309 695q-18 0 -30 -11t-12 -29t12 -29t30 -11q19 0 31 11t12 29t-12 29t-31 11zM297 512q109 0 168 -67t41 -178l-42 -267h-160l9 56
q-22 -29 -62.5 -46.5t-84.5 -17.5q-66 0 -107.5 40t-41.5 98q0 77 64.5 124.5t179.5 56.5l94 8v2q5 33 -16.5 52t-60.5 19q-32 0 -55 -18.5t-28 -50.5l-141 26q14 72 85.5 117.5t157.5 45.5zM226 107q76 0 110 98l-97 -10q-29 -3 -46 -16t-17 -32q0 -16 13 -28t37 -12z" />
    <glyph glyph-name="AEacute" unicode="&#x1fc;" horiz-adv-x="1008" 
d="M799 904l-147 -148h-115l77 148h185zM1019 548h-314l-17 -104h247l-24 -152h-247l-22 -140h325l-24 -152h-504l22 139h-206l-90 -139h-197l462 700h613zM353 291h132l43 271z" />
    <glyph glyph-name="aeacute" unicode="&#x1fd;" horiz-adv-x="893" 
d="M720 708l-147 -148h-115l77 148h185zM874 294q0 -29 -15 -92h-348q12 -74 90 -74q66 0 93 55l148 -43q-34 -70 -105 -109t-162 -39q-116 0 -178 79q-81 -79 -202 -79q-86 0 -132.5 37t-46.5 96q0 82 65 134t183 52h92l2 10q5 34 -15.5 54t-58.5 20q-33 0 -59.5 -20.5
t-33.5 -52.5l-132 28q25 74 92 118t151 44q113 0 168 -55q73 55 176 55q60 0 106 -20t71.5 -52.5t38 -69.5t12.5 -76zM701 316q3 34 -15 55t-59 21q-75 0 -104 -76h178zM228 103q42 0 72.5 29.5t37.5 67.5h-100q-29 0 -46 -16.5t-17 -40.5q0 -17 15 -28.5t38 -11.5z" />
    <glyph glyph-name="uni0218" unicode="&#x218;" horiz-adv-x="596" 
d="M288 -8q-117 0 -191.5 65t-72.5 168l163 27q-5 -49 25.5 -79.5t88.5 -30.5q38 0 63.5 20t25.5 50q0 27 -31 44.5t-75 31t-88.5 33t-75.5 62t-31 105.5q0 93 80.5 156.5t186.5 63.5q111 0 183 -52.5t79 -140.5l-168 -45q-2 38 -31.5 63t-75.5 25q-35 0 -54 -13.5
t-19 -36.5q0 -18 17 -30t43.5 -20.5t59 -17t65.5 -23.5t59.5 -36.5t43.5 -59t17 -87.5q0 -106 -80.5 -174t-206.5 -68zM102 -190l57 148h175l-117 -148h-115z" />
    <glyph glyph-name="uni0219" unicode="&#x219;" horiz-adv-x="462" 
d="M210 -8q-88 0 -144 46.5t-66 116.5l135 38q1 -34 25.5 -56t62.5 -22q26 0 41 10.5t15 28.5q0 15 -23.5 26t-56.5 20.5t-66 24t-56.5 46.5t-23.5 78q0 70 57.5 116.5t148.5 46.5q82 0 136.5 -35.5t63.5 -97.5l-140 -44q-4 30 -25.5 46t-45.5 16q-21 0 -35 -8t-14 -22
q0 -17 24 -27.5t58.5 -20t69 -23.5t58.5 -45.5t24 -78.5q0 -78 -62.5 -129t-160.5 -51zM31 -190l57 148h175l-117 -148h-115z" />
    <glyph glyph-name="uni021A" unicode="&#x21a;" horiz-adv-x="605" 
d="M177 0l87 548h-200l24 152h579l-24 -152h-200l-87 -548h-179zM121 -190l57 148h175l-117 -148h-115z" />
    <glyph glyph-name="uni021B" unicode="&#x21b;" horiz-adv-x="404" 
d="M347 6q-40 -14 -85 -14q-92 0 -141 48t-35 138l30 190h-77l22 136h77l23 144h165l-23 -144h119l-22 -136h-119l-26 -164q-5 -31 7.5 -49.5t38.5 -18.5q33 0 56 11zM46 -190l57 148h175l-117 -148h-115z" />
    <glyph glyph-name="uni0237" unicode="&#x237;" horiz-adv-x="278" 
d="M-57 -190l-43 2l20 142q15 -1 26 -1q75 0 89 90l73 461h165l-77 -484q-16 -97 -84.5 -153.5t-168.5 -56.5z" />
    <glyph glyph-name="gravecomb" unicode="&#x300;" horiz-adv-x="0" 
d="M3 560h-115l-101 148h185z" />
    <glyph glyph-name="acutecomb" unicode="&#x301;" horiz-adv-x="0" 
d="M-236 560l77 148h185l-147 -148h-115z" />
    <glyph glyph-name="uni0302" unicode="&#x302;" horiz-adv-x="0" 
d="M-231 708h145l89 -148h-114l-59 66l-76 -66h-119z" />
    <glyph glyph-name="tildecomb" unicode="&#x303;" horiz-adv-x="0" 
d="M-318 555l-109 16q14 68 60.5 109.5t108.5 41.5q47 0 89 -27q5 -3 11.5 -7.5t9 -6t7 -4t8.5 -3t9 -0.5q26 0 41 53l110 -16q-13 -68 -60 -110t-109 -42q-48 0 -88 27q-31 21 -46 21q-26 0 -42 -52z" />
    <glyph glyph-name="uni0304" unicode="&#x304;" horiz-adv-x="0" 
d="M-282 578l19 122h288l-19 -122h-288z" />
    <glyph glyph-name="uni0306" unicode="&#x306;" horiz-adv-x="0" 
d="M-147 557q-64 0 -99.5 40.5t-25.5 102.5h116q-6 -42 25 -42q34 0 40 42h116q-10 -62 -59 -102.5t-113 -40.5z" />
    <glyph glyph-name="uni0307" unicode="&#x307;" horiz-adv-x="0" 
d="M-157 708h172l-24 -151h-172z" />
    <glyph glyph-name="uni0308" unicode="&#x308;" horiz-adv-x="0" 
d="M-349 708h150l-24 -150h-150zM-126 708h150l-24 -150h-150z" />
    <glyph glyph-name="uni030A" unicode="&#x30a;" horiz-adv-x="0" 
d="M-174 538q-53 0 -88 33.5t-35 83.5t35 83.5t88 33.5q54 0 89 -33.5t35 -83.5t-35 -83.5t-89 -33.5zM-174 615q19 0 31 11t12 29t-12 29t-31 11q-18 0 -30 -11t-12 -29t12 -29t30 -11z" />
    <glyph glyph-name="uni030B" unicode="&#x30b;" horiz-adv-x="0" 
d="M-385 560l77 148h134l-86 -148h-125zM-195 560l77 148h144l-96 -148h-125z" />
    <glyph glyph-name="uni030C" unicode="&#x30c;" horiz-adv-x="0" 
d="M-254 560l-88 148h112l59 -66l77 66h120l-135 -148h-145z" />
    <glyph glyph-name="uni0312" unicode="&#x312;" horiz-adv-x="0" 
d="M26 708l-47 -148h-169l88 148h128z" />
    <glyph glyph-name="uni0326" unicode="&#x326;" horiz-adv-x="0" 
d="M-325 -190l57 148h175l-117 -148h-115z" />
    <glyph glyph-name="uni0327" unicode="&#x327;" horiz-adv-x="0" 
d="M-86 0l-79 -148h-185l183 183z" />
    <glyph glyph-name="uni0328" unicode="&#x328;" horiz-adv-x="0" 
d="M-178 -190q-51 0 -81.5 24.5t-30.5 65.5q0 28 17 58.5t43 52.5l103 -11l-7.5 -7.5t-9.5 -10.5t-8 -11t-7.5 -14t-2.5 -14q0 -25 29 -25q14 0 20 3l-2 -103q-19 -8 -63 -8z" />
    <glyph glyph-name="pi" unicode="&#x3c0;" horiz-adv-x="653" 
d="M562 371l-23 -146q-14 -90 60 -90q11 0 27 1l-26 -142q-31 -2 -43 -2q-100 0 -151.5 56.5t-35.5 153.5l27 169h-88l-59 -371h-160l59 371h-92l21 133h584l-21 -133h-79z" />
    <glyph glyph-name="uni0E3F" unicode="&#xe3f;" horiz-adv-x="642" 
d="M523 382q40 -19 65 -56t25 -89q0 -106 -79 -169.5t-201 -67.5l-14 -90l-139 1l14 89h-170l111 700h170l14 90h139l-14 -91q81 -4 131 -44.5t50 -110.5q0 -55 -30.5 -98t-71.5 -64zM369 442q89 0 89 69q0 51 -74 51h-96l-19 -120h100zM330 152q117 0 117 82q0 60 -94 60
h-107l-23 -142h107z" />
    <glyph glyph-name="Wgrave" unicode="&#x1e80;" horiz-adv-x="1028" 
d="M659 756h-115l-101 148h185zM171 0l-83 700h183l27 -484l184 484h211l32 -483l181 483h184l-304 -700h-190l-45 464l-193 -464h-187z" />
    <glyph glyph-name="wgrave" unicode="&#x1e81;" horiz-adv-x="811" 
d="M521 560h-115l-101 148h185zM140 0l-78 504h165l22 -273l127 273h148l42 -273l107 273h165l-238 -504h-141l-44 277l-134 -277h-141z" />
    <glyph glyph-name="Wacute" unicode="&#x1e82;" horiz-adv-x="1028" 
d="M520 756l77 148h185l-147 -148h-115zM171 0l-83 700h183l27 -484l184 484h211l32 -483l181 483h184l-304 -700h-190l-45 464l-193 -464h-187z" />
    <glyph glyph-name="wacute" unicode="&#x1e83;" horiz-adv-x="811" 
d="M382 560l77 148h185l-147 -148h-115zM140 0l-78 504h165l22 -273l127 273h148l42 -273l107 273h165l-238 -504h-141l-44 277l-134 -277h-141z" />
    <glyph glyph-name="Wdieresis" unicode="&#x1e84;" horiz-adv-x="1028" 
d="M440 904h150l-24 -150h-150zM663 904h150l-24 -150h-150zM171 0l-83 700h183l27 -484l184 484h211l32 -483l181 483h184l-304 -700h-190l-45 464l-193 -464h-187z" />
    <glyph glyph-name="wdieresis" unicode="&#x1e85;" horiz-adv-x="811" 
d="M296 708h150l-24 -150h-150zM519 708h150l-24 -150h-150zM140 0l-78 504h165l22 -273l127 273h148l42 -273l107 273h165l-238 -504h-141l-44 277l-134 -277h-141z" />
    <glyph glyph-name="uni1E9E" unicode="&#x1e9e;" horiz-adv-x="663" 
d="M414 708q108 0 171 -58.5t55 -146.5l-114 -101q47 -21 78 -63.5t31 -92.5q0 -100 -80.5 -173t-190.5 -73h-104l24 152h90q42 0 69 24t27 61q0 27 -21 42t-57 15h-74l3 93l146 130q-5 19 -26.5 30t-50.5 11q-42 0 -76.5 -40.5t-44.5 -102.5l-66 -415h-179l66 415
q21 131 113 212t211 81z" />
    <glyph glyph-name="Ygrave" unicode="&#x1ef2;" horiz-adv-x="647" 
d="M464 756h-115l-101 148h185zM194 0l46 288l-169 412h188l96 -246l176 246h187l-299 -412l-46 -288h-179z" />
    <glyph glyph-name="ygrave" unicode="&#x1ef3;" horiz-adv-x="534" 
d="M377 560h-115l-101 148h185zM409 504h161l-375 -686h-155l120 223l-116 463h170l53 -265z" />
    <glyph glyph-name="endash" unicode="&#x2013;" horiz-adv-x="500" 
d="M19 220l22 140h460l-22 -140h-460z" />
    <glyph glyph-name="emdash" unicode="&#x2014;" horiz-adv-x="1000" 
d="M19 220l22 140h960l-22 -140h-960z" />
    <glyph glyph-name="quoteleft" unicode="&#x2018;" horiz-adv-x="297" 
d="M355 708l-115 -290h-180l191 290h104z" />
    <glyph glyph-name="quoteright" unicode="&#x2019;" horiz-adv-x="297" 
d="M48 418l115 290h180l-191 -290h-104z" />
    <glyph glyph-name="quotesinglbase" unicode="&#x201a;" horiz-adv-x="297" 
d="M-39 -131l115 290h180l-191 -290h-104z" />
    <glyph glyph-name="quotedblleft" unicode="&#x201c;" horiz-adv-x="525" 
d="M355 708l-115 -290h-180l191 290h104zM583 708l-115 -290h-180l191 290h104z" />
    <glyph glyph-name="quotedblright" unicode="&#x201d;" horiz-adv-x="525" 
d="M48 418l115 290h180l-191 -290h-104zM276 418l115 290h180l-191 -290h-104z" />
    <glyph glyph-name="quotedblbase" unicode="&#x201e;" horiz-adv-x="525" 
d="M-39 -131l115 290h180l-191 -290h-104zM189 -131l115 290h180l-191 -290h-104z" />
    <glyph glyph-name="dagger" unicode="&#x2020;" horiz-adv-x="399" 
d="M118 180l42 269h-119l18 115h119l22 136h150l-22 -136h118l-18 -115h-118l-42 -269h-150z" />
    <glyph glyph-name="daggerdbl" unicode="&#x2021;" horiz-adv-x="399" 
d="M428 449h-118l-31 -198h118l-18 -115h-118l-22 -136h-150l22 136h-119l18 115h119l31 198h-119l18 115h119l22 136h150l-22 -136h118z" />
    <glyph glyph-name="bullet" unicode="&#x2022;" horiz-adv-x="460" 
d="M232 72q-85 0 -143.5 58.5t-58.5 141.5t59 141.5t143 58.5q82 0 140 -58.5t58 -141.5t-58 -141.5t-140 -58.5z" />
    <glyph glyph-name="ellipsis" unicode="&#x2026;" horiz-adv-x="825" 
d="M43 159h167l-25 -159h-167zM318 159h167l-25 -159h-167zM593 159h167l-25 -159h-167z" />
    <glyph glyph-name="perthousand" unicode="&#x2030;" horiz-adv-x="971" 
d="M201 356q-65 0 -102 38.5t-37 105.5q0 93 54 150.5t141 57.5q65 0 101.5 -38.5t36.5 -105.5q0 -93 -54 -150.5t-140 -57.5zM623 700h128l-579 -700h-128zM240 601q-27 0 -42.5 -24t-15.5 -64q0 -50 36 -50q28 0 42.5 24.5t14.5 64.5q0 49 -35 49zM809 344q65 0 102 -38.5
t37 -105.5q0 -93 -54 -150.5t-140 -57.5q-62 0 -99 35q-47 -35 -114 -35q-66 0 -103 38.5t-37 105.5q0 93 54.5 150.5t140.5 57.5q63 0 98 -35q49 35 115 35zM558 99q27 0 42 24.5t15 64.5q0 49 -35 49q-27 0 -42.5 -24t-15.5 -64q0 -50 36 -50zM771 99q27 0 42 24.5
t15 64.5q0 49 -35 49q-27 0 -42.5 -24t-15.5 -64q0 -50 36 -50z" />
    <glyph glyph-name="guilsinglleft" unicode="&#x2039;" horiz-adv-x="378" 
d="M308 34l-267 229l15 94l340 229l-26 -164l-172 -112l136 -112z" />
    <glyph glyph-name="guilsinglright" unicode="&#x203a;" horiz-adv-x="378" 
d="M8 34l26 164l172 112l-136 112l26 164l268 -229l-15 -94z" />
    <glyph glyph-name="fraction" unicode="&#x2044;" horiz-adv-x="296" 
d="M-186 0l579 700h128l-579 -700h-128z" />
    <glyph glyph-name="Euro" unicode="&#x20ac;" horiz-adv-x="802" 
d="M501 556q-96 0 -155 -73h226l-46 -103h-227q-5 -24 -7 -58h204l-45 -103h-136q21 -36 57 -55.5t78 -19.5q54 0 92.5 30.5t57.5 82.5l174 -41q-38 -107 -129 -165.5t-218 -58.5q-116 0 -200 59.5t-107 167.5h-93l16 103h70q2 32 7 58h-68l16 103h84q50 107 152 166t222 59
q136 0 215 -67t74 -178l-182 -36q-1 59 -38.5 94t-93.5 35z" />
    <glyph glyph-name="uni20BF" unicode="&#x20bf;" horiz-adv-x="646" 
d="M523 382q40 -19 65 -56t25 -89q0 -106 -79 -169.5t-201 -67.5l-14 -90l-139 1l14 89h-170l111 700h170l14 90h139l-14 -91q81 -4 131 -44.5t50 -110.5q0 -55 -30.5 -98t-71.5 -64zM369 442q89 0 89 69q0 51 -74 51h-96l-19 -120h100zM330 152q117 0 117 82q0 60 -94 60
h-107l-23 -142h107z" />
    <glyph glyph-name="uni2116" unicode="&#x2116;" horiz-adv-x="1248" 
d="M942 188q-104 0 -168 63t-64 160q0 125 91.5 211t222.5 86q104 0 168 -63t64 -161q0 -124 -92 -210t-222 -86zM24 0l111 700h174l181 -418l66 418h165l-111 -700h-174l-181 418l-66 -418h-165zM964 328q54 0 89.5 40t35.5 102q0 45 -23.5 71.5t-63.5 26.5
q-54 0 -89.5 -40t-35.5 -102q0 -45 23 -71.5t64 -26.5zM684 8l22 140h460l-22 -140h-460z" />
    <glyph glyph-name="uni2117" unicode="&#x2117;" horiz-adv-x="777" 
d="M409 -8q-155 0 -256.5 102t-101.5 256t101.5 256t256.5 102t257 -102t102 -256t-102 -256t-257 -102zM409 73q118 0 196.5 79t78.5 198t-78.5 198t-196.5 79t-196 -79t-78 -198t78 -198t196 -79zM416 310h-49v-124h-90l-1 353h140q53 0 87.5 -32t34.5 -83t-34.5 -82.5
t-87.5 -31.5zM367 462v-75h38q43 0 43 37q0 38 -43 38h-38z" />
    <glyph glyph-name="trademark" unicode="&#x2122;" horiz-adv-x="762" 
d="M101 350v263h-96v87h297v-87h-97v-263h-104zM333 350v350h111l89 -205l90 205h110v-350h-93v159l-71 -159h-71l-71 159v-159h-94z" />
    <glyph glyph-name="uni2126" unicode="&#x2126;" horiz-adv-x="735" 
d="M734 430q0 -91 -42 -162t-116 -116h114l-24 -152h-266l24 152l8 52q52 36 86 91t34 115q0 68 -35 107.5t-97 39.5q-83 0 -136 -58t-53 -146q0 -41 17.5 -82.5t47.5 -66.5l-17 -112l-15 -92h-267l24 152h122q-92 73 -92 193q0 151 116 257t278 106q130 0 209.5 -78
t79.5 -200z" />
    <glyph glyph-name="oneeighth" unicode="&#x215b;" horiz-adv-x="812" 
d="M53 0l579 700h128l-579 -700h-128zM122 315l42 268q-53 -31 -94 -38l16 100q52 11 116 55h85l-61 -385h-104zM600 -4q-54 0 -92 29t-38 77q0 36 22 65t58 40q-35 19 -35 65q0 47 43.5 82t104.5 35q52 0 83.5 -27.5t31.5 -67.5q0 -28 -16.5 -52t-42.5 -35q24 -8 37 -29
t13 -48q0 -60 -50.5 -97t-118.5 -37zM641 250q17 0 27 8.5t10 23.5q0 25 -28 25q-16 0 -25.5 -9.5t-9.5 -24.5q0 -23 26 -23zM615 85q20 0 32.5 11t12.5 28q0 30 -34 30q-20 0 -33 -11t-13 -29q0 -13 9.5 -21t25.5 -8z" />
    <glyph glyph-name="threeeighths" unicode="&#x215c;" horiz-adv-x="882" 
d="M188 311q-63 0 -100 32t-35 85l103 17q10 -38 49 -38q21 0 35.5 12t14.5 31q0 15 -10.5 25t-26.5 10q-29 0 -49 -15l-30 76l88 57h-135l16 97h268l-15 -97l-88 -50q45 -2 70 -26.5t25 -66.5q0 -66 -51 -107.5t-129 -41.5zM109 0l579 700h128l-579 -700h-128zM670 -4
q-54 0 -92 29t-38 77q0 36 22 65t58 40q-35 19 -35 65q0 47 43.5 82t104.5 35q52 0 83.5 -27.5t31.5 -67.5q0 -28 -16.5 -52t-42.5 -35q24 -8 37 -29t13 -48q0 -60 -50.5 -97t-118.5 -37zM711 250q17 0 27 8.5t10 23.5q0 25 -28 25q-16 0 -25.5 -9.5t-9.5 -24.5
q0 -23 26 -23zM685 85q20 0 32.5 11t12.5 28q0 30 -34 30q-20 0 -33 -11t-13 -29q0 -13 9.5 -21t25.5 -8z" />
    <glyph glyph-name="fiveeighths" unicode="&#x215d;" horiz-adv-x="882" 
d="M187 311q-58 0 -94 29.5t-37 78.5l104 18q8 -30 38 -30q20 0 34 13t14 32q0 15 -10.5 24t-27.5 9q-29 0 -55 -26l-80 17l70 224h224l-15 -96h-144l-20 -57q26 23 68 23q47 0 75.5 -28.5t28.5 -75.5q0 -69 -48.5 -112t-124.5 -43zM107 0l579 700h128l-579 -700h-128z
M670 -4q-54 0 -92 29t-38 77q0 36 22 65t58 40q-35 19 -35 65q0 47 43.5 82t104.5 35q52 0 83.5 -27.5t31.5 -67.5q0 -28 -16.5 -52t-42.5 -35q24 -8 37 -29t13 -48q0 -60 -50.5 -97t-118.5 -37zM711 250q17 0 27 8.5t10 23.5q0 25 -28 25q-16 0 -25.5 -9.5t-9.5 -24.5
q0 -23 26 -23zM685 85q20 0 32.5 11t12.5 28q0 30 -34 30q-20 0 -33 -11t-13 -29q0 -13 9.5 -21t25.5 -8z" />
    <glyph glyph-name="seveneighths" unicode="&#x215e;" horiz-adv-x="801" 
d="M26 0l579 700h128l-579 -700h-128zM70 315q80 171 187 289h-181l15 96h293l-15 -96q-129 -150 -191 -289h-108zM589 -4q-54 0 -92 29t-38 77q0 36 22 65t58 40q-35 19 -35 65q0 47 43.5 82t104.5 35q52 0 83.5 -27.5t31.5 -67.5q0 -28 -16.5 -52t-42.5 -35q24 -8 37 -29
t13 -48q0 -60 -50.5 -97t-118.5 -37zM630 250q17 0 27 8.5t10 23.5q0 25 -28 25q-16 0 -25.5 -9.5t-9.5 -24.5q0 -23 26 -23zM604 85q20 0 32.5 11t12.5 28q0 30 -34 30q-20 0 -33 -11t-13 -29q0 -13 9.5 -21t25.5 -8z" />
    <glyph glyph-name="uni2160" unicode="&#x2160;" horiz-adv-x="513" 
d="M504 548h-108l-63 -396h108l-24 -152h-393l24 152h106l63 396h-106l24 152h393z" />
    <glyph glyph-name="uni2161" unicode="&#x2161;" horiz-adv-x="819" 
d="M810 548h-108l-63 -396h108l-24 -152h-699l24 152h106l63 396h-106l24 152h699zM460 152l63 396h-127l-63 -396h127z" />
    <glyph glyph-name="uni2162" unicode="&#x2162;" horiz-adv-x="1125" 
d="M1116 548h-108l-63 -396h108l-24 -152h-1005l24 152h106l63 396h-106l24 152h1005zM333 152h127l63 396h-127zM766 152l63 396h-127l-63 -396h127z" />
    <glyph glyph-name="uni2163" unicode="&#x2163;" horiz-adv-x="1185" 
d="M1176 548h-104l-202 -396h243l-24 -152h-1065l24 152h107l63 396h-107l24 152h1065zM334 152h259l-76 396h-120zM741 216l156 332h-205z" />
    <glyph glyph-name="uni2164" unicode="&#x2164;" horiz-adv-x="899" 
d="M890 548h-111l-202 -396h225l-24 -152h-729l24 152h227l-76 396h-113l24 152h779zM448 216l156 332h-205z" />
    <glyph glyph-name="uni2165" unicode="&#x2165;" horiz-adv-x="1185" 
d="M1093 700l-87 -548h107l-24 -152h-286l87 548h-106l-202 -396h245l-24 -152h-779l24 152h257l-76 396h-118l24 152h958zM1176 548h-107l24 152h107zM453 216l156 332h-205z" />
    <glyph glyph-name="uni2166" unicode="&#x2166;" horiz-adv-x="1491" 
d="M1482 548h-107l-63 -396h107l-24 -152h-1371l24 152h257l-76 396h-118l24 152h1371zM609 548h-205l49 -332zM582 152h244l63 396h-105zM1005 152h128l63 396h-128z" />
    <glyph glyph-name="uni2167" unicode="&#x2167;" horiz-adv-x="1797" 
d="M1705 700l-87 -548h107l-24 -152h-1677l24 152h257l-76 396h-118l24 152h1570zM1788 548h-107l24 152h107zM609 548h-205l49 -332zM582 152h244l63 396h-105zM1005 152h127l63 396h-127zM1311 152h128l63 396h-128z" />
    <glyph glyph-name="uni2168" unicode="&#x2168;" horiz-adv-x="1165" 
d="M1156 548h-99l-203 -198l140 -198h99l-24 -152h-1045l24 152h106l63 396h-106l24 152h1045zM433 152l204 198l-141 198h-100l-63 -396h100zM765 475l75 73h-127zM777 152l-52 73l-75 -73h127z" />
    <glyph glyph-name="uni2169" unicode="&#x2169;" horiz-adv-x="879" 
d="M870 548h-99l-203 -198l140 -198h99l-24 -152h-759l24 152h99l204 198l-141 198h-99l24 152h759zM479 475l75 73h-127zM491 152l-52 73l-75 -73h127z" />
    <glyph glyph-name="uni216A" unicode="&#x216a;" horiz-adv-x="1165" 
d="M1156 548h-106l-63 -396h106l-24 -152h-1045l24 152h99l204 198l-141 198h-99l24 152h1045zM427 548l52 -73l75 73h-127zM808 152l63 396h-100l-203 -198l140 -198h100zM364 152h127l-52 73z" />
    <glyph glyph-name="uni216B" unicode="&#x216b;" horiz-adv-x="1451" 
d="M1442 548h-106l-63 -396h106l-24 -152h-1331l24 152h99l204 198l-141 198h-99l24 152h1331zM427 548l52 -73l75 73h-127zM808 152l63 396h-100l-203 -198l140 -198h100zM1094 152l63 396h-107l-63 -396h107zM364 152h127l-52 73z" />
    <glyph glyph-name="uni216C" unicode="&#x216c;" horiz-adv-x="661" 
d="M656 259l-19 -117h-1l-22 -142h-590l24 152h107l63 396h-107l24 152h393l-24 -152h-107l-63 -396h153l17 107h152z" />
    <glyph glyph-name="uni216D" unicode="&#x216d;" horiz-adv-x="743" 
d="M435 556q-87 0 -150 -65.5t-63 -179.5q0 -79 41.5 -123t106.5 -44q55 0 98.5 31t61.5 82l174 -41l-34 -216h-152l8 50q-85 -58 -179 -58q-134 0 -219.5 79t-85.5 220q0 129 61 226t154.5 144t202.5 47q100 0 162 -64l9 56h152l-38 -237l-182 -36q-2 58 -37.5 93.5
t-90.5 35.5z" />
    <glyph glyph-name="uni216E" unicode="&#x216e;" horiz-adv-x="811" 
d="M489 700q137 0 227 -74t90 -218q0 -102 -36.5 -182.5t-98 -128.5t-136 -72.5t-157.5 -24.5h-354l24 152h106l63 396h-106l24 152h354zM381 152q48 0 89.5 12t77 37.5t56.5 73t21 112.5q0 86 -50.5 123.5t-130.5 37.5h-52l-63 -396h52z" />
    <glyph glyph-name="uni216F" unicode="&#x216f;" horiz-adv-x="1106" 
d="M557 252l264 448h193l-87 -548h107l-24 -152h-271l59 370l-218 -370h-126l-101 370l-59 -370h-270l24 152h106l63 396h-106l24 152h300zM1097 548h-107l24 152h107z" />
    <glyph glyph-name="arrowleft" unicode="&#x2190;" horiz-adv-x="730" 
d="M718 340l-22 -140h-431l125 -149l-98 -85l-255 304l352 304l71 -85l-172 -149h430z" />
    <glyph glyph-name="arrowup" unicode="&#x2191;" horiz-adv-x="668" 
d="M657 347l-99 -85l-125 148l-68 -430h-140l68 430l-173 -149l-71 85l352 304z" />
    <glyph glyph-name="arrowright" unicode="&#x2192;" horiz-adv-x="730" 
d="M451 574l256 -304l-351 -304l-78 91l169 143h-421l22 140h431l-125 151z" />
    <glyph glyph-name="arrowdown" unicode="&#x2193;" horiz-adv-x="668" 
d="M577 381l72 -85l-352 -304l-256 303l98 85l126 -148l68 430h140l-68 -430z" />
    <glyph glyph-name="arrowboth" unicode="&#x2194;" horiz-adv-x="1075" 
d="M796 574l256 -304l-351 -304l-78 91l169 143h-527l125 -149l-98 -85l-255 304l352 304l71 -85l-172 -149h536l-125 151z" />
    <glyph glyph-name="arrowupdn" unicode="&#x2195;" horiz-adv-x="668" 
d="M376 50l173 149l71 -85l-352 -304l-256 303l98 85l126 -148l85 537l-173 -149l-71 85l352 303l256 -304l-99 -85l-125 149z" />
    <glyph glyph-name="uni2196" unicode="&#x2196;" 
d="M554 72l-115 -99l-256 304l-34 -210h-120l68 429h430l-19 -120h-210z" />
    <glyph glyph-name="uni2197" unicode="&#x2197;" 
d="M166 496h430l-68 -429h-120l33 210l-353 -304l-83 99l352 304h-210z" />
    <glyph glyph-name="uni2198" unicode="&#x2198;" horiz-adv-x="607" 
d="M463 422h121l-68 -430l-430 -1l19 120l211 1l-256 304l114 99l256 -304z" />
    <glyph glyph-name="uni2199" unicode="&#x2199;" horiz-adv-x="607" 
d="M607 416l-352 -304l210 -1l-19 -120l-429 1l68 430h120l-33 -211l352 304z" />
    <glyph glyph-name="partialdiff" unicode="&#x2202;" horiz-adv-x="651" 
d="M304 706q24 2 37 2q119 0 201.5 -81t82.5 -233q0 -172 -98.5 -287t-237.5 -115q-109 0 -175.5 58.5t-66.5 151.5q0 115 83 193.5t202 78.5q92 0 132 -61q1 65 -40 104t-113 39q-24 0 -48 -6zM307 144q48 0 82.5 33t34.5 81q0 37 -23.5 60.5t-62.5 23.5q-47 0 -81 -32
t-34 -80q0 -38 23 -62t61 -24z" />
    <glyph glyph-name="uni2206" unicode="&#x2206;" horiz-adv-x="702" 
d="M511 700l150 -700h-692l372 700h170zM228 148h221l-60 319z" />
    <glyph glyph-name="product" unicode="&#x220f;" horiz-adv-x="707" 
d="M25 0l111 700h585l-111 -700h-182l87 548h-220l-87 -548h-183z" />
    <glyph glyph-name="summation" unicode="&#x2211;" horiz-adv-x="556" 
d="M-1 0l22 142l230 208l-164 208l23 142h481l-24 -152h-261l117 -132l-21 -132l-160 -132h262l-24 -152h-481z" />
    <glyph glyph-name="minus" unicode="&#x2212;" horiz-adv-x="560" 
d="M33 247l22 140h500l-22 -140h-500z" />
    <glyph glyph-name="radical" unicode="&#x221a;" horiz-adv-x="615" 
d="M192 0l-51 250h-117l24 152h222l34 -178l220 476h162l-341 -700h-153z" />
    <glyph glyph-name="infinity" unicode="&#x221e;" horiz-adv-x="972" 
d="M750 600q99 0 158 -57t59 -149q0 -118 -84.5 -197t-208.5 -79q-116 0 -190 99q-105 -99 -220 -99q-98 0 -158 57.5t-60 148.5q0 118 85.5 197t208.5 79q115 0 189 -99q105 99 221 99zM289 278q65 0 130 81q-39 81 -104 81q-51 0 -77.5 -25.5t-26.5 -70.5q0 -66 78 -66z
M699 278q50 0 76.5 25t26.5 71q0 66 -77 66q-65 0 -129 -81q39 -81 103 -81z" />
    <glyph glyph-name="integral" unicode="&#x222b;" horiz-adv-x="351" 
d="M-40 -190q-23 0 -43 2l20 142q7 -1 26 -1q75 0 89 90l72 455q16 97 84.5 153.5t168.5 56.5l43 -2l-20 -142q-12 1 -26 1q-75 0 -89 -90l-72 -455q-16 -97 -84.5 -153.5t-168.5 -56.5z" />
    <glyph glyph-name="approxequal" unicode="&#x2248;" horiz-adv-x="637" 
d="M434 348q-64 0 -117 38q-37 27 -53 30q-6 1 -12 1q-43 0 -67 -73l-133 20q19 89 80.5 144t142.5 55q64 0 117 -38q3 -2 11 -8t10 -7t8 -5t9 -5t8 -3t9.5 -2.5t9.5 -0.5q43 0 67 73l134 -20q-20 -89 -81.5 -144t-142.5 -55zM395 104q-63 0 -116 38q-4 2 -11.5 7.5t-10 7.5
t-8.5 5.5t-9 4.5t-8 3t-9.5 2.5t-9.5 0.5q-42 0 -66 -73l-134 20q20 89 81.5 144t142.5 55q63 0 116 -38q4 -2 11.5 -7.5t10 -7.5t8.5 -5.5t9 -4.5t8 -3t9.5 -2.5t9.5 -0.5q42 0 66 73l134 -20q-20 -89 -81.5 -144t-142.5 -55z" />
    <glyph glyph-name="notequal" unicode="&#x2260;" horiz-adv-x="560" 
d="M552 364h-149l-67 -97h200l-22 -140h-275l-101 -145l-99 54l63 91h-88l22 140h162l67 97h-213l22 140h288l84 122l101 -54l-47 -68h74z" />
    <glyph glyph-name="lessequal" unicode="&#x2264;" horiz-adv-x="580" 
d="M604 692l-27 -168l-300 -112l265 -112l-27 -168l-21 -132h-500l22 140h482l-449 206l21 132z" />
    <glyph glyph-name="greaterequal" unicode="&#x2265;" horiz-adv-x="580" 
d="M590 478l-21 -132l-514 -206h481l-22 -140h-500l22 140l26 160l299 112l-264 112l27 168z" />
    <glyph glyph-name="uni2460" unicode="&#x2460;" horiz-adv-x="788" 
d="M430 -8q-154 0 -256 102t-102 256t102 256t256 102q155 0 257 -102t102 -256t-102 -256t-257 -102zM430 73q118 0 196.5 79t78.5 198t-78.5 198t-196.5 79t-196 -79t-78 -198t78 -198t196 -79zM353 167l42 268q-53 -31 -94 -38l16 100q52 11 116 55h85l-61 -385h-104z
" />
    <glyph glyph-name="uni2461" unicode="&#x2461;" horiz-adv-x="788" 
d="M430 -8q-154 0 -256 102t-102 256t102 256t256 102q155 0 257 -102t102 -256t-102 -256t-257 -102zM430 73q118 0 196.5 79t78.5 198t-78.5 198t-196.5 79t-196 -79t-78 -198t78 -198t196 -79zM244 167l12 86l127 91q78 55 78 86q0 30 -33 30q-20 0 -33.5 -18t-14.5 -48
l-107 7q3 62 55.5 108.5t115.5 46.5q60 0 95.5 -31.5t35.5 -82.5q0 -88 -121 -158l-36 -21h130l-15 -96h-289z" />
    <glyph glyph-name="uni2462" unicode="&#x2462;" horiz-adv-x="788" 
d="M430 -8q-154 0 -256 102t-102 256t102 256t256 102q155 0 257 -102t102 -256t-102 -256t-257 -102zM430 73q118 0 196.5 79t78.5 198t-78.5 198t-196.5 79t-196 -79t-78 -198t78 -198t196 -79zM380 163q-63 0 -100 32t-35 85l103 17q10 -38 49 -38q21 0 35.5 12t14.5 31
q0 15 -10.5 25t-26.5 10q-29 0 -49 -15l-30 76l88 57h-135l16 97h268l-15 -97l-88 -50q45 -2 70 -26.5t25 -66.5q0 -66 -51 -107.5t-129 -41.5z" />
    <glyph glyph-name="uni2463" unicode="&#x2463;" horiz-adv-x="788" 
d="M430 -8q-154 0 -256 102t-102 256t102 256t256 102q155 0 257 -102t102 -256t-102 -256t-257 -102zM430 73q118 0 196.5 79t78.5 198t-78.5 198t-196.5 79t-196 -79t-78 -198t78 -198t196 -79zM388 167l9 58h-182l15 97l216 230h117l-37 -230h38l-15 -97h-38l-9 -58h-114
zM344 322h68l15 89z" />
    <glyph glyph-name="uni2464" unicode="&#x2464;" horiz-adv-x="788" 
d="M430 -8q-154 0 -256 102t-102 256t102 256t256 102q155 0 257 -102t102 -256t-102 -256t-257 -102zM430 73q118 0 196.5 79t78.5 198t-78.5 198t-196.5 79t-196 -79t-78 -198t78 -198t196 -79zM371 163q-58 0 -94 29.5t-37 78.5l104 18q8 -30 38 -30q20 0 34 13t14 32
q0 15 -10.5 24t-27.5 9q-29 0 -55 -26l-80 17l70 224h224l-15 -96h-144l-20 -57q26 23 68 23q47 0 75.5 -28.5t28.5 -75.5q0 -69 -48.5 -112t-124.5 -43z" />
    <glyph glyph-name="uni2465" unicode="&#x2465;" horiz-adv-x="788" 
d="M430 -8q-154 0 -256 102t-102 256t102 256t256 102q155 0 257 -102t102 -256t-102 -256t-257 -102zM430 73q118 0 196.5 79t78.5 198t-78.5 198t-196.5 79t-196 -79t-78 -198t78 -198t196 -79zM431 428q51 0 82.5 -31.5t31.5 -81.5q0 -64 -48.5 -108t-109.5 -44
q-70 0 -110.5 44t-40.5 120q0 107 69 168t147 61q82 0 125 -45l-59 -70q-19 19 -67 19q-70 0 -95 -56q30 24 75 24zM385 259q19 0 32.5 12t17.5 32q4 19 -6.5 31t-29.5 12q-21 0 -36 -14t-15 -35q0 -17 10.5 -27.5t26.5 -10.5z" />
    <glyph glyph-name="uni2466" unicode="&#x2466;" horiz-adv-x="788" 
d="M430 -8q-154 0 -256 102t-102 256t102 256t256 102q155 0 257 -102t102 -256t-102 -256t-257 -102zM430 73q118 0 196.5 79t78.5 198t-78.5 198t-196.5 79t-196 -79t-78 -198t78 -198t196 -79zM263 167q80 171 187 289h-181l14 96h294l-15 -96q-129 -150 -191 -289h-108z
" />
    <glyph glyph-name="uni2467" unicode="&#x2467;" horiz-adv-x="788" 
d="M430 -8q-154 0 -256 102t-102 256t102 256t256 102q155 0 257 -102t102 -256t-102 -256t-257 -102zM430 73q118 0 196.5 79t78.5 198t-78.5 198t-196.5 79t-196 -79t-78 -198t78 -198t196 -79zM381 163q-55 0 -92.5 28.5t-37.5 77.5q0 36 22 65t58 40q-35 19 -35 65
q0 47 43.5 82t104.5 35q52 0 83.5 -27.5t31.5 -67.5q0 -28 -16.5 -52t-42.5 -35q24 -8 37 -29t13 -48q0 -60 -50.5 -97t-118.5 -37zM421 417q38 0 38 32q0 25 -28 25q-16 0 -26 -9.5t-10 -24.5q0 -23 26 -23zM396 252q20 0 32.5 11t12.5 28q0 30 -34 30q-20 0 -33 -11
t-13 -29q0 -13 9.5 -21t25.5 -8z" />
    <glyph glyph-name="uni2468" unicode="&#x2468;" horiz-adv-x="788" 
d="M430 -8q-154 0 -256 102t-102 256t102 256t256 102q155 0 257 -102t102 -256t-102 -256t-257 -102zM430 73q118 0 196.5 79t78.5 198t-78.5 198t-196.5 79t-196 -79t-78 -198t78 -198t196 -79zM388 291q-52 0 -83.5 31.5t-31.5 81.5q0 66 52 109t127 43q57 0 92.5 -43
t35.5 -111q0 -59 -21 -106.5t-54.5 -75.5t-72 -42.5t-76.5 -14.5q-70 0 -117 45l60 70q22 -19 68 -19q71 0 94 56q-30 -24 -73 -24zM433 460q-19 0 -32.5 -12t-17.5 -32q-4 -19 7 -31t30 -12q21 0 35.5 14t14.5 35q0 17 -10 27.5t-27 10.5z" />
    <glyph glyph-name="lozenge" unicode="&#x25ca;" horiz-adv-x="609" 
d="M196 0l-136 350l247 350h145l135 -350l-246 -350h-145zM290 138l143 212l-76 212l-144 -212z" />
    <glyph glyph-name="circle" unicode="&#x25cb;" horiz-adv-x="781" 
d="M409 -8q-155 0 -256.5 102t-101.5 256t101.5 256t256.5 102t257 -102t102 -256t-102 -256t-257 -102zM409 73q118 0 196.5 79t78.5 198t-78.5 198t-196.5 79t-196 -79t-78 -198t78 -198t196 -79z" />
    <glyph glyph-name="uni25CF" unicode="&#x25cf;" horiz-adv-x="781" 
d="M411 -8q-155 0 -257.5 102t-102.5 256t102.5 256t257.5 102q154 0 255.5 -102t101.5 -256t-101.5 -256t-255.5 -102z" />
    <glyph glyph-name="uniF8FF" unicode="&#xf8ff;" horiz-adv-x="782" 
d="M618 266q50 0 83.5 -35t33.5 -86q0 -61 -49 -107t-111 -46q-57 0 -91.5 40t-25.5 96l13 85h-167l-13 -85q-9 -56 -55.5 -96t-103.5 -40q-50 0 -83 34t-33 84q0 62 48.5 109t110.5 47h85l27 167h-85q-50 0 -83 34.5t-33 85.5q0 62 48.5 108.5t110.5 46.5q56 0 90.5 -40.5
t25.5 -96.5l-13 -85h167l13 85q9 56 56.5 96.5t103.5 40.5q51 0 84 -34.5t33 -85.5q0 -61 -49.5 -108t-110.5 -47h-85l-27 -167h85zM210 486h85l13 85q5 35 -15.5 59.5t-55.5 24.5q-39 0 -68.5 -28.5t-29.5 -66.5q0 -31 20.5 -52.5t50.5 -21.5zM581 571l-13 -85h85
q38 0 68 29t30 67q0 30 -20.5 51.5t-50.5 21.5q-35 0 -64.5 -25t-34.5 -59zM313 266h167l27 167h-167zM238 128l13 85h-84q-39 0 -68.5 -28.5t-29.5 -67.5q0 -30 20.5 -51t50.5 -21q35 0 64 24.5t34 58.5zM583 45q39 0 68.5 28t29.5 66q0 31 -20.5 52.5t-50.5 21.5h-86
l-13 -85q-5 -35 16 -59t56 -24z" />
    <glyph glyph-name="G.ss03" horiz-adv-x="764" 
d="M361 -8q-141 0 -229 87.5t-88 223.5q0 176 120 290.5t298 114.5q132 0 218 -69t86 -176l-184 -36q-3 58 -44.5 93.5t-99.5 35.5q-93 0 -153.5 -65.5t-60.5 -169.5q0 -78 41.5 -127.5t112.5 -49.5q64 0 109.5 27.5t60.5 75.5h-189l22 140h381l-12 -72q-24 -145 -131 -234
t-258 -89z" />
    <glyph glyph-name="Gbreve.ss03" horiz-adv-x="764" 
d="M475 753q-64 0 -99.5 40.5t-25.5 102.5h116q-6 -42 25 -42q34 0 40 42h116q-10 -62 -59 -102.5t-113 -40.5zM361 -8q-141 0 -229 87.5t-88 223.5q0 176 120 290.5t298 114.5q132 0 218 -69t86 -176l-184 -36q-3 58 -44.5 93.5t-99.5 35.5q-93 0 -153.5 -65.5
t-60.5 -169.5q0 -78 41.5 -127.5t112.5 -49.5q64 0 109.5 27.5t60.5 75.5h-189l22 140h381l-12 -72q-24 -145 -131 -234t-258 -89z" />
    <glyph glyph-name="Gcircumflex.ss03" horiz-adv-x="764" 
d="M425 904h145l89 -148h-114l-59 66l-76 -66h-119zM361 -8q-141 0 -229 87.5t-88 223.5q0 176 120 290.5t298 114.5q132 0 218 -69t86 -176l-184 -36q-3 58 -44.5 93.5t-99.5 35.5q-93 0 -153.5 -65.5t-60.5 -169.5q0 -78 41.5 -127.5t112.5 -49.5q64 0 109.5 27.5
t60.5 75.5h-189l22 140h381l-12 -72q-24 -145 -131 -234t-258 -89z" />
    <glyph glyph-name="uni0122.ss03" horiz-adv-x="764" 
d="M361 -8q-141 0 -229 87.5t-88 223.5q0 176 120 290.5t298 114.5q132 0 218 -69t86 -176l-184 -36q-3 58 -44.5 93.5t-99.5 35.5q-93 0 -153.5 -65.5t-60.5 -169.5q0 -78 41.5 -127.5t112.5 -49.5q64 0 109.5 27.5t60.5 75.5h-189l22 140h381l-12 -72q-24 -145 -131 -234
t-258 -89zM205 -190l57 148h175l-117 -148h-115z" />
    <glyph glyph-name="Gdotaccent.ss03" horiz-adv-x="764" 
d="M414 904h172l-24 -151h-172zM361 -8q-141 0 -229 87.5t-88 223.5q0 176 120 290.5t298 114.5q132 0 218 -69t86 -176l-184 -36q-3 58 -44.5 93.5t-99.5 35.5q-93 0 -153.5 -65.5t-60.5 -169.5q0 -78 41.5 -127.5t112.5 -49.5q64 0 109.5 27.5t60.5 75.5h-189l22 140h381
l-12 -72q-24 -145 -131 -234t-258 -89z" />
    <glyph glyph-name="i.loclTRK" horiz-adv-x="273" 
d="M127 708h172l-24 -151h-172zM18 0l80 504h165l-80 -504h-165z" />
    <glyph glyph-name="r.calt" horiz-adv-x="497" 
d="M430 348q-15 5 -33 5q-53 0 -94.5 -40t-55.5 -134l-28 -179h-165l80 504h165l-13 -83q20 40 63 65.5t87 25.5l31 -3z" />
    <glyph glyph-name="racute.calt" horiz-adv-x="497" 
d="M230 560l77 148h185l-147 -148h-115zM430 348q-15 5 -33 5q-53 0 -94.5 -40t-55.5 -134l-28 -179h-165l80 504h165l-13 -83q20 40 63 65.5t87 25.5l31 -3z" />
    <glyph glyph-name="rcaron.calt" horiz-adv-x="497" 
d="M235 560l-88 148h112l59 -66l77 66h120l-135 -148h-145zM430 348q-15 5 -33 5q-53 0 -94.5 -40t-55.5 -134l-28 -179h-165l80 504h165l-13 -83q20 40 63 65.5t87 25.5l31 -3z" />
    <glyph glyph-name="uni0157.calt" horiz-adv-x="497" 
d="M430 348q-15 5 -33 5q-53 0 -94.5 -40t-55.5 -134l-28 -179h-165l80 504h165l-13 -83q20 40 63 65.5t87 25.5l31 -3zM-18 -190l57 148h175l-117 -148h-115z" />
    <glyph glyph-name="germandbls.calt" horiz-adv-x="663" 
d="M414 708q108 0 171 -58.5t55 -146.5l-114 -101q47 -21 78 -63.5t31 -92.5q0 -100 -80.5 -173t-190.5 -73h-104l24 152h90q42 0 69 24t27 61q0 27 -21 42t-57 15h-74l3 93l146 130q-5 19 -26.5 30t-50.5 11q-42 0 -76.5 -40.5t-44.5 -102.5l-66 -415h-179l66 415
q21 131 113 212t211 81z" />
    <glyph glyph-name="a.ss01" horiz-adv-x="610" 
d="M600 504l-80 -504h-165l7 43q-49 -51 -133 -51q-95 0 -147.5 56.5t-52.5 154.5q0 139 78 224t201 85q84 0 120 -48l7 40h165zM280 132q54 0 90 40t36 102q0 45 -23.5 71.5t-64.5 26.5q-54 0 -89.5 -40t-35.5 -102q0 -45 23.5 -71.5t63.5 -26.5z" />
    <glyph glyph-name="aacute.ss01" horiz-adv-x="610" 
d="M281 560l77 148h185l-147 -148h-115zM600 504l-80 -504h-165l7 43q-49 -51 -133 -51q-95 0 -147.5 56.5t-52.5 154.5q0 139 78 224t201 85q84 0 120 -48l7 40h165zM280 132q54 0 90 40t36 102q0 45 -23.5 71.5t-64.5 26.5q-54 0 -89.5 -40t-35.5 -102q0 -45 23.5 -71.5
t63.5 -26.5z" />
    <glyph glyph-name="abreve.ss01" horiz-adv-x="610" 
d="M358 557q-64 0 -99.5 40.5t-25.5 102.5h116q-6 -42 25 -42q34 0 40 42h116q-10 -62 -59 -102.5t-113 -40.5zM600 504l-80 -504h-165l7 43q-49 -51 -133 -51q-95 0 -147.5 56.5t-52.5 154.5q0 139 78 224t201 85q84 0 120 -48l7 40h165zM280 132q54 0 90 40t36 102
q0 45 -23.5 71.5t-64.5 26.5q-54 0 -89.5 -40t-35.5 -102q0 -45 23.5 -71.5t63.5 -26.5z" />
    <glyph glyph-name="acircumflex.ss01" horiz-adv-x="610" 
d="M308 708h145l89 -148h-114l-59 66l-76 -66h-119zM600 504l-80 -504h-165l7 43q-49 -51 -133 -51q-95 0 -147.5 56.5t-52.5 154.5q0 139 78 224t201 85q84 0 120 -48l7 40h165zM280 132q54 0 90 40t36 102q0 45 -23.5 71.5t-64.5 26.5q-54 0 -89.5 -40t-35.5 -102
q0 -45 23.5 -71.5t63.5 -26.5z" />
    <glyph glyph-name="adieresis.ss01" horiz-adv-x="610" 
d="M195 708h150l-24 -150h-150zM418 708h150l-24 -150h-150zM600 504l-80 -504h-165l7 43q-49 -51 -133 -51q-95 0 -147.5 56.5t-52.5 154.5q0 139 78 224t201 85q84 0 120 -48l7 40h165zM280 132q54 0 90 40t36 102q0 45 -23.5 71.5t-64.5 26.5q-54 0 -89.5 -40t-35.5 -102
q0 -45 23.5 -71.5t63.5 -26.5z" />
    <glyph glyph-name="agrave.ss01" horiz-adv-x="610" 
d="M420 560h-115l-101 148h185zM600 504l-80 -504h-165l7 43q-49 -51 -133 -51q-95 0 -147.5 56.5t-52.5 154.5q0 139 78 224t201 85q84 0 120 -48l7 40h165zM280 132q54 0 90 40t36 102q0 45 -23.5 71.5t-64.5 26.5q-54 0 -89.5 -40t-35.5 -102q0 -45 23.5 -71.5
t63.5 -26.5z" />
    <glyph glyph-name="amacron.ss01" horiz-adv-x="610" 
d="M217 578l19 122h288l-19 -122h-288zM600 504l-80 -504h-165l7 43q-49 -51 -133 -51q-95 0 -147.5 56.5t-52.5 154.5q0 139 78 224t201 85q84 0 120 -48l7 40h165zM280 132q54 0 90 40t36 102q0 45 -23.5 71.5t-64.5 26.5q-54 0 -89.5 -40t-35.5 -102q0 -45 23.5 -71.5
t63.5 -26.5z" />
    <glyph glyph-name="aogonek.ss01" horiz-adv-x="610" 
d="M485 -57q0 -25 29 -25q14 0 20 3l-2 -103q-19 -8 -63 -8q-51 0 -81.5 24.5t-30.5 65.5q0 52 48 100h-50l7 43q-49 -51 -133 -51q-95 0 -147.5 56.5t-52.5 154.5q0 139 78 224t201 85q84 0 120 -48l7 40h165l-80 -504l-7.5 -7.5t-9.5 -10.5t-8 -11t-7.5 -14t-2.5 -14z
M280 132q54 0 90 40t36 102q0 45 -23.5 71.5t-64.5 26.5q-54 0 -89.5 -40t-35.5 -102q0 -45 23.5 -71.5t63.5 -26.5z" />
    <glyph glyph-name="aring.ss01" horiz-adv-x="610" 
d="M350 538q-53 0 -88 33.5t-35 83.5t35 83.5t88 33.5q54 0 89 -33.5t35 -83.5t-35 -83.5t-89 -33.5zM350 615q19 0 31 11t12 29t-12 29t-31 11q-18 0 -30 -11t-12 -29t12 -29t30 -11zM600 504l-80 -504h-165l7 43q-49 -51 -133 -51q-95 0 -147.5 56.5t-52.5 154.5
q0 139 78 224t201 85q84 0 120 -48l7 40h165zM280 132q54 0 90 40t36 102q0 45 -23.5 71.5t-64.5 26.5q-54 0 -89.5 -40t-35.5 -102q0 -45 23.5 -71.5t63.5 -26.5z" />
    <glyph glyph-name="aringacute.ss01" horiz-adv-x="610" 
d="M350 538q-53 0 -88 33.5t-35 83.5q0 41 24.5 71.5t63.5 41.5l70 134h185l-147 -148h-4q55 -32 55 -99q0 -50 -35 -83.5t-89 -33.5zM350 695q-18 0 -30 -11t-12 -29t12 -29t30 -11q19 0 31 11t12 29t-12 29t-31 11zM435 504h165l-80 -504h-165l7 43q-49 -51 -133 -51
q-95 0 -147.5 56.5t-52.5 154.5q0 139 78 224t201 85q84 0 120 -48zM280 132q54 0 90 40t36 102q0 45 -23.5 71.5t-64.5 26.5q-54 0 -89.5 -40t-35.5 -102q0 -45 23.5 -71.5t63.5 -26.5z" />
    <glyph glyph-name="atilde.ss01" horiz-adv-x="610" 
d="M252 555l-109 16q14 68 60.5 109.5t108.5 41.5q47 0 89 -27q5 -3 11.5 -7.5t9 -6t7 -4t8.5 -3t9 -0.5q26 0 41 53l110 -16q-13 -68 -60 -110t-109 -42q-48 0 -88 27q-31 21 -46 21q-26 0 -42 -52zM600 504l-80 -504h-165l7 43q-49 -51 -133 -51q-95 0 -147.5 56.5
t-52.5 154.5q0 139 78 224t201 85q84 0 120 -48l7 40h165zM280 132q54 0 90 40t36 102q0 45 -23.5 71.5t-64.5 26.5q-54 0 -89.5 -40t-35.5 -102q0 -45 23.5 -71.5t63.5 -26.5z" />
    <glyph glyph-name="ae.ss01" horiz-adv-x="958" 
d="M938 303q0 -38 -15 -101h-348q12 -74 90 -74q66 0 93 55l148 -43q-73 -148 -247 -148q-82 0 -131 58l-8 -50h-165l7 43q-49 -51 -133 -51q-95 0 -147.5 56.5t-52.5 154.5q0 139 78 224t201 85q84 0 120 -48l7 40h165l-6 -39q60 47 136 47q58 0 100.5 -18.5t65 -50.5
t32.5 -66.5t10 -73.5zM765 316q3 34 -15 55t-59 21q-74 0 -103 -76h177zM280 132q54 0 90 40t36 102q0 45 -23.5 71.5t-64.5 26.5q-54 0 -89.5 -40t-35.5 -102q0 -45 23.5 -71.5t63.5 -26.5z" />
    <glyph glyph-name="aeacute.ss01" horiz-adv-x="958" 
d="M734 708l-147 -148h-115l77 148h185zM938 303q0 -38 -15 -101h-348q12 -74 90 -74q66 0 93 55l148 -43q-73 -148 -247 -148q-82 0 -131 58l-8 -50h-165l7 43q-49 -51 -133 -51q-95 0 -147.5 56.5t-52.5 154.5q0 139 78 224t201 85q84 0 120 -48l7 40h165l-6 -39
q60 47 136 47q58 0 100.5 -18.5t65 -50.5t32.5 -66.5t10 -73.5zM765 316q3 34 -15 55t-59 21q-74 0 -103 -76h177zM280 132q54 0 90 40t36 102q0 45 -23.5 71.5t-64.5 26.5q-54 0 -89.5 -40t-35.5 -102q0 -45 23.5 -71.5t63.5 -26.5z" />
    <glyph glyph-name="g.ss02" horiz-adv-x="541" 
d="M212 167q-37 -16 -37 -35t35 -19h103q87 0 133 -33t46 -92q0 -50 -24 -86t-65.5 -55t-90 -28t-105.5 -9q-111 0 -174 31.5t-63 95.5q0 28 17.5 58t46.5 53q-20 23 -20 53q0 40 25.5 70.5t70.5 48.5q-33 39 -33 93q0 88 67.5 143.5t172.5 55.5q49 0 88 -14l84 85l84 -79
l-82 -83q12 -27 12 -60q0 -88 -67.5 -143t-173.5 -55q-30 0 -50 4zM297 388q-29 0 -48 -16.5t-19 -41.5q0 -19 13.5 -31t37.5 -12q29 0 48.5 16t19.5 41q0 20 -14 32t-38 12zM183 -12q-19 0 -39 3q-10 -13 -10 -27t19.5 -19.5t73.5 -5.5q60 0 81.5 7t21.5 25q0 12 -15 14.5
t-53 2.5h-79z" />
    <glyph glyph-name="gbreve.ss02" horiz-adv-x="541" 
d="M318 557q-64 0 -99.5 40.5t-25.5 102.5h116q-6 -42 25 -42q34 0 40 42h116q-10 -62 -59 -102.5t-113 -40.5zM212 167q-37 -16 -37 -35t35 -19h103q87 0 133 -33t46 -92q0 -50 -24 -86t-65.5 -55t-90 -28t-105.5 -9q-111 0 -174 31.5t-63 95.5q0 28 17.5 58t46.5 53
q-20 23 -20 53q0 40 25.5 70.5t70.5 48.5q-33 39 -33 93q0 88 67.5 143.5t172.5 55.5q49 0 88 -14l84 85l84 -79l-82 -83q12 -27 12 -60q0 -88 -67.5 -143t-173.5 -55q-30 0 -50 4zM297 388q-29 0 -48 -16.5t-19 -41.5q0 -19 13.5 -31t37.5 -12q29 0 48.5 16t19.5 41
q0 20 -14 32t-38 12zM183 -12q-19 0 -39 3q-10 -13 -10 -27t19.5 -19.5t73.5 -5.5q60 0 81.5 7t21.5 25q0 12 -15 14.5t-53 2.5h-79z" />
    <glyph glyph-name="gcircumflex.ss02" horiz-adv-x="541" 
d="M212 167q-37 -16 -37 -35t35 -19h103q87 0 133 -33t46 -92q0 -50 -24 -86t-65.5 -55t-90 -28t-105.5 -9q-111 0 -174 31.5t-63 95.5q0 28 17.5 58t46.5 53q-20 23 -20 53q0 40 25.5 70.5t70.5 48.5q-33 39 -33 93q0 88 67.5 143.5t172.5 55.5q49 0 88 -14l62 62h-79
l-59 66l-76 -66h-119l134 148h145l75 -126l1 1l84 -79l-82 -83q12 -27 12 -60q0 -88 -67.5 -143t-173.5 -55q-30 0 -50 4zM297 388q-29 0 -48 -16.5t-19 -41.5q0 -19 13.5 -31t37.5 -12q29 0 48.5 16t19.5 41q0 20 -14 32t-38 12zM183 -12q-19 0 -39 3q-10 -13 -10 -27
t19.5 -19.5t73.5 -5.5q60 0 81.5 7t21.5 25q0 12 -15 14.5t-53 2.5h-79z" />
    <glyph glyph-name="uni0123.ss02" horiz-adv-x="541" 
d="M471 708l-47 -148h-169l88 148h128zM212 167q-37 -16 -37 -35t35 -19h103q87 0 133 -33t46 -92q0 -50 -24 -86t-65.5 -55t-90 -28t-105.5 -9q-111 0 -174 31.5t-63 95.5q0 28 17.5 58t46.5 53q-20 23 -20 53q0 40 25.5 70.5t70.5 48.5q-33 39 -33 93q0 88 67.5 143.5
t172.5 55.5q49 0 88 -14l84 85l84 -79l-82 -83q12 -27 12 -60q0 -88 -67.5 -143t-173.5 -55q-30 0 -50 4zM297 388q-29 0 -48 -16.5t-19 -41.5q0 -19 13.5 -31t37.5 -12q29 0 48.5 16t19.5 41q0 20 -14 32t-38 12zM183 -12q-19 0 -39 3q-10 -13 -10 -27t19.5 -19.5
t73.5 -5.5q60 0 81.5 7t21.5 25q0 12 -15 14.5t-53 2.5h-79z" />
    <glyph glyph-name="gdotaccent.ss02" horiz-adv-x="541" 
d="M429 708l-24 -151h-172l24 151h172zM212 167q-37 -16 -37 -35t35 -19h103q87 0 133 -33t46 -92q0 -50 -24 -86t-65.5 -55t-90 -28t-105.5 -9q-111 0 -174 31.5t-63 95.5q0 28 17.5 58t46.5 53q-20 23 -20 53q0 40 25.5 70.5t70.5 48.5q-33 39 -33 93q0 88 67.5 143.5
t172.5 55.5q49 0 88 -14l84 85l84 -79l-82 -83q12 -27 12 -60q0 -88 -67.5 -143t-173.5 -55q-30 0 -50 4zM297 388q-29 0 -48 -16.5t-19 -41.5q0 -19 13.5 -31t37.5 -12q29 0 48.5 16t19.5 41q0 20 -14 32t-38 12zM183 -12q-19 0 -39 3q-10 -13 -10 -27t19.5 -19.5
t73.5 -5.5q60 0 81.5 7t21.5 25q0 12 -15 14.5t-53 2.5h-79z" />
    <glyph glyph-name="f_f.dlig" horiz-adv-x="749" 
d="M56 0l58 368h-77l22 136h77l5 31q15 91 80 142.5t155 51.5q45 0 81 -14l-33 -131q-24 11 -46 11q-29 0 -48.5 -17.5t-24.5 -48.5l-4 -25h111l-22 -136h-111l-58 -368h-165zM410 0l58 368h-77l22 136h77l5 31q15 91 80 142.5t155 51.5q45 0 81 -14l-33 -131q-24 11 -46 11
q-29 0 -48.5 -17.5t-24.5 -48.5l-4 -25h111l-22 -136h-111l-58 -368h-165z" />
    <glyph glyph-name="f_f_i.dlig" horiz-adv-x="989" 
d="M991 504l-80 -504h-165l58 368h-203l-58 -368h-161l58 368h-161l-58 -368h-165l58 368h-77l22 136h77l5 31q15 91 80 142.5t155 51.5q45 0 81 -14l-33 -131q-24 11 -46 11q-29 0 -48.5 -17.5t-24.5 -48.5l-4 -25h161l5 31q15 91 80 142.5t155 51.5q45 0 81 -14l-33 -131
q-24 11 -46 11q-30 0 -51.5 -18.5t-26.5 -51.5l-3 -21h368zM855 708h172l-24 -151h-172z" />
    <glyph glyph-name="f_f_l.dlig" horiz-adv-x="1017" 
d="M874 708h165l-112 -708h-165l68 428l-10 -60h-219l-58 -368h-161l58 368h-161l-58 -368h-165l58 368h-77l22 136h77l5 31q15 91 80 142.5t155 51.5q45 0 81 -14l-33 -131q-24 11 -46 11q-29 0 -48.5 -17.5t-24.5 -48.5l-4 -25h161l5 31q15 91 80 142.5t155 51.5
q45 0 81 -14l-33 -131q-24 11 -46 11q-30 0 -51.5 -18.5t-26.5 -51.5l-3 -21h219z" />
    <glyph glyph-name="f_i.dlig" horiz-adv-x="649" 
d="M651 504l-80 -504h-165l58 368h-193l-58 -368h-161l58 368h-73l22 136h73l5 31q15 91 80 142.5t155 51.5q45 0 81 -14l-33 -131q-24 11 -46 11q-30 0 -51.5 -18.5t-26.5 -51.5l-3 -21h358zM515 708h172l-24 -151h-172z" />
    <glyph glyph-name="f_l.dlig" horiz-adv-x="676" 
d="M533 708h165l-112 -708h-165l58 368h-208l-58 -368h-161l58 368h-73l22 136h73l5 31q15 91 80 142.5t155 51.5q45 0 81 -14l-33 -131q-24 11 -46 11q-30 0 -51.5 -18.5t-26.5 -51.5l-3 -21h208z" />
    <glyph glyph-name="three.ss04" horiz-adv-x="588" 
d="M257 -8q-110 0 -177.5 62t-52.5 161l173 7q-5 -37 16.5 -62.5t62.5 -25.5q46 0 75.5 24.5t29.5 62.5q0 32 -22 51t-61 19h-50l20 138h41q44 0 73.5 25.5t29.5 63.5q0 26 -22 42.5t-54 16.5q-34 0 -63.5 -25.5t-34.5 -58.5l-156 9q12 82 92.5 144t182.5 62
q94 0 154.5 -49.5t60.5 -121.5q0 -65 -42.5 -113t-107.5 -62q59 -4 95 -42.5t36 -96.5q0 -97 -87.5 -164t-211.5 -67z" />
    <glyph glyph-name="uni2462.ss04" horiz-adv-x="788" 
d="M430 -8q-154 0 -256 102t-102 256t102 256t256 102q155 0 257 -102t102 -256t-102 -256t-257 -102zM430 73q118 0 196.5 79t78.5 198t-78.5 198t-196.5 79t-196 -79t-78 -198t78 -198t196 -79zM384 169q-59 0 -97.5 34.5t-29.5 89.5l106 3q-2 -17 7.5 -28t27.5 -11
q20 0 33.5 11t13.5 27q0 14 -10.5 23.5t-27.5 9.5h-26l13 86h22q20 0 33.5 11.5t13.5 28.5q0 12 -9.5 19.5t-24.5 7.5q-17 0 -30 -11t-15 -27l-97 5q8 45 52.5 79.5t100.5 34.5q53 0 87 -28t34 -67q0 -35 -22.5 -61t-56.5 -34q31 -3 50 -23.5t19 -51.5q0 -54 -48.5 -91
t-118.5 -37z" />
    <glyph glyph-name="zero.tf" horiz-adv-x="640" 
d="M275 -8q-116 0 -182.5 78.5t-66.5 211.5q0 186 103 306t259 120q117 0 183.5 -78.5t66.5 -211.5q0 -186 -103 -306t-260 -120zM299 144q76 0 118.5 73.5t42.5 193.5q0 70 -24.5 107.5t-71.5 37.5q-76 0 -118 -74t-42 -193q0 -145 95 -145z" />
    <glyph glyph-name="one.tf" horiz-adv-x="640" 
d="M413 152h154l-24 -152h-505l24 152h187l58 363q-93 -55 -167 -69l25 158q90 21 201 96h134z" />
    <glyph glyph-name="two.tf" horiz-adv-x="640" 
d="M32 0l21 140l267 193q67 49 96 84.5t29 70.5q0 31 -20 49.5t-54 18.5q-45 0 -75.5 -36.5t-33.5 -96.5l-167 11q3 112 94 193t206 81q105 0 167.5 -55.5t62.5 -144.5q0 -78 -52 -145.5t-170 -145.5l-98 -65h264l-24 -152h-513z" />
    <glyph glyph-name="three.tf" horiz-adv-x="640" 
d="M279 -8q-113 0 -178.5 58t-60.5 152l164 27q2 -38 29 -61.5t71 -23.5q49 0 81.5 28.5t32.5 73.5q0 34 -22.5 55t-61.5 21q-45 0 -85 -25l-48 118l185 133h-271l24 152h481l-22 -140l-182 -128q84 -1 132.5 -47t48.5 -125q0 -118 -90 -193t-228 -75z" />
    <glyph glyph-name="four.tf" horiz-adv-x="640" 
d="M325 0l19 122h-337l24 152l397 426h187l-68 -426h79l-24 -152h-79l-19 -122h-179zM212 274h156l33 208z" />
    <glyph glyph-name="five.tf" horiz-adv-x="640" 
d="M292 -8q-105 0 -169 53.5t-65 142.5l164 29q5 -34 27.5 -53.5t59.5 -19.5q47 0 78 30.5t31 76.5q0 36 -23 57t-63 21q-66 0 -117 -57l-125 28l124 400h399l-24 -152h-269l-42 -126q53 42 126 42q88 0 141 -53t53 -139q0 -124 -86 -202t-220 -78z" />
    <glyph glyph-name="six.tf" horiz-adv-x="640" 
d="M394 474q95 0 152.5 -57t57.5 -148q0 -119 -84 -198t-206 -79q-119 0 -189 78t-70 207q0 107 36 192t95 136t129 77t144 26q127 0 205 -78l-98 -125q-53 51 -125 51t-125 -39t-74 -104q61 61 152 61zM319 144q40 0 71.5 28.5t38.5 71.5t-16.5 70.5t-66.5 27.5
q-49 0 -83 -32.5t-34 -80.5q0 -37 24.5 -61t65.5 -24z" />
    <glyph glyph-name="seven.tf" horiz-adv-x="640" 
d="M677 700l-24 -152q-312 -360 -358 -548h-179q72 239 353 548h-209l-17 -103h-165l41 255h558z" />
    <glyph glyph-name="eight.tf" horiz-adv-x="640" 
d="M284 -8q-101 0 -167.5 51.5t-66.5 138.5q0 67 41.5 120.5t107.5 74.5q-31 16 -49 48.5t-18 71.5q0 85 77 148t188 63q92 0 148.5 -48.5t56.5 -120.5q0 -52 -31.5 -96.5t-81.5 -65.5q44 -16 69.5 -55t25.5 -89q0 -107 -90 -174t-210 -67zM355 443q38 0 62.5 21.5
t24.5 55.5q0 26 -17.5 41.5t-48.5 15.5q-38 0 -62 -21.5t-24 -55.5q0 -26 17 -41.5t48 -15.5zM306 134q48 0 77 25t29 66q0 31 -21.5 49t-59.5 18q-47 0 -76.5 -25t-29.5 -65q0 -31 22 -49.5t59 -18.5z" />
    <glyph glyph-name="nine.tf" horiz-adv-x="640" 
d="M277 226q-95 0 -152.5 57t-57.5 148q0 119 84 198t206 79q119 0 189 -78t70 -207q0 -107 -36 -192t-95 -136t-129 -77t-144 -26q-127 0 -205 78l98 125q53 -51 125 -51t125 39t74 104q-61 -61 -152 -61zM352 556q-40 0 -71.5 -28.5t-38.5 -71.5t16.5 -70.5t66.5 -27.5
q49 0 83 32.5t34 80.5q0 37 -24.5 61t-65.5 24z" />
    <glyph glyph-name="three.tf.ss04" horiz-adv-x="640" 
d="M283 -8q-110 0 -177.5 62t-52.5 161l173 7q-5 -37 16.5 -62.5t62.5 -25.5q46 0 75.5 24.5t29.5 62.5q0 32 -22 51t-61 19h-50l20 138h41q44 0 73.5 25.5t29.5 63.5q0 26 -22 42.5t-54 16.5q-34 0 -63.5 -25.5t-34.5 -58.5l-156 9q12 82 92.5 144t182.5 62
q94 0 154.5 -49.5t60.5 -121.5q0 -65 -42.5 -113t-107.5 -62q59 -4 95 -42.5t36 -96.5q0 -97 -87.5 -164t-211.5 -67z" />
    <glyph glyph-name="zero.subs" horiz-adv-x="389" 
d="M130 -174q-68 0 -107.5 44t-39.5 118q0 101 60 166t150 65q68 0 107.5 -43.5t39.5 -117.5q0 -102 -60 -167t-150 -65zM146 -78q39 0 60 35t21 95q0 71 -50 71q-39 0 -60 -35t-21 -95q0 -71 50 -71z" />
    <glyph glyph-name="one.subs" horiz-adv-x="246" 
d="M45 -170l43 268q-55 -31 -94 -38l15 100q51 11 116 55h85l-61 -385h-104z" />
    <glyph glyph-name="two.subs" horiz-adv-x="347" 
d="M-34 -170l12 86l127 91q78 55 78 86q0 30 -33 30q-20 0 -33.5 -18t-14.5 -48l-107 7q3 62 55.5 108.5t115.5 46.5q60 0 96 -31.5t36 -82.5q0 -88 -121 -158l-36 -21h129l-15 -96h-289z" />
    <glyph glyph-name="three.subs" horiz-adv-x="356" 
d="M111 -174q-63 0 -100 32t-35 85l104 17q4 -17 17 -27.5t32 -10.5q21 0 35 12t14 31q0 15 -10 25t-27 10q-29 0 -48 -15l-30 76l87 57h-135l16 97h268l-15 -97l-88 -50q45 -2 70 -26.5t25 -66.5q0 -66 -51 -107.5t-129 -41.5z" />
    <glyph glyph-name="four.subs" horiz-adv-x="375" 
d="M141 -170l9 58h-182l16 97l215 230h117l-36 -230h38l-16 -97h-38l-9 -58h-114zM98 -15h68l14 89z" />
    <glyph glyph-name="five.subs" horiz-adv-x="348" 
d="M110 -174q-58 0 -93.5 29.5t-36.5 78.5l103 18q8 -30 39 -30q20 0 34 13t14 32q0 15 -11 24t-28 9q-29 0 -55 -26l-79 17l69 224h224l-15 -96h-144l-20 -57q27 23 68 23q47 0 75.5 -28.5t28.5 -75.5q0 -69 -48.5 -112t-124.5 -43z" />
    <glyph glyph-name="six.subs" horiz-adv-x="365" 
d="M183 91q51 0 82.5 -31.5t31.5 -81.5q0 -66 -52 -109t-128 -43q-58 0 -93 43t-35 111q0 59 21 106.5t54.5 75.5t72 42.5t77.5 14.5q71 0 116 -45l-60 -70q-19 19 -67 19q-71 0 -94 -56q28 24 74 24zM138 -78q19 0 32.5 12t17.5 32q4 19 -7 31t-30 12q-21 0 -36 -14
t-15 -35q0 -17 10.5 -27.5t27.5 -10.5z" />
    <glyph glyph-name="seven.subs" horiz-adv-x="318" 
d="M-6 -170q80 171 187 289h-181l15 96h293l-15 -96q-130 -153 -191 -289h-108z" />
    <glyph glyph-name="eight.subs" horiz-adv-x="349" 
d="M111 -174q-54 0 -92.5 29t-38.5 77q0 36 22 65t58 40q-35 19 -35 65t44 81.5t105 35.5q51 0 82.5 -27.5t31.5 -66.5q0 -29 -16.5 -52.5t-42.5 -35.5q24 -8 37 -29t13 -48q0 -60 -50 -97t-118 -37zM152 79q16 0 26.5 9.5t10.5 23.5q0 25 -28 25q-16 0 -26.5 -9.5
t-10.5 -23.5q0 -25 28 -25zM126 -85q19 0 31.5 11t12.5 28q0 30 -34 30q-20 0 -33 -11t-13 -29q0 -13 10 -21t26 -8z" />
    <glyph glyph-name="nine.subs" horiz-adv-x="365" 
d="M118 -46q-52 0 -83.5 31.5t-31.5 81.5q0 66 52 109t127 43q58 0 93.5 -43t35.5 -111q0 -59 -21 -106.5t-55 -75.5t-72.5 -42.5t-76.5 -14.5q-71 0 -116 45l60 70q21 -19 68 -19q69 0 94 56q-31 -24 -74 -24zM163 123q-19 0 -32 -12t-17 -32q-4 -19 6.5 -31t29.5 -12
q21 0 35.5 14t14.5 35q0 17 -10 27.5t-27 10.5z" />
    <glyph glyph-name="zero.dnom" horiz-adv-x="389" 
d="M157 -4q-68 0 -107.5 44t-39.5 118q0 101 60 166t150 65q68 0 107.5 -43.5t39.5 -117.5q0 -102 -60 -167t-150 -65zM173 92q39 0 60 35t21 95q0 71 -50 71q-39 0 -60 -35t-21 -95q0 -71 50 -71z" />
    <glyph glyph-name="one.dnom" horiz-adv-x="246" 
d="M72 0l42 268q-53 -31 -94 -38l16 100q51 11 116 55h85l-61 -385h-104z" />
    <glyph glyph-name="two.dnom" horiz-adv-x="347" 
d="M-7 0l12 86l127 91q78 55 78 86q0 30 -33 30q-20 0 -33.5 -18t-14.5 -48l-107 7q3 62 55.5 108.5t115.5 46.5q60 0 96 -31.5t36 -82.5q0 -87 -122 -158l-36 -21h130l-15 -96h-289z" />
    <glyph glyph-name="three.dnom" horiz-adv-x="356" 
d="M138 -4q-63 0 -100 32t-35 85l104 17q4 -17 17 -27.5t32 -10.5q21 0 35 12t14 31q0 15 -10.5 25t-26.5 10q-29 0 -48 -15l-30 76l87 57h-135l16 97h268l-15 -97l-88 -50q45 -2 70 -26.5t25 -66.5q0 -66 -51 -107.5t-129 -41.5z" />
    <glyph glyph-name="four.dnom" horiz-adv-x="375" 
d="M168 0l9 58h-182l16 97l215 230h117l-36 -230h38l-16 -97h-38l-9 -58h-114zM125 155h68l14 89z" />
    <glyph glyph-name="five.dnom" horiz-adv-x="348" 
d="M137 -4q-58 0 -94 29.5t-37 78.5l104 18q8 -30 39 -30q20 0 33.5 13t13.5 32q0 15 -10.5 24t-27.5 9q-29 0 -55 -26l-80 17l70 224h224l-15 -96h-144l-20 -57q26 23 68 23q47 0 75.5 -28.5t28.5 -75.5q0 -69 -48.5 -112t-124.5 -43z" />
    <glyph glyph-name="six.dnom" horiz-adv-x="365" 
d="M210 261q51 0 82.5 -31.5t31.5 -81.5q0 -66 -52 -109t-128 -43q-58 0 -93 43t-35 111q0 59 21 106.5t54.5 75.5t72 42.5t77.5 14.5q72 0 115 -45l-59 -70q-19 19 -67 19q-71 0 -94 -56q28 24 74 24zM165 92q19 0 32.5 12t17.5 32q4 19 -7 31t-30 12q-21 0 -36 -14
t-15 -35q0 -17 10.5 -27.5t27.5 -10.5z" />
    <glyph glyph-name="seven.dnom" horiz-adv-x="318" 
d="M21 0q80 171 187 289h-181l14 96h294l-15 -96q-130 -153 -191 -289h-108z" />
    <glyph glyph-name="eight.dnom" horiz-adv-x="349" 
d="M137 -4q-54 0 -92 29t-38 77q0 36 22 65t58 40q-35 19 -35 65q0 47 43.5 82t104.5 35q52 0 83.5 -27.5t31.5 -67.5q0 -28 -16.5 -52t-42.5 -35q24 -8 37 -29t13 -48q0 -60 -50.5 -97t-118.5 -37zM178 250q17 0 27 8.5t10 23.5q0 25 -28 25q-16 0 -25.5 -9.5t-9.5 -24.5
q0 -23 26 -23zM152 85q20 0 32.5 11t12.5 28q0 30 -34 30q-20 0 -33 -11t-13 -29q0 -13 9.5 -21t25.5 -8z" />
    <glyph glyph-name="nine.dnom" horiz-adv-x="365" 
d="M145 124q-52 0 -83.5 31.5t-31.5 81.5q0 66 52 109t127 43q58 0 93 -43t35 -111q0 -59 -21 -106.5t-54.5 -75.5t-72 -42.5t-76.5 -14.5q-70 0 -117 45l61 70q21 -19 68 -19q70 0 93 56q-30 -24 -73 -24zM190 293q-19 0 -32.5 -12t-17.5 -32q-4 -19 7 -31t30 -12
q21 0 35.5 14t14.5 35q0 17 -10 27.5t-27 10.5z" />
    <glyph glyph-name="zero.numr" horiz-adv-x="389" 
d="M207 311q-68 0 -107.5 44t-39.5 118q0 101 60 166t150 65q68 0 107.5 -43.5t39.5 -117.5q0 -102 -60 -167t-150 -65zM222 407q39 0 60.5 35t21.5 95q0 71 -50 71q-39 0 -60 -35t-21 -95q0 -71 49 -71z" />
    <glyph glyph-name="one.numr" horiz-adv-x="246" 
d="M122 315l42 268q-53 -31 -94 -38l16 100q52 11 116 55h85l-61 -385h-104z" />
    <glyph glyph-name="two.numr" horiz-adv-x="347" 
d="M43 315l12 86l127 91q78 55 78 86q0 30 -33 30q-20 0 -33.5 -18t-14.5 -48l-107 7q3 62 55.5 108.5t115.5 46.5q60 0 95.5 -31.5t35.5 -82.5q0 -88 -121 -158l-36 -21h130l-15 -96h-289z" />
    <glyph glyph-name="three.numr" horiz-adv-x="356" 
d="M188 311q-63 0 -100 32t-35 85l103 17q10 -38 49 -38q21 0 35.5 12t14.5 31q0 15 -10.5 25t-26.5 10q-29 0 -49 -15l-30 76l88 57h-135l16 97h268l-15 -97l-88 -50q45 -2 70 -26.5t25 -66.5q0 -66 -51 -107.5t-129 -41.5z" />
    <glyph glyph-name="four.numr" horiz-adv-x="375" 
d="M218 315l9 58h-182l15 97l216 230h117l-37 -230h38l-15 -97h-38l-9 -58h-114zM174 470h68l15 89z" />
    <glyph glyph-name="five.numr" horiz-adv-x="348" 
d="M187 311q-58 0 -94 29.5t-37 78.5l104 18q8 -30 38 -30q20 0 34 13t14 32q0 15 -10.5 24t-27.5 9q-29 0 -55 -26l-80 17l70 224h224l-15 -96h-144l-20 -57q26 23 68 23q47 0 75.5 -28.5t28.5 -75.5q0 -69 -48.5 -112t-124.5 -43z" />
    <glyph glyph-name="six.numr" horiz-adv-x="366" 
d="M261 576q51 0 82.5 -31.5t31.5 -81.5q0 -64 -48.5 -108t-109.5 -44q-70 0 -110.5 44t-40.5 120q0 107 69 168t147 61q82 0 125 -45l-59 -70q-19 19 -67 19q-70 0 -95 -56q30 24 75 24zM215 407q19 0 32.5 12t17.5 32q4 19 -6.5 31t-29.5 12q-21 0 -36 -14t-15 -35
q0 -17 10.5 -27.5t26.5 -10.5z" />
    <glyph glyph-name="seven.numr" horiz-adv-x="318" 
d="M71 315q80 171 187 289h-181l14 96h294l-15 -96q-129 -150 -191 -289h-108z" />
    <glyph glyph-name="eight.numr" horiz-adv-x="349" 
d="M187 311q-55 0 -92.5 28.5t-37.5 77.5q0 36 22 65t58 40q-35 19 -35 65q0 47 43.5 82t104.5 35q52 0 83.5 -27.5t31.5 -67.5q0 -28 -16.5 -52t-42.5 -35q24 -8 37 -29t13 -48q0 -60 -50.5 -97t-118.5 -37zM227 565q38 0 38 32q0 25 -28 25q-16 0 -26 -9.5t-10 -24.5
q0 -23 26 -23zM202 400q20 0 32.5 11t12.5 28q0 30 -34 30q-20 0 -33 -11t-13 -29q0 -13 9.5 -21t25.5 -8z" />
    <glyph glyph-name="nine.numr" horiz-adv-x="365" 
d="M195 439q-52 0 -83.5 31.5t-31.5 81.5q0 66 52 109t127 43q57 0 92.5 -43t35.5 -111q0 -59 -21 -106.5t-54.5 -75.5t-72 -42.5t-76.5 -14.5q-70 0 -117 45l60 70q22 -19 68 -19q71 0 94 56q-30 -24 -73 -24zM240 608q-19 0 -32.5 -12t-17.5 -32q-4 -19 7 -31t30 -12
q21 0 35.5 14t14.5 35q0 17 -10 27.5t-27 10.5z" />
    <glyph glyph-name="zero.sups" horiz-adv-x="389" 
d="M217 371q-68 0 -108 44t-40 118q0 101 60 166t150 65q68 0 107.5 -43.5t39.5 -117.5q0 -102 -60 -167t-149 -65zM232 467q39 0 60 35t21 95q0 71 -49 71q-39 0 -60 -35t-21 -95q0 -71 49 -71z" />
    <glyph glyph-name="one.sups" horiz-adv-x="246" 
d="M131 375l43 268q-55 -31 -94 -38l16 100q53 12 115 55h85l-61 -385h-104z" />
    <glyph glyph-name="two.sups" horiz-adv-x="347" 
d="M52 375l12 86l127 91q79 55 79 86q0 14 -9 22t-24 8q-20 0 -33.5 -18t-15.5 -48l-107 7q4 62 56 108.5t115 46.5q60 0 96 -31.5t36 -82.5q0 -88 -121 -158l-36 -21h130l-16 -96h-289z" />
    <glyph glyph-name="three.sups" horiz-adv-x="356" 
d="M198 371q-63 0 -100.5 32t-35.5 85l104 17q4 -17 17 -27.5t32 -10.5q21 0 35.5 12t14.5 31q0 15 -10.5 25t-27.5 10q-28 0 -48 -15l-30 76l87 57h-135l16 97h268l-15 -97l-88 -50q45 -2 70 -26.5t25 -66.5q0 -66 -50.5 -107.5t-128.5 -41.5z" />
    <glyph glyph-name="four.sups" horiz-adv-x="375" 
d="M227 375l10 58h-182l15 97l215 230h117l-36 -230h38l-15 -97h-38l-10 -58h-114zM184 530h68l14 89z" />
    <glyph glyph-name="five.sups" horiz-adv-x="348" 
d="M197 371q-58 0 -94 29.5t-37 78.5l104 18q8 -30 38 -30q20 0 34 13t14 32q0 15 -10.5 24t-28.5 9q-29 0 -55 -26l-79 17l69 224h224l-15 -96h-144l-20 -57q27 23 69 23q46 0 74.5 -28.5t28.5 -75.5q0 -69 -48.5 -112t-123.5 -43z" />
    <glyph glyph-name="six.sups" horiz-adv-x="365" 
d="M270 636q51 0 82.5 -31.5t31.5 -81.5q0 -66 -52.5 -109t-127.5 -43q-58 0 -93.5 43t-35.5 111q0 59 21 106.5t54.5 75.5t72 42.5t77.5 14.5q71 0 116 -45l-59 -70q-19 19 -67 19q-72 0 -95 -56q30 24 75 24zM224 467q19 0 32.5 12t17.5 32q4 19 -6.5 31t-29.5 12
q-21 0 -36.5 -14t-15.5 -35q0 -17 11 -27.5t27 -10.5z" />
    <glyph glyph-name="seven.sups" horiz-adv-x="318" 
d="M80 375q83 173 187 289h-181l15 96h293l-15 -96q-130 -153 -191 -289h-108z" />
    <glyph glyph-name="eight.sups" horiz-adv-x="349" 
d="M198 371q-55 0 -93.5 29t-38.5 77q0 36 22.5 65t57.5 40q-35 19 -35 65t44 81.5t105 35.5q51 0 82.5 -27.5t31.5 -66.5q0 -29 -16 -53t-43 -35q24 -8 37 -29t13 -48q0 -60 -50 -97t-117 -37zM238 624q16 0 26.5 9.5t10.5 23.5q0 25 -28 25q-16 0 -26.5 -9.5t-10.5 -23.5
q0 -25 28 -25zM212 460q20 0 32.5 11t12.5 28q0 14 -9 22t-25 8q-20 0 -33 -11t-13 -29q0 -13 9.5 -21t25.5 -8z" />
    <glyph glyph-name="nine.sups" horiz-adv-x="365" 
d="M204 499q-52 0 -83.5 31.5t-31.5 81.5q0 66 52 109t127 43q58 0 93.5 -43t35.5 -111q0 -59 -21 -106.5t-54.5 -75.5t-72 -42.5t-76.5 -14.5q-72 0 -117 45l60 70q21 -19 68 -19q69 0 94 56q-31 -24 -74 -24zM250 668q-19 0 -32.5 -12t-17.5 -32q-4 -19 6.5 -31t29.5 -12
q21 0 35.5 14t14.5 35q0 17 -10 27.5t-26 10.5z" />
    <glyph glyph-name="three.subs.ss04" horiz-adv-x="341" 
d="M104 -174q-59 0 -97.5 34.5t-29.5 89.5l107 3q-3 -17 6.5 -28t27.5 -11q20 0 33.5 11t13.5 27q0 14 -10 23.5t-27 9.5h-26l12 86h22q20 0 33.5 11.5t13.5 28.5q0 12 -9.5 19.5t-24.5 7.5q-17 0 -30 -11t-15 -27l-96 5q7 45 52 79.5t101 34.5q52 0 86 -28t34 -67
q0 -35 -22.5 -61t-55.5 -34q31 -3 49.5 -23.5t18.5 -51.5q0 -54 -48.5 -91t-118.5 -37z" />
    <glyph glyph-name="three.dnom.ss04" horiz-adv-x="341" 
d="M131 -8q-60 0 -98.5 34.5t-29.5 89.5l107 3q-3 -17 7 -28t28 -11q20 0 33 11t13 27q0 14 -10 23.5t-27 9.5h-26l13 86h22q20 0 33.5 11.5t13.5 28.5q0 12 -10 19.5t-25 7.5q-17 0 -29.5 -11t-15.5 -27l-96 5q7 45 52 79.5t101 34.5q52 0 86 -28t34 -67q0 -35 -22 -61
t-56 -34q31 -3 49.5 -23.5t18.5 -51.5q0 -54 -48.5 -91t-117.5 -37z" />
    <glyph glyph-name="three.numr.ss04" horiz-adv-x="342" 
d="M182 317q-59 0 -97.5 34.5t-29.5 89.5l106 3q-2 -17 7.5 -28t27.5 -11q20 0 33.5 11t13.5 27q0 14 -10.5 23.5t-27.5 9.5h-26l13 86h22q20 0 33.5 11.5t13.5 28.5q0 12 -9.5 19.5t-24.5 7.5q-17 0 -30 -11t-15 -27l-97 5q8 45 52.5 79.5t100.5 34.5q53 0 87 -28t34 -67
q0 -35 -22.5 -61t-56.5 -34q31 -3 50 -23.5t19 -51.5q0 -54 -48.5 -91t-118.5 -37z" />
    <glyph glyph-name="uni00B3.ss04" horiz-adv-x="342" 
d="M191 371q-60 0 -98.5 34.5t-29.5 89.5l107 3q-3 -17 7 -28t28 -11q20 0 33.5 11t13.5 27q0 14 -10.5 23.5t-27.5 9.5h-26l13 86h22q20 0 33.5 11.5t13.5 28.5q0 12 -10 19.5t-25 7.5q-17 0 -29.5 -11t-15.5 -27l-96 5q7 45 52 79.5t101 34.5q52 0 86 -28t34 -67
q0 -35 -22 -61t-56 -34q31 -3 49.5 -23.5t18.5 -51.5q0 -54 -48.5 -91t-117.5 -37z" />
    <glyph glyph-name="three.sups.ss04" horiz-adv-x="341" 
d="M191 371q-60 0 -98.5 34.5t-29.5 89.5l107 3q-3 -17 7 -28t28 -11q20 0 33.5 11t13.5 27q0 14 -10.5 23.5t-27.5 9.5h-26l13 86h22q20 0 33.5 11.5t13.5 28.5q0 12 -10 19.5t-25 7.5q-17 0 -29.5 -11t-15.5 -27l-96 5q7 45 52 79.5t101 34.5q52 0 86 -28t34 -67
q0 -35 -22 -61t-56 -34q31 -3 49.5 -23.5t18.5 -51.5q0 -54 -48.5 -91t-117.5 -37z" />
    <glyph glyph-name="bullet.case" horiz-adv-x="460" 
d="M232 142q-85 0 -143.5 58.5t-58.5 141.5t59 141.5t143 58.5q82 0 140 -58.5t58 -141.5t-58 -141.5t-140 -58.5z" />
    <glyph glyph-name="colon.case" horiz-adv-x="298" 
d="M117 594h167l-25 -159h-167zM62 249h167l-25 -159h-167z" />
    <glyph glyph-name="comma.tf" horiz-adv-x="640" 
d="M137 -143l121 302h185l-200 -302h-106z" />
    <glyph glyph-name="period.tf" horiz-adv-x="640" 
d="M214 159h167l-25 -159h-167z" />
    <glyph glyph-name="braceleft.case" horiz-adv-x="356" 
d="M211 -140q-62 0 -96.5 41t-24.5 103l33 210q7 41 -12 59.5t-62 18.5l23 141q86 0 98 78l33 210q10 62 57.5 103t109.5 41h72l-21 -135h-16q-54 0 -62 -57l-32 -198q-8 -47 -34 -71.5t-71 -40.5q40 -17 59 -41t11 -72l-32 -198q-8 -57 44 -57h16l-21 -135h-72z" />
    <glyph glyph-name="braceright.case" horiz-adv-x="356" 
d="M29 -140h-72l21 135h16q52 0 62 57l32 198q8 48 33.5 72t70.5 41q-40 16 -58.5 40.5t-10.5 71.5l32 198q8 57 -44 57h-16l21 135h72q62 0 96.5 -41t24.5 -103l-33 -210q-7 -41 12 -59.5t62 -18.5l-23 -141q-86 0 -98 -78l-33 -210q-10 -62 -57.5 -103t-109.5 -41z" />
    <glyph glyph-name="bracketleft.case" horiz-adv-x="332" 
d="M1 -146l159 1005h251l-21 -134h-104l-117 -737h104l-21 -134h-251z" />
    <glyph glyph-name="bracketright.case" horiz-adv-x="332" 
d="M213 -146h-251l21 134h104l117 737h-104l21 134h251z" />
    <glyph glyph-name="parenleft.case" horiz-adv-x="311" 
d="M132 -167q-116 163 -116 394q0 346 275 612l99 -84q-218 -237 -218 -511q0 -184 85 -326z" />
    <glyph glyph-name="parenright.case" horiz-adv-x="311" 
d="M55 -167l-99 85q112 123 165 247t53 264q0 184 -85 326l125 84q115 -160 115 -393q0 -345 -274 -613z" />
    <glyph glyph-name="emdash.case" horiz-adv-x="1000" 
d="M28 280l23 140h960l-23 -140h-960z" />
    <glyph glyph-name="endash.case" horiz-adv-x="500" 
d="M28 280l23 140h460l-23 -140h-460z" />
    <glyph glyph-name="hyphen.case" horiz-adv-x="399" 
d="M33 280l23 140h349l-23 -140h-349z" />
    <glyph glyph-name="uni00AD.case" horiz-adv-x="399" 
d="M33 280l23 140h349l-23 -140h-349z" />
    <glyph glyph-name="quotedblbase.ss05" horiz-adv-x="464" 
d="M19 159h177l-20 -129l-102 -161h-77l74 141h-75zM246 159h177l-20 -129l-102 -161h-77l74 141h-75z" />
    <glyph glyph-name="quotedblleft.ss05" horiz-adv-x="464" 
d="M237 418h-177l21 129l101 161h77l-73 -141h75zM464 418h-177l21 129l101 161h77l-73 -141h75z" />
    <glyph glyph-name="quotedblright.ss05" horiz-adv-x="464" 
d="M106 708h177l-20 -129l-102 -161h-77l74 141h-75zM333 708h177l-20 -129l-102 -161h-77l74 141h-75z" />
    <glyph glyph-name="quoteleft.ss05" horiz-adv-x="237" 
d="M237 418h-177l21 129l101 161h77l-73 -141h75z" />
    <glyph glyph-name="quoteright.ss05" horiz-adv-x="237" 
d="M106 708h177l-20 -129l-102 -161h-77l74 141h-75z" />
    <glyph glyph-name="quotesinglbase.ss05" horiz-adv-x="237" 
d="M19 159h177l-20 -129l-102 -161h-77l74 141h-75z" />
    <glyph glyph-name="space.tf" horiz-adv-x="640" 
 />
    <glyph glyph-name="percent.part" horiz-adv-x="361" 
d="M201 356q-65 0 -102 38.5t-37 105.5q0 93 54 150.5t141 57.5q65 0 101.5 -38.5t36.5 -105.5q0 -93 -54 -150.5t-140 -57.5zM218 463q28 0 42.5 24.5t14.5 64.5q0 49 -35 49q-27 0 -42.5 -24t-15.5 -64q0 -50 36 -50z" />
    <glyph glyph-name="at.case" horiz-adv-x="916" 
d="M569 479h124l-37 -232q-7 -39 33 -39q35 0 61.5 47t26.5 119q0 99 -65.5 153.5t-176.5 54.5q-157 0 -261 -95t-104 -243q0 -116 72.5 -186.5t194.5 -70.5q126 0 262 69l22 -129q-167 -66 -314 -66q-164 0 -266 103.5t-102 264.5q0 133 70 243.5t188.5 173t257.5 62.5
q158 0 255.5 -90.5t97.5 -231.5q0 -135 -71.5 -217.5t-176.5 -82.5q-93 0 -119 62q-43 -53 -124 -53q-71 0 -112.5 43t-41.5 117q0 103 59 166.5t151 63.5q63 0 91 -36zM453 200q41 0 67.5 30t26.5 76q0 34 -17.5 54t-48.5 20q-40 0 -67.5 -30t-27.5 -76q0 -33 18 -53.5
t49 -20.5z" />
    <glyph glyph-name="caroncomb.alt" horiz-adv-x="0" 
d="M-180 560l61 197h153l-121 -197h-93z" />
    </font>
</defs>
</svg>
