<?xml version="1.0" standalone="no"?>
<!DOCTYPE svg PUBLIC "-//W3C//DTD SVG 1.1//EN" "http://www.w3.org/Graphics/SVG/1.1/DTD/svg11.dtd" >
<svg xmlns="http://www.w3.org/2000/svg" xmlns:xlink="http://www.w3.org/1999/xlink" version="1.1">
<metadata>
Created by FontForge 20190801 at Mon Jan 21 13:28:40 2019
 By Mark Brand
Copyright (c) 2016 by Martin Va'cha. All rights reserved.
</metadata>
<defs>
<font id="MatterSQ-SemiBoldItalic" horiz-adv-x="592" >
  <font-face 
    font-family="MatterSQ-SemiBoldItalic"
    font-weight="600"
    font-style="italic"
    font-stretch="normal"
    units-per-em="1000"
    panose-1="0 0 7 0 0 0 0 0 0 0"
    ascent="810"
    descent="-190"
    x-height="504"
    cap-height="700"
    bbox="-388 -207.838 1707 1090"
    underline-thickness="50"
    underline-position="-100"
    slope="-9"
    unicode-range="U+000D-F8FF"
  />
<missing-glyph horiz-adv-x="1077" 
d="M50 309q0 201 141 347t341 154v-1000q-99 3 -188 44t-153.5 107.5t-102.5 157.5t-38 190zM568 806q62 -21 105.5 -165t43.5 -332t-43.5 -331t-105.5 -165v993zM892 309q0 -168 -69.5 -301.5t-178.5 -178.5q51 66 80.5 194.5t29.5 285.5t-29.5 286t-80.5 196
q109 -46 178.5 -180.5t69.5 -301.5zM1050 309q0 -151 -83.5 -276.5t-220.5 -182.5q84 73 133.5 195t49.5 264q0 141 -49.5 264t-133.5 196q137 -58 220.5 -183.5t83.5 -276.5z" />
    <glyph glyph-name=".notdef" horiz-adv-x="1077" 
d="M50 309q0 201 141 347t341 154v-1000q-99 3 -188 44t-153.5 107.5t-102.5 157.5t-38 190zM568 806q62 -21 105.5 -165t43.5 -332t-43.5 -331t-105.5 -165v993zM892 309q0 -168 -69.5 -301.5t-178.5 -178.5q51 66 80.5 194.5t29.5 285.5t-29.5 286t-80.5 196
q109 -46 178.5 -180.5t69.5 -301.5zM1050 309q0 -151 -83.5 -276.5t-220.5 -182.5q84 73 133.5 195t49.5 264q0 141 -49.5 264t-133.5 196q137 -58 220.5 -183.5t83.5 -276.5z" />
    <glyph glyph-name=".null" horiz-adv-x="0" 
 />
    <glyph glyph-name="nonmarkingreturn" horiz-adv-x="333" 
 />
    <glyph glyph-name="CR" unicode="&#xd;" horiz-adv-x="240" 
 />
    <glyph glyph-name="space" unicode=" " horiz-adv-x="240" 
 />
    <glyph glyph-name="exclam" unicode="!" horiz-adv-x="287" 
d="M93 225l47 475h154l-103 -475h-98zM62 132h133l-20 -132h-134z" />
    <glyph glyph-name="quotedbl" unicode="&#x22;" horiz-adv-x="418" 
d="M108 463l11 245h137l-67 -245h-81zM300 463l11 245h137l-67 -245h-81z" />
    <glyph glyph-name="numbersign" unicode="#" horiz-adv-x="693" 
d="M691 412h-136l-46 -124h120l-15 -93h-140l-74 -195h-97l73 195h-135l-73 -195h-98l74 195h-121l15 93h141l46 124h-125l15 93h145l74 195h97l-73 -195h135l73 195h98l-74 -195h116zM411 288l47 124h-135l-47 -124h135z" />
    <glyph glyph-name="dollar" unicode="$" horiz-adv-x="591" 
d="M232 513q0 -31 34 -50t82 -32.5t96 -33t82 -64t34 -111.5q0 -93 -68 -156.5t-177 -72.5l-15 -93l-111 1l16 100q-82 20 -131.5 77.5t-50.5 138.5l127 24q-3 -60 36 -96.5t105 -36.5q57 0 92 28t35 72q0 35 -33.5 58t-81 38t-95 34t-81 60t-33.5 102q0 81 64 138.5
t158 67.5l14 88h112l-15 -94q77 -16 123.5 -62.5t50.5 -114.5l-129 -35q-2 47 -37.5 75.5t-91.5 28.5q-52 0 -81.5 -21.5t-29.5 -57.5z" />
    <glyph glyph-name="percent" unicode="%" horiz-adv-x="786" 
d="M207 356q-64 0 -101 40.5t-37 105.5q0 89 55 147.5t139 58.5q64 0 101 -40t37 -106q0 -89 -55 -147.5t-139 -58.5zM67 0l579 700h104l-579 -700h-104zM221 442q38 0 60.5 31t22.5 80q0 69 -54 69q-38 0 -61 -30.5t-23 -80.5q0 -32 14.5 -50.5t40.5 -18.5zM560 -8
q-65 0 -102.5 40t-37.5 106q0 89 55.5 147.5t139.5 58.5q64 0 101 -40t37 -106q0 -89 -55 -147.5t-138 -58.5zM573 78q37 0 60 31t23 80q0 69 -54 69q-38 0 -61 -30.5t-23 -80.5q0 -32 14 -50.5t41 -18.5z" />
    <glyph glyph-name="ampersand" unicode="&#x26;" horiz-adv-x="682" 
d="M648 249l-113 -109l100 -140h-159l-40 57q-99 -65 -199 -65q-89 0 -143 50.5t-54 132.5q0 81 43.5 130.5t119.5 85.5q-41 67 -41 121q0 89 58.5 142.5t151.5 53.5q71 0 112.5 -40.5t41.5 -107.5q0 -73 -38.5 -120t-106.5 -84l84 -117l103 97zM280 527q0 -27 40 -84
q44 21 67.5 44t23.5 55q0 25 -16 40.5t-40 15.5q-33 0 -54 -19.5t-21 -51.5zM264 108q46 0 104 45l-102 147q-48 -25 -72.5 -50t-24.5 -60q0 -37 25.5 -59.5t69.5 -22.5z" />
    <glyph glyph-name="quotesingle" unicode="'" horiz-adv-x="226" 
d="M108 463l11 245h137l-67 -245h-81z" />
    <glyph glyph-name="parenleft" unicode="(" horiz-adv-x="292" 
d="M127 -182q-105 157 -105 382q0 329 259 590l76 -65q-215 -245 -215 -513q0 -182 81 -329z" />
    <glyph glyph-name="parenright" unicode=")" horiz-adv-x="292" 
d="M33 -182l-76 65q109 126 161.5 250.5t52.5 263.5q0 183 -81 328l96 65q51 -75 78 -175.5t27 -206.5q0 -327 -258 -590z" />
    <glyph glyph-name="asterisk" unicode="*" horiz-adv-x="487" 
d="M499 508l-143 -40l70 -113l-85 -57l-69 119l-106 -119l-68 57l106 113l-130 40l42 92l132 -44l21 144h96l-24 -144l145 44z" />
    <glyph glyph-name="plus" unicode="+" horiz-adv-x="557" 
d="M547 379l-17 -108h-192l-30 -192h-108l30 192h-193l17 108h193l30 192h108l-31 -192h193z" />
    <glyph glyph-name="comma" unicode="," horiz-adv-x="300" 
d="M-34 -125l107 257h150l-173 -257h-84z" />
    <glyph glyph-name="hyphen" unicode="-" horiz-adv-x="376" 
d="M27 235l17 108h322l-17 -108h-322z" />
    <glyph glyph-name="period" unicode="." horiz-adv-x="256" 
d="M45 132h133l-21 -132h-133z" />
    <glyph glyph-name="slash" unicode="/" horiz-adv-x="458" 
d="M-31 -1l425 701h131l-426 -701h-130z" />
    <glyph glyph-name="zero" unicode="0" horiz-adv-x="644" 
d="M288 -8q-109 0 -175.5 72.5t-67.5 192.5q-2 192 94.5 321.5t251.5 129.5q111 0 177 -73.5t66 -196.5q0 -125 -42.5 -226t-122 -160.5t-181.5 -59.5zM303 110q88 0 140.5 94.5t52.5 226.5q0 73 -32.5 116t-87.5 43q-87 1 -140 -93.5t-53 -226.5q0 -74 32 -117t88 -43z" />
    <glyph glyph-name="one" unicode="1" horiz-adv-x="379" 
d="M149 0l88 550q-82 -57 -173 -74l19 121q104 23 200 103h103l-111 -700h-126z" />
    <glyph glyph-name="two" unicode="2" horiz-adv-x="574" 
d="M-9 0l17 110l282 210q74 54 106 96.5t32 86.5q0 39 -26 63.5t-69 24.5q-59 0 -97 -42t-42 -111l-128 9q5 111 89 186t197 75q96 0 155 -52.5t59 -136.5q0 -77 -48.5 -144t-160.5 -145l-156 -112h302l-18 -118h-494z" />
    <glyph glyph-name="three" unicode="3" horiz-adv-x="588" 
d="M248 -8q-109 0 -171.5 56.5t-57.5 149.5l127 20q-1 -49 32.5 -78.5t88.5 -29.5q64 0 106.5 38t42.5 97q0 45 -29 71t-80 26q-46 0 -83 -23l-41 91l218 173h-301l18 117h465l-18 -110l-205 -160q89 3 141 -44t52 -130q0 -116 -86 -190t-219 -74z" />
    <glyph glyph-name="four" unicode="4" horiz-adv-x="631" 
d="M338 0l23 146h-353l19 118l411 436h147l-69 -436h89l-18 -118h-90l-23 -146h-136zM167 264h213l43 274z" />
    <glyph glyph-name="five" unicode="5" horiz-adv-x="581" 
d="M252 -8q-103 0 -165 53t-63 141l126 23q3 -46 34 -72.5t82 -26.5q63 0 103.5 40.5t40.5 103.5q0 49 -30 77t-83 28q-82 0 -142 -71l-95 21l120 391h386l-18 -117h-287l-53 -167q62 50 139 50q92 0 146.5 -54t54.5 -142q0 -122 -83 -200t-213 -78z" />
    <glyph glyph-name="six" unicode="6" horiz-adv-x="618" 
d="M363 472q95 0 153.5 -57t58.5 -148q0 -118 -83 -196.5t-203 -78.5q-112 0 -178.5 74.5t-66.5 198.5q0 105 33.5 190.5t89.5 140t127 83.5t149 29q120 0 193 -71l-78 -99q-53 53 -131 53q-88 0 -153 -55.5t-86 -146.5q66 83 175 83zM297 110q56 0 97 39.5t46 99.5
q5 51 -26 84.5t-84 33.5q-64 0 -108 -40.5t-44 -104.5q0 -50 32.5 -81t86.5 -31z" />
    <glyph glyph-name="seven" unicode="7" horiz-adv-x="560" 
d="M68 0q73 254 381 583h-364l19 117h503l-18 -117q-332 -370 -384 -583h-137z" />
    <glyph glyph-name="eight" unicode="8" horiz-adv-x="582" 
d="M257 -8q-101 0 -166 50.5t-65 134.5q0 69 43.5 124t112.5 76q-35 18 -54.5 51.5t-19.5 73.5q0 86 72.5 146t182.5 60q91 0 146.5 -46.5t55.5 -117.5q0 -54 -33.5 -99.5t-87.5 -67.5q47 -16 74 -56.5t27 -91.5q0 -106 -80 -171.5t-208 -65.5zM322 427q51 0 84 29t33 74
q0 33 -25 53t-67 20q-51 0 -83 -27.5t-32 -72.5q0 -35 24 -55.5t66 -20.5zM273 103q62 0 100.5 33.5t38.5 86.5q0 41 -29 65t-80 24q-63 0 -102.5 -33t-39.5 -86q0 -41 30.5 -65.5t81.5 -24.5z" />
    <glyph glyph-name="nine" unicode="9" horiz-adv-x="614" 
d="M286 228q-95 0 -153.5 57t-58.5 148q0 118 83 196.5t203 78.5q112 0 178.5 -74.5t66.5 -198.5q0 -105 -33.5 -190.5t-89.5 -140t-127 -83.5t-149 -29q-119 0 -193 71l78 99q52 -52 132 -52q88 0 153 55t85 146q-66 -83 -175 -83zM352 591q-56 0 -97 -40t-45 -100
q-5 -51 26 -84.5t83 -33.5q64 0 108 40.5t44 104.5q0 50 -32.5 81.5t-86.5 31.5z" />
    <glyph glyph-name="colon" unicode=":" horiz-adv-x="266" 
d="M109 504h133l-21 -132h-133zM50 132h133l-21 -132h-133z" />
    <glyph glyph-name="semicolon" unicode=";" horiz-adv-x="305" 
d="M144 498h134l-21 -132h-133zM-40 -125l107 257h150l-173 -257h-84z" />
    <glyph glyph-name="less" unicode="&#x3c;" horiz-adv-x="549" 
d="M485 32l-454 204l18 109l517 204l-20 -129l-347 -130l305 -130z" />
    <glyph glyph-name="equal" unicode="=" horiz-adv-x="549" 
d="M55 379l17 107h484l-17 -107h-484zM20 162l17 108h485l-17 -108h-485z" />
    <glyph glyph-name="greater" unicode="&#x3e;" horiz-adv-x="549" 
d="M0 32l20 128l347 130l-306 130l20 129l453 -204l-18 -109z" />
    <glyph glyph-name="question" unicode="?" horiz-adv-x="528" 
d="M171 216q4 52 30 90t60 59.5t67 41t55.5 47.5t22.5 66q0 36 -23.5 57.5t-63.5 21.5q-55 0 -90.5 -34t-40.5 -90l-118 12q13 100 86 160.5t180 60.5q93 0 148 -47t55 -125q0 -51 -17 -89.5t-43 -59.5t-57 -41t-58 -34.5t-47 -39.5t-24 -56h-122zM153 132h133l-21 -132
h-133z" />
    <glyph glyph-name="at" unicode="@" horiz-adv-x="913" 
d="M585 474h98l-40 -254q-4 -24 8 -37.5t32 -13.5q44 0 76.5 54.5t32.5 134.5q0 106 -72.5 169.5t-192.5 63.5q-161 0 -272.5 -103.5t-111.5 -260.5q0 -123 77 -198.5t206 -75.5q126 0 270 73l20 -101q-166 -70 -311 -70q-166 0 -266 100t-100 259q0 132 68.5 241.5
t184 171.5t251.5 62q157 0 254.5 -90t97.5 -230q0 -131 -67 -214t-167 -83q-87 0 -109 64q-49 -62 -140 -62q-75 0 -118 44.5t-43 122.5q0 103 63.5 170.5t158.5 68.5q72 0 105 -48zM438 159q53 0 88.5 39t35.5 100q0 44 -23.5 70.5t-63.5 26.5q-54 0 -89.5 -39.5
t-35.5 -99.5q0 -45 23.5 -71t64.5 -26z" />
    <glyph glyph-name="A" unicode="A" horiz-adv-x="679" 
d="M495 0l-33 155h-270l-82 -155h-141l380 700h128l158 -700h-140zM252 270h186l-53 252z" />
    <glyph glyph-name="B" unicode="B" horiz-adv-x="627" 
d="M29 0l111 700h272q89 0 141.5 -40.5t52.5 -113.5q0 -56 -32.5 -99.5t-76.5 -64.5q94 -39 94 -146t-78 -171.5t-202 -64.5h-282zM230 427h129q117 0 117 96q0 68 -93 68h-127zM181 118h134q146 0 146 113q0 81 -115 81h-134z" />
    <glyph glyph-name="C" unicode="C" horiz-adv-x="730" 
d="M354 -8q-131 0 -218.5 80.5t-87.5 221.5q0 99 34 179.5t91.5 131t129 77t149.5 26.5q126 0 202.5 -63.5t76.5 -169.5l-138 -28q-3 67 -47 105.5t-113 38.5q-106 0 -176.5 -75t-70.5 -207q0 -92 52.5 -145.5t133.5 -53.5q67 0 115 35t69 97l133 -30q-38 -104 -126 -162
t-209 -58z" />
    <glyph glyph-name="D" unicode="D" horiz-adv-x="689" 
d="M29 0l111 700h228q136 0 222.5 -76t86.5 -216q0 -98 -35 -177.5t-94 -129t-133.5 -75.5t-157.5 -26h-228zM181 118h83q53 0 100.5 15t87.5 46.5t63.5 86.5t23.5 127q0 97 -56.5 143.5t-144.5 46.5h-83z" />
    <glyph glyph-name="E" unicode="E" horiz-adv-x="580" 
d="M29 0l111 700h467l-18 -117h-332l-25 -154h266l-19 -118h-265l-31 -193h343l-19 -118h-478z" />
    <glyph glyph-name="F" unicode="F" horiz-adv-x="570" 
d="M29 0l111 700h473l-18 -117h-338l-26 -162h273l-18 -118h-273l-48 -303h-136z" />
    <glyph glyph-name="G" unicode="G" horiz-adv-x="752" 
d="M339 -8q-125 0 -208.5 78t-83.5 220q0 80 23.5 149t63.5 117.5t93 83.5t112.5 51.5t121.5 16.5q126 0 200.5 -62t76.5 -171l-138 -28q-2 66 -45 105t-114 39q-110 0 -182.5 -78t-72.5 -208q0 -92 48 -143.5t130 -51.5q78 0 134.5 42.5t73.5 111.5h-208l17 110h334
l-59 -374h-123l13 85q-29 -43 -85.5 -68t-121.5 -25z" />
    <glyph glyph-name="H" unicode="H" horiz-adv-x="711" 
d="M582 700h136l-111 -700h-136l48 305h-306l-48 -305h-136l111 700h136l-44 -278h306z" />
    <glyph glyph-name="I" unicode="I" horiz-adv-x="268" 
d="M29 0l111 700h136l-111 -700h-136z" />
    <glyph glyph-name="J" unicode="J" horiz-adv-x="362" 
d="M7 120q21 -6 46 -6q44 0 72.5 26t36.5 75l77 485h129l-77 -488q-17 -108 -78 -162.5t-152 -54.5q-40 0 -74 8z" />
    <glyph glyph-name="K" unicode="K" horiz-adv-x="672" 
d="M722 700l-318 -285l225 -415h-169l-164 319l-94 -84l-37 -235h-136l111 700h136l-44 -277l305 277h185z" />
    <glyph glyph-name="L" unicode="L" horiz-adv-x="539" 
d="M29 0l111 700h136l-93 -582h325l-18 -118h-461z" />
    <glyph glyph-name="M" unicode="M" horiz-adv-x="866" 
d="M29 0l111 700h151l134 -509l296 509h152l-111 -700h-127l71 447l-260 -447h-101l-118 447l-71 -447h-127z" />
    <glyph glyph-name="N" unicode="N" horiz-adv-x="698" 
d="M29 0l111 700h134l226 -486l77 486h128l-111 -700h-135l-226 485l-77 -485h-127z" />
    <glyph glyph-name="O" unicode="O" horiz-adv-x="779" 
d="M368 -8q-139 0 -229.5 87t-90.5 220q0 180 111.5 294.5t287.5 114.5q139 0 229 -87t90 -220q0 -180 -111.5 -294.5t-286.5 -114.5zM387 110q103 0 172.5 80t69.5 198q0 89 -56.5 146t-144.5 57q-103 0 -172.5 -80.5t-69.5 -198.5q0 -89 56 -145.5t145 -56.5z" />
    <glyph glyph-name="P" unicode="P" horiz-adv-x="602" 
d="M29 0l111 700h283q94 0 148 -49t54 -133q0 -108 -75.5 -176.5t-194.5 -68.5h-147l-43 -273h-136zM227 390h135q58 0 91.5 30t33.5 82q0 38 -25 59.5t-70 21.5h-134z" />
    <glyph glyph-name="Q" unicode="Q" horiz-adv-x="779" 
d="M766 401q0 -194 -128 -311l58 -76l-97 -74l-65 85q-74 -33 -166 -33q-139 0 -229.5 87t-90.5 220q0 180 111.5 294.5t287.5 114.5q139 0 229 -87t90 -220zM387 110q39 0 73 12l-103 135l97 76l107 -141q68 81 68 196q0 89 -56.5 146t-144.5 57q-103 0 -172.5 -80.5
t-69.5 -198.5q0 -89 56 -145.5t145 -56.5z" />
    <glyph glyph-name="R" unicode="R" horiz-adv-x="650" 
d="M606 525q0 -70 -38.5 -126.5t-103.5 -86.5l137 -312h-159l-121 287h-110l-45 -287h-136l110 700h270q91 0 143.5 -47.5t52.5 -127.5zM258 583l-28 -179h112q58 0 91.5 28t33.5 75q0 36 -25 56t-72 20h-112z" />
    <glyph glyph-name="S" unicode="S" horiz-adv-x="594" 
d="M283 -8q-113 0 -186 62.5t-74 162.5l127 24q-3 -60 36 -96.5t105 -36.5q57 0 92 28t35 72q0 35 -33.5 58t-81 38t-95 34t-81 60t-33.5 102q0 89 75.5 148.5t181.5 59.5q108 0 177 -50.5t73 -134.5l-129 -35q-2 47 -37.5 75.5t-91.5 28.5q-52 0 -81.5 -21.5t-29.5 -57.5
q0 -31 34 -50t82 -32.5t96 -33t82 -64t34 -111.5q0 -100 -77.5 -165t-199.5 -65z" />
    <glyph glyph-name="T" unicode="T" horiz-adv-x="589" 
d="M189 0l93 583h-211l18 117h558l-19 -117h-210l-93 -583h-136z" />
    <glyph glyph-name="U" unicode="U" horiz-adv-x="684" 
d="M307 -8q-122 0 -189 76t-48 195l70 437h126l-69 -439q-11 -68 24.5 -109t104.5 -41t113 39t55 110l70 440h127l-70 -441q-21 -128 -102.5 -197.5t-211.5 -69.5z" />
    <glyph glyph-name="V" unicode="V" horiz-adv-x="655" 
d="M224 0l-144 700h139l96 -538l269 538h138l-366 -700h-132z" />
    <glyph glyph-name="W" unicode="W" horiz-adv-x="1009" 
d="M181 0l-92 700h139l50 -538l222 538h155l52 -538l220 538h140l-313 -700h-144l-61 513l-226 -513h-142z" />
    <glyph glyph-name="X" unicode="X" horiz-adv-x="625" 
d="M657 700l-251 -325l170 -375h-144l-117 257l-199 -257h-147l291 377l-147 323h145l93 -205l159 205h147z" />
    <glyph glyph-name="Y" unicode="Y" horiz-adv-x="621" 
d="M202 0l46 290l-175 410h144l118 -284l209 284h146l-305 -410l-47 -290h-136z" />
    <glyph glyph-name="Z" unicode="Z" horiz-adv-x="602" 
d="M-11 0l17 110l446 473h-352l18 117h519l-18 -110l-441 -472h368l-19 -118h-538z" />
    <glyph glyph-name="bracketleft" unicode="[" horiz-adv-x="318" 
d="M4 -159l152 961h226l-16 -102h-114l-120 -757h114l-16 -102h-226z" />
    <glyph glyph-name="backslash" unicode="\" horiz-adv-x="458" 
d="M414 -1h-130l-204 701h131z" />
    <glyph glyph-name="bracketright" unicode="]" horiz-adv-x="318" 
d="M189 -159h-226l16 102h114l120 757h-114l16 102h227z" />
    <glyph glyph-name="asciicircum" unicode="^" horiz-adv-x="582" 
d="M65 413l248 287h103l158 -287h-126l-100 180l-158 -180h-125z" />
    <glyph glyph-name="underscore" unicode="_" horiz-adv-x="500" 
d="M-33 -108l17 108h457l-17 -108h-457z" />
    <glyph glyph-name="a" unicode="a" horiz-adv-x="549" 
d="M294 512q103 0 160 -62.5t41 -163.5l-45 -286h-123l11 70q-25 -35 -69.5 -56.5t-94.5 -21.5q-67 0 -110 39.5t-43 96.5q0 158 253 181l103 9l1 6q7 42 -21.5 67t-76.5 25q-43 0 -73 -23.5t-37 -64.5l-110 21q15 73 82.5 118t151.5 45zM216 85q53 0 89.5 32.5t54.5 90.5
l3 19l-104 -10q-115 -12 -115 -75q0 -25 19 -41t53 -16z" />
    <glyph glyph-name="b" unicode="b" horiz-adv-x="605" 
d="M314 -8q-53 0 -94.5 19.5t-59.5 53.5l-10 -65h-126l112 708h126l-42 -260q59 64 157 64q92 0 146.5 -59t54.5 -154q0 -133 -73 -220t-191 -87zM299 101q66 0 109 50t43 128q0 57 -30 90.5t-82 33.5q-69 0 -114.5 -50t-45.5 -128q0 -57 32.5 -90.5t87.5 -33.5z" />
    <glyph glyph-name="c" unicode="c" horiz-adv-x="563" 
d="M267 -8q-101 0 -167 65.5t-66 164.5q0 127 82 208.5t210 81.5q94 0 155.5 -51t63.5 -131l-129 -22q-1 41 -30 68t-73 27q-66 0 -106 -46.5t-40 -123.5q0 -58 31 -95t81 -37q45 0 76 22.5t41 62.5l123 -25q-19 -78 -86.5 -123.5t-165.5 -45.5z" />
    <glyph glyph-name="d" unicode="d" horiz-adv-x="606" 
d="M236 -8q-97 0 -150 58t-53 155q0 134 77.5 220.5t201.5 86.5q98 0 139 -67l42 263h126l-112 -708h-126l9 58q-23 -30 -65 -48t-89 -18zM272 101q69 0 114.5 50t45.5 128q0 57 -30.5 90.5t-85.5 33.5q-67 0 -111.5 -50.5t-44.5 -127.5q0 -57 30 -90.5t82 -33.5z" />
    <glyph glyph-name="e" unicode="e" horiz-adv-x="569" 
d="M544 302q0 -40 -12 -81h-374q2 -59 34 -91t87 -32q91 0 114 77l119 -32q-22 -68 -90.5 -109.5t-158.5 -41.5q-101 0 -165 64t-64 166q0 73 30.5 137.5t96.5 108.5t156 44q107 0 167 -62.5t60 -147.5zM414 311q3 46 -27.5 75.5t-84.5 29.5q-48 0 -82.5 -28t-49.5 -77h244z
" />
    <glyph glyph-name="f" unicode="f" horiz-adv-x="381" 
d="M68 0l62 398h-81l17 106h82l6 39q13 86 70 134t136 48q41 0 74 -11l-25 -104q-23 10 -48 10q-32 0 -54 -21t-27 -56l-7 -39h120l-17 -106h-120l-63 -398h-125z" />
    <glyph glyph-name="g" unicode="g" horiz-adv-x="595" 
d="M576 504l-63 -401h-1l-11 -71q-15 -100 -93.5 -161t-191.5 -61q-89 0 -146.5 43.5t-59.5 113.5l121 19q-1 -34 27.5 -54.5t73.5 -20.5q56 0 95.5 29.5t47.5 78.5l9 55q-24 -27 -64.5 -43t-85.5 -16q-95 0 -147.5 55.5t-52.5 149.5q0 128 76.5 210t199.5 82q94 0 133 -59
l9 51h124zM270 124q67 0 110 46t43 119q0 52 -29 83t-80 31q-67 0 -110 -46t-43 -119q0 -52 29 -83t80 -31z" />
    <glyph glyph-name="h" unicode="h" horiz-adv-x="596" 
d="M24 0l112 708h126l-45 -282q66 86 174 86q85 0 128.5 -50t30.5 -132l-53 -330h-126l48 299q7 46 -15.5 73.5t-68.5 27.5q-58 0 -97.5 -47.5t-53.5 -133.5l-34 -219h-126z" />
    <glyph glyph-name="i" unicode="i" horiz-adv-x="248" 
d="M134 708h136l-20 -130h-136zM24 0l80 504h126l-80 -504h-126z" />
    <glyph glyph-name="j" unicode="j" horiz-adv-x="252" 
d="M138 708h136l-20 -130h-136zM-60 -190l-32 2l15 109q11 -1 20 -1q75 0 89 92l78 492h126l-81 -509q-14 -84 -72 -134.5t-143 -50.5z" />
    <glyph glyph-name="k" unicode="k" horiz-adv-x="561" 
d="M581 504l-237 -199l172 -305h-150l-120 223l-69 -58l-26 -165h-127l112 708h127l-60 -381l212 177h166z" />
    <glyph glyph-name="l" unicode="l" horiz-adv-x="248" 
d="M24 0l112 708h126l-112 -708h-126z" />
    <glyph glyph-name="m" unicode="m" horiz-adv-x="897" 
d="M24 0l80 504h126l-13 -77q61 85 159 85q120 0 142 -95q28 41 76.5 68t105.5 27q80 0 122 -47.5t30 -122.5l-54 -342h-126l49 307q8 45 -12.5 71.5t-63.5 26.5q-51 0 -85.5 -40t-45.5 -108l-41 -257h-125l49 307q7 45 -13 71.5t-63 26.5q-50 0 -85 -40.5t-46 -108.5
l-40 -256h-126z" />
    <glyph glyph-name="n" unicode="n" 
d="M24 0l80 504h126l-12 -76q69 84 173 84q82 0 125 -50t30 -132l-53 -330h-125l47 300q8 45 -14 72.5t-66 27.5q-58 0 -97 -47t-53 -132l-35 -221h-126z" />
    <glyph glyph-name="o" unicode="o" horiz-adv-x="590" 
d="M269 -8q-102 0 -169 63.5t-67 159.5q0 127 83.5 212t210.5 85q101 0 168 -63t67 -159q0 -127 -83.5 -212.5t-209.5 -85.5zM281 101q67 0 110 49.5t43 126.5q0 56 -33.5 91t-85.5 35q-69 0 -111.5 -49t-42.5 -127q0 -56 33.5 -91t86.5 -35z" />
    <glyph glyph-name="p" unicode="p" horiz-adv-x="605" 
d="M-5 -182l109 686h126l-10 -58q58 66 160 66q94 0 146 -58t52 -156q0 -133 -79 -219.5t-202 -86.5q-102 0 -139 64l-37 -238h-126zM299 101q66 0 109 49.5t43 127.5q0 57 -30 91t-82 34q-69 0 -114.5 -49.5t-45.5 -127.5q0 -57 32.5 -91t87.5 -34z" />
    <glyph glyph-name="q" unicode="q" horiz-adv-x="605" 
d="M477 -182h-126l38 232q-56 -58 -150 -58q-97 0 -152 59t-55 157q0 131 78.5 217.5t201.5 86.5q49 0 85.5 -18t53.5 -48l9 58h126zM271 101q69 0 114.5 50t45.5 128q0 57 -30 90.5t-82 33.5q-69 0 -114.5 -50t-45.5 -128q0 -57 30 -90.5t82 -33.5z" />
    <glyph glyph-name="r" unicode="r" horiz-adv-x="406" 
d="M409 382q-24 12 -62 12q-56 0 -104 -52.5t-64 -156.5l-29 -185h-126l80 504h126l-15 -95q23 43 71 73t96 30q32 0 54 -8z" />
    <glyph glyph-name="s" unicode="s" horiz-adv-x="465" 
d="M210 -8q-88 0 -140.5 46t-62.5 114l105 29q3 -41 32 -66t77 -25q37 0 59 17t22 45q0 22 -24.5 36.5t-60 25t-71 24t-60 44t-24.5 76.5q0 67 55 110.5t142 43.5q76 0 129.5 -36t60.5 -97l-109 -33q-4 35 -31 54t-60 19q-31 0 -51 -13t-20 -35q0 -21 25 -34t61 -22.5
t72.5 -23.5t61.5 -45.5t25 -79.5q0 -76 -59.5 -125t-153.5 -49z" />
    <glyph glyph-name="t" unicode="t" horiz-adv-x="386" 
d="M323 5q-38 -13 -82 -13q-81 0 -123 44t-28 129l37 233h-85l17 106h85l23 148h126l-23 -148h126l-17 -106h-126l-36 -221q-5 -35 9.5 -54.5t44.5 -19.5q35 0 60 12z" />
    <glyph glyph-name="u" unicode="u" 
d="M573 504l-80 -504h-125l12 76q-69 -84 -174 -84q-82 0 -125 50t-30 132l53 330h126l-48 -300q-8 -45 14 -72.5t66 -27.5q58 0 97.5 47t53.5 132l35 221h125z" />
    <glyph glyph-name="v" unicode="v" horiz-adv-x="501" 
d="M154 0l-103 504h127l58 -358l171 358h128l-263 -504h-118z" />
    <glyph glyph-name="w" unicode="w" horiz-adv-x="788" 
d="M141 0l-76 504h127l34 -328l153 328h115l50 -328l137 328h128l-237 -504h-112l-51 329l-156 -329h-112z" />
    <glyph glyph-name="x" unicode="x" horiz-adv-x="513" 
d="M531 504l-205 -250l129 -254h-138l-76 150l-124 -150h-139l210 254l-127 250h137l75 -147l121 147h137z" />
    <glyph glyph-name="y" unicode="y" horiz-adv-x="516" 
d="M422 504h125l-374 -686h-121l113 209l-117 477h130l69 -324z" />
    <glyph glyph-name="z" unicode="z" horiz-adv-x="495" 
d="M-7 0l16 96l312 302h-247l17 106h410l-16 -96l-310 -302h269l-17 -106h-434z" />
    <glyph glyph-name="braceleft" unicode="{" horiz-adv-x="338" 
d="M196 -152q-56 0 -86 37.5t-21 94.5l33 209q7 45 -11 65t-62 20l18 108q44 0 68 19.5t31 64.5l33 210q9 57 51 94t97 37h62l-16 -104h-22q-55 0 -63 -57l-34 -208q-8 -47 -32 -71t-65 -39q37 -15 53.5 -39t8.5 -72l-33 -208q-8 -57 46 -57h22l-17 -104h-61z" />
    <glyph glyph-name="bar" unicode="|" horiz-adv-x="270" 
d="M21 -50l127 800h136l-127 -800h-136z" />
    <glyph glyph-name="braceright" unicode="}" horiz-adv-x="338" 
d="M20 -152h-62l16 104h22q54 0 64 57l33 208q8 47 32 71t66 40q-37 15 -54 39t-10 71l34 208q8 57 -46 57h-21l16 104h61q56 0 86 -37t21 -94l-33 -210q-7 -45 11 -64.5t62 -19.5l-18 -108q-44 0 -68 -20t-31 -65l-33 -209q-9 -57 -51 -94.5t-97 -37.5z" />
    <glyph glyph-name="asciitilde" unicode="~" horiz-adv-x="598" 
d="M395 239q-57 0 -106 36q-3 2 -12 9t-12.5 9.5t-11 7t-12 6t-11.5 3t-15 1.5q-51 0 -72 -71l-102 16q17 75 69.5 120.5t122.5 45.5q56 0 106 -36q5 -3 15 -11t14.5 -10.5t12.5 -7t15 -6t16 -1.5q50 0 73 71l102 -16q-16 -75 -69 -120.5t-123 -45.5z" />
    <glyph glyph-name="uni00A0" unicode="&#xa0;" horiz-adv-x="240" 
 />
    <glyph glyph-name="exclamdown" unicode="&#xa1;" horiz-adv-x="287" 
d="M229 364h-133l21 132h133zM198 271l-47 -475h-154l103 475h98z" />
    <glyph glyph-name="cent" unicode="&#xa2;" horiz-adv-x="563" 
d="M279 101q45 0 76 22.5t41 62.5l123 -25q-16 -68 -71.5 -112t-136.5 -54l-16 -102l-112 1l18 106q-76 20 -121.5 80.5t-45.5 141.5q0 115 68 194t179 93l16 102h111l-17 -106q69 -17 111 -63.5t43 -111.5l-129 -22q-1 41 -30 68t-73 27q-66 0 -106 -46.5t-40 -123.5
q0 -58 31 -95t81 -37z" />
    <glyph glyph-name="sterling" unicode="&#xa3;" horiz-adv-x="604" 
d="M368 118q55 0 101 70l102 -62q-86 -126 -192 -126h-347l17 110q109 87 109 185v4h-115l17 106h75q-10 37 -10 69q0 103 74.5 168.5t191.5 65.5q91 0 145.5 -45t55.5 -120l-131 -35q-5 83 -89 83q-49 0 -81.5 -32.5t-32.5 -87.5q0 -30 12 -66h216l-16 -106h-175
q0 -47 -29 -99t-69 -82h171z" />
    <glyph glyph-name="currency" unicode="&#xa4;" horiz-adv-x="655" 
d="M574 394q22 -49 22 -104q0 -104 -65 -185l58 -68l-92 -78l-59 70q-68 -37 -149 -37q-79 0 -137 39l-82 -72l-67 78l83 71q-23 48 -23 106q0 104 64 184l-56 68l91 79l58 -70q69 37 151 37q78 0 136 -39l84 72l66 -79zM306 101q69 0 115.5 50.5t46.5 126.5q0 57 -31 91
t-83 34q-70 0 -116.5 -50t-46.5 -127q0 -57 31 -91t84 -34z" />
    <glyph glyph-name="yen" unicode="&#xa5;" horiz-adv-x="621" 
d="M692 700l-239 -321h129l-15 -90h-180l-12 -75h180l-14 -90h-180l-20 -124h-136l20 124h-180l14 90h180l12 75h-180l14 90h128l-138 321h147l117 -282l207 282h146z" />
    <glyph glyph-name="brokenbar" unicode="&#xa6;" horiz-adv-x="270" 
d="M93 401l55 349h136l-55 -349h-136zM21 -50l55 349h136l-55 -349h-136z" />
    <glyph glyph-name="section" unicode="&#xa7;" horiz-adv-x="591" 
d="M356 602q-52 0 -85.5 -23t-33.5 -59q0 -32 32 -52t77.5 -32t91.5 -28t78 -51.5t32 -91.5q0 -87 -75 -138q38 -38 38 -98q0 -97 -79 -158t-199 -61q-97 0 -159.5 58.5t-63.5 145.5l112 32q0 -58 35.5 -93t92.5 -35q61 0 99.5 25.5t38.5 66.5q0 30 -31.5 49t-77 31.5
t-90.5 29t-76.5 53t-31.5 91.5q0 82 80 133q-42 39 -42 103q0 90 73.5 149t180.5 59q90 0 149.5 -47t57.5 -127l-113 -26q-1 43 -31 68.5t-80 25.5zM426 246q0 18 -10 31.5t-30.5 23.5t-40.5 16.5t-51.5 16t-51.5 16.5q-43 -27 -43 -66q0 -19 10 -33.5t31 -25t40.5 -17
t52 -15.5t51.5 -16q42 28 42 69z" />
    <glyph glyph-name="copyright" unicode="&#xa9;" horiz-adv-x="788" 
d="M414 -8q-154 0 -256 102t-102 256t102 256t256 102q155 0 257 -102t102 -256t-102 -256t-257 -102zM414 60q124 0 206 82.5t82 207.5t-82 207.5t-206 82.5t-205.5 -82.5t-81.5 -207.5t81.5 -207.5t205.5 -82.5zM399 161q-86 0 -138.5 53t-52.5 139q0 87 53 140.5
t138 53.5q69 0 116 -36t55 -96l-82 -17q-5 36 -29 56.5t-61 20.5q-49 0 -78 -33t-29 -89t29 -88.5t78 -32.5q36 0 59.5 19t29.5 53l82 -18q-14 -59 -58.5 -92t-111.5 -33z" />
    <glyph glyph-name="ordfeminine" unicode="&#xaa;" horiz-adv-x="335" 
d="M234 708q64 0 97 -34t23 -96l-30 -194h-79l7 45q-16 -23 -44.5 -36.5t-58.5 -13.5q-41 0 -66.5 23.5t-25.5 59.5q0 100 160 118l60 6v3q4 27 -10 42.5t-43 15.5q-26 0 -45 -15t-26 -41l-69 13q14 47 56 75.5t94 28.5zM177 439q33 0 56 19.5t32 50.5l2 18l-61 -6
q-33 -4 -52 -17.5t-19 -31.5q0 -15 11.5 -24t30.5 -9z" />
    <glyph glyph-name="guillemotleft" unicode="&#xab;" horiz-adv-x="613" 
d="M284 53l-246 216l11 75l316 216l-21 -128l-187 -126l147 -126zM546 53l-246 216l12 75l315 216l-20 -128l-187 -126l147 -126z" />
    <glyph glyph-name="logicalnot" unicode="&#xac;" horiz-adv-x="594" 
d="M399 132l27 169h-370l17 109h496l-44 -278h-126z" />
    <glyph glyph-name="uni00AD" unicode="&#xad;" horiz-adv-x="376" 
d="M27 235l17 108h322l-17 -108h-322z" />
    <glyph glyph-name="registered" unicode="&#xae;" horiz-adv-x="788" 
d="M414 -8q-154 0 -256 102t-102 256t102 256t256 102q155 0 257 -102t102 -256t-102 -256t-257 -102zM414 60q124 0 206 82.5t82 207.5t-82 207.5t-206 82.5t-205.5 -82.5t-81.5 -207.5t81.5 -207.5t205.5 -82.5zM566 175h-87l-88 151h-56v-151h-74l-1 372h144
q55 0 88 -30.5t33 -80.5q0 -65 -59 -95zM335 481v-89h58q56 0 56 44q0 45 -56 45h-58z" />
    <glyph glyph-name="degree" unicode="&#xb0;" horiz-adv-x="353" 
d="M208 437q-54 1 -87.5 35t-33.5 85q0 64 49 109.5t115 46.5q54 0 88 -34t34 -85q0 -65 -49 -111t-116 -46zM220 515q29 0 49 19.5t20 49.5q0 23 -14 37t-36 14q-28 0 -48 -20t-20 -49q0 -23 13.5 -37t35.5 -14z" />
    <glyph glyph-name="plusminus" unicode="&#xb1;" horiz-adv-x="557" 
d="M561 467l-17 -108h-192l-31 -192h-107l30 192h-193l17 109h193l30 191h108l-31 -192h193zM483 0h-484l17 108h484z" />
    <glyph glyph-name="uni00B2" unicode="&#xb2;" horiz-adv-x="339" 
d="M51 375l11 71l135 99q85 63 85 101q0 18 -12 29t-32 11q-27 0 -45 -21t-20 -55l-86 6q4 62 52.5 105t110.5 43q57 0 90.5 -30t33.5 -78q0 -43 -28.5 -81t-92.5 -80l-61 -42h151l-13 -78h-279z" />
    <glyph glyph-name="uni00B3" unicode="&#xb3;" horiz-adv-x="345" 
d="M192 371q-61 0 -97 31.5t-34 83.5l85 13q2 -23 18 -36.5t41 -13.5q30 0 49 17t19 44q0 20 -13.5 32.5t-36.5 12.5q-26 0 -46 -13l-26 61l105 79h-152l12 78h261l-12 -78l-101 -70q47 0 74 -25t27 -69q0 -65 -49 -106t-124 -41z" />
    <glyph glyph-name="uni00B5" unicode="&#xb5;" horiz-adv-x="582" 
d="M443 504h125l-80 -504h-125l12 76q-23 -38 -63 -61t-86 -23q-44 0 -77 31l-34 -213h-126l85 538q0 5 2 14.5t2 14.5l20 127h127l-50 -312q-2 -40 19.5 -64t62.5 -24q58 0 97.5 47t53.5 132z" />
    <glyph glyph-name="paragraph" unicode="&#xb6;" horiz-adv-x="724" 
d="M198 -182l72 450q-84 0 -139 54.5t-55 134.5q0 98 79.5 170.5t182.5 72.5h415l-17 -110h-66l-122 -772h-113l123 772h-124l-123 -772h-113z" />
    <glyph glyph-name="periodcentered" unicode="&#xb7;" horiz-adv-x="276" 
d="M92 428h133l-21 -132h-133z" />
    <glyph glyph-name="uni00B9" unicode="&#xb9;" horiz-adv-x="230" 
d="M130 375l46 290q-53 -31 -90 -39l13 82q48 12 107 52h69l-61 -385h-84z" />
    <glyph glyph-name="ordmasculine" unicode="&#xba;" horiz-adv-x="374" 
d="M211 379q-64 0 -104 39.5t-40 103.5q0 79 56.5 132.5t137.5 53.5q64 0 104 -39t40 -103q0 -80 -56.5 -133.5t-137.5 -53.5zM222 449q43 0 71.5 31t28.5 79q0 35 -19.5 57t-52.5 22q-44 0 -72 -30.5t-28 -78.5q0 -36 19.5 -58t52.5 -22z" />
    <glyph glyph-name="guillemotright" unicode="&#xbb;" horiz-adv-x="633" 
d="M8 52l20 128l187 126l-147 126l21 127l247 -216l-12 -75zM290 52l21 128l186 126l-146 126l20 127l247 -216l-12 -75z" />
    <glyph glyph-name="onequarter" unicode="&#xbc;" horiz-adv-x="773" 
d="M53 0l579 700h102l-579 -700h-102zM121 315l45 290q-50 -30 -90 -39l13 82q46 11 108 52h69l-61 -385h-84zM577 0l11 70h-190l13 79l223 236h97l-38 -236h46l-13 -79h-45l-11 -70h-93zM505 149h96l20 124z" />
    <glyph glyph-name="onehalf" unicode="&#xbd;" horiz-adv-x="800" 
d="M41 0l579 700h102l-579 -700h-102zM121 315l45 290q-50 -30 -90 -39l13 82q46 11 108 52h69l-61 -385h-84zM453 0l11 71l134 99q85 62 85 101q0 18 -11.5 29t-32.5 11q-27 0 -44.5 -20.5t-19.5 -55.5l-86 6q4 62 52.5 105t110.5 43q57 0 90.5 -30t33.5 -78
q0 -43 -28.5 -81t-93.5 -80l-61 -42h152l-13 -78h-279z" />
    <glyph glyph-name="threequarters" unicode="&#xbe;" horiz-adv-x="837" 
d="M182 311q-61 0 -96.5 31.5t-33.5 83.5l84 13q3 -23 19 -36.5t40 -13.5q30 0 49 17t19 44q0 20 -13.5 32.5t-35.5 12.5q-27 0 -47 -13l-26 61l106 79h-153l13 78h261l-13 -78l-101 -70q47 0 74.5 -25t27.5 -69q0 -65 -49 -106t-125 -41zM112 0l579 700h102l-579 -700h-102
zM641 0l11 70h-190l13 79l223 236h96l-37 -236h46l-13 -79h-46l-11 -70h-92zM568 149h97l20 124z" />
    <glyph glyph-name="questiondown" unicode="&#xbf;" horiz-adv-x="461" 
d="M334 371h-133l20 132h134zM315 287q-4 -52 -30 -90t-60 -59.5t-67 -41t-55.5 -47.5t-22.5 -66q0 -36 23.5 -57.5t64.5 -21.5q55 0 90 34t40 90l119 -12q-13 -100 -86 -160.5t-180 -60.5q-94 0 -148.5 46.5t-54.5 125.5q0 51 17 89.5t43 59.5t57 41t58 34.5t47 39.5t23 56
h122z" />
    <glyph glyph-name="Agrave" unicode="&#xc0;" horiz-adv-x="679" 
d="M469 756h-89l-98 148h147zM495 0l-33 155h-270l-82 -155h-141l380 700h128l158 -700h-140zM252 270h186l-53 252z" />
    <glyph glyph-name="Aacute" unicode="&#xc1;" horiz-adv-x="679" 
d="M595 904l-144 -148h-89l86 148h147zM495 0l-33 155h-270l-82 -155h-141l380 700h128l158 -700h-140zM252 270h186l-53 252z" />
    <glyph glyph-name="Acircumflex" unicode="&#xc2;" horiz-adv-x="679" 
d="M434 834l-86 -78h-95l137 148h108l91 -148h-92zM495 0l-33 155h-270l-82 -155h-141l380 700h128l158 -700h-140zM252 270h186l-53 252z" />
    <glyph glyph-name="Atilde" unicode="&#xc3;" horiz-adv-x="679" 
d="M363 817q-33 0 -48 -51l-85 13q11 57 52 92.5t95 35.5q42 0 80 -27q4 -2 9.5 -6.5t8.5 -6t8 -4.5t8 -4t8 -2t10 -1q32 0 47 51l85 -13q-11 -58 -51.5 -93.5t-94.5 -35.5q-43 0 -80 27q-35 25 -52 25zM349 700h128l158 -700h-140l-33 155h-270l-82 -155h-141zM252 270h186
l-53 252z" />
    <glyph glyph-name="Adieresis" unicode="&#xc4;" horiz-adv-x="679" 
d="M403 904l-20 -126h-118l20 126h118zM606 904l-20 -126h-118l20 126h118zM495 0l-33 155h-270l-82 -155h-141l380 700h128l158 -700h-140zM252 270h186l-53 252z" />
    <glyph glyph-name="Aring" unicode="&#xc5;" horiz-adv-x="679" 
d="M413 737q-50 0 -83 31t-33 78t33 78.5t83 31.5q51 0 84 -31.5t33 -78.5t-33 -78t-84 -31zM413 892q-20 0 -33.5 -13t-13.5 -33t13.5 -32.5t33.5 -12.5q21 0 34.5 12.5t13.5 32.5t-13.5 33t-34.5 13zM495 0l-33 155h-270l-82 -155h-141l380 700h128l158 -700h-140z
M252 270h186l-53 252z" />
    <glyph glyph-name="AE" unicode="&#xc6;" horiz-adv-x="982" 
d="M990 583h-332l-24 -154h265l-19 -118h-265l-30 -193h342l-18 -118h-479l26 162h-228l-111 -162h-149l487 700h554zM309 280h165l50 315z" />
    <glyph glyph-name="Ccedilla" unicode="&#xc7;" horiz-adv-x="730" 
d="M372 110q67 0 115 35t69 97l133 -30q-35 -98 -115 -155t-191 -64l-83 -141h-147l140 145q-108 18 -176.5 95.5t-68.5 201.5q0 99 34 179.5t91.5 131t129 77t149.5 26.5q126 0 202.5 -63.5t76.5 -169.5l-138 -28q-3 67 -47 105.5t-113 38.5q-106 0 -176.5 -75t-70.5 -207
q0 -92 52.5 -145.5t133.5 -53.5z" />
    <glyph glyph-name="Egrave" unicode="&#xc8;" horiz-adv-x="580" 
d="M436 756h-89l-98 148h147zM29 0l111 700h467l-18 -117h-332l-25 -154h266l-19 -118h-265l-31 -193h343l-19 -118h-478z" />
    <glyph glyph-name="Eacute" unicode="&#xc9;" horiz-adv-x="580" 
d="M329 756l86 148h147l-144 -148h-89zM29 0l111 700h467l-18 -117h-332l-25 -154h266l-19 -118h-265l-31 -193h343l-19 -118h-478z" />
    <glyph glyph-name="Ecircumflex" unicode="&#xca;" horiz-adv-x="580" 
d="M357 904h108l91 -148h-92l-63 78l-86 -78h-95zM29 0l111 700h467l-18 -117h-332l-25 -154h266l-19 -118h-265l-31 -193h343l-19 -118h-478z" />
    <glyph glyph-name="Edieresis" unicode="&#xcb;" horiz-adv-x="580" 
d="M251 904h118l-20 -126h-118zM454 904h118l-20 -126h-118zM29 0l111 700h467l-18 -117h-332l-25 -154h266l-19 -118h-265l-31 -193h343l-19 -118h-478z" />
    <glyph glyph-name="Igrave" unicode="&#xcc;" horiz-adv-x="268" 
d="M263 756h-89l-98 148h147zM29 0l111 700h136l-111 -700h-136z" />
    <glyph glyph-name="Iacute" unicode="&#xcd;" horiz-adv-x="268" 
d="M156 756l86 148h147l-144 -148h-89zM29 0l111 700h136l-111 -700h-136z" />
    <glyph glyph-name="Icircumflex" unicode="&#xce;" horiz-adv-x="268" 
d="M184 904h108l91 -148h-92l-63 78l-86 -78h-95zM29 0l111 700h136l-111 -700h-136z" />
    <glyph glyph-name="Idieresis" unicode="&#xcf;" horiz-adv-x="268" 
d="M78 904h118l-20 -126h-118zM281 904h118l-20 -126h-118zM29 0l111 700h136l-111 -700h-136z" />
    <glyph glyph-name="Eth" unicode="&#xd0;" horiz-adv-x="689" 
d="M368 700q136 0 222.5 -76t86.5 -216q0 -98 -35 -177.5t-94 -129t-133.5 -75.5t-157.5 -26h-228l49 307h-64l14 86h63l49 307h228zM264 118q53 0 100.5 15t87.5 46.5t63.5 86.5t23.5 127q0 97 -56.5 143.5t-144.5 46.5h-83l-30 -190h124l-14 -86h-124l-30 -189h83z" />
    <glyph glyph-name="Ntilde" unicode="&#xd1;" horiz-adv-x="698" 
d="M324 766l-85 13q11 57 52 92.5t95 35.5q42 0 80 -27q4 -2 9.5 -6.5t8.5 -6t8 -4.5t8 -4t8 -2t10 -1q32 0 47 51l85 -13q-11 -58 -51.5 -93.5t-94.5 -35.5q-43 0 -80 27q-35 25 -52 25q-33 0 -48 -51zM29 0l111 700h134l226 -486l77 486h128l-111 -700h-135l-226 485
l-77 -485h-127z" />
    <glyph glyph-name="Ograve" unicode="&#xd2;" horiz-adv-x="779" 
d="M520 756h-89l-98 148h147zM368 -8q-139 0 -229.5 87t-90.5 220q0 180 111.5 294.5t287.5 114.5q139 0 229 -87t90 -220q0 -180 -111.5 -294.5t-286.5 -114.5zM387 110q103 0 172.5 80t69.5 198q0 89 -56.5 146t-144.5 57q-103 0 -172.5 -80.5t-69.5 -198.5
q0 -89 56 -145.5t145 -56.5z" />
    <glyph glyph-name="Oacute" unicode="&#xd3;" horiz-adv-x="779" 
d="M412 756l86 148h147l-144 -148h-89zM368 -8q-139 0 -229.5 87t-90.5 220q0 180 111.5 294.5t287.5 114.5q139 0 229 -87t90 -220q0 -180 -111.5 -294.5t-286.5 -114.5zM387 110q103 0 172.5 80t69.5 198q0 89 -56.5 146t-144.5 57q-103 0 -172.5 -80.5t-69.5 -198.5
q0 -89 56 -145.5t145 -56.5z" />
    <glyph glyph-name="Ocircumflex" unicode="&#xd4;" horiz-adv-x="779" 
d="M441 904h108l91 -148h-92l-63 78l-86 -78h-95zM368 -8q-139 0 -229.5 87t-90.5 220q0 180 111.5 294.5t287.5 114.5q139 0 229 -87t90 -220q0 -180 -111.5 -294.5t-286.5 -114.5zM387 110q103 0 172.5 80t69.5 198q0 89 -56.5 146t-144.5 57q-103 0 -172.5 -80.5
t-69.5 -198.5q0 -89 56 -145.5t145 -56.5z" />
    <glyph glyph-name="Otilde" unicode="&#xd5;" horiz-adv-x="779" 
d="M365 766l-85 13q11 57 52 92.5t95 35.5q42 0 80 -27q4 -2 9.5 -6.5t8.5 -6t8 -4.5t8 -4t8 -2t10 -1q32 0 47 51l85 -13q-11 -58 -51.5 -93.5t-94.5 -35.5q-43 0 -80 27q-35 25 -52 25q-33 0 -48 -51zM368 -8q-139 0 -229.5 87t-90.5 220q0 180 111.5 294.5t287.5 114.5
q139 0 229 -87t90 -220q0 -180 -111.5 -294.5t-286.5 -114.5zM387 110q103 0 172.5 80t69.5 198q0 89 -56.5 146t-144.5 57q-103 0 -172.5 -80.5t-69.5 -198.5q0 -89 56 -145.5t145 -56.5z" />
    <glyph glyph-name="Odieresis" unicode="&#xd6;" horiz-adv-x="779" 
d="M335 904h118l-20 -126h-118zM538 904h118l-20 -126h-118zM368 -8q-139 0 -229.5 87t-90.5 220q0 180 111.5 294.5t287.5 114.5q139 0 229 -87t90 -220q0 -180 -111.5 -294.5t-286.5 -114.5zM387 110q103 0 172.5 80t69.5 198q0 89 -56.5 146t-144.5 57
q-103 0 -172.5 -80.5t-69.5 -198.5q0 -89 56 -145.5t145 -56.5z" />
    <glyph glyph-name="multiply" unicode="&#xd7;" horiz-adv-x="569" 
d="M565 481l-180 -155l132 -156l-101 -86l-131 155l-180 -155l-73 86l180 156l-131 155l99 86l132 -155l180 156z" />
    <glyph glyph-name="Oslash" unicode="&#xd8;" horiz-adv-x="779" 
d="M791 654l-78 -77q53 -76 53 -176q0 -180 -111.5 -294.5t-286.5 -114.5q-106 0 -189 54l-80 -79l-75 79l77 77q-53 76 -53 176q0 180 111.5 294.5t287.5 114.5q105 0 188 -54l80 79zM186 312q0 -48 17 -88l338 336q-50 31 -113 31q-103 0 -172.5 -80.5t-69.5 -198.5z
M629 388q0 48 -17 88l-338 -335q48 -31 113 -31q103 0 172.5 80t69.5 198z" />
    <glyph glyph-name="Ugrave" unicode="&#xd9;" horiz-adv-x="684" 
d="M472 756h-89l-98 148h147zM307 -8q-122 0 -189 76t-48 195l70 437h126l-69 -439q-11 -68 24.5 -109t104.5 -41t113 39t55 110l70 440h127l-70 -441q-21 -128 -102.5 -197.5t-211.5 -69.5z" />
    <glyph glyph-name="Uacute" unicode="&#xda;" horiz-adv-x="684" 
d="M364 756l86 148h147l-144 -148h-89zM307 -8q-122 0 -189 76t-48 195l70 437h126l-69 -439q-11 -68 24.5 -109t104.5 -41t113 39t55 110l70 440h127l-70 -441q-21 -128 -102.5 -197.5t-211.5 -69.5z" />
    <glyph glyph-name="Ucircumflex" unicode="&#xdb;" horiz-adv-x="684" 
d="M393 904h108l91 -148h-92l-63 78l-86 -78h-95zM307 -8q-122 0 -189 76t-48 195l70 437h126l-69 -439q-11 -68 24.5 -109t104.5 -41t113 39t55 110l70 440h127l-70 -441q-21 -128 -102.5 -197.5t-211.5 -69.5z" />
    <glyph glyph-name="Udieresis" unicode="&#xdc;" horiz-adv-x="684" 
d="M287 904h118l-20 -126h-118zM490 904h118l-20 -126h-118zM307 -8q-122 0 -189 76t-48 195l70 437h126l-69 -439q-11 -68 24.5 -109t104.5 -41t113 39t55 110l70 440h127l-70 -441q-21 -128 -102.5 -197.5t-211.5 -69.5z" />
    <glyph glyph-name="Yacute" unicode="&#xdd;" horiz-adv-x="621" 
d="M330 756l86 148h147l-144 -148h-89zM202 0l46 290l-175 410h144l118 -284l209 284h146l-305 -410l-47 -290h-136z" />
    <glyph glyph-name="Thorn" unicode="&#xde;" horiz-adv-x="602" 
d="M29 0l111 700h136l-22 -142h146q97 0 150 -47t53 -129q0 -108 -73 -174t-196 -66h-146l-23 -142h-136zM206 256h139q63 0 94 30.5t31 79.5q0 78 -95 78h-139z" />
    <glyph glyph-name="germandbls" unicode="&#xdf;" horiz-adv-x="620" 
d="M315 -8q-58 0 -86 8l18 117q38 -9 74 -9q60 0 95 32.5t35 85.5q0 91 -134 91h-38l19 118h36q56 0 89.5 27t33.5 74q0 32 -22.5 52t-61.5 20q-44 0 -75.5 -29t-39.5 -82l-79 -497h-136l51 317h-57l19 118h56l10 60q16 101 92.5 157t174.5 56q92 0 144.5 -42.5t52.5 -110.5
q0 -57 -33 -102.5t-80 -57.5q53 -18 84 -57t31 -98q0 -118 -75.5 -183t-197.5 -65z" />
    <glyph glyph-name="agrave" unicode="&#xe0;" horiz-adv-x="549" 
d="M366 560h-89l-97 148h147zM294 512q103 0 160 -62.5t41 -163.5l-45 -286h-123l11 70q-25 -35 -69.5 -56.5t-94.5 -21.5q-67 0 -110 39.5t-43 96.5q0 158 253 181l103 9l1 6q7 42 -21.5 67t-76.5 25q-43 0 -73 -23.5t-37 -64.5l-110 21q15 73 82.5 118t151.5 45zM216 85
q53 0 89.5 32.5t54.5 90.5l3 19l-104 -10q-115 -12 -115 -75q0 -25 19 -41t53 -16z" />
    <glyph glyph-name="aacute" unicode="&#xe1;" horiz-adv-x="549" 
d="M492 708l-144 -148h-88l85 148h147zM294 512q103 0 160 -62.5t41 -163.5l-45 -286h-123l11 70q-25 -35 -69.5 -56.5t-94.5 -21.5q-67 0 -110 39.5t-43 96.5q0 158 253 181l103 9l1 6q7 42 -21.5 67t-76.5 25q-43 0 -73 -23.5t-37 -64.5l-110 21q15 73 82.5 118t151.5 45z
M216 85q53 0 89.5 32.5t54.5 90.5l3 19l-104 -10q-115 -12 -115 -75q0 -25 19 -41t53 -16z" />
    <glyph glyph-name="acircumflex" unicode="&#xe2;" horiz-adv-x="549" 
d="M331 638l-86 -78h-94l137 148h107l91 -148h-91zM294 512q103 0 160 -62.5t41 -163.5l-45 -286h-123l11 70q-25 -35 -69.5 -56.5t-94.5 -21.5q-67 0 -110 39.5t-43 96.5q0 158 253 181l103 9l1 6q7 42 -21.5 67t-76.5 25q-43 0 -73 -23.5t-37 -64.5l-110 21
q15 73 82.5 118t151.5 45zM216 85q53 0 89.5 32.5t54.5 90.5l3 19l-104 -10q-115 -12 -115 -75q0 -25 19 -41t53 -16z" />
    <glyph glyph-name="atilde" unicode="&#xe3;" horiz-adv-x="549" 
d="M260 621q-33 0 -48 -51l-85 13q11 57 51.5 92.5t95.5 35.5q42 0 80 -27q4 -2 9.5 -6.5t8.5 -6t8 -4.5t8 -4t8 -2t10 -1q32 0 47 51l85 -13q-11 -58 -51.5 -93.5t-94.5 -35.5q-43 0 -80 27q-35 25 -52 25zM294 512q103 0 160 -62.5t41 -163.5l-45 -286h-123l11 70
q-25 -35 -69.5 -56.5t-94.5 -21.5q-67 0 -110 39.5t-43 96.5q0 158 253 181l103 9l1 6q7 42 -21.5 67t-76.5 25q-43 0 -73 -23.5t-37 -64.5l-110 21q15 73 82.5 118t151.5 45zM216 85q53 0 89.5 32.5t54.5 90.5l3 19l-104 -10q-115 -12 -115 -75q0 -25 19 -41t53 -16z" />
    <glyph glyph-name="adieresis" unicode="&#xe4;" horiz-adv-x="549" 
d="M300 708l-20 -126h-118l20 126h118zM502 708l-20 -126h-117l20 126h117zM294 512q103 0 160 -62.5t41 -163.5l-45 -286h-123l11 70q-25 -35 -69.5 -56.5t-94.5 -21.5q-67 0 -110 39.5t-43 96.5q0 158 253 181l103 9l1 6q7 42 -21.5 67t-76.5 25q-43 0 -73 -23.5
t-37 -64.5l-110 21q15 73 82.5 118t151.5 45zM216 85q53 0 89.5 32.5t54.5 90.5l3 19l-104 -10q-115 -12 -115 -75q0 -25 19 -41t53 -16z" />
    <glyph glyph-name="aring" unicode="&#xe5;" horiz-adv-x="549" 
d="M312 541q-50 0 -83 31t-33 78t33 78.5t83 31.5q51 0 84 -31.5t33 -78.5t-33 -78t-84 -31zM312 696q-20 0 -33.5 -13t-13.5 -33t13.5 -32.5t33.5 -12.5q21 0 34.5 12.5t13.5 32.5t-13.5 33t-34.5 13zM294 512q103 0 160 -62.5t41 -163.5l-45 -286h-123l11 70
q-25 -35 -69.5 -56.5t-94.5 -21.5q-67 0 -110 39.5t-43 96.5q0 158 253 181l103 9l1 6q7 42 -21.5 67t-76.5 25q-43 0 -73 -23.5t-37 -64.5l-110 21q15 73 82.5 118t151.5 45zM216 85q53 0 89.5 32.5t54.5 90.5l3 19l-104 -10q-115 -12 -115 -75q0 -25 19 -41t53 -16z" />
    <glyph glyph-name="ae" unicode="&#xe6;" horiz-adv-x="903" 
d="M866 219h-374q-1 -56 29.5 -88.5t83.5 -32.5q44 0 77 20t48 57l114 -32q-32 -71 -100.5 -111t-157.5 -40q-126 0 -184 95q-81 -95 -213 -95q-80 0 -124.5 36.5t-44.5 94.5q0 82 68 133.5t193 51.5h96l3 16q7 42 -18.5 68t-73.5 26q-42 0 -75 -24.5t-42 -61.5l-104 21
q23 71 88.5 115t147.5 44q119 0 169 -68q78 68 189 68q106 0 162 -62t56 -148q0 -31 -13 -83zM646 416q-99 0 -138 -105h239q3 47 -22.5 76t-78.5 29zM215 83q58 0 98 38t49 95h1v3h-101q-56 0 -87 -23t-31 -58q0 -24 20 -39.5t51 -15.5z" />
    <glyph glyph-name="ccedilla" unicode="&#xe7;" horiz-adv-x="563" 
d="M279 101q45 0 76 22.5t41 62.5l123 -25q-17 -71 -74.5 -115.5t-142.5 -51.5l-83 -142h-147l141 146q-80 17 -129.5 78t-49.5 146q0 127 82 208.5t210 81.5q94 0 155.5 -51t63.5 -131l-129 -22q-1 41 -30 68t-73 27q-66 0 -106 -46.5t-40 -123.5q0 -58 31 -95t81 -37z" />
    <glyph glyph-name="egrave" unicode="&#xe8;" horiz-adv-x="569" 
d="M377 560h-89l-98 148h147zM544 302q0 -40 -12 -81h-374q2 -59 34 -91t87 -32q91 0 114 77l119 -32q-22 -68 -90.5 -109.5t-158.5 -41.5q-101 0 -165 64t-64 166q0 73 30.5 137.5t96.5 108.5t156 44q107 0 167 -62.5t60 -147.5zM414 311q3 46 -27.5 75.5t-84.5 29.5
q-48 0 -82.5 -28t-49.5 -77h244z" />
    <glyph glyph-name="eacute" unicode="&#xe9;" horiz-adv-x="569" 
d="M502 708l-144 -148h-89l86 148h147zM544 302q0 -40 -12 -81h-374q2 -59 34 -91t87 -32q91 0 114 77l119 -32q-22 -68 -90.5 -109.5t-158.5 -41.5q-101 0 -165 64t-64 166q0 73 30.5 137.5t96.5 108.5t156 44q107 0 167 -62.5t60 -147.5zM414 311q3 46 -27.5 75.5
t-84.5 29.5q-48 0 -82.5 -28t-49.5 -77h244z" />
    <glyph glyph-name="ecircumflex" unicode="&#xea;" horiz-adv-x="569" 
d="M342 638l-86 -78h-95l137 148h108l91 -148h-92zM544 302q0 -40 -12 -81h-374q2 -59 34 -91t87 -32q91 0 114 77l119 -32q-22 -68 -90.5 -109.5t-158.5 -41.5q-101 0 -165 64t-64 166q0 73 30.5 137.5t96.5 108.5t156 44q107 0 167 -62.5t60 -147.5zM414 311
q3 46 -27.5 75.5t-84.5 29.5q-48 0 -82.5 -28t-49.5 -77h244z" />
    <glyph glyph-name="edieresis" unicode="&#xeb;" horiz-adv-x="569" 
d="M310 708l-20 -126h-118l20 126h118zM513 708l-20 -126h-118l20 126h118zM544 302q0 -40 -12 -81h-374q2 -59 34 -91t87 -32q91 0 114 77l119 -32q-22 -68 -90.5 -109.5t-158.5 -41.5q-101 0 -165 64t-64 166q0 73 30.5 137.5t96.5 108.5t156 44q107 0 167 -62.5
t60 -147.5zM414 311q3 46 -27.5 75.5t-84.5 29.5q-48 0 -82.5 -28t-49.5 -77h244z" />
    <glyph glyph-name="igrave" unicode="&#xec;" horiz-adv-x="248" 
d="M222 560h-89l-98 148h147zM24 0l80 504h126l-80 -504h-126z" />
    <glyph glyph-name="iacute" unicode="&#xed;" horiz-adv-x="248" 
d="M115 560l86 148h147l-144 -148h-89zM24 0l80 504h126l-80 -504h-126z" />
    <glyph glyph-name="icircumflex" unicode="&#xee;" horiz-adv-x="248" 
d="M143 708h108l91 -148h-92l-63 78l-86 -78h-95zM24 0l80 504h126l-80 -504h-126z" />
    <glyph glyph-name="idieresis" unicode="&#xef;" horiz-adv-x="248" 
d="M41 708h118l-20 -126h-118zM244 708h118l-20 -126h-118zM24 0l80 504h126l-80 -504h-126z" />
    <glyph glyph-name="eth" unicode="&#xf0;" horiz-adv-x="655" 
d="M640 608l-90 -20q15 -75 15 -166q0 -120 -25.5 -207t-69.5 -134t-94 -68t-109 -21q-109 0 -172.5 57.5t-63.5 156.5q0 116 79 198t192 82q104 0 144 -58q2 58 -12 134l-118 -27l-5 84l103 23q-12 37 -25 66h125l15 -40l106 24zM272 101q66 0 111 48t45 119
q0 51 -31.5 80.5t-86.5 29.5q-64 0 -108.5 -48t-44.5 -118q0 -49 32 -80t83 -31z" />
    <glyph glyph-name="ntilde" unicode="&#xf1;" 
d="M238 570l-85 13q11 57 52 92.5t95 35.5q42 0 80 -27q4 -2 9.5 -6.5t8.5 -6t8 -4.5t8 -4t8 -2t10 -1q32 0 47 51l85 -13q-11 -58 -51.5 -93.5t-94.5 -35.5q-43 0 -80 27q-35 25 -52 25q-33 0 -48 -51zM24 0l80 504h126l-12 -76q69 84 173 84q82 0 125 -50t30 -132
l-53 -330h-125l47 300q8 45 -14 72.5t-66 27.5q-58 0 -97 -47t-53 -132l-35 -221h-126z" />
    <glyph glyph-name="ograve" unicode="&#xf2;" horiz-adv-x="590" 
d="M394 560h-89l-98 148h147zM269 -8q-102 0 -169 63.5t-67 159.5q0 127 83.5 212t210.5 85q101 0 168 -63t67 -159q0 -127 -83.5 -212.5t-209.5 -85.5zM281 101q67 0 110 49.5t43 126.5q0 56 -33.5 91t-85.5 35q-69 0 -111.5 -49t-42.5 -127q0 -56 33.5 -91t86.5 -35z" />
    <glyph glyph-name="oacute" unicode="&#xf3;" horiz-adv-x="590" 
d="M286 560l86 148h147l-144 -148h-89zM269 -8q-102 0 -169 63.5t-67 159.5q0 127 83.5 212t210.5 85q101 0 168 -63t67 -159q0 -127 -83.5 -212.5t-209.5 -85.5zM281 101q67 0 110 49.5t43 126.5q0 56 -33.5 91t-85.5 35q-69 0 -111.5 -49t-42.5 -127q0 -56 33.5 -91
t86.5 -35z" />
    <glyph glyph-name="ocircumflex" unicode="&#xf4;" horiz-adv-x="590" 
d="M315 708h108l91 -148h-92l-63 78l-86 -78h-95zM269 -8q-102 0 -169 63.5t-67 159.5q0 127 83.5 212t210.5 85q101 0 168 -63t67 -159q0 -127 -83.5 -212.5t-209.5 -85.5zM281 101q67 0 110 49.5t43 126.5q0 56 -33.5 91t-85.5 35q-69 0 -111.5 -49t-42.5 -127
q0 -56 33.5 -91t86.5 -35z" />
    <glyph glyph-name="otilde" unicode="&#xf5;" horiz-adv-x="590" 
d="M239 570l-85 13q11 57 52 92.5t95 35.5q43 0 80 -27q4 -2 9.5 -6.5t8.5 -6t8 -4.5t8 -4t8 -2t10 -1q32 0 47 51l85 -13q-11 -58 -51.5 -93.5t-94.5 -35.5q-43 0 -80 27q-35 25 -52 25q-33 0 -48 -51zM269 -8q-102 0 -169 63.5t-67 159.5q0 127 83.5 212t210.5 85
q101 0 168 -63t67 -159q0 -127 -83.5 -212.5t-209.5 -85.5zM281 101q67 0 110 49.5t43 126.5q0 56 -33.5 91t-85.5 35q-69 0 -111.5 -49t-42.5 -127q0 -56 33.5 -91t86.5 -35z" />
    <glyph glyph-name="odieresis" unicode="&#xf6;" horiz-adv-x="590" 
d="M209 708h118l-20 -126h-118zM412 708h118l-20 -126h-118zM269 -8q-102 0 -169 63.5t-67 159.5q0 127 83.5 212t210.5 85q101 0 168 -63t67 -159q0 -127 -83.5 -212.5t-209.5 -85.5zM281 101q67 0 110 49.5t43 126.5q0 56 -33.5 91t-85.5 35q-69 0 -111.5 -49t-42.5 -127
q0 -56 33.5 -91t86.5 -35z" />
    <glyph glyph-name="divide" unicode="&#xf7;" horiz-adv-x="549" 
d="M256 599h133l-21 -132h-133zM37 271l17 108h485l-17 -108h-485zM188 174h134l-21 -132h-133z" />
    <glyph glyph-name="oslash" unicode="&#xf8;" horiz-adv-x="590" 
d="M588 485l-67 -66q41 -55 41 -129q0 -127 -83.5 -212.5t-209.5 -85.5q-81 0 -141 41l-70 -68l-53 54l68 67q-40 58 -40 129q0 127 83.5 212t210.5 85q80 0 140 -41l69 68zM161 227q0 -24 8 -48l210 206q-27 18 -64 18q-69 0 -111.5 -49t-42.5 -127zM434 277q0 25 -8 49
l-211 -207q31 -18 66 -18q67 0 110 49.5t43 126.5z" />
    <glyph glyph-name="ugrave" unicode="&#xf9;" 
d="M390 560h-89l-98 148h147zM573 504l-80 -504h-125l12 76q-69 -84 -174 -84q-82 0 -125 50t-30 132l53 330h126l-48 -300q-8 -45 14 -72.5t66 -27.5q58 0 97.5 47t53.5 132l35 221h125z" />
    <glyph glyph-name="uacute" unicode="&#xfa;" 
d="M283 560l86 148h147l-144 -148h-89zM573 504l-80 -504h-125l12 76q-69 -84 -174 -84q-82 0 -125 50t-30 132l53 330h126l-48 -300q-8 -45 14 -72.5t66 -27.5q58 0 97.5 47t53.5 132l35 221h125z" />
    <glyph glyph-name="ucircumflex" unicode="&#xfb;" 
d="M311 708h108l91 -148h-92l-63 78l-86 -78h-95zM573 504l-80 -504h-125l12 76q-69 -84 -174 -84q-82 0 -125 50t-30 132l53 330h126l-48 -300q-8 -45 14 -72.5t66 -27.5q58 0 97.5 47t53.5 132l35 221h125z" />
    <glyph glyph-name="udieresis" unicode="&#xfc;" 
d="M206 708h118l-20 -126h-118zM409 708h118l-20 -126h-118zM573 504l-80 -504h-125l12 76q-69 -84 -174 -84q-82 0 -125 50t-30 132l53 330h126l-48 -300q-8 -45 14 -72.5t66 -27.5q58 0 97.5 47t53.5 132l35 221h125z" />
    <glyph glyph-name="yacute" unicode="&#xfd;" horiz-adv-x="516" 
d="M479 708l-144 -148h-89l86 148h147zM422 504h125l-374 -686h-121l113 209l-117 477h130l69 -324z" />
    <glyph glyph-name="thorn" unicode="&#xfe;" horiz-adv-x="605" 
d="M-7 -196l142 899h126l-41 -257q61 66 160 66q94 0 146 -58t52 -156q0 -133 -79 -219.5t-202 -86.5q-49 0 -85.5 17t-53.5 47l-39 -252h-126zM298 101q67 0 110 48.5t43 131.5q0 58 -30 90t-82 32q-70 0 -115.5 -48.5t-45.5 -131.5q0 -58 32.5 -90t87.5 -32z" />
    <glyph glyph-name="ydieresis" unicode="&#xff;" horiz-adv-x="516" 
d="M286 708l-20 -126h-118l20 126h118zM489 708l-20 -126h-118l20 126h118zM422 504h125l-374 -686h-121l113 209l-117 477h130l69 -324z" />
    <glyph glyph-name="Amacron" unicode="&#x100;" horiz-adv-x="679" 
d="M579 877l-15 -97h-278l15 97h278zM495 0l-33 155h-270l-82 -155h-141l380 700h128l158 -700h-140zM252 270h186l-53 252z" />
    <glyph glyph-name="amacron" unicode="&#x101;" horiz-adv-x="549" 
d="M476 681l-15 -97h-277l15 97h277zM294 512q103 0 160 -62.5t41 -163.5l-45 -286h-123l11 70q-25 -35 -69.5 -56.5t-94.5 -21.5q-67 0 -110 39.5t-43 96.5q0 158 253 181l103 9l1 6q7 42 -21.5 67t-76.5 25q-43 0 -73 -23.5t-37 -64.5l-110 21q15 73 82.5 118t151.5 45z
M216 85q53 0 89.5 32.5t54.5 90.5l3 19l-104 -10q-115 -12 -115 -75q0 -25 19 -41t53 -16z" />
    <glyph glyph-name="Abreve" unicode="&#x102;" horiz-adv-x="679" 
d="M421 753q-60 0 -93 38.5t-24 96.5h93q-4 -24 6 -38.5t31 -14.5t36 14.5t20 38.5h92q-9 -58 -55 -96.5t-106 -38.5zM495 0l-33 155h-270l-82 -155h-141l380 700h128l158 -700h-140zM252 270h186l-53 252z" />
    <glyph glyph-name="abreve" unicode="&#x103;" horiz-adv-x="549" 
d="M319 557q-60 0 -93.5 38.5t-23.5 96.5h93q-4 -24 6 -38.5t30 -14.5q21 0 36.5 14.5t19.5 38.5h93q-10 -58 -55.5 -96.5t-105.5 -38.5zM294 512q103 0 160 -62.5t41 -163.5l-45 -286h-123l11 70q-25 -35 -69.5 -56.5t-94.5 -21.5q-67 0 -110 39.5t-43 96.5q0 158 253 181
l103 9l1 6q7 42 -21.5 67t-76.5 25q-43 0 -73 -23.5t-37 -64.5l-110 21q15 73 82.5 118t151.5 45zM216 85q53 0 89.5 32.5t54.5 90.5l3 19l-104 -10q-115 -12 -115 -75q0 -25 19 -41t53 -16z" />
    <glyph glyph-name="Aogonek" unicode="&#x104;" horiz-adv-x="679" 
d="M541 -71q0 -30 34 -30q13 0 25 3l-1 -86q-27 -6 -56 -6q-49 0 -77.5 24t-28.5 63q0 57 57 106l-32 152h-270l-82 -155h-141l380 700h128l158 -700h-47q-47 -41 -47 -71zM252 270h186l-53 252z" />
    <glyph glyph-name="aogonek" unicode="&#x105;" horiz-adv-x="549" 
d="M450 0q-47 -41 -47 -71t34 -30q13 0 25 3l-1 -86q-27 -6 -56 -6q-49 0 -77.5 24t-28.5 63q0 55 53 103h-25l11 70q-25 -35 -69.5 -56.5t-94.5 -21.5q-67 0 -110 39.5t-43 96.5q0 158 253 181l103 9l1 6q7 42 -21.5 67t-76.5 25q-43 0 -73 -23.5t-37 -64.5l-110 21
q15 73 82.5 118t151.5 45q103 0 160 -62.5t41 -163.5zM216 85q53 0 89.5 32.5t54.5 90.5l3 19l-104 -10q-115 -12 -115 -75q0 -25 19 -41t53 -16z" />
    <glyph glyph-name="Cacute" unicode="&#x106;" horiz-adv-x="730" 
d="M399 756l86 148h147l-144 -148h-89zM354 -8q-131 0 -218.5 80.5t-87.5 221.5q0 99 34 179.5t91.5 131t129 77t149.5 26.5q126 0 202.5 -63.5t76.5 -169.5l-138 -28q-3 67 -47 105.5t-113 38.5q-106 0 -176.5 -75t-70.5 -207q0 -92 52.5 -145.5t133.5 -53.5q67 0 115 35
t69 97l133 -30q-38 -104 -126 -162t-209 -58z" />
    <glyph glyph-name="cacute" unicode="&#x107;" horiz-adv-x="563" 
d="M282 560l86 148h147l-144 -148h-89zM267 -8q-101 0 -167 65.5t-66 164.5q0 127 82 208.5t210 81.5q94 0 155.5 -51t63.5 -131l-129 -22q-1 41 -30 68t-73 27q-66 0 -106 -46.5t-40 -123.5q0 -58 31 -95t81 -37q45 0 76 22.5t41 62.5l123 -25q-19 -78 -86.5 -123.5
t-165.5 -45.5z" />
    <glyph glyph-name="Ccircumflex" unicode="&#x108;" horiz-adv-x="730" 
d="M428 904h108l91 -148h-92l-63 78l-86 -78h-95zM354 -8q-131 0 -218.5 80.5t-87.5 221.5q0 99 34 179.5t91.5 131t129 77t149.5 26.5q126 0 202.5 -63.5t76.5 -169.5l-138 -28q-3 67 -47 105.5t-113 38.5q-106 0 -176.5 -75t-70.5 -207q0 -92 52.5 -145.5t133.5 -53.5
q67 0 115 35t69 97l133 -30q-38 -104 -126 -162t-209 -58z" />
    <glyph glyph-name="ccircumflex" unicode="&#x109;" horiz-adv-x="563" 
d="M310 708h108l91 -148h-92l-63 78l-86 -78h-95zM267 -8q-101 0 -167 65.5t-66 164.5q0 127 82 208.5t210 81.5q94 0 155.5 -51t63.5 -131l-129 -22q-1 41 -30 68t-73 27q-66 0 -106 -46.5t-40 -123.5q0 -58 31 -95t81 -37q45 0 76 22.5t41 62.5l123 -25
q-19 -78 -86.5 -123.5t-165.5 -45.5z" />
    <glyph glyph-name="Cdotaccent" unicode="&#x10a;" horiz-adv-x="730" 
d="M415 904h136l-20 -130h-136zM354 -8q-131 0 -218.5 80.5t-87.5 221.5q0 99 34 179.5t91.5 131t129 77t149.5 26.5q126 0 202.5 -63.5t76.5 -169.5l-138 -28q-3 67 -47 105.5t-113 38.5q-106 0 -176.5 -75t-70.5 -207q0 -92 52.5 -145.5t133.5 -53.5q67 0 115 35t69 97
l133 -30q-38 -104 -126 -162t-209 -58z" />
    <glyph glyph-name="cdotaccent" unicode="&#x10b;" horiz-adv-x="563" 
d="M298 708h136l-20 -130h-136zM267 -8q-101 0 -167 65.5t-66 164.5q0 127 82 208.5t210 81.5q94 0 155.5 -51t63.5 -131l-129 -22q-1 41 -30 68t-73 27q-66 0 -106 -46.5t-40 -123.5q0 -58 31 -95t81 -37q45 0 76 22.5t41 62.5l123 -25q-19 -78 -86.5 -123.5t-165.5 -45.5z
" />
    <glyph glyph-name="Ccaron" unicode="&#x10c;" horiz-adv-x="730" 
d="M405 756l-91 148h89l64 -77l86 77h97l-137 -148h-108zM354 -8q-131 0 -218.5 80.5t-87.5 221.5q0 99 34 179.5t91.5 131t129 77t149.5 26.5q126 0 202.5 -63.5t76.5 -169.5l-138 -28q-3 67 -47 105.5t-113 38.5q-106 0 -176.5 -75t-70.5 -207q0 -92 52.5 -145.5
t133.5 -53.5q67 0 115 35t69 97l133 -30q-38 -104 -126 -162t-209 -58z" />
    <glyph glyph-name="ccaron" unicode="&#x10d;" horiz-adv-x="563" 
d="M288 560l-91 148h89l64 -77l86 77h97l-137 -148h-108zM267 -8q-101 0 -167 65.5t-66 164.5q0 127 82 208.5t210 81.5q94 0 155.5 -51t63.5 -131l-129 -22q-1 41 -30 68t-73 27q-66 0 -106 -46.5t-40 -123.5q0 -58 31 -95t81 -37q45 0 76 22.5t41 62.5l123 -25
q-19 -78 -86.5 -123.5t-165.5 -45.5z" />
    <glyph glyph-name="Dcaron" unicode="&#x10e;" horiz-adv-x="689" 
d="M336 756l-91 148h89l64 -77l86 77h97l-137 -148h-108zM29 0l111 700h228q136 0 222.5 -76t86.5 -216q0 -98 -35 -177.5t-94 -129t-133.5 -75.5t-157.5 -26h-228zM181 118h83q53 0 100.5 15t87.5 46.5t63.5 86.5t23.5 127q0 97 -56.5 143.5t-144.5 46.5h-83z" />
    <glyph glyph-name="dcaron" unicode="&#x10f;" horiz-adv-x="725" 
d="M638 560l60 186h121l-109 -186h-72zM236 -8q-97 0 -150 58t-53 155q0 134 77.5 220.5t201.5 86.5q98 0 139 -67l42 263h126l-112 -708h-126l9 58q-23 -30 -65 -48t-89 -18zM272 101q69 0 114.5 50t45.5 128q0 57 -30.5 90.5t-85.5 33.5q-67 0 -111.5 -50.5t-44.5 -127.5
q0 -57 30 -90.5t82 -33.5z" />
    <glyph glyph-name="Dcroat" unicode="&#x110;" horiz-adv-x="689" 
d="M368 700q136 0 222.5 -76t86.5 -216q0 -98 -35 -177.5t-94 -129t-133.5 -75.5t-157.5 -26h-228l49 307h-64l14 86h63l49 307h228zM264 118q53 0 100.5 15t87.5 46.5t63.5 86.5t23.5 127q0 97 -56.5 143.5t-144.5 46.5h-83l-30 -190h124l-14 -86h-124l-30 -189h83z" />
    <glyph glyph-name="dcroat" unicode="&#x111;" horiz-adv-x="606" 
d="M687 650l-14 -86h-77l-89 -564h-126l9 58q-23 -30 -65 -48t-89 -18q-97 0 -150 58t-53 155q0 134 77.5 220.5t201.5 86.5q98 0 139 -67l19 119h-118l14 86h118l9 58h126l-9 -58h77zM272 101q69 0 114.5 50t45.5 128q0 57 -30.5 90.5t-85.5 33.5q-67 0 -111.5 -50.5
t-44.5 -127.5q0 -57 30 -90.5t82 -33.5z" />
    <glyph glyph-name="Emacron" unicode="&#x112;" horiz-adv-x="580" 
d="M253 780l15 97h278l-15 -97h-278zM29 0l111 700h467l-18 -117h-332l-25 -154h266l-19 -118h-265l-31 -193h343l-19 -118h-478z" />
    <glyph glyph-name="emacron" unicode="&#x113;" horiz-adv-x="569" 
d="M487 681l-15 -97h-278l15 97h278zM544 302q0 -40 -12 -81h-374q2 -59 34 -91t87 -32q91 0 114 77l119 -32q-22 -68 -90.5 -109.5t-158.5 -41.5q-101 0 -165 64t-64 166q0 73 30.5 137.5t96.5 108.5t156 44q107 0 167 -62.5t60 -147.5zM414 311q3 46 -27.5 75.5
t-84.5 29.5q-48 0 -82.5 -28t-49.5 -77h244z" />
    <glyph glyph-name="Ebreve" unicode="&#x114;" horiz-adv-x="580" 
d="M388 753q-60 0 -93 38.5t-24 96.5h93q-4 -24 6 -38.5t31 -14.5t36 14.5t20 38.5h92q-9 -58 -55 -96.5t-106 -38.5zM29 0l111 700h467l-18 -117h-332l-25 -154h266l-19 -118h-265l-31 -193h343l-19 -118h-478z" />
    <glyph glyph-name="ebreve" unicode="&#x115;" horiz-adv-x="569" 
d="M329 557q-60 0 -93 38.5t-24 96.5h93q-4 -24 6 -38.5t31 -14.5t36 14.5t20 38.5h92q-9 -58 -55 -96.5t-106 -38.5zM544 302q0 -40 -12 -81h-374q2 -59 34 -91t87 -32q91 0 114 77l119 -32q-22 -68 -90.5 -109.5t-158.5 -41.5q-101 0 -165 64t-64 166q0 73 30.5 137.5
t96.5 108.5t156 44q107 0 167 -62.5t60 -147.5zM414 311q3 46 -27.5 75.5t-84.5 29.5q-48 0 -82.5 -28t-49.5 -77h244z" />
    <glyph glyph-name="Edotaccent" unicode="&#x116;" horiz-adv-x="580" 
d="M345 904h136l-20 -130h-136zM29 0l111 700h467l-18 -117h-332l-25 -154h266l-19 -118h-265l-31 -193h343l-19 -118h-478z" />
    <glyph glyph-name="edotaccent" unicode="&#x117;" horiz-adv-x="569" 
d="M421 708l-20 -130h-136l20 130h136zM544 302q0 -40 -12 -81h-374q2 -59 34 -91t87 -32q91 0 114 77l119 -32q-22 -68 -90.5 -109.5t-158.5 -41.5q-101 0 -165 64t-64 166q0 73 30.5 137.5t96.5 108.5t156 44q107 0 167 -62.5t60 -147.5zM414 311q3 46 -27.5 75.5
t-84.5 29.5q-48 0 -82.5 -28t-49.5 -77h244z" />
    <glyph glyph-name="Eogonek" unicode="&#x118;" horiz-adv-x="580" 
d="M589 583h-332l-25 -154h266l-19 -118h-265l-31 -193h343l-19 -118q-47 -41 -47 -71t34 -30q13 0 25 3l-1 -86q-27 -6 -56 -6q-49 0 -77.5 24t-28.5 63q0 55 53 103h-380l111 700h467z" />
    <glyph glyph-name="eogonek" unicode="&#x119;" horiz-adv-x="569" 
d="M544 302q0 -40 -12 -81h-374q2 -59 34 -91t87 -32q91 0 114 77l119 -32q-19 -58 -71.5 -97t-125.5 -50q-42 -38 -42 -67q0 -30 34 -30q13 0 25 3l-1 -86q-27 -6 -56 -6q-49 0 -77.5 24t-28.5 63q0 52 49 99q-84 14 -134 75t-50 151q0 73 30.5 137.5t96.5 108.5t156 44
q107 0 167 -62.5t60 -147.5zM414 311q3 46 -27.5 75.5t-84.5 29.5q-48 0 -82.5 -28t-49.5 -77h244z" />
    <glyph glyph-name="Ecaron" unicode="&#x11a;" horiz-adv-x="580" 
d="M335 756l-91 148h89l64 -77l86 77h97l-137 -148h-108zM29 0l111 700h467l-18 -117h-332l-25 -154h266l-19 -118h-265l-31 -193h343l-19 -118h-478z" />
    <glyph glyph-name="ecaron" unicode="&#x11b;" horiz-adv-x="569" 
d="M383 560h-108l-91 148h89l64 -77l86 77h97zM544 302q0 -40 -12 -81h-374q2 -59 34 -91t87 -32q91 0 114 77l119 -32q-22 -68 -90.5 -109.5t-158.5 -41.5q-101 0 -165 64t-64 166q0 73 30.5 137.5t96.5 108.5t156 44q107 0 167 -62.5t60 -147.5zM414 311q3 46 -27.5 75.5
t-84.5 29.5q-48 0 -82.5 -28t-49.5 -77h244z" />
    <glyph glyph-name="Gcircumflex" unicode="&#x11c;" horiz-adv-x="752" 
d="M426 904h108l91 -148h-92l-63 78l-86 -78h-95zM339 -8q-125 0 -208.5 78t-83.5 220q0 80 23.5 149t63.5 117.5t93 83.5t112.5 51.5t121.5 16.5q126 0 200.5 -62t76.5 -171l-138 -28q-2 66 -45 105t-114 39q-110 0 -182.5 -78t-72.5 -208q0 -92 48 -143.5t130 -51.5
q78 0 134.5 42.5t73.5 111.5h-208l17 110h334l-59 -374h-123l13 85q-29 -43 -85.5 -68t-121.5 -25z" />
    <glyph glyph-name="gcircumflex" unicode="&#x11d;" horiz-adv-x="595" 
d="M350 638l-86 -78h-95l137 148h108l91 -148h-92zM576 504l-63 -401h-1l-11 -71q-15 -100 -93.5 -161t-191.5 -61q-89 0 -146.5 43.5t-59.5 113.5l121 19q-1 -34 27.5 -54.5t73.5 -20.5q56 0 95.5 29.5t47.5 78.5l9 55q-24 -27 -64.5 -43t-85.5 -16q-95 0 -147.5 55.5
t-52.5 149.5q0 128 76.5 210t199.5 82q94 0 133 -59l9 51h124zM270 124q67 0 110 46t43 119q0 52 -29 83t-80 31q-67 0 -110 -46t-43 -119q0 -52 29 -83t80 -31z" />
    <glyph glyph-name="Gbreve" unicode="&#x11e;" horiz-adv-x="752" 
d="M457 753q-60 0 -93 38.5t-24 96.5h93q-4 -24 6 -38.5t31 -14.5t36 14.5t20 38.5h92q-9 -58 -55 -96.5t-106 -38.5zM339 -8q-125 0 -208.5 78t-83.5 220q0 80 23.5 149t63.5 117.5t93 83.5t112.5 51.5t121.5 16.5q126 0 200.5 -62t76.5 -171l-138 -28q-2 66 -45 105
t-114 39q-110 0 -182.5 -78t-72.5 -208q0 -92 48 -143.5t130 -51.5q78 0 134.5 42.5t73.5 111.5h-208l17 110h334l-59 -374h-123l13 85q-29 -43 -85.5 -68t-121.5 -25z" />
    <glyph glyph-name="gbreve" unicode="&#x11f;" horiz-adv-x="595" 
d="M338 557q-60 0 -93 38.5t-24 96.5h93q-4 -24 6 -38.5t31 -14.5t36 14.5t20 38.5h92q-9 -58 -55 -96.5t-106 -38.5zM576 504l-63 -401h-1l-11 -71q-15 -100 -93.5 -161t-191.5 -61q-89 0 -146.5 43.5t-59.5 113.5l121 19q-1 -34 27.5 -54.5t73.5 -20.5q56 0 95.5 29.5
t47.5 78.5l9 55q-24 -27 -64.5 -43t-85.5 -16q-95 0 -147.5 55.5t-52.5 149.5q0 128 76.5 210t199.5 82q94 0 133 -59l9 51h124zM270 124q67 0 110 46t43 119q0 52 -29 83t-80 31q-67 0 -110 -46t-43 -119q0 -52 29 -83t80 -31z" />
    <glyph glyph-name="Gdotaccent" unicode="&#x120;" horiz-adv-x="752" 
d="M414 904h136l-20 -130h-136zM339 -8q-125 0 -208.5 78t-83.5 220q0 80 23.5 149t63.5 117.5t93 83.5t112.5 51.5t121.5 16.5q126 0 200.5 -62t76.5 -171l-138 -28q-2 66 -45 105t-114 39q-110 0 -182.5 -78t-72.5 -208q0 -92 48 -143.5t130 -51.5q78 0 134.5 42.5
t73.5 111.5h-208l17 110h334l-59 -374h-123l13 85q-29 -43 -85.5 -68t-121.5 -25z" />
    <glyph glyph-name="gdotaccent" unicode="&#x121;" horiz-adv-x="595" 
d="M430 708l-20 -130h-136l20 130h136zM576 504l-63 -401h-1l-11 -71q-15 -100 -93.5 -161t-191.5 -61q-89 0 -146.5 43.5t-59.5 113.5l121 19q-1 -34 27.5 -54.5t73.5 -20.5q56 0 95.5 29.5t47.5 78.5l9 55q-24 -27 -64.5 -43t-85.5 -16q-95 0 -147.5 55.5t-52.5 149.5
q0 128 76.5 210t199.5 82q94 0 133 -59l9 51h124zM270 124q67 0 110 46t43 119q0 52 -29 83t-80 31q-67 0 -110 -46t-43 -119q0 -52 29 -83t80 -31z" />
    <glyph glyph-name="uni0122" unicode="&#x122;" horiz-adv-x="752" 
d="M339 -8q-125 0 -208.5 78t-83.5 220q0 80 23.5 149t63.5 117.5t93 83.5t112.5 51.5t121.5 16.5q126 0 200.5 -62t76.5 -171l-138 -28q-2 66 -45 105t-114 39q-110 0 -182.5 -78t-72.5 -208q0 -92 48 -143.5t130 -51.5q78 0 134.5 42.5t73.5 111.5h-208l17 110h334
l-59 -374h-123l13 85q-29 -43 -85.5 -68t-121.5 -25zM200 -190l62 148h138l-111 -148h-89z" />
    <glyph glyph-name="uni0123" unicode="&#x123;" horiz-adv-x="595" 
d="M472 708l-50 -148h-133l86 148h97zM576 504l-63 -401h-1l-11 -71q-15 -100 -93.5 -161t-191.5 -61q-89 0 -146.5 43.5t-59.5 113.5l121 19q-1 -34 27.5 -54.5t73.5 -20.5q56 0 95.5 29.5t47.5 78.5l9 55q-24 -27 -64.5 -43t-85.5 -16q-95 0 -147.5 55.5t-52.5 149.5
q0 128 76.5 210t199.5 82q94 0 133 -59l9 51h124zM270 124q67 0 110 46t43 119q0 52 -29 83t-80 31q-67 0 -110 -46t-43 -119q0 -52 29 -83t80 -31z" />
    <glyph glyph-name="Hcircumflex" unicode="&#x124;" horiz-adv-x="711" 
d="M450 834l-86 -78h-95l137 148h108l91 -148h-92zM582 700h136l-111 -700h-136l48 305h-306l-48 -305h-136l111 700h136l-44 -278h306z" />
    <glyph glyph-name="hcircumflex" unicode="&#x125;" horiz-adv-x="596" 
d="M174 904h108l91 -148h-92l-63 78l-86 -78h-95zM24 0l112 708h126l-45 -282q66 86 174 86q85 0 128.5 -50t30.5 -132l-53 -330h-126l48 299q7 46 -15.5 73.5t-68.5 27.5q-58 0 -97.5 -47.5t-53.5 -133.5l-34 -219h-126z" />
    <glyph glyph-name="Hbar" unicode="&#x126;" horiz-adv-x="711" 
d="M766 612l-16 -102h-62l-81 -510h-136l48 305h-306l-48 -305h-136l81 510h-64l16 102h64l14 88h136l-14 -88h306l14 88h136l-14 -88h62zM538 422l14 88h-306l-14 -88h306z" />
    <glyph glyph-name="hbar" unicode="&#x127;" horiz-adv-x="596" 
d="M391 512q85 0 128.5 -50t30.5 -132l-53 -330h-126l48 299q7 46 -15.5 73.5t-68.5 27.5q-58 0 -97.5 -47.5t-53.5 -133.5l-34 -219h-126l89 565h-73l14 86h73l9 57h126l-9 -57h122l-14 -86h-122l-22 -139q66 86 174 86z" />
    <glyph glyph-name="Itilde" unicode="&#x128;" horiz-adv-x="268" 
d="M109 766l-85 13q11 57 52 92.5t95 35.5q43 0 80 -27q4 -2 9.5 -6.5t8.5 -6t8 -4.5t8 -4t8 -2t10 -1q32 0 47 51l85 -13q-11 -58 -51.5 -93.5t-94.5 -35.5q-43 0 -80 27q-35 25 -52 25q-33 0 -48 -51zM29 0l111 700h136l-111 -700h-136z" />
    <glyph glyph-name="itilde" unicode="&#x129;" horiz-adv-x="248" 
d="M68 570l-85 13q11 57 52 92.5t95 35.5q42 0 80 -27q4 -2 9.5 -6.5t8.5 -6t8 -4.5t8 -4t8 -2t10 -1q32 0 47 51l85 -13q-11 -58 -51.5 -93.5t-94.5 -35.5q-43 0 -80 27q-35 25 -52 25q-33 0 -48 -51zM24 0l80 504h126l-80 -504h-126z" />
    <glyph glyph-name="Imacron" unicode="&#x12a;" horiz-adv-x="268" 
d="M80 780l15 97h278l-15 -97h-278zM29 0l111 700h136l-111 -700h-136z" />
    <glyph glyph-name="imacron" unicode="&#x12b;" horiz-adv-x="248" 
d="M39 584l15 97h278l-15 -97h-278zM24 0l80 504h126l-80 -504h-126z" />
    <glyph glyph-name="Ibreve" unicode="&#x12c;" horiz-adv-x="268" 
d="M215 753q-60 0 -93 38.5t-24 96.5h93q-4 -24 6 -38.5t31 -14.5t36 14.5t20 38.5h92q-9 -58 -55 -96.5t-106 -38.5zM29 0l111 700h136l-111 -700h-136z" />
    <glyph glyph-name="ibreve" unicode="&#x12d;" horiz-adv-x="248" 
d="M174 557q-60 0 -93 38.5t-24 96.5h93q-4 -24 6 -38.5t31 -14.5t36 14.5t20 38.5h92q-9 -58 -55 -96.5t-106 -38.5zM24 0l80 504h126l-80 -504h-126z" />
    <glyph glyph-name="Iogonek" unicode="&#x12e;" horiz-adv-x="268" 
d="M118 -71q0 -30 34 -30q13 0 25 3l-1 -86q-27 -6 -56 -6q-49 0 -77.5 24t-28.5 63q0 55 53 103h-38l111 700h136l-111 -700q-47 -41 -47 -71z" />
    <glyph glyph-name="iogonek" unicode="&#x12f;" horiz-adv-x="248" 
d="M131 708h136l-20 -130h-136zM150 0q-47 -41 -47 -71t34 -30q13 0 25 3l-1 -86q-27 -6 -56 -6q-49 0 -77.5 24t-28.5 63q0 55 53 103h-28l80 504h126z" />
    <glyph glyph-name="Idotaccent" unicode="&#x130;" horiz-adv-x="268" 
d="M172 904h136l-20 -130h-136zM29 0l111 700h136l-111 -700h-136z" />
    <glyph glyph-name="dotlessi" unicode="&#x131;" horiz-adv-x="248" 
d="M24 0l80 504h126l-80 -504h-126z" />
    <glyph glyph-name="IJ" unicode="&#x132;" horiz-adv-x="630" 
d="M29 0l111 700h136l-111 -700h-136zM275 120q21 -6 46 -6q44 0 72.5 26t36.5 75l77 485h129l-77 -488q-17 -108 -78 -162.5t-152 -54.5q-40 0 -74 8z" />
    <glyph glyph-name="Jcircumflex" unicode="&#x134;" horiz-adv-x="362" 
d="M280 904h108l91 -148h-92l-63 78l-86 -78h-95zM7 120q21 -6 46 -6q44 0 72.5 26t36.5 75l77 485h129l-77 -488q-17 -108 -78 -162.5t-152 -54.5q-40 0 -74 8z" />
    <glyph glyph-name="jcircumflex" unicode="&#x135;" horiz-adv-x="252" 
d="M150 708h108l91 -148h-92l-63 78l-86 -78h-95zM-60 -190l-32 2l15 109q11 -1 20 -1q75 0 89 92l78 492h126l-81 -509q-14 -84 -72 -134.5t-143 -50.5z" />
    <glyph glyph-name="uni0136" unicode="&#x136;" horiz-adv-x="672" 
d="M722 700l-318 -285l225 -415h-169l-164 319l-94 -84l-37 -235h-136l111 700h136l-44 -277l305 277h185zM150 -190l62 148h138l-111 -148h-89z" />
    <glyph glyph-name="uni0137" unicode="&#x137;" horiz-adv-x="561" 
d="M581 504l-237 -199l172 -305h-150l-120 223l-69 -58l-26 -165h-127l112 708h127l-60 -381l212 177h166zM93 -190l62 148h138l-111 -148h-89z" />
    <glyph glyph-name="kgreenlandic" unicode="&#x138;" horiz-adv-x="561" 
d="M581 504l-237 -199l172 -305h-150l-120 223l-69 -58l-26 -165h-127l80 504h127l-28 -177l214 177h164z" />
    <glyph glyph-name="Lacute" unicode="&#x139;" horiz-adv-x="539" 
d="M156 756l86 148h147l-144 -148h-89zM29 0l111 700h136l-93 -582h325l-18 -118h-461z" />
    <glyph glyph-name="lacute" unicode="&#x13a;" horiz-adv-x="248" 
d="M145 756l86 148h147l-144 -148h-89zM24 0l112 708h126l-112 -708h-126z" />
    <glyph glyph-name="uni013B" unicode="&#x13b;" horiz-adv-x="539" 
d="M29 0l111 700h136l-93 -582h325l-18 -118h-461zM117 -190l62 148h138l-111 -148h-89z" />
    <glyph glyph-name="uni013C" unicode="&#x13c;" horiz-adv-x="248" 
d="M24 0l112 708h126l-112 -708h-126zM-50 -190l62 148h138l-111 -148h-89z" />
    <glyph glyph-name="Lcaron" unicode="&#x13d;" horiz-adv-x="539" 
d="M305 560l61 186h121l-109 -186h-73zM29 0l111 700h136l-93 -582h325l-18 -118h-461z" />
    <glyph glyph-name="lcaron" unicode="&#x13e;" horiz-adv-x="365" 
d="M278 560l60 186h121l-109 -186h-72zM24 0l112 708h126l-112 -708h-126z" />
    <glyph glyph-name="Ldot" unicode="&#x13f;" horiz-adv-x="539" 
d="M29 0l111 700h136l-93 -582h325l-18 -118h-461zM350 413h133l-21 -132h-133z" />
    <glyph glyph-name="ldot" unicode="&#x140;" horiz-adv-x="449" 
d="M24 0l112 708h126l-112 -708h-126zM259 413h133l-21 -132h-133z" />
    <glyph glyph-name="Lslash" unicode="&#x141;" horiz-adv-x="539" 
d="M183 118h325l-18 -118h-461l40 252l-87 -38l17 107l87 38l54 341h136l-44 -278l168 73l-16 -106l-169 -74z" />
    <glyph glyph-name="lslash" unicode="&#x142;" horiz-adv-x="350" 
d="M344 492l-17 -107l-94 -41l-54 -344h-126l45 285l-92 -40l17 107l92 40l50 316h126l-41 -257z" />
    <glyph glyph-name="Nacute" unicode="&#x143;" horiz-adv-x="698" 
d="M371 756l86 148h147l-144 -148h-89zM29 0l111 700h134l226 -486l77 486h128l-111 -700h-135l-226 485l-77 -485h-127z" />
    <glyph glyph-name="nacute" unicode="&#x144;" 
d="M285 560l86 148h147l-144 -148h-89zM24 0l80 504h126l-12 -76q69 84 173 84q82 0 125 -50t30 -132l-53 -330h-125l47 300q8 45 -14 72.5t-66 27.5q-58 0 -97 -47t-53 -132l-35 -221h-126z" />
    <glyph glyph-name="uni0145" unicode="&#x145;" horiz-adv-x="698" 
d="M29 0l111 700h134l226 -486l77 486h128l-111 -700h-135l-226 485l-77 -485h-127zM177 -190l62 148h138l-111 -148h-89z" />
    <glyph glyph-name="uni0146" unicode="&#x146;" 
d="M24 0l80 504h126l-12 -76q69 84 173 84q82 0 125 -50t30 -132l-53 -330h-125l47 300q8 45 -14 72.5t-66 27.5q-58 0 -97 -47t-53 -132l-35 -221h-126zM121 -190l62 148h138l-111 -148h-89z" />
    <glyph glyph-name="Ncaron" unicode="&#x147;" horiz-adv-x="698" 
d="M377 756l-91 148h89l64 -77l86 77h97l-137 -148h-108zM29 0l111 700h134l226 -486l77 486h128l-111 -700h-135l-226 485l-77 -485h-127z" />
    <glyph glyph-name="ncaron" unicode="&#x148;" 
d="M291 560l-91 148h89l64 -77l86 77h97l-137 -148h-108zM24 0l80 504h126l-12 -76q69 84 173 84q82 0 125 -50t30 -132l-53 -330h-125l47 300q8 45 -14 72.5t-66 27.5q-58 0 -97 -47t-53 -132l-35 -221h-126z" />
    <glyph glyph-name="napostrophe" unicode="&#x149;" horiz-adv-x="595" 
d="M113 560l60 186h121l-109 -186h-72zM27 0l80 504h126l-12 -76q69 84 173 84q82 0 125 -50t30 -132l-53 -330h-125l47 300q8 45 -14 72.5t-66 27.5q-58 0 -97 -47t-53 -132l-35 -221h-126z" />
    <glyph glyph-name="Eng" unicode="&#x14a;" horiz-adv-x="698" 
d="M674 504l-58 -366l-22 -138l-4 -25q-14 -86 -82.5 -137.5t-166.5 -44.5l18 110q46 -4 71.5 17t35.5 73l-233 492l-77 -485h-127l111 700h138l222 -486l77 486h128z" />
    <glyph glyph-name="eng" unicode="&#x14b;" 
d="M391 512q82 0 125 -50t30 -132l-16 -101l-39 -246q-12 -77 -74.5 -125t-152.5 -48q-13 0 -21 1l15 110q6 -1 19 -1q40 0 62.5 23.5t30.5 74.5l30 183l15 99q8 45 -14 72.5t-66 27.5q-58 0 -97 -47t-53 -132l-35 -221h-126l80 504h126l-12 -76q69 84 173 84z" />
    <glyph glyph-name="Omacron" unicode="&#x14c;" horiz-adv-x="779" 
d="M337 780l15 97h278l-15 -97h-278zM368 -8q-139 0 -229.5 87t-90.5 220q0 180 111.5 294.5t287.5 114.5q139 0 229 -87t90 -220q0 -180 -111.5 -294.5t-286.5 -114.5zM387 110q103 0 172.5 80t69.5 198q0 89 -56.5 146t-144.5 57q-103 0 -172.5 -80.5t-69.5 -198.5
q0 -89 56 -145.5t145 -56.5z" />
    <glyph glyph-name="omacron" unicode="&#x14d;" horiz-adv-x="590" 
d="M211 584l15 97h278l-15 -97h-278zM269 -8q-102 0 -169 63.5t-67 159.5q0 127 83.5 212t210.5 85q101 0 168 -63t67 -159q0 -127 -83.5 -212.5t-209.5 -85.5zM281 101q67 0 110 49.5t43 126.5q0 56 -33.5 91t-85.5 35q-69 0 -111.5 -49t-42.5 -127q0 -56 33.5 -91
t86.5 -35z" />
    <glyph glyph-name="Obreve" unicode="&#x14e;" horiz-adv-x="779" 
d="M472 753q-60 0 -93 38.5t-24 96.5h93q-4 -24 6 -38.5t31 -14.5t36 14.5t20 38.5h92q-9 -58 -55 -96.5t-106 -38.5zM368 -8q-139 0 -229.5 87t-90.5 220q0 180 111.5 294.5t287.5 114.5q139 0 229 -87t90 -220q0 -180 -111.5 -294.5t-286.5 -114.5zM387 110
q103 0 172.5 80t69.5 198q0 89 -56.5 146t-144.5 57q-103 0 -172.5 -80.5t-69.5 -198.5q0 -89 56 -145.5t145 -56.5z" />
    <glyph glyph-name="obreve" unicode="&#x14f;" horiz-adv-x="590" 
d="M346 557q-60 0 -93 38.5t-24 96.5h93q-4 -24 6 -38.5t31 -14.5t36 14.5t20 38.5h92q-9 -58 -55 -96.5t-106 -38.5zM269 -8q-102 0 -169 63.5t-67 159.5q0 127 83.5 212t210.5 85q101 0 168 -63t67 -159q0 -127 -83.5 -212.5t-209.5 -85.5zM281 101q67 0 110 49.5
t43 126.5q0 56 -33.5 91t-85.5 35q-69 0 -111.5 -49t-42.5 -127q0 -56 33.5 -91t86.5 -35z" />
    <glyph glyph-name="Ohungarumlaut" unicode="&#x150;" horiz-adv-x="779" 
d="M328 756l86 148h109l-95 -148h-100zM492 756l86 148h115l-101 -148h-100zM368 -8q-139 0 -229.5 87t-90.5 220q0 180 111.5 294.5t287.5 114.5q139 0 229 -87t90 -220q0 -180 -111.5 -294.5t-286.5 -114.5zM387 110q103 0 172.5 80t69.5 198q0 89 -56.5 146t-144.5 57
q-103 0 -172.5 -80.5t-69.5 -198.5q0 -89 56 -145.5t145 -56.5z" />
    <glyph glyph-name="ohungarumlaut" unicode="&#x151;" horiz-adv-x="590" 
d="M202 560l86 148h109l-95 -148h-100zM366 560l86 148h115l-101 -148h-100zM269 -8q-102 0 -169 63.5t-67 159.5q0 127 83.5 212t210.5 85q101 0 168 -63t67 -159q0 -127 -83.5 -212.5t-209.5 -85.5zM281 101q67 0 110 49.5t43 126.5q0 56 -33.5 91t-85.5 35
q-69 0 -111.5 -49t-42.5 -127q0 -56 33.5 -91t86.5 -35z" />
    <glyph glyph-name="OE" unicode="&#x152;" horiz-adv-x="1129" 
d="M1137 583h-331l-25 -154h265l-18 -118h-266l-30 -193h343l-19 -118h-479l8 51q-95 -59 -217 -59q-139 0 -229.5 87t-90.5 220q0 180 111.5 294.5t287.5 114.5q139 0 229 -87l12 79h468zM387 110q103 0 172.5 80t69.5 198q0 89 -56.5 146t-144.5 57q-103 0 -172.5 -80.5
t-69.5 -198.5q0 -89 56 -145.5t145 -56.5z" />
    <glyph glyph-name="oe" unicode="&#x153;" horiz-adv-x="968" 
d="M943 302q0 -42 -13 -81h-374q2 -58 34 -90.5t88 -32.5q91 0 114 77l119 -32q-22 -68 -90.5 -109.5t-158.5 -41.5q-118 0 -184 85q-83 -85 -209 -85q-102 0 -169 63.5t-67 159.5q0 127 83.5 212t210.5 85q118 0 186 -82q79 82 203 82q107 0 167 -62.5t60 -147.5zM813 311
q3 46 -27.5 75.5t-84.5 29.5q-48 0 -82.5 -28t-50.5 -77h245zM281 101q67 0 110 49.5t43 126.5q0 56 -33.5 91t-85.5 35q-69 0 -111.5 -49t-42.5 -127q0 -56 33.5 -91t86.5 -35z" />
    <glyph glyph-name="Racute" unicode="&#x154;" horiz-adv-x="650" 
d="M541 904l-144 -148h-89l86 148h147zM606 525q0 -70 -38.5 -126.5t-103.5 -86.5l137 -312h-159l-121 287h-110l-45 -287h-136l110 700h270q91 0 143.5 -47.5t52.5 -127.5zM258 583l-28 -179h112q58 0 91.5 28t33.5 75q0 36 -25 56t-72 20h-112z" />
    <glyph glyph-name="racute" unicode="&#x155;" horiz-adv-x="406" 
d="M216 560l86 148h147l-144 -148h-89zM409 382q-24 12 -62 12q-56 0 -104 -52.5t-64 -156.5l-29 -185h-126l80 504h126l-15 -95q23 43 71 73t96 30q32 0 54 -8z" />
    <glyph glyph-name="uni0156" unicode="&#x156;" horiz-adv-x="650" 
d="M606 525q0 -70 -38.5 -126.5t-103.5 -86.5l137 -312h-159l-121 287h-110l-45 -287h-136l110 700h270q91 0 143.5 -47.5t52.5 -127.5zM258 583l-28 -179h112q58 0 91.5 28t33.5 75q0 36 -25 56t-72 20h-112zM143 -190l62 148h138l-111 -148h-89z" />
    <glyph glyph-name="uni0157" unicode="&#x157;" horiz-adv-x="406" 
d="M409 382q-24 12 -62 12q-56 0 -104 -52.5t-64 -156.5l-29 -185h-126l80 504h126l-15 -95q23 43 71 73t96 30q32 0 54 -8zM-53 -190l62 148h138l-111 -148h-89z" />
    <glyph glyph-name="Rcaron" unicode="&#x158;" horiz-adv-x="650" 
d="M422 756h-108l-91 148h89l64 -77l86 77h97zM606 525q0 -70 -38.5 -126.5t-103.5 -86.5l137 -312h-159l-121 287h-110l-45 -287h-136l110 700h270q91 0 143.5 -47.5t52.5 -127.5zM258 583l-28 -179h112q58 0 91.5 28t33.5 75q0 36 -25 56t-72 20h-112z" />
    <glyph glyph-name="rcaron" unicode="&#x159;" horiz-adv-x="406" 
d="M222 560l-91 148h89l64 -77l86 77h97l-137 -148h-108zM409 382q-24 12 -62 12q-56 0 -104 -52.5t-64 -156.5l-29 -185h-126l80 504h126l-15 -95q23 43 71 73t96 30q32 0 54 -8z" />
    <glyph glyph-name="Sacute" unicode="&#x15a;" horiz-adv-x="591" 
d="M315 756l86 148h147l-144 -148h-89zM283 -8q-113 0 -186 62.5t-74 162.5l127 24q-3 -60 36 -96.5t105 -36.5q57 0 92 28t35 72q0 35 -33.5 58t-81 38t-95 34t-81 60t-33.5 102q0 89 75.5 148.5t181.5 59.5q108 0 177 -50.5t73 -134.5l-129 -35q-2 47 -37.5 75.5
t-91.5 28.5q-52 0 -81.5 -21.5t-29.5 -57.5q0 -31 34 -50t82 -32.5t96 -33t82 -64t34 -111.5q0 -100 -77.5 -165t-199.5 -65z" />
    <glyph glyph-name="sacute" unicode="&#x15b;" horiz-adv-x="463" 
d="M220 560l86 148h147l-144 -148h-89zM210 -8q-88 0 -140.5 46t-62.5 114l105 29q3 -41 32 -66t77 -25q37 0 59 17t22 45q0 22 -24.5 36.5t-60 25t-71 24t-60 44t-24.5 76.5q0 67 55 110.5t142 43.5q76 0 129.5 -36t60.5 -97l-109 -33q-4 35 -31 54t-60 19q-31 0 -51 -13
t-20 -35q0 -21 25 -34t61 -22.5t72.5 -23.5t61.5 -45.5t25 -79.5q0 -76 -59.5 -125t-153.5 -49z" />
    <glyph glyph-name="Scircumflex" unicode="&#x15c;" horiz-adv-x="591" 
d="M343 904h108l91 -148h-92l-63 78l-86 -78h-94zM283 -8q-113 0 -186 62.5t-74 162.5l127 24q-3 -60 36 -96.5t105 -36.5q57 0 92 28t35 72q0 35 -33.5 58t-81 38t-95 34t-81 60t-33.5 102q0 89 75.5 148.5t181.5 59.5q108 0 177 -50.5t73 -134.5l-129 -35
q-2 47 -37.5 75.5t-91.5 28.5q-52 0 -81.5 -21.5t-29.5 -57.5q0 -31 34 -50t82 -32.5t96 -33t82 -64t34 -111.5q0 -100 -77.5 -165t-199.5 -65z" />
    <glyph glyph-name="scircumflex" unicode="&#x15d;" horiz-adv-x="463" 
d="M249 708h107l91 -148h-91l-64 78l-86 -78h-94zM210 -8q-88 0 -140.5 46t-62.5 114l105 29q3 -41 32 -66t77 -25q37 0 59 17t22 45q0 22 -24.5 36.5t-60 25t-71 24t-60 44t-24.5 76.5q0 67 55 110.5t142 43.5q76 0 129.5 -36t60.5 -97l-109 -33q-4 35 -31 54t-60 19
q-31 0 -51 -13t-20 -35q0 -21 25 -34t61 -22.5t72.5 -23.5t61.5 -45.5t25 -79.5q0 -76 -59.5 -125t-153.5 -49z" />
    <glyph glyph-name="Scedilla" unicode="&#x15e;" horiz-adv-x="591" 
d="M232 513q0 -31 34 -50t82 -32.5t96 -33t82 -64t34 -111.5q0 -94 -68.5 -157.5t-178.5 -71.5l-83 -141h-147l140 145q-90 16 -144.5 75t-55.5 145l127 24q-3 -60 36 -96.5t105 -36.5q57 0 92 28t35 72q0 35 -33.5 58t-81 38t-95 34t-81 60t-33.5 102q0 89 75.5 148.5
t181.5 59.5q108 0 177 -50.5t73 -134.5l-129 -35q-2 47 -37.5 75.5t-91.5 28.5q-52 0 -81.5 -21.5t-29.5 -57.5z" />
    <glyph glyph-name="scedilla" unicode="&#x15f;" horiz-adv-x="463" 
d="M178 371q0 -21 25 -34t61 -22.5t72.5 -23.5t61.5 -45.5t25 -79.5q0 -68 -48.5 -115t-127.5 -57l-85 -142h-146l140 145q-64 14 -102.5 56t-46.5 99l105 29q3 -41 32 -66t77 -25q37 0 59 17t22 45q0 22 -24.5 36.5t-60 25t-71 24t-60 44t-24.5 76.5q0 67 55 110.5
t142 43.5q76 0 129.5 -36t60.5 -97l-109 -33q-4 35 -31 54t-60 19q-31 0 -51 -13t-20 -35z" />
    <glyph glyph-name="Scaron" unicode="&#x160;" horiz-adv-x="591" 
d="M321 756l-91 148h89l64 -77l85 77h98l-137 -148h-108zM283 -8q-113 0 -186 62.5t-74 162.5l127 24q-3 -60 36 -96.5t105 -36.5q57 0 92 28t35 72q0 35 -33.5 58t-81 38t-95 34t-81 60t-33.5 102q0 89 75.5 148.5t181.5 59.5q108 0 177 -50.5t73 -134.5l-129 -35
q-2 47 -37.5 75.5t-91.5 28.5q-52 0 -81.5 -21.5t-29.5 -57.5q0 -31 34 -50t82 -32.5t96 -33t82 -64t34 -111.5q0 -100 -77.5 -165t-199.5 -65z" />
    <glyph glyph-name="scaron" unicode="&#x161;" horiz-adv-x="463" 
d="M226 560l-90 148h89l64 -77l85 77h97l-137 -148h-108zM210 -8q-88 0 -140.5 46t-62.5 114l105 29q3 -41 32 -66t77 -25q37 0 59 17t22 45q0 22 -24.5 36.5t-60 25t-71 24t-60 44t-24.5 76.5q0 67 55 110.5t142 43.5q76 0 129.5 -36t60.5 -97l-109 -33q-4 35 -31 54
t-60 19q-31 0 -51 -13t-20 -35q0 -21 25 -34t61 -22.5t72.5 -23.5t61.5 -45.5t25 -79.5q0 -76 -59.5 -125t-153.5 -49z" />
    <glyph glyph-name="uni0162" unicode="&#x162;" horiz-adv-x="589" 
d="M89 700h558l-19 -117h-210l-93 -583l-87 -148h-147l143 148h-45l93 583h-211z" />
    <glyph glyph-name="uni0163" unicode="&#x163;" horiz-adv-x="386" 
d="M253 398l-36 -221q-5 -35 9.5 -54.5t44.5 -19.5q35 0 60 12l-8 -110q-38 -13 -82 -13l-82 -140h-147l149 154q-90 39 -71 159l37 233h-85l17 106h85l23 148h126l-23 -148h126l-17 -106h-126z" />
    <glyph glyph-name="Tcaron" unicode="&#x164;" horiz-adv-x="589" 
d="M323 756l-91 148h89l64 -77l86 77h97l-137 -148h-108zM189 0l93 583h-211l18 117h558l-19 -117h-210l-93 -583h-136z" />
    <glyph glyph-name="tcaron" unicode="&#x165;" horiz-adv-x="386" 
d="M343 560l61 186h121l-109 -186h-73zM323 5q-38 -13 -82 -13q-81 0 -123 44t-28 129l37 233h-85l17 106h85l23 148h126l-23 -148h126l-17 -106h-126l-36 -221q-5 -35 9.5 -54.5t44.5 -19.5q35 0 60 12z" />
    <glyph glyph-name="Tbar" unicode="&#x166;" horiz-adv-x="589" 
d="M628 583h-210l-23 -147h164l-17 -101h-164l-53 -335h-136l53 335h-178l17 101h178l23 147h-211l18 117h558z" />
    <glyph glyph-name="tbar" unicode="&#x167;" horiz-adv-x="386" 
d="M379 398h-126l-17 -102h113l-14 -86h-113l-5 -33q-5 -35 9.5 -54.5t44.5 -19.5q35 0 60 12l-8 -110q-38 -13 -82 -13q-81 0 -123 44t-28 129l7 45h-83l14 86h83l16 102h-85l17 106h85l23 148h126l-23 -148h126z" />
    <glyph glyph-name="Utilde" unicode="&#x168;" horiz-adv-x="684" 
d="M317 766l-85 13q11 57 52 92.5t95 35.5q42 0 80 -27q4 -2 9.5 -6.5t8.5 -6t8 -4.5t8 -4t8 -2t10 -1q32 0 47 51l85 -13q-11 -58 -51.5 -93.5t-94.5 -35.5q-43 0 -80 27q-35 25 -52 25q-33 0 -48 -51zM307 -8q-122 0 -189 76t-48 195l70 437h126l-69 -439
q-11 -68 24.5 -109t104.5 -41t113 39t55 110l70 440h127l-70 -441q-21 -128 -102.5 -197.5t-211.5 -69.5z" />
    <glyph glyph-name="utilde" unicode="&#x169;" 
d="M236 570l-85 13q11 57 52 92.5t95 35.5q42 0 80 -27q4 -2 9.5 -6.5t8.5 -6t8 -4.5t8 -4t8 -2t10 -1q32 0 47 51l85 -13q-11 -58 -51.5 -93.5t-94.5 -35.5q-43 0 -80 27q-35 25 -52 25q-33 0 -48 -51zM573 504l-80 -504h-125l12 76q-69 -84 -174 -84q-82 0 -125 50
t-30 132l53 330h126l-48 -300q-8 -45 14 -72.5t66 -27.5q58 0 97.5 47t53.5 132l35 221h125z" />
    <glyph glyph-name="Umacron" unicode="&#x16a;" horiz-adv-x="684" 
d="M289 780l15 97h278l-15 -97h-278zM307 -8q-122 0 -189 76t-48 195l70 437h126l-69 -439q-11 -68 24.5 -109t104.5 -41t113 39t55 110l70 440h127l-70 -441q-21 -128 -102.5 -197.5t-211.5 -69.5z" />
    <glyph glyph-name="umacron" unicode="&#x16b;" 
d="M207 584l15 97h278l-15 -97h-278zM573 504l-80 -504h-125l12 76q-69 -84 -174 -84q-82 0 -125 50t-30 132l53 330h126l-48 -300q-8 -45 14 -72.5t66 -27.5q58 0 97.5 47t53.5 132l35 221h125z" />
    <glyph glyph-name="Ubreve" unicode="&#x16c;" horiz-adv-x="684" 
d="M424 753q-60 0 -93 38.5t-24 96.5h93q-4 -24 6 -38.5t31 -14.5t36 14.5t20 38.5h92q-9 -58 -55 -96.5t-106 -38.5zM307 -8q-122 0 -189 76t-48 195l70 437h126l-69 -439q-11 -68 24.5 -109t104.5 -41t113 39t55 110l70 440h127l-70 -441q-21 -128 -102.5 -197.5
t-211.5 -69.5z" />
    <glyph glyph-name="ubreve" unicode="&#x16d;" 
d="M342 557q-60 0 -93 38.5t-24 96.5h93q-4 -24 6 -38.5t31 -14.5t36 14.5t20 38.5h92q-9 -58 -55 -96.5t-106 -38.5zM573 504l-80 -504h-125l12 76q-69 -84 -174 -84q-82 0 -125 50t-30 132l53 330h126l-48 -300q-8 -45 14 -72.5t66 -27.5q58 0 97.5 47t53.5 132l35 221
h125z" />
    <glyph glyph-name="Uring" unicode="&#x16e;" horiz-adv-x="684" 
d="M416 737q-50 0 -83 31t-33 78t33 78.5t83 31.5q51 0 84 -31.5t33 -78.5t-33 -78t-84 -31zM416 801q21 0 34.5 12.5t13.5 32.5t-13.5 33t-34.5 13q-20 0 -33.5 -13t-13.5 -33t13.5 -32.5t33.5 -12.5zM307 -8q-122 0 -189 76t-48 195l70 437h126l-69 -439
q-11 -68 24.5 -109t104.5 -41t113 39t55 110l70 440h127l-70 -441q-21 -128 -102.5 -197.5t-211.5 -69.5z" />
    <glyph glyph-name="uring" unicode="&#x16f;" 
d="M334 541q-50 0 -83 31t-33 78t33 78.5t83 31.5q51 0 84 -31.5t33 -78.5t-33 -78t-84 -31zM334 605q21 0 34.5 12.5t13.5 32.5t-13.5 33t-34.5 13q-20 0 -33.5 -13t-13.5 -33t13.5 -32.5t33.5 -12.5zM573 504l-80 -504h-125l12 76q-69 -84 -174 -84q-82 0 -125 50t-30 132
l53 330h126l-48 -300q-8 -45 14 -72.5t66 -27.5q58 0 97.5 47t53.5 132l35 221h125z" />
    <glyph glyph-name="Uhungarumlaut" unicode="&#x170;" horiz-adv-x="684" 
d="M279 756l86 148h109l-95 -148h-100zM443 756l86 148h115l-101 -148h-100zM307 -8q-122 0 -189 76t-48 195l70 437h126l-69 -439q-11 -68 24.5 -109t104.5 -41t113 39t55 110l70 440h127l-70 -441q-21 -128 -102.5 -197.5t-211.5 -69.5z" />
    <glyph glyph-name="uhungarumlaut" unicode="&#x171;" 
d="M198 560l86 148h109l-95 -148h-100zM362 560l86 148h115l-101 -148h-100zM573 504l-80 -504h-125l12 76q-69 -84 -174 -84q-82 0 -125 50t-30 132l53 330h126l-48 -300q-8 -45 14 -72.5t66 -27.5q58 0 97.5 47t53.5 132l35 221h125z" />
    <glyph glyph-name="Uogonek" unicode="&#x172;" horiz-adv-x="684" 
d="M564 700h127l-70 -441q-20 -122 -94.5 -190.5t-193.5 -75.5q-39 -37 -39 -64q0 -30 34 -30q13 0 25 3l-1 -86q-27 -6 -56 -6q-49 0 -77.5 24t-28.5 63q0 52 52 102q-94 20 -141 91t-31 173l70 437h126l-69 -439q-11 -68 24.5 -109t104.5 -41t113 39t55 110z" />
    <glyph glyph-name="uogonek" unicode="&#x173;" 
d="M442 -71q0 -30 34 -30q13 0 25 3l-1 -86q-27 -6 -56 -6q-49 0 -77.5 24t-28.5 63q0 55 53 103h-23l12 76q-69 -84 -174 -84q-82 0 -125 50t-30 132l53 330h126l-48 -300q-8 -45 14 -72.5t66 -27.5q58 0 97.5 47t53.5 132l35 221h125l-80 -504h-4q-47 -41 -47 -71z" />
    <glyph glyph-name="Wcircumflex" unicode="&#x174;" horiz-adv-x="1009" 
d="M556 904h108l91 -148h-92l-63 78l-86 -78h-95zM181 0l-92 700h139l50 -538l222 538h155l52 -538l220 538h140l-313 -700h-144l-61 513l-226 -513h-142z" />
    <glyph glyph-name="wcircumflex" unicode="&#x175;" horiz-adv-x="788" 
d="M414 708h108l91 -148h-92l-63 78l-86 -78h-95zM141 0l-76 504h127l34 -328l153 328h115l50 -328l137 328h128l-237 -504h-112l-51 329l-156 -329h-112z" />
    <glyph glyph-name="Ycircumflex" unicode="&#x176;" horiz-adv-x="621" 
d="M358 904h108l91 -148h-92l-63 78l-86 -78h-95zM202 0l46 290l-175 410h144l118 -284l209 284h146l-305 -410l-47 -290h-136z" />
    <glyph glyph-name="ycircumflex" unicode="&#x177;" horiz-adv-x="516" 
d="M318 638l-86 -78h-95l137 148h108l91 -148h-92zM422 504h125l-374 -686h-121l113 209l-117 477h130l69 -324z" />
    <glyph glyph-name="Ydieresis" unicode="&#x178;" horiz-adv-x="621" 
d="M252 904h118l-20 -126h-118zM455 904h118l-20 -126h-118zM202 0l46 290l-175 410h144l118 -284l209 284h146l-305 -410l-47 -290h-136z" />
    <glyph glyph-name="Zacute" unicode="&#x179;" horiz-adv-x="602" 
d="M324 756l86 148h147l-144 -148h-89zM-11 0l17 110l446 473h-352l18 117h519l-18 -110l-441 -472h368l-19 -118h-538z" />
    <glyph glyph-name="zacute" unicode="&#x17a;" horiz-adv-x="495" 
d="M253 560l86 148h147l-144 -148h-89zM-7 0l16 96l312 302h-247l17 106h410l-16 -96l-310 -302h269l-17 -106h-434z" />
    <glyph glyph-name="Zdotaccent" unicode="&#x17b;" horiz-adv-x="602" 
d="M340 904h136l-20 -130h-136zM-11 0l17 110l446 473h-352l18 117h519l-18 -110l-441 -472h368l-19 -118h-538z" />
    <glyph glyph-name="zdotaccent" unicode="&#x17c;" horiz-adv-x="495" 
d="M269 708h136l-20 -130h-136zM-7 0l16 96l312 302h-247l17 106h410l-16 -96l-310 -302h269l-17 -106h-434z" />
    <glyph glyph-name="Zcaron" unicode="&#x17d;" horiz-adv-x="602" 
d="M330 756l-91 148h89l64 -77l86 77h97l-137 -148h-108zM-11 0l17 110l446 473h-352l18 117h519l-18 -110l-441 -472h368l-19 -118h-538z" />
    <glyph glyph-name="zcaron" unicode="&#x17e;" horiz-adv-x="495" 
d="M259 560l-91 148h89l64 -77l86 77h97l-137 -148h-108zM-7 0l16 96l312 302h-247l17 106h410l-16 -96l-310 -302h269l-17 -106h-434z" />
    <glyph glyph-name="longs" unicode="&#x17f;" horiz-adv-x="378" 
d="M69 0l64 404h-81l16 100h81l6 39q13 86 70 134t136 48q41 0 74 -11l-25 -104q-21 10 -48 10q-32 0 -55 -21t-29 -58l-86 -541h-123z" />
    <glyph glyph-name="florin" unicode="&#x192;" horiz-adv-x="483" 
d="M463 620q-60 0 -85 -79l-11 -37h128l-16 -100h-143l-71 -230q-57 -182 -206 -182q-39 0 -74 11l25 104q23 -10 49 -10q59 0 84 79l70 228h-94l15 100h109l12 39q57 182 207 182q39 0 74 -11l-25 -104q-23 10 -48 10z" />
    <glyph glyph-name="Aringacute" unicode="&#x1fa;" horiz-adv-x="679" 
d="M413 737q-50 0 -83 31t-33 78q0 40 24.5 69.5t64.5 37.5l79 137h147l-142 -146q60 -29 60 -98q0 -47 -33 -78t-84 -31zM413 892q-20 0 -33.5 -13t-13.5 -33t13.5 -32.5t33.5 -12.5q21 0 34.5 12.5t13.5 32.5t-13.5 33t-34.5 13zM495 0l-33 155h-270l-82 -155h-141
l380 700h128l158 -700h-140zM252 270h186l-53 252z" />
    <glyph glyph-name="aringacute" unicode="&#x1fb;" horiz-adv-x="549" 
d="M311 541q-50 0 -83.5 31t-33.5 78q0 40 24.5 69.5t63.5 37.5l80 137h147l-142 -146q60 -30 60 -98q0 -47 -33 -78t-83 -31zM311 696q-21 0 -34.5 -13t-13.5 -33t13.5 -32.5t34.5 -12.5t34.5 12.5t13.5 32.5t-13.5 33t-34.5 13zM294 512q103 0 160 -62.5t41 -163.5
l-45 -286h-123l11 70q-25 -35 -69.5 -56.5t-94.5 -21.5q-67 0 -110 39.5t-43 96.5q0 158 253 181l103 9l1 6q7 42 -21.5 67t-76.5 25q-43 0 -73 -23.5t-37 -64.5l-110 21q15 73 82.5 118t151.5 45zM216 85q53 0 89.5 32.5t54.5 90.5l3 19l-104 -10q-115 -12 -115 -75
q0 -25 19 -41t53 -16z" />
    <glyph glyph-name="AEacute" unicode="&#x1fc;" horiz-adv-x="982" 
d="M777 904l-144 -148h-89l86 148h147zM990 583h-332l-24 -154h265l-19 -118h-265l-30 -193h342l-18 -118h-479l26 162h-228l-111 -162h-149l487 700h554zM309 280h165l50 315z" />
    <glyph glyph-name="aeacute" unicode="&#x1fd;" horiz-adv-x="903" 
d="M699 708l-144 -148h-89l86 148h147zM866 219h-374q-1 -56 29.5 -88.5t83.5 -32.5q44 0 77 20t48 57l114 -32q-32 -71 -100.5 -111t-157.5 -40q-126 0 -184 95q-81 -95 -213 -95q-80 0 -124.5 36.5t-44.5 94.5q0 82 68 133.5t193 51.5h96l3 16q7 42 -18.5 68t-73.5 26
q-42 0 -75 -24.5t-42 -61.5l-104 21q23 71 88.5 115t147.5 44q119 0 169 -68q78 68 189 68q106 0 162 -62t56 -148q0 -31 -13 -83zM646 416q-99 0 -138 -105h239q3 47 -22.5 76t-78.5 29zM215 83q58 0 98 38t49 95h1v3h-101q-56 0 -87 -23t-31 -58q0 -24 20 -39.5t51 -15.5z
" />
    <glyph glyph-name="uni0218" unicode="&#x218;" horiz-adv-x="591" 
d="M283 -8q-113 0 -186 62.5t-74 162.5l127 24q-3 -60 36 -96.5t105 -36.5q57 0 92 28t35 72q0 35 -33.5 58t-81 38t-95 34t-81 60t-33.5 102q0 89 75.5 148.5t181.5 59.5q108 0 177 -50.5t73 -134.5l-129 -35q-2 47 -37.5 75.5t-91.5 28.5q-52 0 -81.5 -21.5t-29.5 -57.5
q0 -31 34 -50t82 -32.5t96 -33t82 -64t34 -111.5q0 -100 -77.5 -165t-199.5 -65zM114 -190l62 148h137l-110 -148h-89z" />
    <glyph glyph-name="uni0219" unicode="&#x219;" horiz-adv-x="463" 
d="M210 -8q-88 0 -140.5 46t-62.5 114l105 29q3 -41 32 -66t77 -25q37 0 59 17t22 45q0 22 -24.5 36.5t-60 25t-71 24t-60 44t-24.5 76.5q0 67 55 110.5t142 43.5q76 0 129.5 -36t60.5 -97l-109 -33q-4 35 -31 54t-60 19q-31 0 -51 -13t-20 -35q0 -21 25 -34t61 -22.5
t72.5 -23.5t61.5 -45.5t25 -79.5q0 -76 -59.5 -125t-153.5 -49zM47 -190l62 148h137l-110 -148h-89z" />
    <glyph glyph-name="uni021A" unicode="&#x21a;" horiz-adv-x="589" 
d="M189 0l93 583h-211l18 117h558l-19 -117h-210l-93 -583h-136zM122 -190l62 148h138l-111 -148h-89z" />
    <glyph glyph-name="uni021B" unicode="&#x21b;" horiz-adv-x="386" 
d="M323 5q-38 -13 -82 -13q-81 0 -123 44t-28 129l37 233h-85l17 106h85l23 148h126l-23 -148h126l-17 -106h-126l-36 -221q-5 -35 9.5 -54.5t44.5 -19.5q35 0 60 12zM44 -190l62 148h138l-111 -148h-89z" />
    <glyph glyph-name="uni0237" unicode="&#x237;" horiz-adv-x="252" 
d="M-60 -190l-32 2l15 109q11 -1 20 -1q75 0 89 92l78 492h126l-81 -509q-14 -84 -72 -134.5t-143 -50.5z" />
    <glyph glyph-name="gravecomb" unicode="&#x300;" horiz-adv-x="0" 
d="M-9 560h-89l-98 148h147z" />
    <glyph glyph-name="acutecomb" unicode="&#x301;" horiz-adv-x="0" 
d="M-208 560l86 148h147l-144 -148h-89z" />
    <glyph glyph-name="uni0302" unicode="&#x302;" horiz-adv-x="0" 
d="M-197 708h108l91 -148h-92l-63 78l-86 -78h-95z" />
    <glyph glyph-name="tildecomb" unicode="&#x303;" horiz-adv-x="0" 
d="M-303 570l-85 13q11 57 52 92.5t95 35.5q42 0 80 -27q4 -2 9.5 -6.5t8.5 -6t8 -4.5t8 -4t8 -2t10 -1q32 0 47 51l85 -13q-11 -58 -51.5 -93.5t-94.5 -35.5q-43 0 -80 27q-35 25 -52 25q-33 0 -48 -51z" />
    <glyph glyph-name="uni0304" unicode="&#x304;" horiz-adv-x="0" 
d="M-273 584l15 97h278l-15 -97h-278z" />
    <glyph glyph-name="uni0306" unicode="&#x306;" horiz-adv-x="0" 
d="M-139 557q-60 0 -93 38.5t-24 96.5h93q-4 -24 6 -38.5t31 -14.5t36 14.5t20 38.5h92q-9 -58 -55 -96.5t-106 -38.5z" />
    <glyph glyph-name="uni0307" unicode="&#x307;" horiz-adv-x="0" 
d="M-123 708h136l-20 -130h-136z" />
    <glyph glyph-name="uni0308" unicode="&#x308;" horiz-adv-x="0" 
d="M-304 708h118l-20 -126h-118zM-101 708h118l-20 -126h-118z" />
    <glyph glyph-name="uni030A" unicode="&#x30a;" horiz-adv-x="0" 
d="M-167 541q-50 0 -83 31t-33 78t33 78.5t83 31.5q51 0 84 -31.5t33 -78.5t-33 -78t-84 -31zM-167 605q21 0 34.5 12.5t13.5 32.5t-13.5 33t-34.5 13q-20 0 -33.5 -13t-13.5 -33t13.5 -32.5t33.5 -12.5z" />
    <glyph glyph-name="uni030B" unicode="&#x30b;" horiz-adv-x="0" 
d="M-340 560l86 148h109l-95 -148h-100zM-176 560l86 148h115l-101 -148h-100z" />
    <glyph glyph-name="uni030C" unicode="&#x30c;" horiz-adv-x="0" 
d="M-220 560l-91 148h89l64 -77l86 77h97l-137 -148h-108z" />
    <glyph glyph-name="uni0312" unicode="&#x312;" horiz-adv-x="0" 
d="M25 708l-50 -148h-133l86 148h97z" />
    <glyph glyph-name="uni0326" unicode="&#x326;" horiz-adv-x="0" 
d="M-294 -190l62 148h138l-111 -148h-89z" />
    <glyph glyph-name="uni0327" unicode="&#x327;" horiz-adv-x="0" 
d="M-88 0l-87 -148h-147l174 180z" />
    <glyph glyph-name="uni0328" unicode="&#x328;" horiz-adv-x="0" 
d="M-173 -190q-49 0 -77.5 24t-28.5 63q0 61 64 112l87 -9q-47 -41 -47 -71t34 -30q13 0 25 3l-1 -86q-27 -6 -56 -6z" />
    <glyph glyph-name="pi" unicode="&#x3c0;" horiz-adv-x="635" 
d="M536 400l-32 -206q-14 -92 59 -92q9 0 20 1l-20 -109q-22 -2 -32 -2q-84 0 -126.5 50.5t-29.5 134.5l35 223h-130l-63 -400h-123l63 400h-93l16 104h560l-17 -104h-87z" />
    <glyph glyph-name="uni0E3F" unicode="&#xe3f;" horiz-adv-x="627" 
d="M497 382q94 -39 94 -146q0 -106 -76.5 -170t-198.5 -66l-16 -100l-111 1l16 99h-176l111 700h175l15 94h112l-15 -94q83 -4 131 -44t48 -110q0 -56 -32.5 -99.5t-76.5 -64.5zM359 427q117 0 117 96q0 68 -93 68h-127l-26 -164h129zM315 118q146 0 146 113q0 81 -115 81
h-134l-31 -194h134z" />
    <glyph glyph-name="Wgrave" unicode="&#x1e80;" horiz-adv-x="1009" 
d="M635 756h-89l-98 148h147zM181 0l-92 700h139l50 -538l222 538h155l52 -538l220 538h140l-313 -700h-144l-61 513l-226 -513h-142z" />
    <glyph glyph-name="wgrave" unicode="&#x1e81;" horiz-adv-x="788" 
d="M493 560h-89l-98 148h147zM141 0l-76 504h127l34 -328l153 328h115l50 -328l137 328h128l-237 -504h-112l-51 329l-156 -329h-112z" />
    <glyph glyph-name="Wacute" unicode="&#x1e82;" horiz-adv-x="1009" 
d="M527 756l86 148h147l-144 -148h-89zM181 0l-92 700h139l50 -538l222 538h155l52 -538l220 538h140l-313 -700h-144l-61 513l-226 -513h-142z" />
    <glyph glyph-name="wacute" unicode="&#x1e83;" horiz-adv-x="788" 
d="M386 560l86 148h147l-144 -148h-89zM141 0l-76 504h127l34 -328l153 328h115l50 -328l137 328h128l-237 -504h-112l-51 329l-156 -329h-112z" />
    <glyph glyph-name="Wdieresis" unicode="&#x1e84;" horiz-adv-x="1009" 
d="M454 904h118l-21 -126h-117zM656 904h118l-20 -126h-118zM181 0l-92 700h139l50 -538l222 538h155l52 -538l220 538h140l-313 -700h-144l-61 513l-226 -513h-142z" />
    <glyph glyph-name="wdieresis" unicode="&#x1e85;" horiz-adv-x="788" 
d="M308 708h118l-20 -126h-118zM511 708h118l-20 -126h-118zM141 0l-76 504h127l34 -328l153 328h115l50 -328l137 328h128l-237 -504h-112l-51 329l-156 -329h-112z" />
    <glyph glyph-name="uni1E9E" unicode="&#x1e9e;" horiz-adv-x="637" 
d="M399 708q99 0 157.5 -54t55.5 -138l-144 -121q59 -14 96 -56t37 -99q0 -97 -76.5 -168.5t-180.5 -71.5h-117l19 118h108q50 0 84.5 33t34.5 81q0 36 -25 56.5t-68 20.5h-73v75l170 145q-5 28 -31.5 45.5t-64.5 17.5q-53 0 -94.5 -42t-51.5 -107l-70 -443h-136l70 443
q19 119 103.5 192t196.5 73z" />
    <glyph glyph-name="Ygrave" unicode="&#x1ef2;" horiz-adv-x="621" 
d="M437 756h-89l-98 148h147zM202 0l46 290l-175 410h144l118 -284l209 284h146l-305 -410l-47 -290h-136z" />
    <glyph glyph-name="ygrave" unicode="&#x1ef3;" horiz-adv-x="516" 
d="M353 560h-89l-98 148h147zM422 504h125l-374 -686h-121l113 209l-117 477h130l69 -324z" />
    <glyph glyph-name="endash" unicode="&#x2013;" horiz-adv-x="500" 
d="M22 235l17 108h456l-17 -108h-456z" />
    <glyph glyph-name="emdash" unicode="&#x2014;" horiz-adv-x="1000" 
d="M22 235l17 108h956l-17 -108h-956z" />
    <glyph glyph-name="quoteleft" unicode="&#x2018;" horiz-adv-x="263" 
d="M316 708l-101 -245h-145l164 245h82z" />
    <glyph glyph-name="quoteright" unicode="&#x2019;" horiz-adv-x="263" 
d="M58 463l100 245h146l-165 -245h-81z" />
    <glyph glyph-name="quotesinglbase" unicode="&#x201a;" horiz-adv-x="263" 
d="M-34 -113l101 245h145l-164 -245h-82z" />
    <glyph glyph-name="quotedblleft" unicode="&#x201c;" horiz-adv-x="451" 
d="M316 708l-101 -245h-145l164 245h82zM504 708l-100 -245h-146l165 245h81z" />
    <glyph glyph-name="quotedblright" unicode="&#x201d;" horiz-adv-x="451" 
d="M58 463l100 245h146l-165 -245h-81zM246 463l101 245h145l-165 -245h-81z" />
    <glyph glyph-name="quotedblbase" unicode="&#x201e;" horiz-adv-x="451" 
d="M-34 -113l101 245h145l-164 -245h-82zM155 -113l100 245h146l-165 -245h-81z" />
    <glyph glyph-name="dagger" unicode="&#x2020;" horiz-adv-x="377" 
d="M124 193l44 277h-122l14 92h122l22 138h116l-22 -138h122l-15 -92h-121l-44 -277h-116z" />
    <glyph glyph-name="daggerdbl" unicode="&#x2021;" horiz-adv-x="377" 
d="M284 470l-33 -206l-5 -34h121l-14 -92h-122l-22 -138h-116l22 138h-122l15 92h122l5 34l32 206h-121l14 92h122l22 138h116l-22 -138h122l-15 -92h-121z" />
    <glyph glyph-name="bullet" unicode="&#x2022;" horiz-adv-x="471" 
d="M237 72q-85 0 -143.5 58.5t-58.5 141.5t59 141.5t143 58.5q82 0 140 -58.5t58 -141.5t-58 -141.5t-140 -58.5z" />
    <glyph glyph-name="ellipsis" unicode="&#x2026;" horiz-adv-x="768" 
d="M45 132h133l-21 -132h-133zM300 132h134l-21 -132h-133zM556 132h133l-20 -132h-134z" />
    <glyph glyph-name="perthousand" unicode="&#x2030;" horiz-adv-x="1020" 
d="M207 356q-64 0 -101 40.5t-37 105.5q0 89 55 147.5t139 58.5q64 0 101 -40t37 -106q0 -89 -55 -147.5t-139 -58.5zM647 700h104l-579 -700h-104zM250 622q-38 0 -61 -30.5t-23 -80.5q0 -32 14.5 -50.5t40.5 -18.5q38 0 60.5 31t22.5 80q0 69 -54 69zM849 344
q65 0 102 -40t37 -106q0 -89 -55.5 -147.5t-138.5 -58.5q-70 0 -108 47q-52 -47 -126 -47q-65 0 -102.5 40t-37.5 106q0 89 55.5 147.5t139.5 58.5q71 0 107 -47q53 47 127 47zM573 78q37 0 60 31t23 80q0 69 -54 69q-38 0 -61 -30.5t-23 -80.5q0 -32 14 -50.5t41 -18.5z
M808 78q37 0 60 31t23 80q0 32 -14.5 50.5t-40.5 18.5q-37 0 -60.5 -30.5t-23.5 -80.5q0 -32 14.5 -50.5t41.5 -18.5z" />
    <glyph glyph-name="guilsinglleft" unicode="&#x2039;" horiz-adv-x="351" 
d="M284 53l-246 216l11 75l316 216l-21 -128l-187 -126l147 -126z" />
    <glyph glyph-name="guilsinglright" unicode="&#x203a;" horiz-adv-x="351" 
d="M8 52l20 128l187 126l-147 126l21 127l247 -216l-12 -75z" />
    <glyph glyph-name="fraction" unicode="&#x2044;" horiz-adv-x="270" 
d="M-188 0l579 700h103l-579 -700h-103z" />
    <glyph glyph-name="Euro" unicode="&#x20ac;" horiz-adv-x="800" 
d="M449 110q67 0 115.5 35.5t68.5 96.5l133 -30q-37 -104 -125.5 -162t-209.5 -58q-113 0 -196 61.5t-104 172.5h-98l13 87h79q1 41 9 78h-75l13 87h89q48 111 149 170.5t219 59.5q126 0 203 -63.5t77 -169.5l-138 -28q-3 66 -47.5 105t-113.5 39q-65 0 -118 -29t-86 -84
h278l-40 -87h-272q-8 -38 -8 -78h240l-40 -87h-186q20 -55 66 -85.5t105 -30.5z" />
    <glyph glyph-name="uni20BF" unicode="&#x20bf;" horiz-adv-x="630" 
d="M497 382q94 -39 94 -146q0 -106 -76.5 -170t-198.5 -66l-16 -100l-111 1l16 99h-176l111 700h175l15 94h112l-15 -94q83 -4 131 -44t48 -110q0 -56 -32.5 -99.5t-76.5 -64.5zM359 427q117 0 117 96q0 68 -93 68h-127l-26 -164h129zM315 118q146 0 146 113q0 81 -115 81
h-134l-31 -194h134z" />
    <glyph glyph-name="uni2116" unicode="&#x2116;" horiz-adv-x="1246" 
d="M940 191q-102 0 -164 62.5t-62 159.5q0 126 90 212t218 86q102 0 164 -62t62 -160q0 -125 -90 -211.5t-218 -86.5zM29 0l111 700h138l222 -486l77 486h128l-111 -700h-138l-223 485l-77 -485h-127zM957 300q69 0 116 50.5t47 127.5q0 56 -31 90.5t-84 34.5
q-70 0 -116 -50.5t-46 -127.5q0 -56 30.5 -90.5t83.5 -34.5zM684 8l17 108h456l-17 -108h-456z" />
    <glyph glyph-name="uni2117" unicode="&#x2117;" horiz-adv-x="788" 
d="M414 -8q-154 0 -256 102t-102 256t102 256t256 102q155 0 257 -102t102 -256t-102 -256t-257 -102zM414 60q124 0 206 82.5t82 207.5t-82 207.5t-206 82.5t-205.5 -82.5t-81.5 -207.5t81.5 -207.5t205.5 -82.5zM420 317h-65v-142h-74l-1 372h140q55 0 90 -32t35 -84
q0 -51 -35 -82.5t-90 -31.5zM355 481v-99h58q27 0 42 13t15 36q0 50 -57 50h-58z" />
    <glyph glyph-name="trademark" unicode="&#x2122;" horiz-adv-x="739" 
d="M107 350v279h-102v71h287v-71h-102v-279h-83zM326 350v350h91l100 -233l99 233h91v-350h-76v197l-85 -197h-59l-85 197v-197h-76z" />
    <glyph glyph-name="uni2126" unicode="&#x2126;" horiz-adv-x="735" 
d="M727 427q0 -98 -50.5 -178.5t-134.5 -130.5h131l-18 -118h-254l19 118l6 37q72 42 117.5 111t45.5 146q0 82 -44.5 131.5t-120.5 49.5q-99 0 -166 -71.5t-67 -176.5q0 -56 24.5 -108t67.5 -82l-5 -37l-4 -27l-4 -25l-11 -66h-254l19 118h137q-107 81 -107 220
q0 154 114.5 262t274.5 108q127 0 205.5 -79t78.5 -202z" />
    <glyph glyph-name="oneeighth" unicode="&#x215b;" horiz-adv-x="809" 
d="M61 0l579 700h102l-579 -700h-102zM121 315l45 290q-50 -30 -90 -39l13 82q46 11 108 52h69l-61 -385h-84zM598 -4q-55 0 -91.5 28.5t-36.5 75.5q0 37 23.5 66.5t60.5 40.5q-39 21 -39 68q0 46 42.5 80t103.5 34q50 0 80.5 -26.5t30.5 -65.5q0 -29 -17.5 -53.5
t-45.5 -36.5q25 -8 39 -29.5t14 -49.5q0 -59 -48.5 -95.5t-115.5 -36.5zM637 242q23 0 38 12t15 32q0 16 -11 25.5t-29 9.5q-24 0 -38 -13t-14 -33q0 -33 39 -33zM610 69q28 0 45.5 15t17.5 39q0 41 -48 41q-29 0 -47 -15t-18 -39q0 -19 13.5 -30t36.5 -11z" />
    <glyph glyph-name="threeeighths" unicode="&#x215c;" horiz-adv-x="879" 
d="M182 311q-61 0 -96.5 31.5t-33.5 83.5l84 13q3 -23 19 -36.5t40 -13.5q30 0 49 17t19 44q0 20 -13.5 32.5t-35.5 12.5q-27 0 -47 -13l-26 61l106 79h-153l13 78h261l-13 -78l-101 -70q47 0 74.5 -25t27.5 -69q0 -65 -49 -106t-125 -41zM111 0l579 700h103l-579 -700h-103
zM668 -4q-55 0 -91.5 28.5t-36.5 75.5q0 37 23.5 66.5t60.5 40.5q-39 21 -39 68q0 46 42.5 80t103.5 34q50 0 80.5 -26.5t30.5 -65.5q0 -29 -17.5 -53.5t-45.5 -36.5q25 -8 39 -29.5t14 -49.5q0 -59 -48.5 -95.5t-115.5 -36.5zM707 242q23 0 38 12t15 32q0 16 -11 25.5
t-29 9.5q-24 0 -38 -13t-14 -33q0 -33 39 -33zM680 69q28 0 45.5 15t17.5 39q0 41 -48 41q-29 0 -47 -15t-18 -39q0 -19 13.5 -30t36.5 -11z" />
    <glyph glyph-name="fiveeighths" unicode="&#x215d;" horiz-adv-x="879" 
d="M182 311q-58 0 -92.5 29t-35.5 78l84 15q7 -44 53 -44q28 0 46.5 18.5t18.5 46.5q0 21 -13.5 33.5t-37.5 12.5q-38 0 -68 -33l-64 14l67 219h218l-13 -78h-152l-25 -77q31 26 74 26q49 0 78 -29.5t29 -77.5q0 -67 -47 -110t-120 -43zM117 0l579 700h103l-579 -700h-103z
M668 -4q-55 0 -91.5 28.5t-36.5 75.5q0 37 23.5 66.5t60.5 40.5q-39 21 -39 68q0 46 42.5 80t103.5 34q50 0 80.5 -26.5t30.5 -65.5q0 -29 -17.5 -53.5t-45.5 -36.5q25 -8 39 -29.5t14 -49.5q0 -59 -48.5 -95.5t-115.5 -36.5zM707 242q23 0 38 12t15 32q0 16 -11 25.5
t-29 9.5q-24 0 -38 -13t-14 -33q0 -33 39 -33zM680 69q28 0 45.5 15t17.5 39q0 41 -48 41q-29 0 -47 -15t-18 -39q0 -19 13.5 -30t36.5 -11z" />
    <glyph glyph-name="seveneighths" unicode="&#x215e;" horiz-adv-x="799" 
d="M33 0l579 700h102l-579 -700h-102zM70 315q78 172 201 307h-193l13 78h282l-12 -78q-136 -155 -203 -307h-88zM587 -4q-55 0 -91 28t-36 76q0 37 23 66.5t60 40.5q-38 21 -38 68q0 46 42 80t103 34q51 0 81.5 -26.5t30.5 -65.5q0 -29 -18 -53.5t-46 -36.5
q25 -8 39.5 -29.5t14.5 -49.5q0 -59 -49 -95.5t-116 -36.5zM627 242q23 0 37.5 12t14.5 32q0 16 -11 25.5t-29 9.5q-23 0 -37.5 -13t-14.5 -33q0 -33 40 -33zM599 69q28 0 45.5 15t17.5 39q0 41 -48 41q-28 0 -46 -15t-18 -39q0 -19 13 -30t36 -11z" />
    <glyph glyph-name="uni2160" unicode="&#x2160;" horiz-adv-x="485" 
d="M473 583h-109l-73 -465h109l-19 -118h-352l18 118h108l73 465h-107l19 117h352z" />
    <glyph glyph-name="uni2161" unicode="&#x2161;" horiz-adv-x="761" 
d="M750 583h-109l-73 -465h108l-19 -118h-628l18 118h108l73 465h-107l19 117h628zM432 118l73 465h-141l-73 -465h141z" />
    <glyph glyph-name="uni2162" unicode="&#x2162;" horiz-adv-x="1038" 
d="M1026 583h-109l-73 -465h109l-19 -118h-905l18 118h108l73 465h-107l19 117h905zM291 118h141l73 465h-141zM708 118l73 465h-140l-73 -465h140z" />
    <glyph glyph-name="uni2163" unicode="&#x2163;" horiz-adv-x="1146" 
d="M1135 583h-99l-243 -465h268l-18 -118h-1014l18 118h109l73 465h-108l19 117h1014zM292 118h284l-96 465h-115zM691 162l210 421h-285z" />
    <glyph glyph-name="uni2164" unicode="&#x2164;" horiz-adv-x="902" 
d="M891 583h-104l-243 -465h248l-19 -118h-719l18 118h254l-96 465h-109l19 117h769zM441 162l211 421h-286z" />
    <glyph glyph-name="uni2165" unicode="&#x2165;" horiz-adv-x="1146" 
d="M1045 700l-111 -700h-905l18 118h281l-96 465h-111l19 117h905zM1135 583h-108l18 117h109zM654 583h-286l75 -421zM546 118h271l73 465h-101zM1061 118l-18 -118h-109l19 118h108z" />
    <glyph glyph-name="uni2166" unicode="&#x2166;" horiz-adv-x="1423" 
d="M1411 583h-108l-73 -465h108l-19 -118h-1290l18 118h281l-96 465h-111l19 117h1290zM654 583h-286l75 -421zM546 118h271l73 465h-101zM953 118h141l73 465h-141z" />
    <glyph glyph-name="uni2167" unicode="&#x2167;" horiz-adv-x="1699" 
d="M1598 700l-111 -700h-1458l18 118h281l-96 465h-111l19 117h1458zM1688 583h-108l18 117h109zM654 583h-286l75 -421zM546 118h271l73 465h-101zM953 118h140l73 465h-140zM1229 118h141l73 465h-141zM1614 118l-18 -118h-109l19 118h108z" />
    <glyph glyph-name="uni2168" unicode="&#x2168;" horiz-adv-x="1130" 
d="M1018 583l-212 -233l138 -232h101l-19 -118h-997l18 118h108l73 465h-107l19 117h997l-19 -117h-100zM434 118l212 232l-138 233h-144l-73 -465h143zM743 457l115 126h-189zM783 118l-74 125l-114 -125h188z" />
    <glyph glyph-name="uni2169" unicode="&#x2169;" horiz-adv-x="844" 
d="M732 583l-212 -233l138 -232h101l-19 -118h-711l18 118h101l212 232l-138 233h-101l19 117h711l-19 -117h-100zM383 583l74 -126l115 126h-189zM497 118l-74 125l-114 -125h188z" />
    <glyph glyph-name="uni216A" unicode="&#x216a;" horiz-adv-x="1093" 
d="M1082 583h-108l-73 -465h107l-19 -118h-960l18 118h101l211 232l-137 233h-101l19 117h960zM382 583l74 -126l115 126h-189zM765 118l73 465h-106l-212 -233l138 -232h107zM423 243l-114 -125h188z" />
    <glyph glyph-name="uni216B" unicode="&#x216b;" horiz-adv-x="1379" 
d="M1368 583h-108l-73 -465h107l-18 -118h-1247l18 118h101l211 232l-137 233h-101l19 117h1247zM382 583l74 -126l115 126h-189zM765 118l73 465h-106l-212 -233l138 -232h107zM1051 118l73 465h-150l-73 -465h150zM423 243l-114 -125h188z" />
    <glyph glyph-name="uni216C" unicode="&#x216c;" horiz-adv-x="648" 
d="M633 226l-16 -108l-19 -118h-569l18 118h109l73 465h-108l19 117h352l-19 -117h-108l-74 -465h209l16 107z" />
    <glyph glyph-name="uni216D" unicode="&#x216d;" horiz-adv-x="730" 
d="M438 591q-107 0 -180 -77.5t-73 -209.5q0 -92 48.5 -143t128.5 -51q68 0 119 35t75 97l132 -30l-33 -212h-118l10 67q-89 -75 -203 -75q-129 0 -213 78t-84 220q0 99 35 180t93.5 132t131 78.5t150.5 27.5q119 0 181 -78l11 70h116l-35 -225l-138 -28q-4 67 -45 105.5
t-109 38.5z" />
    <glyph glyph-name="uni216E" unicode="&#x216e;" horiz-adv-x="797" 
d="M476 700q136 0 222.5 -76t86.5 -216q0 -98 -35 -177.5t-94 -129t-133.5 -75.5t-157.5 -26h-336l18 118h108l73 465h-107l19 117h336zM371 118q53 0 100.5 15t87.5 46.5t63.5 86.5t23.5 127q0 97 -56.5 143.5t-144.5 46.5h-83l-74 -465h83z" />
    <glyph glyph-name="uni216F" unicode="&#x216f;" horiz-adv-x="1081" 
d="M1070 583h-108l-73 -465h107l-18 -118h-236l71 447l-259 -447h-102l-117 447l-71 -447h-235l18 118h108l73 465h-107l19 117h260l134 -507l294 507h261z" />
    <glyph glyph-name="arrowleft" unicode="&#x2190;" horiz-adv-x="721" 
d="M700 319l-17 -108h-466l142 -169l-77 -67l-243 290l335 291l59 -68l-199 -169h466z" />
    <glyph glyph-name="arrowup" unicode="&#x2191;" horiz-adv-x="648" 
d="M634 357l-78 -67l-142 169l-74 -466h-108l74 466l-197 -170l-56 67l337 291z" />
    <glyph glyph-name="arrowright" unicode="&#x2192;" horiz-adv-x="721" 
d="M447 556l245 -291l-336 -290l-62 71l196 165h-460l17 108h466l-143 172z" />
    <glyph glyph-name="arrowdown" unicode="&#x2193;" horiz-adv-x="648" 
d="M566 353l57 -67l-337 -291l-244 290l77 67l142 -169l74 466h108l-74 -466z" />
    <glyph glyph-name="arrowboth" unicode="&#x2194;" horiz-adv-x="1054" 
d="M780 556l244 -291l-335 -290l-62 71l196 165h-606l142 -169l-77 -67l-243 290l335 291l59 -68l-199 -169h612l-143 172z" />
    <glyph glyph-name="arrowupdn" unicode="&#x2195;" horiz-adv-x="648" 
d="M342 8l196 171l57 -68l-337 -291l-244 290l76 66l144 -168l97 612l-196 -171l-57 68l336 290l245 -291l-78 -66l-143 169z" />
    <glyph glyph-name="uni2196" unicode="&#x2196;" horiz-adv-x="595" 
d="M536 69l-89 -76l-277 328l-38 -238h-95l65 410h411l-15 -95l-240 1z" />
    <glyph glyph-name="uni2197" unicode="&#x2197;" horiz-adv-x="593" 
d="M161 493h410l-64 -410h-95l37 239l-381 -329l-64 76l381 329h-239z" />
    <glyph glyph-name="uni2198" unicode="&#x2198;" horiz-adv-x="595" 
d="M465 409h96l-65 -411l-410 -1l14 95h240l-277 329l88 76l277 -329z" />
    <glyph glyph-name="uni2199" unicode="&#x2199;" horiz-adv-x="595" 
d="M590 421l-382 -329h240l-15 -95l-410 1l65 411h95l-38 -241l381 329z" />
    <glyph glyph-name="partialdiff" unicode="&#x2202;" horiz-adv-x="640" 
d="M302 707q4 0 14 0.5t15 0.5q121 0 199 -81.5t78 -232.5q0 -176 -94.5 -289t-232.5 -113q-104 0 -168 58t-64 150q0 115 83.5 193.5t203.5 78.5q52 0 92 -23t56 -63q9 91 -39 148t-135 57q-18 0 -40 -5zM296 110q63 0 107 42.5t44 105.5q0 48 -30.5 78.5t-80.5 30.5
q-63 0 -107 -42t-44 -105q0 -49 30.5 -79.5t80.5 -30.5z" />
    <glyph glyph-name="uni2206" unicode="&#x2206;" horiz-adv-x="679" 
d="M477 700l158 -700h-666l380 700h128zM169 115h303l-87 407z" />
    <glyph glyph-name="product" unicode="&#x220f;" horiz-adv-x="678" 
d="M29 0l111 700h545l-111 -700h-140l92 583h-265l-92 -583h-140z" />
    <glyph glyph-name="summation" unicode="&#x2211;" horiz-adv-x="552" 
d="M1 0l18 111l254 239l-179 239l18 111h470l-19 -117h-303l144 -182l-16 -102l-202 -181h303l-18 -118h-470z" />
    <glyph glyph-name="minus" unicode="&#x2212;" horiz-adv-x="549" 
d="M37 271l17 108h485l-17 -108h-485z" />
    <glyph glyph-name="radical" unicode="&#x221a;" horiz-adv-x="585" 
d="M193 0l-51 280h-111l19 117h192l38 -228l247 531h127l-338 -700h-123z" />
    <glyph glyph-name="infinity" unicode="&#x221e;" horiz-adv-x="944" 
d="M732 580q91 0 145.5 -52t54.5 -136q0 -110 -77.5 -182t-192.5 -72q-119 0 -188 109q-106 -109 -223 -109q-91 0 -146 52t-55 136q0 109 78 181.5t192 72.5q118 0 189 -109q104 109 223 109zM269 258q79 0 156 101q-22 49 -54 75t-69 26q-60 0 -93 -32t-33 -87
q0 -39 24 -61t69 -22zM681 258q59 0 92 32t33 87q0 39 -24 61t-69 22q-79 0 -154 -101q44 -101 122 -101z" />
    <glyph glyph-name="integral" unicode="&#x222b;" horiz-adv-x="318" 
d="M-38 -190q-20 0 -32 2l15 109q5 -1 20 -1q74 0 88 92l81 511q14 84 72 134.5t143 50.5l32 -2l-15 -109q-9 1 -20 1q-75 0 -89 -92l-81 -511q-14 -84 -72 -134.5t-142 -50.5z" />
    <glyph glyph-name="approxequal" unicode="&#x2248;" horiz-adv-x="607" 
d="M414 356q-56 0 -107 37q-2 2 -9 7t-9.5 7t-8 6t-8.5 5.5t-8.5 4t-9.5 3.5t-9 2t-11 1q-50 0 -73 -71l-101 16q16 74 69 120t123 46q54 0 106 -36q4 -3 12.5 -9.5t12 -9t10.5 -7t12 -6t12 -3t14 -1.5q50 0 73 71l102 -16q-17 -75 -69.5 -121t-122.5 -46zM377 129
q-54 0 -105 36q-3 2 -14.5 11t-15.5 11t-12.5 6.5t-15.5 6t-16 1.5q-51 0 -72 -71l-103 16q17 75 70 120.5t123 45.5q56 0 105 -36q4 -3 13 -9.5t12.5 -9t10.5 -7t12 -6t12 -3t15 -1.5q50 0 71 71l103 -16q-17 -74 -70 -120t-123 -46z" />
    <glyph glyph-name="notequal" unicode="&#x2260;" horiz-adv-x="549" 
d="M539 379h-149l-79 -109h211l-17 -108h-272l-107 -148l-79 45l74 103h-101l17 108h162l78 109h-222l17 107h282l92 128l81 -45l-60 -83h89z" />
    <glyph glyph-name="lessequal" unicode="&#x2264;" horiz-adv-x="561" 
d="M578 624l-21 -128l-347 -130l307 -130l-21 -129l-17 -107h-485l17 108h483l-450 203l17 109z" />
    <glyph glyph-name="greaterequal" unicode="&#x2265;" horiz-adv-x="561" 
d="M558 420l-17 -109l-514 -203h481l-17 -108h-484l17 108l20 128l347 130l-306 130l21 128z" />
    <glyph glyph-name="uni2460" unicode="&#x2460;" horiz-adv-x="797" 
d="M434 -8q-154 0 -256 102t-102 256t102 256t256 102q155 0 257 -102t102 -256t-102 -256t-257 -102zM434 60q124 0 206 82.5t82 207.5t-82 207.5t-206 82.5t-205.5 -82.5t-81.5 -207.5t81.5 -207.5t205.5 -82.5zM364 167l46 290q-53 -31 -91 -39l13 82q45 11 109 52h69
l-61 -385h-85z" />
    <glyph glyph-name="uni2461" unicode="&#x2461;" horiz-adv-x="797" 
d="M434 -8q-154 0 -256 102t-102 256t102 256t256 102q155 0 257 -102t102 -256t-102 -256t-257 -102zM434 60q124 0 206 82.5t82 207.5t-82 207.5t-206 82.5t-205.5 -82.5t-81.5 -207.5t81.5 -207.5t205.5 -82.5zM253 167l11 71l134 99q84 61 84 101t-43 40
q-27 0 -44.5 -20.5t-19.5 -55.5l-86 6q4 62 52.5 105t110.5 43q56 0 89.5 -30t33.5 -78q0 -43 -28.5 -81t-92.5 -80l-61 -42h152l-13 -78h-279z" />
    <glyph glyph-name="uni2462" unicode="&#x2462;" horiz-adv-x="797" 
d="M434 -8q-154 0 -256 102t-102 256t102 256t256 102q155 0 257 -102t102 -256t-102 -256t-257 -102zM434 60q124 0 206 82.5t82 207.5t-82 207.5t-206 82.5t-205.5 -82.5t-81.5 -207.5t81.5 -207.5t205.5 -82.5zM383 163q-61 0 -96.5 31.5t-33.5 83.5l85 13
q2 -23 18 -36.5t41 -13.5q29 0 48.5 17t19.5 44q0 20 -13.5 32.5t-36.5 12.5q-27 0 -47 -13l-26 61l106 79h-152l12 78h261l-13 -78l-101 -70q47 0 74.5 -25t27.5 -69q0 -65 -49 -106t-125 -41z" />
    <glyph glyph-name="uni2463" unicode="&#x2463;" horiz-adv-x="797" 
d="M434 -8q-154 0 -256 102t-102 256t102 256t256 102q155 0 257 -102t102 -256t-102 -256t-257 -102zM434 60q124 0 206 82.5t82 207.5t-82 207.5t-206 82.5t-205.5 -82.5t-81.5 -207.5t81.5 -207.5t205.5 -82.5zM403 167l11 70h-190l12 79l223 236h97l-38 -236h46l-13 -79
h-45l-11 -70h-92zM329 316h97l21 124z" />
    <glyph glyph-name="uni2464" unicode="&#x2464;" horiz-adv-x="797" 
d="M434 -8q-154 0 -256 102t-102 256t102 256t256 102q155 0 257 -102t102 -256t-102 -256t-257 -102zM434 60q124 0 206 82.5t82 207.5t-82 207.5t-206 82.5t-205.5 -82.5t-81.5 -207.5t81.5 -207.5t205.5 -82.5zM378 163q-58 0 -92.5 29t-35.5 78l84 15q7 -44 53 -44
q28 0 46.5 18.5t18.5 46.5q0 21 -13.5 33.5t-37.5 12.5q-38 0 -68 -33l-64 14l67 219h218l-13 -78h-152l-25 -77q31 26 74 26q49 0 78 -29.5t29 -77.5q0 -67 -47 -110t-120 -43z" />
    <glyph glyph-name="uni2465" unicode="&#x2465;" horiz-adv-x="797" 
d="M434 -8q-154 0 -256 102t-102 256t102 256t256 102q155 0 257 -102t102 -256t-102 -256t-257 -102zM434 60q124 0 206 82.5t82 207.5t-82 207.5t-206 82.5t-205.5 -82.5t-81.5 -207.5t81.5 -207.5t205.5 -82.5zM431 427q51 0 83 -31.5t32 -81.5q0 -64 -47.5 -107.5
t-109.5 -43.5q-65 0 -104 42.5t-39 113.5q0 109 67 173t150 64q75 0 116 -42l-50 -58q-24 22 -70 22q-43 0 -73 -24t-42 -64q32 37 87 37zM387 241q26 0 45 16.5t24 43.5q4 25 -10 41t-40 16q-28 0 -48.5 -19t-20.5 -47q0 -23 14 -37t36 -14z" />
    <glyph glyph-name="uni2466" unicode="&#x2466;" horiz-adv-x="797" 
d="M434 -8q-154 0 -256 102t-102 256t102 256t256 102q155 0 257 -102t102 -256t-102 -256t-257 -102zM434 60q124 0 206 82.5t82 207.5t-82 207.5t-206 82.5t-205.5 -82.5t-81.5 -207.5t81.5 -207.5t205.5 -82.5zM275 167q82 176 201 307h-192l12 78h283l-13 -78
q-138 -158 -203 -307h-88z" />
    <glyph glyph-name="uni2467" unicode="&#x2467;" horiz-adv-x="797" 
d="M434 -8q-154 0 -256 102t-102 256t102 256t256 102q155 0 257 -102t102 -256t-102 -256t-257 -102zM434 60q124 0 206 82.5t82 207.5t-82 207.5t-206 82.5t-205.5 -82.5t-81.5 -207.5t81.5 -207.5t205.5 -82.5zM387 163q-55 0 -91 28t-36 76q0 37 23.5 66t59.5 41
q-38 21 -38 68q0 46 42 80t103 34q51 0 81.5 -26.5t30.5 -65.5q0 -29 -18 -53.5t-46 -36.5q25 -8 39.5 -30t14.5 -49q0 -59 -49 -95.5t-116 -36.5zM426 409q24 0 38.5 12t14.5 32q0 16 -11 25.5t-29 9.5q-23 0 -37.5 -13t-14.5 -33q0 -33 39 -33zM399 236q28 0 45.5 15
t17.5 39q0 41 -48 41q-28 0 -46 -15t-18 -39q0 -19 13.5 -30t35.5 -11z" />
    <glyph glyph-name="uni2468" unicode="&#x2468;" horiz-adv-x="797" 
d="M434 -8q-154 0 -256 102t-102 256t102 256t256 102q155 0 257 -102t102 -256t-102 -256t-257 -102zM434 60q124 0 206 82.5t82 207.5t-82 207.5t-206 82.5t-205.5 -82.5t-81.5 -207.5t81.5 -207.5t205.5 -82.5zM398 292q-52 0 -83.5 31.5t-31.5 81.5q0 65 50.5 108
t122.5 43q57 0 90.5 -41.5t33.5 -108.5q0 -114 -67 -178.5t-154 -64.5q-69 0 -111 42l50 58q25 -22 71 -22q42 0 73 24t42 64q-32 -37 -86 -37zM441 478q-27 0 -46.5 -18t-21.5 -46q-2 -23 12 -38t37 -15q29 0 49 19t20 47q0 22 -13.5 36.5t-36.5 14.5z" />
    <glyph glyph-name="lozenge" unicode="&#x25ca;" horiz-adv-x="589" 
d="M200 0l-138 350l249 350h114l137 -350l-248 -350h-114zM274 110l168 240l-92 240l-168 -240z" />
    <glyph glyph-name="circle" unicode="&#x25cb;" horiz-adv-x="793" 
d="M414 -8q-154 0 -256 102t-102 256t102 256t256 102q155 0 257 -102t102 -256t-102 -256t-257 -102zM414 60q124 0 206 82.5t82 207.5t-82 207.5t-206 82.5t-205.5 -82.5t-81.5 -207.5t81.5 -207.5t205.5 -82.5z" />
    <glyph glyph-name="uni25CF" unicode="&#x25cf;" horiz-adv-x="793" 
d="M416 -8q-155 0 -257.5 102t-102.5 256t102.5 256t257.5 102q154 0 255.5 -102t101.5 -256t-101.5 -256t-255.5 -102z" />
    <glyph glyph-name="uniF8FF" unicode="&#xf8ff;" horiz-adv-x="782" 
d="M616 266q50 0 83.5 -35t33.5 -86q0 -61 -49 -107t-111 -46q-57 0 -91.5 40t-25.5 96l13 85h-167l-13 -85q-9 -56 -55.5 -96t-103.5 -40q-50 0 -83 34t-33 84q0 62 48.5 109t110.5 47h85l27 167h-85q-50 0 -83 34.5t-33 85.5q0 62 48.5 108.5t110.5 46.5q56 0 90.5 -40.5
t25.5 -96.5l-13 -85h167l13 85q9 56 56.5 96.5t103.5 40.5q51 0 84 -34.5t33 -85.5q0 -61 -49.5 -108t-110.5 -47h-85l-27 -167h85zM208 486h85l13 85q5 35 -15.5 59.5t-55.5 24.5q-39 0 -68.5 -28.5t-29.5 -66.5q0 -31 20.5 -52.5t50.5 -21.5zM579 571l-13 -85h85
q38 0 68 29t30 67q0 30 -20.5 51.5t-50.5 21.5q-35 0 -64.5 -25t-34.5 -59zM311 266h167l27 167h-167zM236 128l13 85h-84q-39 0 -68.5 -28.5t-29.5 -67.5q0 -30 20.5 -51t50.5 -21q35 0 64 24.5t34 58.5zM581 45q39 0 68.5 28t29.5 66q0 31 -20.5 52.5t-50.5 21.5h-86
l-13 -85q-5 -35 16 -59t56 -24z" />
    <glyph glyph-name="G.ss03" horiz-adv-x="756" 
d="M359 -8q-137 0 -223.5 88t-86.5 223q0 176 116.5 290.5t291.5 114.5q125 0 208 -65t85 -168l-139 -28q-4 66 -52.5 105t-120.5 39q-111 0 -181.5 -76t-70.5 -197q0 -92 51 -150t136 -58q79 0 135.5 41.5t75.5 112.5h-231l17 110h375l-9 -54q-24 -149 -126.5 -238.5
t-250.5 -89.5z" />
    <glyph glyph-name="Gbreve.ss03" horiz-adv-x="756" 
d="M467 753q-60 0 -93 38.5t-24 96.5h93q-4 -24 6 -38.5t31 -14.5t36 14.5t20 38.5h92q-9 -58 -55 -96.5t-106 -38.5zM359 -8q-137 0 -223.5 88t-86.5 223q0 176 116.5 290.5t291.5 114.5q125 0 208 -65t85 -168l-139 -28q-4 66 -52.5 105t-120.5 39q-111 0 -181.5 -76
t-70.5 -197q0 -92 51 -150t136 -58q79 0 135.5 41.5t75.5 112.5h-231l17 110h375l-9 -54q-24 -149 -126.5 -238.5t-250.5 -89.5z" />
    <glyph glyph-name="Gcircumflex.ss03" horiz-adv-x="756" 
d="M436 904h108l91 -148h-92l-63 78l-86 -78h-95zM359 -8q-137 0 -223.5 88t-86.5 223q0 176 116.5 290.5t291.5 114.5q125 0 208 -65t85 -168l-139 -28q-4 66 -52.5 105t-120.5 39q-111 0 -181.5 -76t-70.5 -197q0 -92 51 -150t136 -58q79 0 135.5 41.5t75.5 112.5h-231
l17 110h375l-9 -54q-24 -149 -126.5 -238.5t-250.5 -89.5z" />
    <glyph glyph-name="uni0122.ss03" horiz-adv-x="756" 
d="M359 -8q-137 0 -223.5 88t-86.5 223q0 176 116.5 290.5t291.5 114.5q125 0 208 -65t85 -168l-139 -28q-4 66 -52.5 105t-120.5 39q-111 0 -181.5 -76t-70.5 -197q0 -92 51 -150t136 -58q79 0 135.5 41.5t75.5 112.5h-231l17 110h375l-9 -54q-24 -149 -126.5 -238.5
t-250.5 -89.5zM210 -190l62 148h138l-111 -148h-89z" />
    <glyph glyph-name="Gdotaccent.ss03" horiz-adv-x="756" 
d="M424 904h136l-20 -130h-136zM359 -8q-137 0 -223.5 88t-86.5 223q0 176 116.5 290.5t291.5 114.5q125 0 208 -65t85 -168l-139 -28q-4 66 -52.5 105t-120.5 39q-111 0 -181.5 -76t-70.5 -197q0 -92 51 -150t136 -58q79 0 135.5 41.5t75.5 112.5h-231l17 110h375l-9 -54
q-24 -149 -126.5 -238.5t-250.5 -89.5z" />
    <glyph glyph-name="i.loclTRK" horiz-adv-x="248" 
d="M131 708h136l-20 -130h-136zM24 0l80 504h126l-80 -504h-126z" />
    <glyph glyph-name="r.calt" horiz-adv-x="470" 
d="M412 387q-15 4 -33 4q-57 0 -101.5 -50t-61.5 -156l-29 -185h-126l80 504h126l-14 -92q23 43 67.5 71.5t89.5 28.5l30 -3z" />
    <glyph glyph-name="racute.calt" horiz-adv-x="470" 
d="M238 560l86 148h147l-144 -148h-89zM412 387q-15 4 -33 4q-57 0 -101.5 -50t-61.5 -156l-29 -185h-126l80 504h126l-14 -92q23 43 67.5 71.5t89.5 28.5l30 -3z" />
    <glyph glyph-name="rcaron.calt" horiz-adv-x="470" 
d="M244 560l-91 148h89l64 -77l86 77h97l-137 -148h-108zM412 387q-15 4 -33 4q-57 0 -101.5 -50t-61.5 -156l-29 -185h-126l80 504h126l-14 -92q23 43 67.5 71.5t89.5 28.5l30 -3z" />
    <glyph glyph-name="uni0157.calt" horiz-adv-x="470" 
d="M412 387q-15 4 -33 4q-57 0 -101.5 -50t-61.5 -156l-29 -185h-126l80 504h126l-14 -92q23 43 67.5 71.5t89.5 28.5l30 -3zM-16 -190l62 148h138l-111 -148h-89z" />
    <glyph glyph-name="germandbls.calt" horiz-adv-x="637" 
d="M399 708q99 0 157.5 -54t55.5 -138l-144 -121q59 -14 96 -56t37 -99q0 -97 -76.5 -168.5t-180.5 -71.5h-117l19 118h108q50 0 84.5 33t34.5 81q0 36 -25 56.5t-68 20.5h-73v75l170 145q-5 28 -31.5 45.5t-64.5 17.5q-53 0 -94.5 -42t-51.5 -107l-70 -443h-136l70 443
q19 119 103.5 192t196.5 73z" />
    <glyph glyph-name="a.ss01" horiz-adv-x="605" 
d="M587 504l-80 -504h-126l9 58q-23 -30 -65 -48t-89 -18q-97 0 -150 58t-53 155q0 134 77.5 220.5t201.5 86.5q98 0 139 -67l10 59h126zM272 101q69 0 114.5 50t45.5 128q0 57 -30.5 90.5t-85.5 33.5q-67 0 -111.5 -50.5t-44.5 -127.5q0 -57 30 -90.5t82 -33.5z" />
    <glyph glyph-name="aacute.ss01" horiz-adv-x="605" 
d="M295 560l86 148h147l-144 -148h-89zM587 504l-80 -504h-126l9 58q-23 -30 -65 -48t-89 -18q-97 0 -150 58t-53 155q0 134 77.5 220.5t201.5 86.5q98 0 139 -67l10 59h126zM272 101q69 0 114.5 50t45.5 128q0 57 -30.5 90.5t-85.5 33.5q-67 0 -111.5 -50.5t-44.5 -127.5
q0 -57 30 -90.5t82 -33.5z" />
    <glyph glyph-name="abreve.ss01" horiz-adv-x="605" 
d="M354 557q-60 0 -93 38.5t-24 96.5h93q-4 -24 6 -38.5t31 -14.5t36 14.5t20 38.5h92q-9 -58 -55 -96.5t-106 -38.5zM587 504l-80 -504h-126l9 58q-23 -30 -65 -48t-89 -18q-97 0 -150 58t-53 155q0 134 77.5 220.5t201.5 86.5q98 0 139 -67l10 59h126zM272 101
q69 0 114.5 50t45.5 128q0 57 -30.5 90.5t-85.5 33.5q-67 0 -111.5 -50.5t-44.5 -127.5q0 -57 30 -90.5t82 -33.5z" />
    <glyph glyph-name="acircumflex.ss01" horiz-adv-x="605" 
d="M323 708h108l91 -148h-92l-63 78l-86 -78h-95zM587 504l-80 -504h-126l9 58q-23 -30 -65 -48t-89 -18q-97 0 -150 58t-53 155q0 134 77.5 220.5t201.5 86.5q98 0 139 -67l10 59h126zM272 101q69 0 114.5 50t45.5 128q0 57 -30.5 90.5t-85.5 33.5q-67 0 -111.5 -50.5
t-44.5 -127.5q0 -57 30 -90.5t82 -33.5z" />
    <glyph glyph-name="adieresis.ss01" horiz-adv-x="605" 
d="M217 708h118l-20 -126h-118zM420 708h118l-20 -126h-118zM587 504l-80 -504h-126l9 58q-23 -30 -65 -48t-89 -18q-97 0 -150 58t-53 155q0 134 77.5 220.5t201.5 86.5q98 0 139 -67l10 59h126zM272 101q69 0 114.5 50t45.5 128q0 57 -30.5 90.5t-85.5 33.5
q-67 0 -111.5 -50.5t-44.5 -127.5q0 -57 30 -90.5t82 -33.5z" />
    <glyph glyph-name="agrave.ss01" horiz-adv-x="605" 
d="M402 560h-89l-98 148h147zM587 504l-80 -504h-126l9 58q-23 -30 -65 -48t-89 -18q-97 0 -150 58t-53 155q0 134 77.5 220.5t201.5 86.5q98 0 139 -67l10 59h126zM272 101q69 0 114.5 50t45.5 128q0 57 -30.5 90.5t-85.5 33.5q-67 0 -111.5 -50.5t-44.5 -127.5
q0 -57 30 -90.5t82 -33.5z" />
    <glyph glyph-name="amacron.ss01" horiz-adv-x="605" 
d="M219 584l15 97h278l-15 -97h-278zM587 504l-80 -504h-126l9 58q-23 -30 -65 -48t-89 -18q-97 0 -150 58t-53 155q0 134 77.5 220.5t201.5 86.5q98 0 139 -67l10 59h126zM272 101q69 0 114.5 50t45.5 128q0 57 -30.5 90.5t-85.5 33.5q-67 0 -111.5 -50.5t-44.5 -127.5
q0 -57 30 -90.5t82 -33.5z" />
    <glyph glyph-name="aogonek.ss01" horiz-adv-x="605" 
d="M460 -71q0 -30 34 -30q13 0 25 3l-1 -86q-27 -6 -56 -6q-49 0 -77.5 24t-28.5 63q0 55 53 103h-28l9 58q-23 -30 -65 -48t-89 -18q-97 0 -150 58t-53 155q0 134 77.5 220.5t201.5 86.5q98 0 139 -67l10 59h126l-80 -504q-47 -41 -47 -71zM272 101q69 0 114.5 50t45.5 128
q0 57 -30.5 90.5t-85.5 33.5q-67 0 -111.5 -50.5t-44.5 -127.5q0 -57 30 -90.5t82 -33.5z" />
    <glyph glyph-name="aring.ss01" horiz-adv-x="605" 
d="M346 541q-50 0 -83 31t-33 78t33 78.5t83 31.5q51 0 84 -31.5t33 -78.5t-33 -78t-84 -31zM346 605q21 0 34.5 12.5t13.5 32.5t-13.5 33t-34.5 13q-20 0 -33.5 -13t-13.5 -33t13.5 -32.5t33.5 -12.5zM587 504l-80 -504h-126l9 58q-23 -30 -65 -48t-89 -18q-97 0 -150 58
t-53 155q0 134 77.5 220.5t201.5 86.5q98 0 139 -67l10 59h126zM272 101q69 0 114.5 50t45.5 128q0 57 -30.5 90.5t-85.5 33.5q-67 0 -111.5 -50.5t-44.5 -127.5q0 -57 30 -90.5t82 -33.5z" />
    <glyph glyph-name="aringacute.ss01" horiz-adv-x="605" 
d="M346 541q-50 0 -83 31t-33 78q0 40 24 69.5t63 37.5l80 137h147l-142 -146q61 -30 61 -98q0 -47 -33 -78t-84 -31zM346 696q-20 0 -33.5 -13t-13.5 -33t13.5 -32.5t33.5 -12.5q21 0 34.5 12.5t13.5 32.5t-13.5 33t-34.5 13zM461 504h126l-80 -504h-126l9 58
q-23 -30 -65 -48t-89 -18q-97 0 -150 58t-53 155q0 134 77.5 220.5t201.5 86.5q98 0 139 -67zM272 101q69 0 114.5 50t45.5 128q0 57 -30.5 90.5t-85.5 33.5q-67 0 -111.5 -50.5t-44.5 -127.5q0 -57 30 -90.5t82 -33.5z" />
    <glyph glyph-name="atilde.ss01" horiz-adv-x="605" 
d="M248 570l-85 13q11 57 52 92.5t95 35.5q43 0 80 -27q4 -2 9.5 -6.5t8.5 -6t8 -4.5t8 -4t8 -2t10 -1q32 0 47 51l85 -13q-11 -58 -51.5 -93.5t-94.5 -35.5q-43 0 -80 27q-35 25 -52 25q-33 0 -48 -51zM587 504l-80 -504h-126l9 58q-23 -30 -65 -48t-89 -18q-97 0 -150 58
t-53 155q0 134 77.5 220.5t201.5 86.5q98 0 139 -67l10 59h126zM272 101q69 0 114.5 50t45.5 128q0 57 -30.5 90.5t-85.5 33.5q-67 0 -111.5 -50.5t-44.5 -127.5q0 -57 30 -90.5t82 -33.5z" />
    <glyph glyph-name="ae.ss01" horiz-adv-x="970" 
d="M930 219h-373q-1 -56 29.5 -88.5t83.5 -32.5q44 0 77 20t48 57l114 -32q-33 -72 -95.5 -111.5t-150.5 -39.5q-96 0 -146 71l-10 -63h-126l9 58q-23 -30 -65 -48t-89 -18q-97 0 -150.5 58t-53.5 155q0 134 78.5 220.5t205.5 86.5q96 0 135 -64l10 56h126l-8 -53
q67 61 159 61q103 0 154.5 -59.5t51.5 -145.5q0 -43 -14 -88zM711 416q-99 0 -138 -105h239q3 47 -22.5 76t-78.5 29zM271 101q70 0 115.5 50t45.5 128q0 57 -30.5 90.5t-82.5 33.5q-69 0 -114.5 -50t-45.5 -128q0 -57 30 -90.5t82 -33.5z" />
    <glyph glyph-name="aeacute.ss01" horiz-adv-x="970" 
d="M724 708l-144 -148h-89l86 148h147zM930 219h-373q-1 -56 29.5 -88.5t83.5 -32.5q44 0 77 20t48 57l114 -32q-33 -72 -95.5 -111.5t-150.5 -39.5q-96 0 -146 71l-10 -63h-126l9 58q-23 -30 -65 -48t-89 -18q-97 0 -150.5 58t-53.5 155q0 134 78.5 220.5t205.5 86.5
q96 0 135 -64l10 56h126l-8 -53q67 61 159 61q103 0 154.5 -59.5t51.5 -145.5q0 -43 -14 -88zM711 416q-99 0 -138 -105h239q3 47 -22.5 76t-78.5 29zM271 101q70 0 115.5 50t45.5 128q0 57 -30.5 90.5t-82.5 33.5q-69 0 -114.5 -50t-45.5 -128q0 -57 30 -90.5t82 -33.5z
" />
    <glyph glyph-name="g.ss02" horiz-adv-x="533" 
d="M185 178q-40 -17 -40 -45q0 -27 45 -27h119q79 0 122 -31t43 -89q0 -89 -76 -132.5t-196 -43.5q-105 0 -164.5 32.5t-59.5 94.5q0 65 68 115q-24 26 -24 58q0 39 24.5 69t66.5 46q-31 37 -31 90q0 87 66 142t164 55q51 0 90 -18l86 78l62 -68l-79 -71q18 -30 18 -71
q0 -86 -66 -140.5t-165 -54.5q-40 0 -73 11zM297 415q-39 0 -67 -24t-28 -63q0 -29 19.5 -46.5t51.5 -17.5q40 0 68 24t28 62q0 30 -20 47.5t-52 17.5zM271 8h-92q-27 0 -47 4q-29 -25 -29 -56q0 -45 115 -45q132 0 132 59q0 38 -79 38z" />
    <glyph glyph-name="gbreve.ss02" horiz-adv-x="533" 
d="M316 557q-60 0 -93 38.5t-24 96.5h93q-4 -24 6 -38.5t31 -14.5t36 14.5t20 38.5h92q-9 -58 -55 -96.5t-106 -38.5zM185 178q-40 -17 -40 -45q0 -27 45 -27h119q79 0 122 -31t43 -89q0 -89 -76 -132.5t-196 -43.5q-105 0 -164.5 32.5t-59.5 94.5q0 65 68 115
q-24 26 -24 58q0 39 24.5 69t66.5 46q-31 37 -31 90q0 87 66 142t164 55q51 0 90 -18l86 78l62 -68l-79 -71q18 -30 18 -71q0 -86 -66 -140.5t-165 -54.5q-40 0 -73 11zM297 415q-39 0 -67 -24t-28 -63q0 -29 19.5 -46.5t51.5 -17.5q40 0 68 24t28 62q0 30 -20 47.5
t-52 17.5zM271 8h-92q-27 0 -47 4q-29 -25 -29 -56q0 -45 115 -45q132 0 132 59q0 38 -79 38z" />
    <glyph glyph-name="gcircumflex.ss02" horiz-adv-x="533" 
d="M185 178q-40 -17 -40 -45q0 -27 45 -27h119q79 0 122 -31t43 -89q0 -89 -76 -132.5t-196 -43.5q-105 0 -164.5 32.5t-59.5 94.5q0 65 68 115q-24 26 -24 58q0 39 24.5 69t66.5 46q-31 37 -31 90q0 87 66 142t164 55q51 0 90 -18l73 66h-83l-63 78l-86 -78h-95l137 148
h108l88 -143l7 7l62 -68l-79 -71q18 -30 18 -71q0 -86 -66 -140.5t-165 -54.5q-40 0 -73 11zM297 415q-39 0 -67 -24t-28 -63q0 -29 19.5 -46.5t51.5 -17.5q40 0 68 24t28 62q0 30 -20 47.5t-52 17.5zM271 8h-92q-27 0 -47 4q-29 -25 -29 -56q0 -45 115 -45q132 0 132 59
q0 38 -79 38z" />
    <glyph glyph-name="uni0123.ss02" horiz-adv-x="533" 
d="M450 708l-50 -148h-133l86 148h97zM185 178q-40 -17 -40 -45q0 -27 45 -27h119q79 0 122 -31t43 -89q0 -89 -76 -132.5t-196 -43.5q-105 0 -164.5 32.5t-59.5 94.5q0 65 68 115q-24 26 -24 58q0 39 24.5 69t66.5 46q-31 37 -31 90q0 87 66 142t164 55q51 0 90 -18l86 78
l62 -68l-79 -71q18 -30 18 -71q0 -86 -66 -140.5t-165 -54.5q-40 0 -73 11zM297 415q-39 0 -67 -24t-28 -63q0 -29 19.5 -46.5t51.5 -17.5q40 0 68 24t28 62q0 30 -20 47.5t-52 17.5zM271 8h-92q-27 0 -47 4q-29 -25 -29 -56q0 -45 115 -45q132 0 132 59q0 38 -79 38z" />
    <glyph glyph-name="gdotaccent.ss02" horiz-adv-x="533" 
d="M408 708l-20 -130h-136l20 130h136zM185 178q-40 -17 -40 -45q0 -27 45 -27h119q79 0 122 -31t43 -89q0 -89 -76 -132.5t-196 -43.5q-105 0 -164.5 32.5t-59.5 94.5q0 65 68 115q-24 26 -24 58q0 39 24.5 69t66.5 46q-31 37 -31 90q0 87 66 142t164 55q51 0 90 -18l86 78
l62 -68l-79 -71q18 -30 18 -71q0 -86 -66 -140.5t-165 -54.5q-40 0 -73 11zM297 415q-39 0 -67 -24t-28 -63q0 -29 19.5 -46.5t51.5 -17.5q40 0 68 24t28 62q0 30 -20 47.5t-52 17.5zM271 8h-92q-27 0 -47 4q-29 -25 -29 -56q0 -45 115 -45q132 0 132 59q0 38 -79 38z" />
    <glyph glyph-name="f_f.dlig" horiz-adv-x="706" 
d="M686 620q-31 0 -53 -21t-28 -56l-6 -39h119l-17 -106h-119l-63 -398h-126l63 398h-200l-63 -398h-125l62 398h-81l17 106h82l6 39q13 86 70 134t136 48q41 0 74 -11l-25 -104q-23 10 -48 10q-32 0 -54 -21t-27 -56l-7 -39h200l6 39q13 86 70 134t136 48q41 0 74 -11
l-25 -104q-21 10 -48 10z" />
    <glyph glyph-name="f_f_i.dlig" horiz-adv-x="897" 
d="M889 504l-80 -504h-125l63 398h-204l-63 -398h-124l63 398h-163l-63 -398h-125l62 398h-81l17 106h82l6 39q13 86 70 134t136 48q41 0 74 -11l-25 -104q-23 10 -48 10q-32 0 -54 -21t-27 -56l-7 -39h163l6 39q14 86 71 134t136 48q39 0 74 -11l-25 -104q-23 10 -48 10
q-32 0 -55.5 -21t-29.5 -58l-5 -37h329zM791 708h136l-21 -130h-136z" />
    <glyph glyph-name="f_f_l.dlig" horiz-adv-x="925" 
d="M813 708h126l-112 -708h-126l63 398h-221l-63 -398h-124l63 398h-163l-63 -398h-125l62 398h-81l17 106h82l6 39q13 86 70 134t136 48q41 0 74 -11l-25 -104q-23 10 -48 10q-32 0 -54 -21t-27 -56l-7 -39h163l6 39q14 86 71 134t136 48q39 0 74 -11l-25 -104
q-23 10 -48 10q-32 0 -55.5 -21t-29.5 -58l-5 -37h221z" />
    <glyph glyph-name="f_i.dlig" horiz-adv-x="599" 
d="M592 504l-80 -504h-126l63 398h-198l-63 -398h-123l63 398h-79l17 106h79l6 39q14 86 70.5 134t135.5 48q40 0 75 -11l-25 -104q-23 10 -49 10q-32 0 -55 -21t-29 -58l-6 -37h324zM494 708h136l-21 -130h-136z" />
    <glyph glyph-name="f_l.dlig" horiz-adv-x="627" 
d="M515 708h126l-112 -708h-126l63 398h-215l-63 -398h-123l63 398h-79l17 106h79l6 39q14 86 70.5 134t135.5 48q40 0 75 -11l-25 -104q-23 10 -49 10q-32 0 -55 -21t-29 -58l-6 -37h215z" />
    <glyph glyph-name="three.ss04" horiz-adv-x="581" 
d="M252 -8q-111 0 -174.5 60.5t-48.5 157.5l133 6q-8 -49 21.5 -81t85.5 -32q61 0 101 32t40 82q0 42 -30 65t-82 23q-39 0 -53 -1l16 109h41q55 0 93 31.5t42 75.5q4 38 -23 60.5t-73 22.5q-47 0 -84.5 -31t-44.5 -74l-122 7q13 84 90 143.5t178 59.5q91 0 148.5 -47
t57.5 -119q0 -66 -45.5 -116.5t-113.5 -63.5q63 -4 100.5 -43t37.5 -99q0 -97 -84 -162.5t-207 -65.5z" />
    <glyph glyph-name="uni2462.ss04" horiz-adv-x="797" 
d="M434 -8q-154 0 -256 102t-102 256t102 256t256 102q155 0 257 -102t102 -256t-102 -256t-257 -102zM434 60q124 0 206 82.5t82 207.5t-82 207.5t-206 82.5t-205.5 -82.5t-81.5 -207.5t81.5 -207.5t205.5 -82.5zM388 169q-60 0 -96.5 33.5t-27.5 87.5l86 3q-4 -22 10 -37
t39 -15q28 0 47 15t19 37q0 20 -14 31.5t-39 11.5h-28l11 70q6 -1 22 -1q25 0 42.5 15t19.5 36q2 18 -10 28.5t-34 10.5q-23 0 -40 -14t-20 -36l-79 5q8 45 50.5 78.5t98.5 33.5q51 0 83.5 -27t32.5 -65q0 -35 -24 -62.5t-60 -35.5q34 -3 53.5 -24t19.5 -53q0 -54 -46.5 -90
t-115.5 -36z" />
    <glyph glyph-name="zero.tf" horiz-adv-x="625" 
d="M268 -8q-112 0 -173.5 76.5t-61.5 206.5q0 188 96 310.5t252 122.5q112 0 173.5 -76.5t61.5 -206.5q0 -189 -96.5 -311t-251.5 -122zM286 110q89 0 141 86t52 221q0 82 -30 128t-87 46q-90 0 -141 -87t-51 -221q0 -82 29.5 -127.5t86.5 -45.5z" />
    <glyph glyph-name="one.tf" horiz-adv-x="625" 
d="M380 118h164l-19 -118h-486l19 118h196l69 432q-83 -57 -173 -74l20 121q103 23 199 103h103z" />
    <glyph glyph-name="two.tf" horiz-adv-x="625" 
d="M28 0l17 110l282 210q74 55 106 97t32 86q0 39 -26.5 63.5t-69.5 24.5q-58 0 -96 -42t-42 -111l-128 9q5 111 88.5 186t196.5 75q97 0 155.5 -52.5t58.5 -136.5q0 -77 -48.5 -144t-160.5 -145l-155 -112h302l-19 -118h-493z" />
    <glyph glyph-name="three.tf" horiz-adv-x="625" 
d="M270 -8q-108 0 -171 56.5t-58 149.5l127 20q0 -49 33 -78.5t88 -29.5q65 0 107 37.5t42 97.5q0 45 -29 71t-80 26q-46 0 -82 -23l-39 89l219 175h-305l19 117h464l-17 -110l-206 -160q89 3 141.5 -44t52.5 -130q0 -116 -86.5 -190t-219.5 -74z" />
    <glyph glyph-name="four.tf" horiz-adv-x="625" 
d="M337 0l23 146h-353l19 118l411 436h147l-69 -436h89l-18 -118h-90l-23 -146h-136zM166 264h213l43 274z" />
    <glyph glyph-name="five.tf" horiz-adv-x="625" 
d="M284 -8q-103 0 -165 53t-63 141l127 23q2 -46 33 -72.5t82 -26.5q63 0 103.5 40.5t40.5 103.5q0 49 -29.5 77t-83.5 28q-82 0 -142 -71l-95 21l120 391h386l-18 -117h-287l-53 -167q64 50 139 50q92 0 146.5 -54t54.5 -142q0 -122 -83 -200t-213 -78z" />
    <glyph glyph-name="six.tf" horiz-adv-x="625" 
d="M374 472q95 0 153 -57t58 -148q0 -118 -82.5 -196.5t-202.5 -78.5q-113 0 -179 74.5t-66 198.5q0 105 33.5 190.5t89.5 140t126.5 83.5t148.5 29q120 0 194 -71l-78 -99q-53 53 -132 53q-87 0 -152.5 -55.5t-85.5 -146.5q64 83 175 83zM308 110q56 0 97 39.5t45 99.5
q5 51 -26 84.5t-84 33.5q-64 0 -107.5 -40.5t-43.5 -104.5q0 -50 32 -81t87 -31z" />
    <glyph glyph-name="seven.tf" horiz-adv-x="625" 
d="M660 700l-18 -117q-332 -370 -384 -583h-137q73 254 381 583h-270l-18 -115h-126l37 232h535z" />
    <glyph glyph-name="eight.tf" horiz-adv-x="625" 
d="M275 -8q-100 0 -163.5 50.5t-63.5 134.5q0 69 43.5 124t112.5 76q-35 18 -55 51.5t-20 73.5q0 86 74 146t185 60q90 0 144.5 -46.5t54.5 -117.5q0 -54 -33.5 -99.5t-87.5 -67.5q47 -16 74 -56t27 -92q0 -105 -85.5 -171t-206.5 -66zM344 427q48 0 80 26t36 69
q4 37 -20.5 59t-68.5 22q-52 0 -84.5 -27.5t-32.5 -72.5q0 -35 24 -55.5t66 -20.5zM292 103q63 0 102.5 33.5t39.5 86.5q0 41 -29 65t-80 24q-63 0 -102.5 -33t-39.5 -86q0 -41 29 -65.5t80 -24.5z" />
    <glyph glyph-name="nine.tf" horiz-adv-x="625" 
d="M282 228q-95 0 -153.5 57t-58.5 148q0 118 83 196.5t203 78.5q112 0 178.5 -74.5t66.5 -198.5q0 -105 -33.5 -190.5t-89.5 -140t-127 -83.5t-149 -29q-119 0 -193 71l78 99q52 -52 131 -52q88 0 153.5 55t85.5 146q-66 -83 -175 -83zM348 591q-56 0 -97 -40t-45 -100
q-5 -51 26 -84.5t83 -33.5q64 0 108 40.5t44 104.5q0 50 -32.5 81.5t-86.5 31.5z" />
    <glyph glyph-name="three.tf.ss04" horiz-adv-x="625" 
d="M280 -8q-111 0 -175.5 60.5t-48.5 157.5l133 6q-8 -49 22 -81t86 -32q61 0 100.5 32t39.5 82q0 42 -30 65t-82 23q-39 0 -53 -1l16 109h41q55 0 93 31.5t42 75.5q4 38 -23 60.5t-73 22.5q-47 0 -84.5 -31t-44.5 -74l-121 7q12 84 88.5 143.5t178.5 59.5q91 0 148.5 -47
t57.5 -119q0 -66 -45.5 -116.5t-113.5 -63.5q63 -4 100.5 -43t37.5 -99q0 -97 -84 -162.5t-206 -65.5z" />
    <glyph glyph-name="zero.subs" horiz-adv-x="375" 
d="M122 -174q-65 0 -102 43t-37 116q0 102 56.5 168t145.5 66q65 0 101.5 -43t36.5 -115q0 -103 -56.5 -169t-144.5 -66zM135 -96q45 0 70.5 42t25.5 109q0 86 -59 86q-46 0 -71.5 -41.5t-25.5 -109.5q0 -86 60 -86z" />
    <glyph glyph-name="one.subs" horiz-adv-x="230" 
d="M44 -170l46 290q-52 -30 -91 -39l13 82q46 11 108 52h69l-61 -385h-84z" />
    <glyph glyph-name="two.subs" horiz-adv-x="339" 
d="M-35 -170l11 71l134 99q85 62 85 101q0 18 -11.5 29t-32.5 11q-27 0 -44.5 -20.5t-19.5 -55.5l-86 6q4 62 52.5 105t110.5 43q57 0 90.5 -30t33.5 -78q0 -43 -28.5 -81t-92.5 -80l-61 -42h151l-13 -78h-279z" />
    <glyph glyph-name="three.subs" horiz-adv-x="345" 
d="M105 -174q-61 0 -96.5 31.5t-33.5 83.5l85 13q2 -23 18 -36.5t41 -13.5q29 0 48.5 17t19.5 44q0 20 -13.5 32.5t-36.5 12.5q-27 0 -47 -14l-25 62l105 79h-153l13 78h261l-13 -78l-101 -70q47 0 74.5 -25t27.5 -69q0 -65 -49 -106t-125 -41z" />
    <glyph glyph-name="four.subs" horiz-adv-x="371" 
d="M148 -170l11 70h-190l13 79l223 236h96l-37 -236h46l-13 -79h-46l-11 -70h-92zM75 -21h97l20 124z" />
    <glyph glyph-name="five.subs" horiz-adv-x="339" 
d="M105 -174q-58 0 -92.5 29t-35.5 78l85 15q5 -44 52 -44q29 0 47.5 18.5t18.5 46.5q0 21 -14 33.5t-38 12.5q-38 0 -68 -33l-63 14l66 219h218l-13 -78h-152l-25 -77q32 26 74 26q49 0 78 -29.5t29 -77.5q0 -67 -47 -110t-120 -43z" />
    <glyph glyph-name="six.subs" horiz-adv-x="360" 
d="M173 90q51 0 83 -31.5t32 -81.5q0 -65 -50 -108t-124 -43q-57 0 -91 41.5t-34 108.5q0 114 67.5 178.5t154.5 64.5q69 0 110 -42l-50 -58q-24 22 -70 22q-42 0 -73 -24t-42 -64q32 37 87 37zM130 -96q25 0 44.5 17t24.5 43q4 25 -10.5 41t-40.5 16q-28 0 -48.5 -19
t-20.5 -47q0 -23 14 -37t37 -14z" />
    <glyph glyph-name="seven.subs" horiz-adv-x="310" 
d="M-7 -170q80 174 201 307h-192l12 78h283l-13 -78q-138 -158 -203 -307h-88z" />
    <glyph glyph-name="eight.subs" horiz-adv-x="346" 
d="M108 -174q-55 0 -91.5 28.5t-36.5 75.5q0 37 23.5 66.5t60.5 40.5q-39 21 -39 68q0 46 43 80t103 34q50 0 80.5 -26.5t30.5 -65.5q0 -29 -17.5 -53.5t-45.5 -36.5q25 -8 39 -29.5t14 -49.5q0 -59 -48 -95.5t-116 -36.5zM148 71q22 0 37 13t15 32q0 16 -10.5 25.5
t-29.5 9.5q-23 0 -38 -13t-15 -33q0 -15 11 -24.5t30 -9.5zM120 -101q28 0 45.5 15t17.5 39q0 41 -48 41q-29 0 -47 -15t-18 -39q0 -19 13.5 -30t36.5 -11z" />
    <glyph glyph-name="nine.subs" horiz-adv-x="360" 
d="M120 -45q-53 0 -84.5 31.5t-31.5 81.5q0 65 50 108t123 43q57 0 91 -41.5t34 -108.5q0 -114 -67.5 -178.5t-154.5 -64.5q-69 0 -110 42l50 58q25 -22 71 -22q41 0 72.5 24t42.5 64q-34 -37 -86 -37zM162 141q-27 0 -46 -18t-22 -46q-2 -23 12 -38t38 -15q29 0 49 19
t20 47q0 22 -14 36.5t-37 14.5z" />
    <glyph glyph-name="zero.dnom" horiz-adv-x="375" 
d="M149 -4q-65 0 -102 43t-37 116q0 102 56.5 168t145.5 66q65 0 101.5 -43t36.5 -115q0 -103 -56.5 -169t-144.5 -66zM162 74q45 0 70.5 42t25.5 109q0 86 -59 86q-46 0 -71.5 -41.5t-25.5 -109.5q0 -86 60 -86z" />
    <glyph glyph-name="one.dnom" horiz-adv-x="230" 
d="M71 0l45 290q-50 -30 -90 -39l13 82q46 11 108 52h69l-61 -385h-84z" />
    <glyph glyph-name="two.dnom" horiz-adv-x="339" 
d="M-8 0l11 71l134 99q85 62 85 101q0 18 -11.5 29t-32.5 11q-27 0 -44.5 -20.5t-19.5 -55.5l-86 6q4 62 52.5 105t110.5 43q57 0 90.5 -30t33.5 -78q0 -43 -28.5 -81t-93.5 -80l-61 -42h152l-13 -78h-279z" />
    <glyph glyph-name="three.dnom" horiz-adv-x="345" 
d="M132 -4q-61 0 -96.5 31.5t-33.5 83.5l85 13q2 -23 18 -36.5t41 -13.5q29 0 48.5 17t19.5 44q0 20 -13.5 32.5t-36.5 12.5q-27 0 -47 -13l-25 61l105 79h-153l13 78h261l-13 -78l-101 -70q47 0 74.5 -25t27.5 -69q0 -65 -49 -106t-125 -41z" />
    <glyph glyph-name="four.dnom" horiz-adv-x="371" 
d="M175 0l11 70h-190l13 79l223 236h96l-37 -236h46l-13 -79h-46l-11 -70h-92zM102 149h97l20 124z" />
    <glyph glyph-name="five.dnom" horiz-adv-x="339" 
d="M132 -4q-58 0 -92.5 29t-35.5 78l85 15q5 -44 52 -44q29 0 47.5 18.5t18.5 46.5q0 21 -14 33.5t-38 12.5q-38 0 -68 -33l-64 14l67 219h218l-13 -78h-152l-25 -77q31 26 74 26q49 0 78 -29.5t29 -77.5q0 -67 -47 -110t-120 -43z" />
    <glyph glyph-name="six.dnom" horiz-adv-x="360" 
d="M200 260q51 0 83 -31.5t32 -81.5q0 -65 -50 -108t-124 -43q-57 0 -91 41.5t-34 108.5q0 114 67.5 178.5t154.5 64.5q70 0 110 -42l-50 -58q-24 22 -70 22q-42 0 -73 -24t-42 -64q32 37 87 37zM157 74q25 0 44.5 17t24.5 43q4 25 -10.5 41t-40.5 16q-28 0 -48.5 -19
t-20.5 -47q0 -23 14 -37t37 -14z" />
    <glyph glyph-name="seven.dnom" horiz-adv-x="310" 
d="M20 0q82 176 201 307h-192l12 78h283l-13 -78q-138 -158 -203 -307h-88z" />
    <glyph glyph-name="eight.dnom" horiz-adv-x="346" 
d="M135 -4q-55 0 -91.5 28.5t-36.5 75.5q0 37 23.5 66.5t60.5 40.5q-39 21 -39 68q0 46 42.5 80t103.5 34q50 0 80.5 -26.5t30.5 -65.5q0 -29 -17.5 -53.5t-45.5 -36.5q25 -8 39 -29.5t14 -49.5q0 -59 -48.5 -95.5t-115.5 -36.5zM174 242q23 0 38 12t15 32q0 16 -11 25.5
t-29 9.5q-24 0 -38 -13t-14 -33q0 -33 39 -33zM147 69q28 0 45.5 15t17.5 39q0 41 -48 41q-29 0 -47 -15t-18 -39q0 -19 13.5 -30t36.5 -11z" />
    <glyph glyph-name="nine.dnom" horiz-adv-x="360" 
d="M147 125q-53 0 -84.5 31.5t-31.5 81.5q0 65 50 108t123 43q57 0 91 -41.5t34 -108.5q0 -114 -67.5 -178.5t-154.5 -64.5q-69 0 -111 42l51 58q25 -22 71 -22q41 0 72.5 24t42.5 64q-34 -37 -86 -37zM189 311q-27 0 -46.5 -18t-21.5 -46q-2 -23 12 -38t38 -15
q28 0 48.5 19t20.5 47q0 22 -14 36.5t-37 14.5z" />
    <glyph glyph-name="zero.numr" horiz-adv-x="375" 
d="M199 311q-65 0 -102 43t-37 116q0 102 56.5 168t145.5 66q65 0 101.5 -43t36.5 -115q0 -103 -56.5 -169t-144.5 -66zM211 389q46 0 71.5 41.5t25.5 109.5q0 86 -59 86q-46 0 -71.5 -41.5t-25.5 -109.5q0 -86 59 -86z" />
    <glyph glyph-name="one.numr" horiz-adv-x="230" 
d="M121 315l45 290q-50 -30 -90 -39l13 82q46 11 108 52h69l-61 -385h-84z" />
    <glyph glyph-name="two.numr" horiz-adv-x="339" 
d="M42 315l11 71l134 99q85 62 85 101q0 18 -11.5 29t-32.5 11q-27 0 -44.5 -20.5t-19.5 -55.5l-86 6q4 62 52.5 105t110.5 43q56 0 89.5 -30t33.5 -78q0 -43 -28.5 -81t-92.5 -80l-61 -42h152l-13 -78h-279z" />
    <glyph glyph-name="three.numr" horiz-adv-x="345" 
d="M182 311q-61 0 -96.5 31.5t-33.5 83.5l84 13q3 -23 19 -36.5t40 -13.5q30 0 49 17t19 44q0 20 -13.5 32.5t-35.5 12.5q-27 0 -47 -13l-26 61l106 79h-153l13 78h261l-13 -78l-101 -70q47 0 74.5 -25t27.5 -69q0 -65 -49 -106t-125 -41z" />
    <glyph glyph-name="four.numr" horiz-adv-x="371" 
d="M225 315l11 70h-190l12 79l224 236h96l-37 -236h45l-12 -79h-46l-11 -70h-92zM152 464h97l20 124z" />
    <glyph glyph-name="five.numr" horiz-adv-x="339" 
d="M182 311q-58 0 -92.5 29t-35.5 78l84 15q7 -44 53 -44q28 0 46.5 18.5t18.5 46.5q0 21 -13.5 33.5t-37.5 12.5q-38 0 -68 -33l-64 14l67 219h218l-13 -78h-152l-25 -77q31 26 74 26q49 0 78 -29.5t29 -77.5q0 -67 -47 -110t-120 -43z" />
    <glyph glyph-name="six.numr" horiz-adv-x="360" 
d="M250 575q52 0 83.5 -31.5t31.5 -81.5q0 -64 -47.5 -107.5t-108.5 -43.5q-65 0 -104 42.5t-39 113.5q0 109 67 173t150 64q76 0 115 -42l-50 -58q-22 22 -69 22q-43 0 -74 -24t-42 -64q32 37 87 37zM207 389q25 0 44 17t24 43q5 25 -9 41t-40 16q-29 0 -49 -19t-20 -47
q0 -23 14 -37t36 -14z" />
    <glyph glyph-name="seven.numr" horiz-adv-x="310" 
d="M70 315q82 176 201 307h-192l12 78h283l-13 -78q-138 -158 -203 -307h-88z" />
    <glyph glyph-name="eight.numr" horiz-adv-x="346" 
d="M185 311q-55 0 -91.5 28t-36.5 76q0 37 23.5 66.5t60.5 40.5q-39 21 -39 68q0 46 42.5 80t103.5 34q50 0 80.5 -26.5t30.5 -65.5q0 -29 -17.5 -53.5t-45.5 -36.5q25 -8 39 -29.5t14 -49.5q0 -59 -48.5 -95.5t-115.5 -36.5zM224 557q23 0 38 12t15 32q0 16 -11 25.5
t-29 9.5q-24 0 -38.5 -13t-14.5 -33q0 -33 40 -33zM197 384q28 0 45.5 15t17.5 39q0 41 -49 41q-28 0 -46 -15t-18 -39q0 -19 13.5 -30t36.5 -11z" />
    <glyph glyph-name="nine.numr" horiz-adv-x="360" 
d="M197 440q-53 0 -84.5 31.5t-31.5 81.5q0 65 50.5 108t122.5 43q57 0 91 -41.5t34 -108.5q0 -114 -67.5 -178.5t-154.5 -64.5q-69 0 -111 42l50 58q25 -22 71 -22q42 0 73.5 24t42.5 64q-34 -37 -86 -37zM239 626q-27 0 -46.5 -18t-21.5 -46q-2 -23 12 -38t37 -15
q29 0 49.5 19t20.5 47q0 22 -14 36.5t-37 14.5z" />
    <glyph glyph-name="zero.sups" horiz-adv-x="375" 
d="M209 371q-66 0 -103 43t-37 116q0 102 56.5 168t145.5 66q65 0 101.5 -43t36.5 -115q0 -103 -56.5 -169t-143.5 -66zM221 449q45 0 70.5 41.5t25.5 109.5q0 86 -59 86q-45 0 -70.5 -41.5t-25.5 -109.5q0 -86 59 -86z" />
    <glyph glyph-name="one.sups" horiz-adv-x="230" 
d="M130 375l46 290q-53 -31 -90 -39l13 82q48 12 107 52h69l-61 -385h-84z" />
    <glyph glyph-name="two.sups" horiz-adv-x="339" 
d="M51 375l11 71l135 99q85 63 85 101q0 18 -12 29t-32 11q-27 0 -45 -21t-20 -55l-86 6q4 62 52.5 105t110.5 43q57 0 90.5 -30t33.5 -78q0 -43 -28.5 -81t-92.5 -80l-61 -42h151l-13 -78h-279z" />
    <glyph glyph-name="three.sups" horiz-adv-x="345" 
d="M192 371q-61 0 -97 31.5t-34 83.5l85 13q2 -23 18 -36.5t41 -13.5q30 0 49 17t19 44q0 20 -13.5 32.5t-36.5 12.5q-26 0 -46 -13l-26 61l105 79h-152l12 78h261l-12 -78l-101 -70q47 0 74 -25t27 -69q0 -65 -49 -106t-124 -41z" />
    <glyph glyph-name="four.sups" horiz-adv-x="371" 
d="M234 375l12 70h-190l12 79l223 236h96l-36 -236h45l-12 -79h-46l-12 -70h-92zM162 524h97l19 124z" />
    <glyph glyph-name="five.sups" horiz-adv-x="339" 
d="M192 371q-58 0 -93 29t-35 78l84 15q7 -44 53 -44q28 0 46.5 18.5t18.5 46.5q0 21 -13.5 33.5t-37.5 12.5q-39 0 -69 -33l-63 14l66 219h218l-13 -78h-152l-25 -77q32 26 75 26q49 0 78 -29.5t29 -77.5q0 -67 -47 -110t-120 -43z" />
    <glyph glyph-name="six.sups" horiz-adv-x="360" 
d="M259 635q52 0 83.5 -31.5t31.5 -81.5q0 -65 -50 -108t-123 -43q-57 0 -91.5 41.5t-34.5 108.5q0 114 67.5 178.5t154.5 64.5q69 0 110 -42l-49 -58q-24 22 -70 22q-43 0 -74 -24t-42 -64q34 37 87 37zM216 449q26 0 45 16.5t24 43.5q4 25 -10 41t-40 16q-29 0 -49 -19
t-20 -47q0 -23 14 -37t36 -14z" />
    <glyph glyph-name="seven.sups" horiz-adv-x="310" 
d="M79 375q84 178 201 307h-192l12 78h283l-13 -78q-139 -161 -203 -307h-88z" />
    <glyph glyph-name="eight.sups" horiz-adv-x="346" 
d="M195 371q-56 0 -92.5 28t-36.5 76q0 37 24 66t60 41q-39 21 -39 68q0 46 43 80t103 34q50 0 80.5 -26.5t30.5 -65.5q0 -29 -17.5 -53.5t-45.5 -36.5q25 -8 39 -29.5t14 -49.5q0 -59 -48 -95.5t-115 -36.5zM234 616q23 0 37.5 13t14.5 32q0 16 -10.5 25.5t-28.5 9.5
q-23 0 -38 -13t-15 -33q0 -15 11 -24.5t29 -9.5zM206 444q28 0 46 15t18 39q0 19 -13 30t-36 11q-28 0 -46 -15t-18 -39q0 -19 13 -30t36 -11z" />
    <glyph glyph-name="nine.sups" horiz-adv-x="360" 
d="M206 500q-53 0 -84.5 31.5t-31.5 81.5q0 65 50.5 108t122.5 43q57 0 91 -41.5t34 -108.5q0 -114 -67 -178.5t-154 -64.5q-69 0 -111 42l50 58q25 -22 71 -22q42 0 73 24t43 64q-35 -37 -87 -37zM248 686q-27 0 -46 -18t-21 -46q-2 -23 11.5 -38t37.5 -15q29 0 49 19
t20 47q0 22 -14 36.5t-37 14.5z" />
    <glyph glyph-name="three.subs.ss04" horiz-adv-x="336" 
d="M100 -174q-60 0 -96 33.5t-28 87.5l87 3q-4 -22 9.5 -37t38.5 -15q29 0 47.5 14.5t18.5 37.5q0 20 -14 31.5t-38 11.5h-28l10 70q7 -1 22 -1q26 0 43.5 14.5t19.5 36.5q2 18 -10 28.5t-34 10.5q-23 0 -40.5 -14.5t-19.5 -35.5l-79 5q7 45 50 78.5t99 33.5q51 0 83.5 -27
t32.5 -65q0 -35 -24 -62.5t-60 -35.5q33 -3 53 -24t20 -53q0 -54 -47 -90t-116 -36z" />
    <glyph glyph-name="three.dnom.ss04" horiz-adv-x="337" 
d="M127 -8q-60 0 -96.5 33.5t-28.5 87.5l87 3q-4 -22 10 -37t39 -15q28 0 46.5 14.5t18.5 37.5q0 20 -14 31.5t-38 11.5h-28l11 70q7 -1 22 -1q26 0 43.5 14.5t19.5 36.5q2 18 -10.5 28.5t-34.5 10.5q-23 0 -40 -14t-20 -36l-79 5q8 45 50.5 78.5t98.5 33.5q51 0 83.5 -27
t32.5 -65q0 -35 -24 -62.5t-60 -35.5q33 -3 53 -24t20 -53q0 -54 -46.5 -90t-115.5 -36z" />
    <glyph glyph-name="three.numr.ss04" horiz-adv-x="337" 
d="M178 317q-60 0 -96.5 33.5t-27.5 87.5l86 3q-3 -22 10.5 -37t38.5 -15q29 0 47.5 15t18.5 37q0 20 -14 31.5t-39 11.5h-27l10 70q7 -1 22 -1q26 0 43.5 14.5t19.5 36.5q2 18 -10.5 28.5t-34.5 10.5t-39.5 -14.5t-19.5 -35.5l-80 5q8 45 50.5 78.5t98.5 33.5q51 0 84 -27
t33 -65q0 -36 -24 -63t-61 -35q34 -3 54 -24t20 -53q0 -54 -47 -90t-116 -36z" />
    <glyph glyph-name="uni00B3.ss04" horiz-adv-x="337" 
d="M187 371q-60 0 -96.5 33.5t-28.5 87.5l87 3q-4 -22 10 -37t39 -15q29 0 47.5 15t18.5 37q0 20 -14 31.5t-39 11.5h-28l11 70q7 -1 22 -1q26 0 43.5 14.5t19.5 36.5q2 18 -10.5 28.5t-34.5 10.5q-23 0 -40 -14t-20 -36l-79 5q8 45 50.5 78.5t98.5 33.5q51 0 83.5 -27
t32.5 -65q0 -35 -24 -62.5t-60 -35.5q33 -3 53 -24t20 -53q0 -54 -46.5 -90t-115.5 -36z" />
    <glyph glyph-name="three.sups.ss04" horiz-adv-x="337" 
d="M187 371q-60 0 -96.5 33.5t-28.5 87.5l87 3q-4 -22 10 -37t39 -15q29 0 47.5 15t18.5 37q0 20 -14 31.5t-39 11.5h-28l11 70q7 -1 22 -1q26 0 43.5 14.5t19.5 36.5q2 18 -10.5 28.5t-34.5 10.5q-23 0 -40 -14t-20 -36l-79 5q8 45 50.5 78.5t98.5 33.5q51 0 83.5 -27
t32.5 -65q0 -35 -24 -62.5t-60 -35.5q33 -3 53 -24t20 -53q0 -54 -46.5 -90t-115.5 -36z" />
    <glyph glyph-name="bullet.case" horiz-adv-x="471" 
d="M237 142q-85 0 -143.5 58.5t-58.5 141.5t59 141.5t143 58.5q82 0 140 -58.5t58 -141.5t-58 -141.5t-140 -58.5z" />
    <glyph glyph-name="colon.case" horiz-adv-x="270" 
d="M123 594h133l-21 -132h-133zM64 222h133l-21 -132h-133z" />
    <glyph glyph-name="comma.tf" horiz-adv-x="625" 
d="M142 -125l107 257h150l-173 -257h-84z" />
    <glyph glyph-name="period.tf" horiz-adv-x="625" 
d="M217 132h134l-21 -132h-133z" />
    <glyph glyph-name="braceleft.case" horiz-adv-x="338" 
d="M200 -127q-56 0 -86 37.5t-21 94.5l33 209q7 45 -11 65t-62 20l18 108q44 0 68 19.5t31 64.5l33 210q9 57 51 94t97 37h62l-16 -104h-22q-55 0 -63 -57l-34 -208q-8 -47 -32 -71.5t-66 -38.5q37 -16 54 -39.5t10 -71.5l-34 -208q-8 -57 46 -57h22l-17 -104h-61z" />
    <glyph glyph-name="braceright.case" horiz-adv-x="338" 
d="M24 -127h-62l16 104h22q54 0 64 57l33 208q8 48 31.5 71.5t65.5 39.5q-36 15 -53 39t-10 71l34 208q8 57 -46 57h-21l16 104h61q56 0 86 -37t21 -94l-33 -210q-7 -45 11 -64.5t62 -19.5l-18 -108q-44 0 -68 -20t-31 -65l-33 -209q-9 -57 -51 -94.5t-97 -37.5z" />
    <glyph glyph-name="bracketleft.case" horiz-adv-x="318" 
d="M8 -134l152 961h226l-16 -102h-114l-120 -757h114l-16 -102h-226z" />
    <glyph glyph-name="bracketright.case" horiz-adv-x="318" 
d="M193 -134h-226l16 102h114l120 757h-114l16 102h227z" />
    <glyph glyph-name="parenleft.case" horiz-adv-x="292" 
d="M131 -157q-105 157 -105 382q0 329 259 590l76 -65q-215 -245 -215 -513q0 -182 81 -329z" />
    <glyph glyph-name="parenright.case" horiz-adv-x="292" 
d="M37 -157l-76 65q109 126 161.5 250.5t52.5 263.5q0 182 -81 328l96 65q51 -75 78 -175.5t27 -206.5q0 -327 -258 -590z" />
    <glyph glyph-name="emdash.case" horiz-adv-x="1000" 
d="M32 303l18 108h956l-18 -108h-956z" />
    <glyph glyph-name="endash.case" horiz-adv-x="500" 
d="M32 303l18 108h456l-18 -108h-456z" />
    <glyph glyph-name="hyphen.case" horiz-adv-x="376" 
d="M37 303l18 108h322l-17 -108h-323z" />
    <glyph glyph-name="uni00AD.case" horiz-adv-x="376" 
d="M37 303l18 108h322l-17 -108h-323z" />
    <glyph glyph-name="quotedblbase.ss05" horiz-adv-x="411" 
d="M17 132h147l-17 -110l-90 -135h-62l65 123h-62zM213 132h147l-17 -110l-90 -135h-62l65 123h-62z" />
    <glyph glyph-name="quotedblleft.ss05" horiz-adv-x="411" 
d="M217 463h-147l17 110l90 135h62l-64 -123h61zM413 463h-147l17 110l90 135h62l-65 -123h62z" />
    <glyph glyph-name="quotedblright.ss05" horiz-adv-x="411" 
d="M108 708h147l-17 -110l-90 -135h-62l65 123h-61zM304 708h147l-17 -110l-90 -135h-62l65 123h-62z" />
    <glyph glyph-name="quoteleft.ss05" horiz-adv-x="215" 
d="M217 463h-147l17 110l90 135h62l-64 -123h61z" />
    <glyph glyph-name="quoteright.ss05" horiz-adv-x="215" 
d="M108 708h147l-17 -110l-90 -135h-62l65 123h-61z" />
    <glyph glyph-name="quotesinglbase.ss05" horiz-adv-x="215" 
d="M17 132h147l-17 -110l-90 -135h-62l65 123h-62z" />
    <glyph glyph-name="space.tf" horiz-adv-x="625" 
 />
    <glyph glyph-name="percent.part" horiz-adv-x="376" 
d="M207 356q-64 0 -101 40.5t-37 105.5q0 89 55 147.5t139 58.5q64 0 101 -40t37 -106q0 -89 -55 -147.5t-139 -58.5zM221 442q38 0 60.5 31t22.5 80q0 69 -54 69q-38 0 -61 -30.5t-23 -80.5q0 -32 14.5 -50.5t40.5 -18.5z" />
    <glyph glyph-name="at.case" horiz-adv-x="913" 
d="M588 494h98l-40 -254q-4 -24 8 -37.5t32 -13.5q44 0 76.5 54.5t32.5 134.5q0 106 -72.5 169.5t-192.5 63.5q-161 0 -272.5 -103.5t-111.5 -260.5q0 -123 77 -198.5t206 -75.5q127 0 270 73l20 -101q-165 -70 -311 -70q-165 0 -265.5 100t-100.5 259q0 132 68.5 241.5
t184 171.5t251.5 62q157 0 254.5 -90t97.5 -230q0 -131 -67 -214t-166 -83q-88 0 -110 64q-49 -62 -140 -62q-75 0 -118 45t-43 122q0 103 63.5 170.5t158.5 68.5q73 0 106 -48zM441 179q54 0 89 39t35 100q0 44 -23.5 70.5t-63.5 26.5q-54 0 -89.5 -39.5t-35.5 -99.5
q0 -44 24 -70.5t64 -26.5z" />
    <glyph glyph-name="caroncomb.alt" horiz-adv-x="0" 
d="M-151 560l61 186h121l-109 -186h-73z" />
    </font>
</defs>
</svg>
